  0
SECTION
  2
HEADER
  9
$ACADVER
  1
AC1004
  9
$INSBASE
 10
0.0
 20
0.0
  9
$EXTMIN
 10
1.000000000000000E+20
 20
1.000000000000000E+20
  9
$EXTMAX
 10
-1.000000000000000E+20
 20
-1.000000000000000E+20
  9
$LIMMIN
 10
0.0
 20
0.0
  9
$LIMMAX
 10
12.0
 20
9.0
  9
$ORTHOMODE
 70
     0
  9
$REGENMODE
 70
     1
  9
$FILLMODE
 70
     1
  9
$QTEXTMODE
 70
     0
  9
$DRAGMODE
 70
     2
  9
$LTSCALE
 40
1.0
  9
$OSMODE
 70
    37
  9
$ATTMODE
 70
     1
  9
$TEXTSIZE
 40
0.2
  9
$TRACEWID
 40
0.05
  9
$TEXTSTYLE
  7
STANDARD
  9
$CLAYER
  8
0
  9
$CELTYPE
  6
BYLAYER
  9
$CECOLOR
 62
   256
  9
$DIMSCALE
 40
1.0
  9
$DIMASZ
 40
0.125
  9
$DIMEXO
 40
0.03125
  9
$DIMDLI
 40
0.38
  9
$DIMRND
 40
0.0
  9
$DIMDLE
 40
0.0
  9
$DIMEXE
 40
0.0625
  9
$DIMTP
 40
0.0
  9
$DIMTM
 40
0.0
  9
$DIMTXT
 40
0.125
  9
$DIMCEN
 40
0.09
  9
$DIMTSZ
 40
0.0
  9
$DIMTOL
 70
     0
  9
$DIMLIM
 70
     0
  9
$DIMTIH
 70
     1
  9
$DIMTOH
 70
     1
  9
$DIMSE1
 70
     0
  9
$DIMSE2
 70
     0
  9
$DIMTAD
 70
     0
  9
$DIMZIN
 70
     8
  9
$DIMBLK
  1

  9
$DIMASO
 70
     1
  9
$DIMSHO
 70
     1
  9
$DIMPOST
  1

  9
$DIMAPOST
  1

  9
$DIMALT
 70
     0
  9
$DIMALTD
 70
     2
  9
$DIMALTF
 40
25.4
  9
$DIMLFAC
 40
1.0
  9
$DIMTOFL
 70
     0
  9
$DIMTVP
 40
0.0
  9
$DIMTIX
 70
     0
  9
$DIMSOXD
 70
     0
  9
$DIMSAH
 70
     0
  9
$DIMBLK1
  1

  9
$DIMBLK2
  1

  9
$LUNITS
 70
     2
  9
$LUPREC
 70
     4
  9
$SKETCHINC
 40
0.1
  9
$FILLETRAD
 40
0.5
  9
$AUNITS
 70
     0
  9
$AUPREC
 70
     0
  9
$MENU
  1
.
  9
$ELEVATION
 40
0.0
  9
$THICKNESS
 40
0.0
  9
$LIMCHECK
 70
     0
  9
$CHAMFERA
 40
0.0
  9
$CHAMFERB
 40
0.0
  9
$SKPOLY
 70
     0
  9
$TDCREATE
 40
2457918.939415046
  9
$TDUPDATE
 40
2457918.939415093
  9
$TDINDWG
 40
0.0000000116
  9
$TDUSRTIMER
 40
0.0000000116
  9
$USRTIMER
 70
     1
  9
$ANGBASE
 50
0.0
  9
$ANGDIR
 70
     0
  9
$PDMODE
 70
     0
  9
$PDSIZE
 40
0.0
  9
$PLINEWID
 40
0.0
  9
$COORDS
 70
     1
  9
$SPLFRAME
 70
     0
  9
$SPLINETYPE
 70
     6
  9
$SPLINESEGS
 70
     8
  9
$ATTDIA
 70
     0
  9
$ATTREQ
 70
     1
  9
$SURFTAB1
 70
     6
  9
$SURFTAB2
 70
     6
  9
$SURFTYPE
 70
     6
  9
$SURFU
 70
     6
  9
$SURFV
 70
     6
  9
$UCSNAME
  2

  9
$UCSORG
 10
0.0
 20
0.0
 30
0.0
  9
$UCSXDIR
 10
1.0
 20
0.0
 30
0.0
  9
$UCSYDIR
 10
0.0
 20
1.0
 30
0.0
  9
$USERI1
 70
     0
  9
$USERI2
 70
     0
  9
$USERI3
 70
     0
  9
$USERI4
 70
     0
  9
$USERI5
 70
     0
  9
$USERR1
 40
0.0
  9
$USERR2
 40
0.0
  9
$USERR3
 40
0.0
  9
$USERR4
 40
0.0
  9
$USERR5
 40
0.0
  9
$WORLDVIEW
 70
     1
  0
ENDSEC
  0
SECTION
  2
TABLES
  0
TABLE
  2
LTYPE
 70
    52
  0
LTYPE
  2
CONTINUOUS
 70
     0
  3
Solid line
 72
    65
 73
     0
 40
0.0
  0
LTYPE
  2
FENCELINE2
 70
     0
  3
Fenceline square ----[]-----[]----[]-----[]----[]---
 72
    65
 73
     4
 40
36.83
 49
6.35
 49
-2.54
 49
-2.54
 49
25.4
  0
LTYPE
  2
GAS_LINE
 70
     0
  3
Gas line ----GAS----GAS----GAS----GAS----GAS----GAS--
 72
    65
 73
     3
 40
24.13
 49
12.7
 49
-5.08
 49
-6.35
  0
LTYPE
  2
HIDDEN
 70
     0
  3
Hidden __ __ __ __ __ __ __ __ __ __ __ __ __ __
 72
    65
 73
     2
 40
9.524999999999999
 49
6.35
 49
-3.175
  0
LTYPE
  2
HIDDEN2
 70
     0
  3
Hidden (.5x) _ _ _ _ _ _ _ _ _ _ _ _ _ _ _ _ _ 
 72
    65
 73
     2
 40
4.762499999999999
 49
3.175
 49
-1.5875
  0
LTYPE
  2
HIDDENX2
 70
     0
  3
Hidden (2x) ____ ____ ____ ____ ____ ____ ____ 
 72
    65
 73
     2
 40
19.05
 49
12.7
 49
-6.35
  0
LTYPE
  2
HOT_WATER_SUPPLY
 70
     0
  3
Hot water supply ---- HW ---- HW ---- HW ----
 72
    65
 73
     3
 40
22.86
 49
12.7
 49
-5.08
 49
-5.08
  0
LTYPE
  2
PHANTOM
 70
     0
  3
Phantom ______  __  __  ______  __  __  ______ 
 72
    65
 73
     6
 40
63.50000000000001
 49
31.75
 49
-6.35
 49
6.35
 49
-6.35
 49
6.35
 49
-6.35
  0
LTYPE
  2
PHANTOM2
 70
     0
  3
Phantom (.5x) ___ _ _ ___ _ _ ___ _ _ ___ _ _
 72
    65
 73
     6
 40
31.75
 49
15.875
 49
-3.175
 49
3.175
 49
-3.175
 49
3.175
 49
-3.175
  0
LTYPE
  2
ACAD_ISO02W100
 70
     0
  3
ISO dash __ __ __ __ __ __ __ __ __ __ __ __ __
 72
    65
 73
     2
 40
15.0
 49
12.0
 49
-3.0
  0
LTYPE
  2
ACAD_ISO03W100
 70
     0
  3
ISO dash space __    __    __    __    __    __
 72
    65
 73
     2
 40
30.0
 49
12.0
 49
-18.0
  0
LTYPE
  2
ACAD_ISO04W100
 70
     0
  3
ISO long-dash dot ____ . ____ . ____ . ____ . _
 72
    65
 73
     4
 40
30.0
 49
24.0
 49
-3.0
 49
0.0
 49
-3.0
  0
LTYPE
  2
ACAD_ISO05W100
 70
     0
  3
ISO long-dash double-dot ____ .. ____ .. ____ . 
 72
    65
 73
     6
 40
33.0
 49
24.0
 49
-3.0
 49
0.0
 49
-3.0
 49
0.0
 49
-3.0
  0
LTYPE
  2
ACAD_ISO06W100
 70
     0
  3
ISO long-dash triple-dot ____ ... ____ ... ____
 72
    65
 73
     8
 40
36.0
 49
24.0
 49
-3.0
 49
0.0
 49
-3.0
 49
0.0
 49
-3.0
 49
0.0
 49
-3.0
  0
LTYPE
  2
ACAD_ISO07W100
 70
     0
  3
ISO dot . . . . . . . . . . . . . . . . . . . . 
 72
    65
 73
     2
 40
3.0
 49
0.0
 49
-3.0
  0
LTYPE
  2
ACAD_ISO08W100
 70
     0
  3
ISO long-dash short-dash ____ __ ____ __ ____ _
 72
    65
 73
     4
 40
36.0
 49
24.0
 49
-3.0
 49
6.0
 49
-3.0
  0
LTYPE
  2
ACAD_ISO09W100
 70
     0
  3
ISO long-dash double-short-dash ____ __ __ ____
 72
    65
 73
     6
 40
45.0
 49
24.0
 49
-3.0
 49
6.0
 49
-3.0
 49
6.0
 49
-3.0
  0
LTYPE
  2
BORDER2
 70
     0
  3
Border (.5x) __.__.__.__.__.__.__.__.__.__.__.
 72
    65
 73
     6
 40
22.225
 49
6.35
 49
-3.175
 49
6.35
 49
-3.175
 49
0.0
 49
-3.175
  0
LTYPE
  2
BORDERX2
 70
     0
  3
Border (2x) ____  ____  .  ____  ____  .  ___
 72
    65
 73
     6
 40
88.89999999999999
 49
25.4
 49
-12.7
 49
25.4
 49
-12.7
 49
0.0
 49
-12.7
  0
LTYPE
  2
CENTER
 70
     0
  3
Center ____ _ ____ _ ____ _ ____ _ ____ _ ____
 72
    65
 73
     4
 40
50.8
 49
31.75
 49
-6.35
 49
6.35
 49
-6.35
  0
LTYPE
  2
CENTER2
 70
     0
  3
Center (.5x) ___ _ ___ _ ___ _ ___ _ ___ _ ___
 72
    65
 73
     4
 40
28.575
 49
19.05
 49
-3.175
 49
3.175
 49
-3.175
  0
LTYPE
  2
CENTERX2
 70
     0
  3
Center (2x) ________  __  ________  __  _____
 72
    65
 73
     4
 40
101.6
 49
63.5
 49
-12.7
 49
12.7
 49
-12.7
  0
LTYPE
  2
CUTLEFT
 70
     0
  3
G41 ----\----\----\----
 72
    65
 73
     2
 40
10.16
 49
5.08
 49
5.08
  0
LTYPE
  2
CUTLEFT2
 70
     0
  3
G41 reversed----/----/----/----
 72
    65
 73
     2
 40
10.16
 49
5.08
 49
5.08
  0
LTYPE
  2
CUTRIGHT
 70
     0
  3
G42 ----/----/-----/---
 72
    65
 73
     2
 40
10.16
 49
5.08
 49
5.08
  0
LTYPE
  2
ACAD_ISO10W100
 70
     0
  3
ISO dash dot __ . __ . __ . __ . __ . __ . __ . 
 72
    65
 73
     4
 40
18.0
 49
12.0
 49
-3.0
 49
0.0
 49
-3.0
  0
LTYPE
  2
ACAD_ISO11W100
 70
     0
  3
ISO double-dash dot __ __ . __ __ . __ __ . __ _
 72
    65
 73
     6
 40
33.0
 49
12.0
 49
-3.0
 49
12.0
 49
-3.0
 49
0.0
 49
-3.0
  0
LTYPE
  2
ACAD_ISO12W100
 70
     0
  3
ISO dash double-dot __ . . __ . . __ . . __ . . 
 72
    65
 73
     6
 40
21.0
 49
12.0
 49
-3.0
 49
0.0
 49
-3.0
 49
0.0
 49
-3.0
  0
LTYPE
  2
ACAD_ISO13W100
 70
     0
  3
ISO double-dash double-dot __ __ . . __ __ . . _
 72
    65
 73
     8
 40
36.0
 49
12.0
 49
-3.0
 49
12.0
 49
-3.0
 49
0.0
 49
-3.0
 49
0.0
 49
-3.0
  0
LTYPE
  2
ACAD_ISO14W100
 70
     0
  3
ISO dash triple-dot __ . . . __ . . . __ . . . _
 72
    65
 73
     8
 40
24.0
 49
12.0
 49
-3.0
 49
0.0
 49
-3.0
 49
0.0
 49
-3.0
 49
0.0
 49
-3.0
  0
LTYPE
  2
ACAD_ISO15W100
 70
     0
  3
ISO double-dash triple-dot __ __ . . . __ __ . .
 72
    65
 73
    10
 40
39.0
 49
12.0
 49
-3.0
 49
12.0
 49
-3.0
 49
0.0
 49
-3.0
 49
0.0
 49
-3.0
 49
0.0
 49
-3.0
  0
LTYPE
  2
BATTING
 70
     0
  3
Batting SSSSSSSSSSSSSSSSSSSSSSSSSSSSSSSSSSSSSSSSSSSSSSS
 72
    65
 73
     4
 40
10.16254
 49
0.00254
 49
-2.54
 49
-5.08
 49
-2.54
  0
LTYPE
  2
BORDER
 70
     0
  3
Border __ __ . __ __ . __ __ . __ __ . __ __ .
 72
    65
 73
     6
 40
44.45
 49
12.7
 49
-6.35
 49
12.7
 49
-6.35
 49
0.0
 49
-6.35
  0
LTYPE
  2
DIVIDE2
 70
     0
  3
Divide (.5x) __..__..__..__..__..__..__..__.._
 72
    65
 73
     6
 40
15.875
 49
6.35
 49
-3.175
 49
0.0
 49
-3.175
 49
0.0
 49
-3.175
  0
LTYPE
  2
DIVIDEX2
 70
     0
  3
Divide (2x) ________  .  .  ________  .  .  _
 72
    65
 73
     6
 40
63.5
 49
25.4
 49
-12.7
 49
0.0
 49
-12.7
 49
0.0
 49
-12.7
  0
LTYPE
  2
DOT
 70
     0
  3
Dot . . . . . . . . . . . . . . . . . . . . . . . .
 72
    65
 73
     2
 40
6.35
 49
0.0
 49
-6.35
  0
LTYPE
  2
DOT2
 70
     0
  3
Dot (.5x) ........................................
 72
    65
 73
     2
 40
3.175
 49
0.0
 49
-3.175
  0
LTYPE
  2
DOTX2
 70
     0
  3
Dot (2x) .  .  .  .  .  .  .  .  .  .  .  .  .  .
 72
    65
 73
     2
 40
12.7
 49
0.0
 49
-12.7
  0
LTYPE
  2
DRAINAGE
 70
     0
  3
Drainage ---->---->---->----
 72
    65
 73
     2
 40
10.16
 49
5.08
 49
5.08
  0
LTYPE
  2
DRAINAGE2
 70
     0
  3
Drainage reversed----<----<----<----
 72
    65
 73
     2
 40
10.16
 49
5.08
 49
5.08
  0
LTYPE
  2
FENCELINE1
 70
     0
  3
Fenceline circle ----0-----0----0-----0----0-----0--
 72
    65
 73
     4
 40
36.83
 49
6.35
 49
-2.54
 49
-2.54
 49
25.4
  0
LTYPE
  2
CUTRIGHT2
 70
     0
  3
G42 reversed----\----\----\----
 72
    65
 73
     2
 40
10.16
 49
5.08
 49
5.08
  0
LTYPE
  2
DASHDOT
 70
     0
  3
Dash dot __ . __ . __ . __ . __ . __ . __ . __
 72
    65
 73
     4
 40
25.4
 49
12.7
 49
-6.35
 49
0.0
 49
-6.35
  0
LTYPE
  2
DASHDOT2
 70
     0
  3
Dash dot (.5x) _._._._._._._._._._._._._._._.
 72
    65
 73
     4
 40
12.7
 49
6.35
 49
-3.175
 49
0.0
 49
-3.175
  0
LTYPE
  2
DASHDOTX2
 70
     0
  3
Dash dot (2x) ____  .  ____  .  ____  .  ___
 72
    65
 73
     4
 40
50.8
 49
25.4
 49
-12.7
 49
0.0
 49
-12.7
  0
LTYPE
  2
DASHED
 70
     0
  3
Dashed __ __ __ __ __ __ __ __ __ __ __ __ __ _
 72
    65
 73
     2
 40
19.05
 49
12.7
 49
-6.35
  0
LTYPE
  2
DASHED2
 70
     0
  3
Dashed (.5x) _ _ _ _ _ _ _ _ _ _ _ _ _ _ _ _ _ 
 72
    65
 73
     2
 40
9.524999999999999
 49
6.35
 49
-3.175
  0
LTYPE
  2
DASHEDX2
 70
     0
  3
Dashed (2x) ____  ____  ____  ____  ____  ___
 72
    65
 73
     2
 40
38.09999999999999
 49
25.4
 49
-12.7
  0
LTYPE
  2
DIVIDE
 70
     0
  3
Divide ____ . . ____ . . ____ . . ____ . . ____
 72
    65
 73
     6
 40
31.75
 49
12.7
 49
-6.35
 49
0.0
 49
-6.35
 49
0.0
 49
-6.35
  0
LTYPE
  2
PHANTOMX2
 70
     0
  3
Phantom (2x) ____________    ____    ____   _
 72
    65
 73
     6
 40
127.0
 49
63.5
 49
-12.7
 49
12.7
 49
-12.7
 49
12.7
 49
-12.7
  0
LTYPE
  2
TRACKS
 70
     0
  3
Tracks -|-|-|-|-|-|-|-|-|-|-|-|-|-|-|-|-|-|-|-|-|-|-|-|-
 72
    65
 73
     2
 40
7.62
 49
3.81
 49
3.81
  0
LTYPE
  2
ZIGZAG
 70
     0
  3
Zig zag /\/\/\/\/\/\/\/\/\/\/\/\/\/\/\/\/\/\/\/\/\/\/\/
 72
    65
 73
     4
 40
20.32254
 49
0.00254
 49
-5.08
 49
-10.16
 49
-5.08
  0
ENDTAB
  0
TABLE
  2
LAYER
 70
     1
  0
LAYER
  2
0
 70
     0
 62
     7
  6
CONTINUOUS
  0
ENDTAB
  0
TABLE
  2
STYLE
 70
    16
  0
STYLE
  2
STANDARD
 70
     0
 40
0.0
 41
1.0
 50
0.0
 71
     0
 42
0.2
  3
txt
  4

  0
STYLE
  2
TEXTSTYLE0
 70
     0
 40
0.0
 41
1.0
 50
0.0
 71
     0
 42
0.2
  3
ltypeshp.shx
  4

  0
STYLE
  2
TEXTSTYLE1
 70
     0
 40
0.0
 41
1.0
 50
0.0
 71
     0
 42
0.2
  3
STANDARD
  4

  0
STYLE
  2
TEXTSTYLE2
 70
     0
 40
0.0
 41
1.0
 50
0.0
 71
     0
 42
0.2
  3
STANDARD
  4

  0
STYLE
  2
TEXTSTYLE3
 70
     0
 40
0.0
 41
1.0
 50
0.0
 71
     0
 42
0.2
  3
qcadshp.shx
  4

  0
STYLE
  2
TEXTSTYLE4
 70
     0
 40
0.0
 41
1.0
 50
0.0
 71
     0
 42
0.2
  3
qcadshp.shx
  4

  0
STYLE
  2
TEXTSTYLE5
 70
     0
 40
0.0
 41
1.0
 50
0.0
 71
     0
 42
0.2
  3
qcadshp.shx
  4

  0
STYLE
  2
TEXTSTYLE6
 70
     0
 40
0.0
 41
1.0
 50
0.0
 71
     0
 42
0.2
  3
ltypeshp.shx
  4

  0
STYLE
  2
TEXTSTYLE7
 70
     0
 40
0.0
 41
1.0
 50
0.0
 71
     0
 42
0.2
  3
ltypeshp.shx
  4

  0
STYLE
  2
TEXTSTYLE8
 70
     0
 40
0.0
 41
1.0
 50
0.0
 71
     0
 42
0.2
  3
qcadshp.shx
  4

  0
STYLE
  2
TEXTSTYLE9
 70
     0
 40
0.0
 41
1.0
 50
0.0
 71
     0
 42
0.2
  3
qcadshp.shx
  4

  0
STYLE
  2
TEXTSTYLE10
 70
     0
 40
0.0
 41
1.0
 50
0.0
 71
     0
 42
0.2
  3
ltypeshp.shx
  4

  0
STYLE
  2
TEXTSTYLE11
 70
     0
 40
0.0
 41
1.0
 50
0.0
 71
     0
 42
0.2
  3
qcadshp.shx
  4

  0
STYLE
  2
TEXTSTYLE12
 70
     0
 40
0.0
 41
1.0
 50
0.0
 71
     0
 42
0.2
  3
ltypeshp.shx
  4

  0
STYLE
  2
TEXTSTYLE13
 70
     0
 40
0.0
 41
1.0
 50
0.0
 71
     0
 42
0.2
  3
ltypeshp.shx
  4

  0
STYLE
  2
TEXTSTYLE14
 70
     0
 40
0.0
 41
1.0
 50
0.0
 71
     0
 42
0.2
  3
ltypeshp.shx
  4

  0
ENDTAB
  0
TABLE
  2
VIEW
 70
     0
  0
ENDTAB
  0
ENDSEC
  0
SECTION
  2
BLOCKS
  0
ENDSEC
  0
SECTION
  2
ENTITIES
  0
POLYLINE
  8
0
 62
   178
 66
     1
  0
VERTEX
  8
0
 62
   178
 10
2.617987505832404
 20
1.988603657595617
  0
VERTEX
  8
0
 62
   178
 10
2.593061648743648
 20
1.987937450729819
  0
VERTEX
  8
0
 62
   178
 10
2.567565147341711
 20
1.985889785211149
  0
VERTEX
  8
0
 62
   178
 10
2.541517507888209
 20
1.982510321948195
  0
VERTEX
  8
0
 62
   178
 10
2.514938236644756
 20
1.977848721849542
  0
VERTEX
  8
0
 62
   178
 10
2.487846839872969
 20
1.971954645823776
  0
VERTEX
  8
0
 62
   178
 10
2.460262823834463
 20
1.964877754779485
  0
VERTEX
  8
0
 62
   178
 10
2.432205694790854
 20
1.956667709625255
  0
VERTEX
  8
0
 62
   178
 10
2.403694959003757
 20
1.947374171269673
  0
VERTEX
  8
0
 62
   178
 10
2.374750122734788
 20
1.937046800621326
  0
VERTEX
  8
0
 62
   178
 10
2.345390692245562
 20
1.925735258588798
  0
VERTEX
  8
0
 62
   178
 10
2.315636173797696
 20
1.913489206080679
  0
VERTEX
  8
0
 62
   178
 10
2.285506073652804
 20
1.900358304005553
  0
VERTEX
  8
0
 62
   178
 10
2.255019898072502
 20
1.886392213272009
  0
VERTEX
  8
0
 62
   178
 10
2.224197153318407
 20
1.871640594788631
  0
VERTEX
  8
0
 62
   178
 10
2.193057345652133
 20
1.856153109464007
  0
VERTEX
  8
0
 62
   178
 10
2.161619981335296
 20
1.839979418206723
  0
VERTEX
  8
0
 62
   178
 10
2.129904566629512
 20
1.823169181925366
  0
VERTEX
  8
0
 62
   178
 10
2.097930607796396
 20
1.805772061528522
  0
VERTEX
  8
0
 62
   178
 10
2.065717611097564
 20
1.787837717924778
  0
VERTEX
  8
0
 62
   178
 10
2.033285082794631
 20
1.769415812022721
  0
VERTEX
  8
0
 62
   178
 10
2.000652529149213
 20
1.750556004730937
  0
VERTEX
  8
0
 62
   178
 10
1.967839456422927
 20
1.731307956958013
  0
VERTEX
  8
0
 62
   178
 10
1.934865370877386
 20
1.711721329612535
  0
VERTEX
  8
0
 62
   178
 10
1.901749778774207
 20
1.691845783603089
  0
SEQEND
  8
0
 62
   178
  0
POLYLINE
  8
0
 62
   178
 66
     1
  0
VERTEX
  8
0
 62
   178
 10
1.901749778774207
 20
1.691845783603089
  0
VERTEX
  8
0
 62
   178
 10
1.868529714586685
 20
1.671714694527618
  0
VERTEX
  8
0
 62
   178
 10
1.835249513802225
 20
1.651359291777652
  0
VERTEX
  8
0
 62
   178
 10
1.801939685667859
 20
1.630826010493175
  0
VERTEX
  8
0
 62
   178
 10
1.768630739430619
 20
1.610161285814172
  0
VERTEX
  8
0
 62
   178
 10
1.735353184337536
 20
1.589411552880624
  0
VERTEX
  8
0
 62
   178
 10
1.702137529635644
 20
1.568623246832515
  0
VERTEX
  8
0
 62
   178
 10
1.669014284571972
 20
1.547842802809829
  0
VERTEX
  8
0
 62
   178
 10
1.636013958393555
 20
1.52711665595255
  0
VERTEX
  8
0
 62
   178
 10
1.603167060347422
 20
1.50649124140066
  0
VERTEX
  8
0
 62
   178
 10
1.570504099680606
 20
1.486012994294143
  0
VERTEX
  8
0
 62
   178
 10
1.53805558564014
 20
1.465728349772983
  0
VERTEX
  8
0
 62
   178
 10
1.505852027473054
 20
1.445683742977162
  0
VERTEX
  8
0
 62
   178
 10
1.473923934426382
 20
1.425925609046665
  0
VERTEX
  8
0
 62
   178
 10
1.442301815747154
 20
1.406500383121475
  0
VERTEX
  8
0
 62
   178
 10
1.411016180682403
 20
1.387454500341575
  0
VERTEX
  8
0
 62
   178
 10
1.38009753847916
 20
1.368834395846949
  0
VERTEX
  8
0
 62
   178
 10
1.349576398384457
 20
1.350686504777579
  0
VERTEX
  8
0
 62
   178
 10
1.319483269645327
 20
1.33305726227345
  0
VERTEX
  8
0
 62
   178
 10
1.289848661508801
 20
1.315993103474544
  0
VERTEX
  8
0
 62
   178
 10
1.26070308322191
 20
1.299540463520846
  0
VERTEX
  8
0
 62
   178
 10
1.232077044031688
 20
1.283745777552338
  0
VERTEX
  8
0
 62
   178
 10
1.204001053185166
 20
1.268655480709005
  0
VERTEX
  8
0
 62
   178
 10
1.176505619929375
 20
1.254316008130829
  0
VERTEX
  8
0
 62
   178
 10
1.149621253511347
 20
1.240773794957793
  0
SEQEND
  8
0
 62
   178
  0
POLYLINE
  8
0
 62
   178
 66
     1
  0
VERTEX
  8
0
 62
   178
 10
1.149621253511347
 20
1.240773794957793
  0
VERTEX
  8
0
 62
   178
 10
1.135405171539901
 20
1.233519168170929
  0
VERTEX
  8
0
 62
   178
 10
1.121261599035061
 20
1.225857119188882
  0
VERTEX
  8
0
 62
   178
 10
1.107188684052176
 20
1.217812348738832
  0
VERTEX
  8
0
 62
   178
 10
1.093184574646596
 20
1.209409557547958
  0
VERTEX
  8
0
 62
   178
 10
1.079247418873668
 20
1.200673446343437
  0
VERTEX
  8
0
 62
   178
 10
1.065375364788742
 20
1.191628715852449
  0
VERTEX
  8
0
 62
   178
 10
1.051566560447167
 20
1.182300066802172
  0
VERTEX
  8
0
 62
   178
 10
1.03781915390429
 20
1.172712199919785
  0
VERTEX
  8
0
 62
   178
 10
1.024131293215462
 20
1.162889815932467
  0
VERTEX
  8
0
 62
   178
 10
1.010501126436029
 20
1.152857615567396
  0
VERTEX
  8
0
 62
   178
 10
0.996926801621342
 20
1.142640299551752
  0
VERTEX
  8
0
 62
   178
 10
0.9834064668267486
 20
1.132262568612712
  0
VERTEX
  8
0
 62
   178
 10
0.9699382701075979
 20
1.121749123477456
  0
VERTEX
  8
0
 62
   178
 10
0.9565203595192383
 20
1.111124664873162
  0
VERTEX
  8
0
 62
   178
 10
0.9431508831170188
 20
1.100413893527008
  0
VERTEX
  8
0
 62
   178
 10
0.9298279889562877
 20
1.089641510166174
  0
VERTEX
  8
0
 62
   178
 10
0.9165498250923942
 20
1.078832215517838
  0
VERTEX
  8
0
 62
   178
 10
0.9033145395806867
 20
1.06801071030918
  0
VERTEX
  8
0
 62
   178
 10
0.890120280476514
 20
1.057201695267376
  0
VERTEX
  8
0
 62
   178
 10
0.8769651958352248
 20
1.046429871119607
  0
VERTEX
  8
0
 62
   178
 10
0.8638474337121678
 20
1.035719938593051
  0
VERTEX
  8
0
 62
   178
 10
0.8507651421626917
 20
1.025096598414887
  0
VERTEX
  8
0
 62
   178
 10
0.8377164692421452
 20
1.014584551312292
  0
VERTEX
  8
0
 62
   178
 10
0.8246995630058768
 20
1.004208498012447
  0
SEQEND
  8
0
 62
   178
  0
POLYLINE
  8
0
 62
   178
 66
     1
  0
VERTEX
  8
0
 62
   178
 10
0.8246995630058768
 20
1.004208498012447
  0
VERTEX
  8
0
 62
   178
 10
0.8117187783749014
 20
0.9940092420497023
  0
VERTEX
  8
0
 62
   178
 10
0.7987830977284087
 20
0.9840239927180595
  0
VERTEX
  8
0
 62
   178
 10
0.7858976103090125
 20
0.9742720639977375
  0
VERTEX
  8
0
 62
   178
 10
0.7730674053593257
 20
0.9647727698689548
  0
VERTEX
  8
0
 62
   178
 10
0.7602975721219609
 20
0.9555454243119293
  0
VERTEX
  8
0
 62
   178
 10
0.7475931998395318
 20
0.9466093413068796
  0
VERTEX
  8
0
 62
   178
 10
0.734959377754651
 20
0.9379838348340245
  0
VERTEX
  8
0
 62
   178
 10
0.7224011951099315
 20
0.9296882188735819
  0
VERTEX
  8
0
 62
   178
 10
0.7099237411479867
 20
0.9217418074057703
  0
VERTEX
  8
0
 62
   178
 10
0.6975321051114294
 20
0.9141639144108082
  0
VERTEX
  8
0
 62
   178
 10
0.6852313762428728
 20
0.9069738538689137
  0
VERTEX
  8
0
 62
   178
 10
0.6730266437849298
 20
0.9001909397603056
  0
VERTEX
  8
0
 62
   178
 10
0.6609229969802136
 20
0.8938344860652022
  0
VERTEX
  8
0
 62
   178
 10
0.6489255250713372
 20
0.8879238067638218
  0
VERTEX
  8
0
 62
   178
 10
0.6370393173009136
 20
0.8824782158363825
  0
VERTEX
  8
0
 62
   178
 10
0.6252694629115557
 20
0.8775170272631031
  0
VERTEX
  8
0
 62
   178
 10
0.6136210511458768
 20
0.873059555024202
  0
VERTEX
  8
0
 62
   178
 10
0.60209917124649
 20
0.8691251130998972
  0
VERTEX
  8
0
 62
   178
 10
0.5907089124560081
 20
0.8657330154704074
  0
VERTEX
  8
0
 62
   178
 10
0.5794553640170443
 20
0.862902576115951
  0
VERTEX
  8
0
 62
   178
 10
0.5683436151722118
 20
0.8606531090167463
  0
VERTEX
  8
0
 62
   178
 10
0.5573787551641234
 20
0.8590039281530117
  0
VERTEX
  8
0
 62
   178
 10
0.5465658732353921
 20
0.8579743475049656
  0
VERTEX
  8
0
 62
   178
 10
0.5359100586286311
 20
0.8575836810528263
  0
SEQEND
  8
0
 62
   178
  0
POLYLINE
  8
0
 62
   178
 66
     1
  0
VERTEX
  8
0
 62
   178
 10
0.5359100586286311
 20
0.8575836810528263
  0
VERTEX
  8
0
 62
   178
 10
0.53120348159503
 20
0.8576673453482754
  0
VERTEX
  8
0
 62
   178
 10
0.5264380448676138
 20
0.8579733539832455
  0
VERTEX
  8
0
 62
   178
 10
0.52161577782357
 20
0.8584981876148233
  0
VERTEX
  8
0
 62
   178
 10
0.5167387098400864
 20
0.859238326900095
  0
VERTEX
  8
0
 62
   178
 10
0.5118088702943503
 20
0.8601902524961467
  0
VERTEX
  8
0
 62
   178
 10
0.5068282885635491
 20
0.8613504450600649
  0
VERTEX
  8
0
 62
   178
 10
0.5017989940248708
 20
0.8627153852489357
  0
VERTEX
  8
0
 62
   178
 10
0.4967230160555025
 20
0.8642815537198455
  0
VERTEX
  8
0
 62
   178
 10
0.4916023840326318
 20
0.8660454311298803
  0
VERTEX
  8
0
 62
   178
 10
0.4864391273334464
 20
0.8680034981361268
  0
VERTEX
  8
0
 62
   178
 10
0.4812352753351336
 20
0.8701522353956709
  0
VERTEX
  8
0
 62
   178
 10
0.4759928574148811
 20
0.8724881235655992
  0
VERTEX
  8
0
 62
   178
 10
0.4707139029498763
 20
0.8750076433029979
  0
VERTEX
  8
0
 62
   178
 10
0.4654004413173069
 20
0.8777072752649528
  0
VERTEX
  8
0
 62
   178
 10
0.4600545018943603
 20
0.8805835001085509
  0
VERTEX
  8
0
 62
   178
 10
0.454678114058224
 20
0.8836327984908781
  0
VERTEX
  8
0
 62
   178
 10
0.4492733071860857
 20
0.8868516510690206
  0
VERTEX
  8
0
 62
   178
 10
0.4438421106551326
 20
0.8902365385000648
  0
VERTEX
  8
0
 62
   178
 10
0.4383865538425525
 20
0.8937839414410969
  0
VERTEX
  8
0
 62
   178
 10
0.432908666125533
 20
0.8974903405492033
  0
VERTEX
  8
0
 62
   178
 10
0.4274104768812614
 20
0.9013522164814703
  0
VERTEX
  8
0
 62
   178
 10
0.4218940154869253
 20
0.905366049894984
  0
VERTEX
  8
0
 62
   178
 10
0.4163613113197123
 20
0.9095283214468307
  0
VERTEX
  8
0
 62
   178
 10
0.4108143937568097
 20
0.9138355117940968
  0
SEQEND
  8
0
 62
   178
  0
LINE
  8
0
 62
   178
 10
0.280572317494467
 20
1.03676777143149
 11
0.4108143937568081
 21
0.913835511794099
  0
POLYLINE
  8
0
 62
   178
 66
     1
  0
VERTEX
  8
0
 62
   178
 10
0.2805723174944683
 20
1.036767771431488
  0
VERTEX
  8
0
 62
   178
 10
0.2753910474774423
 20
1.04190587723312
  0
VERTEX
  8
0
 62
   178
 10
0.2702583186433551
 20
1.046993225812037
  0
VERTEX
  8
0
 62
   178
 10
0.2651671170878619
 20
1.052021852159952
  0
VERTEX
  8
0
 62
   178
 10
0.2601104289066173
 20
1.056983791268582
  0
VERTEX
  8
0
 62
   178
 10
0.2550812401952763
 20
1.061871078129643
  0
VERTEX
  8
0
 62
   178
 10
0.2500725370494937
 20
1.066675747734849
  0
VERTEX
  8
0
 62
   178
 10
0.2450773055649244
 20
1.071389835075916
  0
VERTEX
  8
0
 62
   178
 10
0.2400885318372234
 20
1.07600537514456
  0
VERTEX
  8
0
 62
   178
 10
0.2350992019620453
 20
1.080514402932496
  0
VERTEX
  8
0
 62
   178
 10
0.2301023020350452
 20
1.084908953431441
  0
VERTEX
  8
0
 62
   178
 10
0.225090818151878
 20
1.089181061633108
  0
VERTEX
  8
0
 62
   178
 10
0.2200577364081984
 20
1.093322762529215
  0
VERTEX
  8
0
 62
   178
 10
0.2149960428996614
 20
1.097326091111475
  0
VERTEX
  8
0
 62
   178
 10
0.2098987237219218
 20
1.101183082371606
  0
VERTEX
  8
0
 62
   178
 10
0.2047587649706345
 20
1.104885771301322
  0
VERTEX
  8
0
 62
   178
 10
0.1995691527414544
 20
1.108426192892339
  0
VERTEX
  8
0
 62
   178
 10
0.1943228731300364
 20
1.111796382136373
  0
VERTEX
  8
0
 62
   178
 10
0.1890129122320352
 20
1.114988374025138
  0
VERTEX
  8
0
 62
   178
 10
0.1836322561431059
 20
1.117994203550351
  0
VERTEX
  8
0
 62
   178
 10
0.1781738909589032
 20
1.120805905703727
  0
VERTEX
  8
0
 62
   178
 10
0.1726308027750821
 20
1.123415515476982
  0
VERTEX
  8
0
 62
   178
 10
0.1669959776872973
 20
1.125815067861831
  0
VERTEX
  8
0
 62
   178
 10
0.1612624017912039
 20
1.127996597849989
  0
VERTEX
  8
0
 62
   178
 10
0.1554230611824566
 20
1.129952140433172
  0
SEQEND
  8
0
 62
   178
  0
POLYLINE
  8
0
 62
   178
 66
     1
  0
VERTEX
  8
0
 62
   178
 10
0.1554230611824566
 20
1.129952140433172
  0
VERTEX
  8
0
 62
   178
 10
0.1399673458312299
 20
1.133436360615211
  0
VERTEX
  8
0
 62
   178
 10
0.1240582195954373
 20
1.134279622879814
  0
VERTEX
  8
0
 62
   178
 10
0.1082521844555547
 20
1.132452429873489
  0
VERTEX
  8
0
 62
   178
 10
0.093102136260697
 20
1.128018696893136
  0
VERTEX
  8
0
 62
   178
 10
0.0791380244059335
 20
1.121133516125959
  0
SEQEND
  8
0
 62
   178
  0
POLYLINE
  8
0
 62
   178
 66
     1
  0
VERTEX
  8
0
 62
   178
 10
0.0791380244059335
 20
1.121133516125959
  0
VERTEX
  8
0
 62
   178
 10
0.0577810297275965
 20
1.101770506899625
  0
VERTEX
  8
0
 62
   178
 10
0.0412045919209852
 20
1.078952517715208
  0
VERTEX
  8
0
 62
   178
 10
0.0300861593488764
 20
1.05361207759946
  0
SEQEND
  8
0
 62
   178
  0
POLYLINE
  8
0
 62
   178
 66
     1
  0
VERTEX
  8
0
 62
   178
 10
0.0300861593488766
 20
1.05361207759946
  0
VERTEX
  8
0
 62
   178
 10
0.0248187211888585
 20
1.038981463287012
  0
VERTEX
  8
0
 62
   178
 10
0.0205416212168718
 20
1.023955592827356
  0
VERTEX
  8
0
 62
   178
 10
0.01723278273686
 20
1.008552309093258
  0
VERTEX
  8
0
 62
   178
 10
0.014870129052767
 20
0.9927894549574792
  0
VERTEX
  8
0
 62
   178
 10
0.0134315834685365
 20
0.9766848732927832
  0
VERTEX
  8
0
 62
   178
 10
0.0128950692881123
 20
0.9602564069719332
  0
VERTEX
  8
0
 62
   178
 10
0.0132385098154382
 20
0.9435218988676922
  0
VERTEX
  8
0
 62
   178
 10
0.0144398283544579
 20
0.9264991918528237
  0
VERTEX
  8
0
 62
   178
 10
0.0164769482091152
 20
0.9092061288000902
  0
VERTEX
  8
0
 62
   178
 10
0.0193277926833539
 20
0.8916605525822553
  0
VERTEX
  8
0
 62
   178
 10
0.0229702850811176
 20
0.8738803060720821
  0
VERTEX
  8
0
 62
   178
 10
0.0273823487063503
 20
0.8558832321423332
  0
VERTEX
  8
0
 62
   178
 10
0.0325419068629956
 20
0.8376871736657722
  0
VERTEX
  8
0
 62
   178
 10
0.0384268828549973
 20
0.8193099735151622
  0
VERTEX
  8
0
 62
   178
 10
0.0450151999862991
 20
0.8007694745632661
  0
VERTEX
  8
0
 62
   178
 10
0.0522847815608449
 20
0.782083519682847
  0
VERTEX
  8
0
 62
   178
 10
0.0602135508825785
 20
0.7632699517466682
  0
VERTEX
  8
0
 62
   178
 10
0.0687794312554434
 20
0.7443466136274928
  0
VERTEX
  8
0
 62
   178
 10
0.0779603459833837
 20
0.7253313481980836
  0
VERTEX
  8
0
 62
   178
 10
0.0877342183703429
 20
0.7062419983312042
  0
VERTEX
  8
0
 62
   178
 10
0.0980789717202648
 20
0.6870964068996173
  0
VERTEX
  8
0
 62
   178
 10
0.1089725293370934
 20
0.6679124167760863
  0
VERTEX
  8
0
 62
   178
 10
0.1203928145247722
 20
0.648707870833374
  0
VERTEX
  8
0
 62
   178
 10
0.1323177505872451
 20
0.6295006119442437
  0
SEQEND
  8
0
 62
   178
  0
POLYLINE
  8
0
 62
   178
 66
     1
  0
VERTEX
  8
0
 62
   178
 10
0.1323177505872437
 20
0.6295006119442456
  0
VERTEX
  8
0
 62
   178
 10
0.3127320911147604
 20
0.4053752607444807
  0
VERTEX
  8
0
 62
   178
 10
0.5428791691090394
 20
0.221464500542579
  0
SEQEND
  8
0
 62
   178
  0
POLYLINE
  8
0
 62
   178
 66
     1
  0
VERTEX
  8
0
 62
   178
 10
0.5428791691090398
 20
0.2214645005425786
  0
VERTEX
  8
0
 62
   178
 10
0.562888552806594
 20
0.2091256927826359
  0
VERTEX
  8
0
 62
   178
 10
0.5828867598149714
 20
0.1968099914485141
  0
VERTEX
  8
0
 62
   178
 10
0.6029061050258984
 20
0.1845577320639325
  0
VERTEX
  8
0
 62
   178
 10
0.622978903331102
 20
0.17240925015261
  0
VERTEX
  8
0
 62
   178
 10
0.6431374696223087
 20
0.1604048812382657
  0
VERTEX
  8
0
 62
   178
 10
0.663414118791245
 20
0.1485849608446185
  0
VERTEX
  8
0
 62
   178
 10
0.6838411657296379
 20
0.1369898244953877
  0
VERTEX
  8
0
 62
   178
 10
0.7044509253292142
 20
0.1256598077142922
  0
VERTEX
  8
0
 62
   178
 10
0.7252757124817001
 20
0.1146352460250509
  0
VERTEX
  8
0
 62
   178
 10
0.7463478420788228
 20
0.1039564749513831
  0
VERTEX
  8
0
 62
   178
 10
0.7676996290123086
 20
0.0936638300170077
  0
VERTEX
  8
0
 62
   178
 10
0.7893633881738842
 20
0.0837976467456438
  0
VERTEX
  8
0
 62
   178
 10
0.8113714344552765
 20
0.0743982606610104
  0
VERTEX
  8
0
 62
   178
 10
0.833756082748212
 20
0.0655060072868266
  0
VERTEX
  8
0
 62
   178
 10
0.8565496479444175
 20
0.0571612221468114
  0
VERTEX
  8
0
 62
   178
 10
0.8797844449356196
 20
0.0494042407646838
  0
VERTEX
  8
0
 62
   178
 10
0.9034927886135451
 20
0.0422753986641629
  0
VERTEX
  8
0
 62
   178
 10
0.9277069938699205
 20
0.0358150313689677
  0
VERTEX
  8
0
 62
   178
 10
0.9524593755964728
 20
0.0300634744028173
  0
VERTEX
  8
0
 62
   178
 10
0.9777822486849284
 20
0.0250610632894307
  0
VERTEX
  8
0
 62
   178
 10
1.003707928027014
 20
0.020848133552527
  0
VERTEX
  8
0
 62
   178
 10
1.030268728514456
 20
0.0174650207158251
  0
VERTEX
  8
0
 62
   178
 10
1.057496965038982
 20
0.0149520603030442
  0
VERTEX
  8
0
 62
   178
 10
1.085424952492318
 20
0.0133495878379033
  0
SEQEND
  8
0
 62
   178
  0
POLYLINE
  8
0
 62
   178
 66
     1
  0
VERTEX
  8
0
 62
   178
 10
1.085424952492318
 20
0.0133495878379033
  0
VERTEX
  8
0
 62
   178
 10
1.114050301994068
 20
0.0126926432880241
  0
VERTEX
  8
0
 62
   178
 10
1.143372258947664
 20
0.0130117009157812
  0
VERTEX
  8
0
 62
   178
 10
1.173425594817
 20
0.0143402476870228
  0
VERTEX
  8
0
 62
   178
 10
1.204245081065971
 20
0.016711770567597
  0
VERTEX
  8
0
 62
   178
 10
1.23586548915847
 20
0.0201597565233522
  0
VERTEX
  8
0
 62
   178
 10
1.268321590558393
 20
0.0247176925201365
  0
VERTEX
  8
0
 62
   178
 10
1.301648156729633
 20
0.0304190655237981
  0
VERTEX
  8
0
 62
   178
 10
1.335879959136085
 20
0.0372973625001854
  0
VERTEX
  8
0
 62
   178
 10
1.371051769241642
 20
0.0453860704151465
  0
VERTEX
  8
0
 62
   178
 10
1.4071983585102
 20
0.0547186762345297
  0
VERTEX
  8
0
 62
   178
 10
1.444354498405653
 20
0.0653286669241831
  0
VERTEX
  8
0
 62
   178
 10
1.482554960391894
 20
0.077249529449955
  0
VERTEX
  8
0
 62
   178
 10
1.521834515932817
 20
0.0905147507776936
  0
VERTEX
  8
0
 62
   178
 10
1.562227936492319
 20
0.1051578178732472
  0
VERTEX
  8
0
 62
   178
 10
1.603769993534292
 20
0.1212122177024639
  0
VERTEX
  8
0
 62
   178
 10
1.64649545852263
 20
0.138711437231192
  0
VERTEX
  8
0
 62
   178
 10
1.690439102921229
 20
0.1576889634252798
  0
VERTEX
  8
0
 62
   178
 10
1.735635698193982
 20
0.1781782832505754
  0
VERTEX
  8
0
 62
   178
 10
1.782120015804784
 20
0.200212883672927
  0
VERTEX
  8
0
 62
   178
 10
1.829926827217529
 20
0.223826251658183
  0
VERTEX
  8
0
 62
   178
 10
1.879090903896111
 20
0.2490518741721915
  0
VERTEX
  8
0
 62
   178
 10
1.929647017304425
 20
0.2759232381808007
  0
VERTEX
  8
0
 62
   178
 10
1.981629938906364
 20
0.3044738306498589
  0
VERTEX
  8
0
 62
   178
 10
2.035074440165824
 20
0.3347371385452147
  0
SEQEND
  8
0
 62
   178
  0
POLYLINE
  8
0
 62
   178
 66
     1
  0
VERTEX
  8
0
 62
   178
 10
2.035074440165824
 20
0.3347371385452147
  0
VERTEX
  8
0
 62
   178
 10
2.046096175188195
 20
0.3407766408513036
  0
VERTEX
  8
0
 62
   178
 10
2.057126209893235
 20
0.3462439887629458
  0
VERTEX
  8
0
 62
   178
 10
2.068167483104118
 20
0.3511532105205452
  0
VERTEX
  8
0
 62
   178
 10
2.07922293364402
 20
0.3555183343645055
  0
VERTEX
  8
0
 62
   178
 10
2.090295500336113
 20
0.3593533885352304
  0
VERTEX
  8
0
 62
   178
 10
2.101388122003575
 20
0.3626724012731236
  0
VERTEX
  8
0
 62
   178
 10
2.112503737469578
 20
0.3654894008185888
  0
VERTEX
  8
0
 62
   178
 10
2.123645285557298
 20
0.36781841541203
  0
VERTEX
  8
0
 62
   178
 10
2.13481570508991
 20
0.3696734732938506
  0
VERTEX
  8
0
 62
   178
 10
2.146017934890587
 20
0.3710686027044546
  0
VERTEX
  8
0
 62
   178
 10
2.157254913782505
 20
0.3720178318842456
  0
VERTEX
  8
0
 62
   178
 10
2.168529580588839
 20
0.3725351890736274
  0
VERTEX
  8
0
 62
   178
 10
2.179844874132762
 20
0.3726347025130036
  0
VERTEX
  8
0
 62
   178
 10
2.19120373323745
 20
0.3723304004427781
  0
VERTEX
  8
0
 62
   178
 10
2.202609096726077
 20
0.3716363111033546
  0
VERTEX
  8
0
 62
   178
 10
2.214063903421819
 20
0.3705664627351367
  0
VERTEX
  8
0
 62
   178
 10
2.225571092147848
 20
0.3691348835785284
  0
VERTEX
  8
0
 62
   178
 10
2.237133601727341
 20
0.3673556018739331
  0
VERTEX
  8
0
 62
   178
 10
2.248754370983472
 20
0.3652426458617548
  0
VERTEX
  8
0
 62
   178
 10
2.260436338739416
 20
0.3628100437823972
  0
VERTEX
  8
0
 62
   178
 10
2.272182443818346
 20
0.360071823876264
  0
VERTEX
  8
0
 62
   178
 10
2.283995625043439
 20
0.3570420143837589
  0
VERTEX
  8
0
 62
   178
 10
2.295878821237868
 20
0.3537346435452857
  0
VERTEX
  8
0
 62
   178
 10
2.307834971224809
 20
0.350163739601248
  0
SEQEND
  8
0
 62
   178
  0
POLYLINE
  8
0
 62
   178
 66
     1
  0
VERTEX
  8
0
 62
   178
 10
2.307834971224809
 20
0.350163739601248
  0
VERTEX
  8
0
 62
   178
 10
2.319842420090305
 20
0.3463367972585356
  0
VERTEX
  8
0
 62
   178
 10
2.331875511971974
 20
0.3422627800425103
  0
VERTEX
  8
0
 62
   178
 10
2.343931184270353
 20
0.3379578963534657
  0
VERTEX
  8
0
 62
   178
 10
2.356006374385979
 20
0.3334383545916951
  0
VERTEX
  8
0
 62
   178
 10
2.368098019719387
 20
0.3287203631574918
  0
VERTEX
  8
0
 62
   178
 10
2.380203057671113
 20
0.3238201304511493
  0
VERTEX
  8
0
 62
   178
 10
2.392318425641693
 20
0.3187538648729608
  0
VERTEX
  8
0
 62
   178
 10
2.404441061031664
 20
0.3135377748232199
  0
VERTEX
  8
0
 62
   178
 10
2.416567901241562
 20
0.3081880687022197
  0
VERTEX
  8
0
 62
   178
 10
2.428695883671922
 20
0.3027209549102537
  0
VERTEX
  8
0
 62
   178
 10
2.440821945723282
 20
0.2971526418476154
  0
VERTEX
  8
0
 62
   178
 10
2.452943024796177
 20
0.2914993379145979
  0
VERTEX
  8
0
 62
   178
 10
2.465056058291143
 20
0.2857772515114947
  0
VERTEX
  8
0
 62
   178
 10
2.477157983608716
 20
0.2800025910385991
  0
VERTEX
  8
0
 62
   178
 10
2.489245738149434
 20
0.2741915648962047
  0
VERTEX
  8
0
 62
   178
 10
2.50131625931383
 20
0.2683603814846045
  0
VERTEX
  8
0
 62
   178
 10
2.513366484502443
 20
0.2625252492040921
  0
VERTEX
  8
0
 62
   178
 10
2.525393351115807
 20
0.2567023764549608
  0
VERTEX
  8
0
 62
   178
 10
2.53739379655446
 20
0.2509079716375039
  0
VERTEX
  8
0
 62
   178
 10
2.549364758218936
 20
0.245158243152015
  0
VERTEX
  8
0
 62
   178
 10
2.561303173509773
 20
0.2394693993987872
  0
VERTEX
  8
0
 62
   178
 10
2.573205979827507
 20
0.233857648778114
  0
VERTEX
  8
0
 62
   178
 10
2.585070114572674
 20
0.2283391996902887
  0
VERTEX
  8
0
 62
   178
 10
2.596892515145809
 20
0.2229302605356047
  0
SEQEND
  8
0
 62
   178
  0
POLYLINE
  8
0
 62
   178
 66
     1
  0
VERTEX
  8
0
 62
   178
 10
2.596892515145809
 20
0.2229302605356047
  0
VERTEX
  8
0
 62
   178
 10
2.608690276513783
 20
0.2176317774417371
  0
VERTEX
  8
0
 62
   178
 10
2.620480942605521
 20
0.2124498495240794
  0
VERTEX
  8
0
 62
   178
 10
2.632262124264642
 20
0.207408414664503
  0
VERTEX
  8
0
 62
   178
 10
2.644031432334766
 20
0.2025314107448793
  0
VERTEX
  8
0
 62
   178
 10
2.65578647765951
 20
0.1978427756470797
  0
VERTEX
  8
0
 62
   178
 10
2.667524871082493
 20
0.1933664472529755
  0
VERTEX
  8
0
 62
   178
 10
2.679244223447335
 20
0.189126363444438
  0
VERTEX
  8
0
 62
   178
 10
2.690942145597653
 20
0.1851464621033386
  0
VERTEX
  8
0
 62
   178
 10
2.702616248377068
 20
0.1814506811115488
  0
VERTEX
  8
0
 62
   178
 10
2.714264142629197
 20
0.1780629583509397
  0
VERTEX
  8
0
 62
   178
 10
2.72588343919766
 20
0.1750072317033829
  0
VERTEX
  8
0
 62
   178
 10
2.737471748926075
 20
0.1723074390507496
  0
VERTEX
  8
0
 62
   178
 10
2.749026682658061
 20
0.1699875182749112
  0
VERTEX
  8
0
 62
   178
 10
2.760545851237238
 20
0.1680714072577391
  0
VERTEX
  8
0
 62
   178
 10
2.772026865507222
 20
0.1665830438811046
  0
VERTEX
  8
0
 62
   178
 10
2.783467336311635
 20
0.165546366026879
  0
VERTEX
  8
0
 62
   178
 10
2.794864874494094
 20
0.1649853115769339
  0
VERTEX
  8
0
 62
   178
 10
2.806217090898217
 20
0.1649238184131404
  0
VERTEX
  8
0
 62
   178
 10
2.817521596367625
 20
0.1653858244173699
  0
VERTEX
  8
0
 62
   178
 10
2.828776001745935
 20
0.1663952674714939
  0
VERTEX
  8
0
 62
   178
 10
2.839977917876767
 20
0.1679760854573836
  0
VERTEX
  8
0
 62
   178
 10
2.851124955603739
 20
0.1701522162569105
  0
VERTEX
  8
0
 62
   178
 10
2.862214725770471
 20
0.1729475977519458
  0
VERTEX
  8
0
 62
   178
 10
2.87324483922058
 20
0.176386167824361
  0
SEQEND
  8
0
 62
   178
  0
POLYLINE
  8
0
 62
   178
 66
     1
  0
VERTEX
  8
0
 62
   178
 10
2.87324483922058
 20
0.176386167824361
  0
VERTEX
  8
0
 62
   178
 10
2.884109035667679
 20
0.1804651413829554
  0
VERTEX
  8
0
 62
   178
 10
2.894703808837882
 20
0.1851724747077224
  0
VERTEX
  8
0
 62
   178
 10
2.905030849129321
 20
0.190518217737325
  0
VERTEX
  8
0
 62
   178
 10
2.915091846940124
 20
0.1965124204104259
  0
VERTEX
  8
0
 62
   178
 10
2.92488849266842
 20
0.203165132665688
  0
VERTEX
  8
0
 62
   178
 10
2.934422476712335
 20
0.2104864044417741
  0
VERTEX
  8
0
 62
   178
 10
2.943695489470001
 20
0.2184862856773471
  0
VERTEX
  8
0
 62
   178
 10
2.952709221339545
 20
0.2271748263110697
  0
VERTEX
  8
0
 62
   178
 10
2.961465362719097
 20
0.2365620762816049
  0
VERTEX
  8
0
 62
   178
 10
2.969965604006785
 20
0.2466580855276154
  0
VERTEX
  8
0
 62
   178
 10
2.978211635600736
 20
0.257472903987764
  0
VERTEX
  8
0
 62
   178
 10
2.986205147899082
 20
0.2690165816007136
  0
VERTEX
  8
0
 62
   178
 10
2.993947831299949
 20
0.2812991683051271
  0
VERTEX
  8
0
 62
   178
 10
3.001441376201467
 20
0.2943307140396672
  0
VERTEX
  8
0
 62
   178
 10
3.008687473001764
 20
0.3081212687429968
  0
VERTEX
  8
0
 62
   178
 10
3.015687812098969
 20
0.3226808823537787
  0
VERTEX
  8
0
 62
   178
 10
3.022444083891211
 20
0.3380196048106757
  0
VERTEX
  8
0
 62
   178
 10
3.028957978776619
 20
0.3541474860523507
  0
VERTEX
  8
0
 62
   178
 10
3.03523118715332
 20
0.3710745760174666
  0
VERTEX
  8
0
 62
   178
 10
3.041265399419444
 20
0.388810924644686
  0
VERTEX
  8
0
 62
   178
 10
3.04706230597312
 20
0.4073665818726719
  0
VERTEX
  8
0
 62
   178
 10
3.052623597212476
 20
0.4267515976400872
  0
VERTEX
  8
0
 62
   178
 10
3.057950963535641
 20
0.4469760218855945
  0
VERTEX
  8
0
 62
   178
 10
3.063046095340744
 20
0.468049904547857
  0
SEQEND
  8
0
 62
   178
  0
POLYLINE
  8
0
 62
   178
 66
     1
  0
VERTEX
  8
0
 62
   178
 10
3.063046095340745
 20
0.4680499045478568
  0
VERTEX
  8
0
 62
   178
 10
3.078543125944651
 20
0.5804667174690848
  0
VERTEX
  8
0
 62
   178
 10
3.071971690430771
 20
0.6935853995891207
  0
VERTEX
  8
0
 62
   178
 10
3.043532498163277
 20
0.8039510012677044
  0
SEQEND
  8
0
 62
   178
  0
LINE
  8
0
 62
   178
 10
3.043532498163277
 20
0.8039510012677011
 11
3.045623181901719
 21
0.8258654295669999
  0
LINE
  8
0
 62
   178
 10
3.045623181901719
 20
0.8258654295669937
 11
3.02964785491885
 21
0.992169987524144
  0
LINE
  8
0
 62
   178
 10
3.029647854918849
 20
0.9921699875241472
 11
3.024581851274315
 21
1.020115684787871
  0
LINE
  8
0
 62
   178
 10
3.024581851274316
 20
1.020115684787865
 11
3.04626655366001
 21
1.006779606390344
  0
POLYLINE
  8
0
 62
   178
 66
     1
  0
VERTEX
  8
0
 62
   178
 10
3.046266553660011
 20
1.006779606390344
  0
VERTEX
  8
0
 62
   178
 10
3.090738133106213
 20
0.988407377596202
  0
VERTEX
  8
0
 62
   178
 10
3.138339255429274
 20
0.9781130366989641
  0
SEQEND
  8
0
 62
   178
  0
POLYLINE
  8
0
 62
   178
 66
     1
  0
VERTEX
  8
0
 62
   178
 10
3.138339255429274
 20
0.9781130366989637
  0
VERTEX
  8
0
 62
   178
 10
3.165852846836631
 20
0.9772609892509263
  0
VERTEX
  8
0
 62
   178
 10
3.193045795519421
 20
0.9811110340712256
  0
VERTEX
  8
0
 62
   178
 10
3.218927305478762
 20
0.989522891815831
  0
VERTEX
  8
0
 62
   178
 10
3.242554363994264
 20
1.002190069978404
  0
SEQEND
  8
0
 62
   178
  0
POLYLINE
  8
0
 62
   178
 66
     1
  0
VERTEX
  8
0
 62
   178
 10
3.242554363994264
 20
1.002190069978404
  0
VERTEX
  8
0
 62
   178
 10
3.250291243728643
 20
1.007696325180237
  0
VERTEX
  8
0
 62
   178
 10
3.257901856578058
 20
1.013666575341378
  0
VERTEX
  8
0
 62
   178
 10
3.265388913648286
 20
1.020086857510829
  0
VERTEX
  8
0
 62
   178
 10
3.272755126045104
 20
1.026943208737589
  0
VERTEX
  8
0
 62
   178
 10
3.280003204874286
 20
1.034221666070658
  0
VERTEX
  8
0
 62
   178
 10
3.28713586124161
 20
1.041908266559037
  0
VERTEX
  8
0
 62
   178
 10
3.294155806252852
 20
1.049989047251727
  0
VERTEX
  8
0
 62
   178
 10
3.301065751013788
 20
1.058450045197729
  0
VERTEX
  8
0
 62
   178
 10
3.307868406630196
 20
1.067277297446041
  0
VERTEX
  8
0
 62
   178
 10
3.314566484207852
 20
1.076456841045666
  0
VERTEX
  8
0
 62
   178
 10
3.32116269485253
 20
1.085974713045603
  0
VERTEX
  8
0
 62
   178
 10
3.327659749670008
 20
1.095816950494853
  0
VERTEX
  8
0
 62
   178
 10
3.334060359766064
 20
1.105969590442417
  0
VERTEX
  8
0
 62
   178
 10
3.340367236246471
 20
1.116418669937294
  0
VERTEX
  8
0
 62
   178
 10
3.346583090217008
 20
1.127150226028486
  0
VERTEX
  8
0
 62
   178
 10
3.35271063278345
 20
1.138150295764992
  0
VERTEX
  8
0
 62
   178
 10
3.358752575051574
 20
1.149404916195814
  0
VERTEX
  8
0
 62
   178
 10
3.364711628127156
 20
1.160900124369951
  0
VERTEX
  8
0
 62
   178
 10
3.370590503115973
 20
1.172621957336405
  0
VERTEX
  8
0
 62
   178
 10
3.376391911123801
 20
1.184556452144174
  0
VERTEX
  8
0
 62
   178
 10
3.382118563256416
 20
1.196689645842262
  0
VERTEX
  8
0
 62
   178
 10
3.387773170619595
 20
1.209007575479666
  0
VERTEX
  8
0
 62
   178
 10
3.393358444319114
 20
1.221496278105388
  0
VERTEX
  8
0
 62
   178
 10
3.39887709546075
 20
1.23414179076843
  0
SEQEND
  8
0
 62
   178
  0
LINE
  8
0
 62
   178
 10
3.398877095460749
 20
1.234141790768428
 11
3.48593745364467
 21
1.541904952245947
  0
POLYLINE
  8
0
 62
   178
 66
     1
  0
VERTEX
  8
0
 62
   178
 10
3.485937453644671
 20
1.54190495224595
  0
VERTEX
  8
0
 62
   178
 10
3.487814020832824
 20
1.56545586946768
  0
VERTEX
  8
0
 62
   178
 10
3.488588349503428
 20
1.589368781804573
  0
VERTEX
  8
0
 62
   178
 10
3.488351332612249
 20
1.613522411315538
  0
VERTEX
  8
0
 62
   178
 10
3.487193863115052
 20
1.637795480059487
  0
VERTEX
  8
0
 62
   178
 10
3.485206833967606
 20
1.662066710095329
  0
VERTEX
  8
0
 62
   178
 10
3.482481138125675
 20
1.686214823481975
  0
VERTEX
  8
0
 62
   178
 10
3.479107668545026
 20
1.710118542278335
  0
VERTEX
  8
0
 62
   178
 10
3.475177318181427
 20
1.733656588543319
  0
VERTEX
  8
0
 62
   178
 10
3.470780979990644
 20
1.756707684335838
  0
VERTEX
  8
0
 62
   178
 10
3.466009546928442
 20
1.779150551714802
  0
VERTEX
  8
0
 62
   178
 10
3.460953911950588
 20
1.80086391273912
  0
VERTEX
  8
0
 62
   178
 10
3.455704968012849
 20
1.821726489467704
  0
VERTEX
  8
0
 62
   178
 10
3.450353608070992
 20
1.841617003959463
  0
VERTEX
  8
0
 62
   178
 10
3.444990725080781
 20
1.860414178273309
  0
VERTEX
  8
0
 62
   178
 10
3.439707211997986
 20
1.87799673446815
  0
VERTEX
  8
0
 62
   178
 10
3.434593961778371
 20
1.894243394602897
  0
VERTEX
  8
0
 62
   178
 10
3.429741867377702
 20
1.909032880736462
  0
VERTEX
  8
0
 62
   178
 10
3.425241821751748
 20
1.922243914927753
  0
VERTEX
  8
0
 62
   178
 10
3.421184717856272
 20
1.933755219235682
  0
VERTEX
  8
0
 62
   178
 10
3.417661448647045
 20
1.943445515719158
  0
VERTEX
  8
0
 62
   178
 10
3.414762907079829
 20
1.951193526437092
  0
VERTEX
  8
0
 62
   178
 10
3.412579986110393
 20
1.956877973448394
  0
VERTEX
  8
0
 62
   178
 10
3.411203578694503
 20
1.960377578811975
  0
VERTEX
  8
0
 62
   178
 10
3.410724577787924
 20
1.961571064586744
  0
SEQEND
  8
0
 62
   178
  0
POLYLINE
  8
0
 62
   178
 66
     1
  0
VERTEX
  8
0
 62
   178
 10
3.410724577787924
 20
1.961571064586744
  0
VERTEX
  8
0
 62
   178
 10
3.407880311555297
 20
1.966992055345998
  0
VERTEX
  8
0
 62
   178
 10
3.403909233912318
 20
1.97181030173326
  0
VERTEX
  8
0
 62
   178
 10
3.398964450437658
 20
1.975840035433823
  0
VERTEX
  8
0
 62
   178
 10
3.393236608105101
 20
1.978925889374672
  0
VERTEX
  8
0
 62
   178
 10
3.386946544856813
 20
1.980948887928586
  0
VERTEX
  8
0
 62
   178
 10
3.380336775158661
 20
1.981831034039832
  0
VERTEX
  8
0
 62
   178
 10
3.373662139813445
 20
1.981538316414
  0
VERTEX
  8
0
 62
   178
 10
3.367179980530097
 20
1.98008202082929
  0
VERTEX
  8
0
 62
   178
 10
3.361140218070017
 20
1.977518295011397
  0
VERTEX
  8
0
 62
   178
 10
3.355775716509314
 20
1.973945983848332
  0
SEQEND
  8
0
 62
   178
  0
LINE
  8
0
 62
   178
 10
3.355775716509314
 20
1.973945983848332
 11
3.248102896457516
 21
1.886264243210597
  0
POLYLINE
  8
0
 62
   178
 66
     1
  0
VERTEX
  8
0
 62
   178
 10
3.248102896457516
 20
1.886264243210597
  0
VERTEX
  8
0
 62
   178
 10
3.243650970569657
 20
1.881850146624978
  0
VERTEX
  8
0
 62
   178
 10
3.240239546763475
 20
1.876745296077825
  0
VERTEX
  8
0
 62
   178
 10
3.237998407265537
 20
1.871143897539413
  0
VERTEX
  8
0
 62
   178
 10
3.237012812685669
 20
1.865259047363495
  0
VERTEX
  8
0
 62
   178
 10
3.237320258411819
 20
1.859314625373345
  0
VERTEX
  8
0
 62
   178
 10
3.238909048157288
 20
1.85353677770775
  0
SEQEND
  8
0
 62
   178
  0
POLYLINE
  8
0
 62
   178
 66
     1
  0
VERTEX
  8
0
 62
   178
 10
3.238909048157289
 20
1.85353677770775
  0
VERTEX
  8
0
 62
   178
 10
3.239225135601517
 20
1.852685776735686
  0
VERTEX
  8
0
 62
   178
 10
3.240134126779283
 20
1.850197978485409
  0
VERTEX
  8
0
 62
   178
 10
3.241577114958208
 20
1.846171189955788
  0
VERTEX
  8
0
 62
   178
 10
3.243495193405914
 20
1.840703218145695
  0
VERTEX
  8
0
 62
   178
 10
3.24582945539002
 20
1.833891870053998
  0
VERTEX
  8
0
 62
   178
 10
3.248520994178148
 20
1.825834952679568
  0
VERTEX
  8
0
 62
   178
 10
3.25151090303792
 20
1.816630273021276
  0
VERTEX
  8
0
 62
   178
 10
3.254740275236957
 20
1.806375638077991
  0
VERTEX
  8
0
 62
   178
 10
3.25815020404288
 20
1.795168854848585
  0
VERTEX
  8
0
 62
   178
 10
3.261681782723309
 20
1.783107730331926
  0
VERTEX
  8
0
 62
   178
 10
3.265276104545866
 20
1.770290071526887
  0
VERTEX
  8
0
 62
   178
 10
3.268874262778173
 20
1.756813685432336
  0
VERTEX
  8
0
 62
   178
 10
3.27241735068785
 20
1.742776379047144
  0
VERTEX
  8
0
 62
   178
 10
3.275846461542519
 20
1.728275959370181
  0
VERTEX
  8
0
 62
   178
 10
3.279102688609801
 20
1.713410233400318
  0
VERTEX
  8
0
 62
   178
 10
3.282127125157317
 20
1.698277008136424
  0
VERTEX
  8
0
 62
   178
 10
3.284860864452687
 20
1.682974090577371
  0
VERTEX
  8
0
 62
   178
 10
3.287244999763534
 20
1.667599287722028
  0
VERTEX
  8
0
 62
   178
 10
3.289220624357478
 20
1.652250406569264
  0
VERTEX
  8
0
 62
   178
 10
3.290728831502141
 20
1.637025254117952
  0
VERTEX
  8
0
 62
   178
 10
3.291710714465143
 20
1.62202163736696
  0
VERTEX
  8
0
 62
   178
 10
3.292107366514107
 20
1.60733736331516
  0
VERTEX
  8
0
 62
   178
 10
3.291859880916652
 20
1.593070238961421
  0
VERTEX
  8
0
 62
   178
 10
3.290909350940401
 20
1.579318071304614
  0
SEQEND
  8
0
 62
   178
  0
LINE
  8
0
 62
   178
 10
3.240651284605989
 20
1.384851543282896
 11
3.290909350940401
 21
1.579318071304613
  0
POLYLINE
  8
0
 62
   178
 66
     1
  0
VERTEX
  8
0
 62
   178
 10
3.24065128460599
 20
1.384851543282898
  0
VERTEX
  8
0
 62
   178
 10
3.237344119287157
 20
1.376900979611179
  0
VERTEX
  8
0
 62
   178
 10
3.233936395025498
 20
1.369065205338182
  0
VERTEX
  8
0
 62
   178
 10
3.230437853634452
 20
1.361356525693067
  0
VERTEX
  8
0
 62
   178
 10
3.226858236927459
 20
1.353787245904991
  0
VERTEX
  8
0
 62
   178
 10
3.223207286717952
 20
1.346369671203113
  0
VERTEX
  8
0
 62
   178
 10
3.219494744819371
 20
1.33911610681659
  0
VERTEX
  8
0
 62
   178
 10
3.215730353045155
 20
1.332038857974581
  0
VERTEX
  8
0
 62
   178
 10
3.21192385320874
 20
1.325150229906244
  0
VERTEX
  8
0
 62
   178
 10
3.208084987123564
 20
1.318462527840738
  0
VERTEX
  8
0
 62
   178
 10
3.204223496603066
 20
1.31198805700722
  0
VERTEX
  8
0
 62
   178
 10
3.200349123460682
 20
1.305739122634849
  0
VERTEX
  8
0
 62
   178
 10
3.196471609509851
 20
1.299728029952784
  0
VERTEX
  8
0
 62
   178
 10
3.192600696564011
 20
1.293967084190182
  0
VERTEX
  8
0
 62
   178
 10
3.188746126436599
 20
1.288468590576202
  0
VERTEX
  8
0
 62
   178
 10
3.184917640941052
 20
1.283244854340001
  0
VERTEX
  8
0
 62
   178
 10
3.181124981890809
 20
1.278308180710739
  0
VERTEX
  8
0
 62
   178
 10
3.177377891099308
 20
1.273670874917574
  0
VERTEX
  8
0
 62
   178
 10
3.173686110379985
 20
1.269345242189663
  0
VERTEX
  8
0
 62
   178
 10
3.17005938154628
 20
1.265343587756165
  0
VERTEX
  8
0
 62
   178
 10
3.16650744641163
 20
1.261678216846238
  0
VERTEX
  8
0
 62
   178
 10
3.163040046789471
 20
1.258361434689041
  0
VERTEX
  8
0
 62
   178
 10
3.159666924493243
 20
1.255405546513732
  0
VERTEX
  8
0
 62
   178
 10
3.156397821336383
 20
1.252822857549468
  0
VERTEX
  8
0
 62
   178
 10
3.153242479132328
 20
1.250625673025409
  0
SEQEND
  8
0
 62
   178
  0
POLYLINE
  8
0
 62
   178
 66
     1
  0
VERTEX
  8
0
 62
   178
 10
3.06669141117772
 20
1.249568367218789
  0
VERTEX
  8
0
 62
   178
 10
3.080298585411751
 20
1.243432310507109
  0
VERTEX
  8
0
 62
   178
 10
3.094961348328585
 20
1.23973509304592
  0
VERTEX
  8
0
 62
   178
 10
3.110141520305939
 20
1.238612416892743
  0
VERTEX
  8
0
 62
   178
 10
3.125281930825047
 20
1.240105488567215
  0
VERTEX
  8
0
 62
   178
 10
3.139826868765125
 20
1.244159506613814
  0
VERTEX
  8
0
 62
   178
 10
3.153242479132327
 20
1.25062567302541
  0
SEQEND
  8
0
 62
   178
  0
POLYLINE
  8
0
 62
   178
 66
     1
  0
VERTEX
  8
0
 62
   178
 10
2.986841400435966
 20
1.313533510790913
  0
VERTEX
  8
0
 62
   178
 10
3.009123246680712
 20
1.288111635137606
  0
VERTEX
  8
0
 62
   178
 10
3.036015475885434
 20
1.266569179650434
  0
VERTEX
  8
0
 62
   178
 10
3.066691411177721
 20
1.24956836721879
  0
SEQEND
  8
0
 62
   178
  0
POLYLINE
  8
0
 62
   178
 66
     1
  0
VERTEX
  8
0
 62
   178
 10
2.969820731583876
 20
1.37456710977131
  0
VERTEX
  8
0
 62
   178
 10
2.970567380732552
 20
1.353284556240502
  0
VERTEX
  8
0
 62
   178
 10
2.976328165808837
 20
1.332627233710249
  0
VERTEX
  8
0
 62
   178
 10
2.986841400435966
 20
1.313533510790913
  0
SEQEND
  8
0
 62
   178
  0
POLYLINE
  8
0
 62
   178
 66
     1
  0
VERTEX
  8
0
 62
   178
 10
2.969820731583876
 20
1.37456710977131
  0
VERTEX
  8
0
 62
   178
 10
2.96944213241839
 20
1.416899095306518
  0
VERTEX
  8
0
 62
   178
 10
2.96084124904441
 20
1.458524360910296
  0
SEQEND
  8
0
 62
   178
  0
LINE
  8
0
 62
   178
 10
2.96084124904441
 20
1.458524360910297
 11
2.943552417134363
 21
1.495456900400994
  0
POLYLINE
  8
0
 62
   178
 66
     1
  0
VERTEX
  8
0
 62
   178
 10
2.943552417134363
 20
1.495456900400994
  0
VERTEX
  8
0
 62
   178
 10
2.944520396827398
 20
1.506140801968498
  0
VERTEX
  8
0
 62
   178
 10
2.945215018610931
 20
1.517079448553733
  0
VERTEX
  8
0
 62
   178
 10
2.945617305221047
 20
1.528287893269876
  0
VERTEX
  8
0
 62
   178
 10
2.945708279393836
 20
1.539781189230105
  0
VERTEX
  8
0
 62
   178
 10
2.94546896386538
 20
1.551574389547596
  0
VERTEX
  8
0
 62
   178
 10
2.944880381371768
 20
1.563682547335526
  0
VERTEX
  8
0
 62
   178
 10
2.943923554649086
 20
1.576120715707071
  0
VERTEX
  8
0
 62
   178
 10
2.942579506433418
 20
1.58890394777541
  0
VERTEX
  8
0
 62
   178
 10
2.940829259460852
 20
1.602047296653717
  0
VERTEX
  8
0
 62
   178
 10
2.938653836467475
 20
1.615565815455172
  0
VERTEX
  8
0
 62
   178
 10
2.936034260189372
 20
1.629474557292949
  0
VERTEX
  8
0
 62
   178
 10
2.93295155336263
 20
1.643788575280226
  0
VERTEX
  8
0
 62
   178
 10
2.929386738723335
 20
1.65852292253018
  0
VERTEX
  8
0
 62
   178
 10
2.925320839007573
 20
1.673692652155988
  0
VERTEX
  8
0
 62
   178
 10
2.92073487695143
 20
1.689312817270827
  0
VERTEX
  8
0
 62
   178
 10
2.915609875290993
 20
1.705398470987873
  0
VERTEX
  8
0
 62
   178
 10
2.909926856762348
 20
1.721964666420304
  0
VERTEX
  8
0
 62
   178
 10
2.903666844101581
 20
1.739026456681295
  0
VERTEX
  8
0
 62
   178
 10
2.896810860044778
 20
1.756598894884025
  0
VERTEX
  8
0
 62
   178
 10
2.889339927328026
 20
1.77469703414167
  0
VERTEX
  8
0
 62
   178
 10
2.881235068687412
 20
1.793335927567407
  0
VERTEX
  8
0
 62
   178
 10
2.872477306859021
 20
1.812530628274412
  0
VERTEX
  8
0
 62
   178
 10
2.863047664578939
 20
1.832296189375863
  0
VERTEX
  8
0
 62
   178
 10
2.852927164583253
 20
1.852647663984936
  0
SEQEND
  8
0
 62
   178
  0
POLYLINE
  8
0
 62
   178
 66
     1
  0
VERTEX
  8
0
 62
   178
 10
2.852927164583255
 20
1.852647663984937
  0
VERTEX
  8
0
 62
   178
 10
2.829332873128233
 20
1.891599536650752
  0
VERTEX
  8
0
 62
   178
 10
2.797574845790396
 20
1.925571554392723
  0
VERTEX
  8
0
 62
   178
 10
2.758919746262083
 20
1.953208748875711
  0
VERTEX
  8
0
 62
   178
 10
2.714909326824549
 20
1.973408815147417
  0
VERTEX
  8
0
 62
   178
 10
2.667298935812031
 20
1.985366076889945
  0
VERTEX
  8
0
 62
   178
 10
2.617987505832404
 20
1.988603620687107
  0
SEQEND
  8
0
 62
   178
  0
LINE
  8
0
 62
   178
 10
2.617987505832404
 20
1.988603620687107
 11
2.617987505832404
 21
1.988603657595617
  0
ENDSEC
  0
EOF
