<?xml version="1.0" encoding="UTF-8" standalone="no"?>
<!-- Created with Inkscape (http://www.inkscape.org/) -->

<svg
   xmlns:dc="http://purl.org/dc/elements/1.1/"
   xmlns:cc="http://creativecommons.org/ns#"
   xmlns:rdf="http://www.w3.org/1999/02/22-rdf-syntax-ns#"
   xmlns:svg="http://www.w3.org/2000/svg"
   xmlns="http://www.w3.org/2000/svg"
   xmlns:sodipodi="http://sodipodi.sourceforge.net/DTD/sodipodi-0.dtd"
   xmlns:inkscape="http://www.inkscape.org/namespaces/inkscape"
   width="3.5013633in"
   height="1.9987197in"
   viewBox="0 0 315.12269 179.88477"
   id="svg2"
   version="1.1"
   inkscape:version="0.92.1 r15371"
   sodipodi:docname="greenchile - w-outline.svg"
   inkscape:export-filename="/home/warthog9/eagle/ABQ Surface Mount Soldering Kit - Chile/greenchile - w-outline.png"
   inkscape:export-xdpi="400"
   inkscape:export-ydpi="400">
  <sodipodi:namedview
     id="base"
     pagecolor="#ffffff"
     bordercolor="#666666"
     borderopacity="1.0"
     inkscape:pageopacity="0.0"
     inkscape:pageshadow="2"
     inkscape:zoom="4"
     inkscape:cx="449.31621"
     inkscape:cy="135.84432"
     inkscape:document-units="px"
     inkscape:current-layer="g4808"
     showgrid="false"
     units="in"
     showguides="false"
     inkscape:window-width="2048"
     inkscape:window-height="1089"
     inkscape:window-x="-8"
     inkscape:window-y="40"
     inkscape:window-maximized="1"
     fit-margin-top="0"
     fit-margin-left="0"
     fit-margin-right="0"
     fit-margin-bottom="0">
    <inkscape:grid
       originy="-7.8249144"
       originx="22.060777"
       id="grid3336"
       type="xygrid" />
  </sodipodi:namedview>
  <defs
     id="defs4" />
  <metadata
     id="metadata7">
    <rdf:RDF>
      <cc:Work
         rdf:about="">
        <dc:format>image/svg+xml</dc:format>
        <dc:type
           rdf:resource="http://purl.org/dc/dcmitype/StillImage" />
        <dc:title />
      </cc:Work>
    </rdf:RDF>
  </metadata>
  <g
     style="display:inline"
     transform="translate(22.060776,-864.65245)"
     id="layer1"
     inkscape:groupmode="layer"
     inkscape:label="Layer 1">
    <path
       sodipodi:nodetypes="szazszsss"
       inkscape:connector-curvature="0"
       id="path3338"
       d="m 236.60132,940.51032 c -6.23257,-22.6111 14.02569,-24.58394 -4.67523,-61.45986 -18.70094,-36.87593 -100.11285,32.17002 -149.023082,56.33818 -19.271717,9.52282 -38.345595,34.71491 -56.687207,34.82725 -18.3416123,0.1125 -34.8313123,-39.04118 -42.661508,-19.4623 -7.156286,17.89382 16.10300927,53.90111 44.999124,71.70321 28.896114,17.802 53.417061,34.2762 130.906543,-10.2434 35.36539,-20.31822 77.16959,50.1998 91.16705,-10.2432 5.72228,-24.7096 -7.407,-37.4479 -14.02569,-61.45988 z"
       style="fill:#008000;fill-rule:evenodd;stroke:none;stroke-width:2.16638064px;stroke-linecap:butt;stroke-linejoin:miter;stroke-opacity:1" />
    <path
       sodipodi:nodetypes="zczczczczczzcczzzz"
       inkscape:connector-curvature="0"
       id="path3340"
       d="m 241.51244,914.23409 c -1.7714,-4.89404 -8.36741,-14.35026 -8.36741,-14.35026 0,0 0.24014,15.21724 -3.08274,20.80786 -3.32286,5.59061 -11.45013,4.30509 -11.45013,4.30509 0,0 12.4299,5.25924 14.09249,15.06777 1.66258,9.80855 -7.92703,26.54799 -7.92703,26.54799 0,0 10.3192,-11.7315 15.41366,-7.17514 5.09444,4.55638 4.84428,27.2655 4.84428,27.2655 0,0 3.61229,-9.5386 3.96351,-16.5028 0.35122,-6.96421 -3.08272,-23.67792 -3.08272,-23.67792 0,0 13.1478,11.7332 22.01949,5.74009 8.87169,-5.99309 19.04219,-30.91886 20.69834,-46.63835 1.65615,-15.71948 -6.60586,-36.59315 -6.60586,-36.59315 l -9.68858,7.89264 c 0,0 5.90468,15.02967 4.84429,25.83046 -1.06039,10.8008 -6.91573,27.217 -13.65209,31.57059 -6.73637,4.35358 -15.84162,-1.26783 -19.37716,-6.45763 -3.53554,-5.18981 -0.87094,-8.73871 -2.64234,-13.63274 z"
       style="fill:#ffcc00;fill-rule:evenodd;stroke:#000000;stroke-width:1.574;stroke-linecap:butt;stroke-linejoin:miter;stroke-opacity:1;stroke-miterlimit:4;stroke-dasharray:none" />
  </g>
  <g
     inkscape:label="Outline"
     inkscape:groupmode="layer"
     id="g4808"
     transform="translate(22.060776,-864.65245)"
     style="display:inline">
    <path
       transform="matrix(1.235142,0,0,1.1072553,-21.263632,904.21147)"
       d="m 190.11719,-34.800781 c -14.35989,-0.02671 -32.84797,11.113718 -52.18946,24.121093 -19.34148,13.0073764 -39.317041,28.127427 -54.804683,36.664063 -8.308459,4.57955 -16.096749,12.530989 -23.675781,19.228516 -7.579032,6.697526 -14.878155,11.87585 -21.042969,11.917968 -2.72605,0.01865 -5.878028,-1.725132 -9.115235,-4.572265 -3.237206,-2.847134 -6.454411,-6.636325 -9.490234,-9.992188 -3.035823,-3.355863 -5.68303,-6.377815 -9.11914,-7.574218 -1.7180556,-0.598202 -3.9200049,-0.471122 -5.5585942,0.716796 -1.6385894,1.187919 -2.69078,3.024233 -3.5742188,5.488282 -3.3634801,9.381276 0.3550307,21.985996 7.4492188,34.472656 7.0941882,12.48666 17.8308052,24.860958 29.9160152,33.166018 11.673585,8.02216 23.04294,16.17876 39.533203,16.91601 16.490264,0.73725 37.610168,-5.88002 69.197268,-26.123044 6.42304,-4.11629 12.88358,-3.658551 19.875,-1.253906 6.99142,2.40465 14.18364,6.86372 21.0625,10.3418 6.87886,3.47808 13.7248,6.23346 20.13672,3.7832 6.41191,-2.45026 10.92734,-9.72524 13.83008,-23.707031 2.22925,-10.737759 1.00333,-19.290255 -1.42188,-27.302735 0.0633,-0.593388 0.12552,-1.187956 0.15234,-1.78125 0.1627,-3.598543 -0.4969,-8.905145 -1.16406,-13.517578 -0.17982,-1.243176 -0.19858,-1.203195 -0.36914,-2.271484 0.57371,0.374744 0.94158,0.730175 1.58008,1.083984 1.96226,1.08734 4.22842,2.043219 6.70898,2.330078 2.48057,0.28686 5.2523,-0.192665 7.59375,-1.957031 4.54738,-3.426594 8.19254,-10.582731 11.39063,-18.853515 3.19809,-8.270785 5.64015,-17.5662092 6.34375,-25.0156255 1.43283,-15.1701555 -5.48047,-34.1113285 -5.48047,-34.1113285 a 2.4798813,2.4798813 0 0 0 -4.00391,-1.005859 l -7.8457,7.126953 a 2.4798813,2.4798813 0 0 0 -0.66992,2.660156 c 0,0 4.55951,13.535253 3.78906,22.2890629 -0.40396,4.5896573 -1.76547,10.6020797 -3.66211,15.8066411 -1.89664,5.20456 -4.56485,9.609428 -6.36914,10.910156 -1.88648,1.359977 -3.94516,1.202963 -6.30664,0.08594 -2.36148,-1.117026 -4.67305,-3.323904 -5.81836,-5.199219 -1.15578,-1.892465 -1.24248,-3.173413 -1.24023,-4.960937 0.002,-1.787524 0.22982,-4.099522 -0.6543,-6.8242188 -0.31035,-0.9564493 -0.78063,-1.9748998 -1.25977,-3.0019531 0.64025,-6.8677147 -0.49893,-15.6057641 -6.60351,-29.0332031 -3.40153,-7.481886 -9.79829,-11.037165 -17.11914,-11.050781 z"
       id="path4815"
       style="fill:none;fill-rule:evenodd;stroke:#000000;stroke-width:1.85253537px;stroke-linecap:butt;stroke-linejoin:miter;stroke-opacity:1"
       inkscape:original="M 190.11328 -32.320312 C 164.14482 -32.368623 115.87711 10.762453 84.320312 28.15625 C 68.716765 36.75679 53.272353 59.509868 38.421875 59.611328 C 23.571397 59.712938 10.220659 24.350513 3.8808594 42.033203 C -1.9133021 58.194033 16.920365 90.715008 40.316406 106.79297 C 63.712447 122.87087 83.564518 137.74892 146.30469 97.541016 C 174.93865 79.190566 208.78595 142.87828 220.11914 88.289062 C 222.3069 77.75117 221.07599 69.627927 218.61914 61.701172 C 218.70424 60.982767 218.77012 60.275723 218.80078 59.597656 C 219.08515 53.307926 216.30469 38.212891 216.30469 38.212891 C 216.30469 38.212891 226.95172 48.809164 234.13477 43.396484 C 241.31783 37.983814 249.55166 15.472471 250.89258 1.2753906 C 252.2335 -12.921679 245.54492 -31.773438 245.54492 -31.773438 L 237.69922 -24.646484 C 237.69922 -24.646484 242.47964 -11.071156 241.62109 -1.3164062 C 240.76253 8.4383537 236.02252 23.263362 230.56836 27.195312 C 225.11419 31.127254 217.7415 26.050461 214.87891 21.363281 C 212.01632 16.676101 214.17446 13.470831 212.74023 9.0507812 C 212.43276 8.1032041 211.92504 6.951569 211.34961 5.75 C 212.0845 -0.75724704 211.17138 -9.1029859 204.97852 -22.724609 C 201.90292 -29.489594 196.73269 -32.308 190.11328 -32.320312 z "
       inkscape:radius="2.4796333"
       sodipodi:type="inkscape:offset" />
    <path
       style="display:inline;fill:none;fill-rule:evenodd;stroke:#000000;stroke-width:2.16645098px;stroke-linecap:butt;stroke-linejoin:miter;stroke-opacity:1"
       d="m 412.91199,943.21552 c 6.08308,-1.75547 12.27643,-0.98518 18.85071,1.04187 8.6354,2.66257 17.51926,7.6003 26.01563,11.45142 8.49636,3.85112 16.95158,6.90252 24.87122,4.18946 7.91961,-2.71307 13.4966,-10.7686 17.0819,-26.25001 2.75344,-11.88944 1.2395,-21.35885 -1.75598,-30.23071 0.0781,-0.65703 0.15547,-1.31695 0.18859,-1.97388 0.20097,-3.9845 -0.61334,-9.8599 -1.43737,-14.96704"
       id="path4815-6"
       inkscape:connector-curvature="0"
       sodipodi:nodetypes="ccscsccc" />
  </g>
</svg>
