<?xml version="1.0" encoding="UTF-8" standalone="no"?>
<!-- Created with Inkscape (http://www.inkscape.org/) -->

<svg
   xmlns:dc="http://purl.org/dc/elements/1.1/"
   xmlns:cc="http://creativecommons.org/ns#"
   xmlns:rdf="http://www.w3.org/1999/02/22-rdf-syntax-ns#"
   xmlns:svg="http://www.w3.org/2000/svg"
   xmlns="http://www.w3.org/2000/svg"
   xmlns:sodipodi="http://sodipodi.sourceforge.net/DTD/sodipodi-0.dtd"
   xmlns:inkscape="http://www.inkscape.org/namespaces/inkscape"
   width="3in"
   height="2in"
   viewBox="0 0 270 180"
   id="svg2"
   version="1.1"
   inkscape:version="0.91 r13725"
   sodipodi:docname="greenchile.svg">
  <defs
     id="defs4" />
  <sodipodi:namedview
     id="base"
     pagecolor="#ffffff"
     bordercolor="#666666"
     borderopacity="1.0"
     inkscape:pageopacity="0.0"
     inkscape:pageshadow="2"
     inkscape:zoom="2.8"
     inkscape:cx="175"
     inkscape:cy="91.428571"
     inkscape:document-units="px"
     inkscape:current-layer="layer1"
     showgrid="false"
     units="in"
     showguides="false"
     inkscape:window-width="1436"
     inkscape:window-height="856"
     inkscape:window-x="4"
     inkscape:window-y="0"
     inkscape:window-maximized="1">
    <inkscape:grid
       type="xygrid"
       id="grid3336" />
  </sodipodi:namedview>
  <metadata
     id="metadata7">
    <rdf:RDF>
      <cc:Work
         rdf:about="">
        <dc:format>image/svg+xml</dc:format>
        <dc:type
           rdf:resource="http://purl.org/dc/dcmitype/StillImage" />
        <dc:title></dc:title>
      </cc:Work>
    </rdf:RDF>
  </metadata>
  <g
     inkscape:label="Layer 1"
     inkscape:groupmode="layer"
     id="layer1"
     transform="translate(0,-872.36215)">
    <path
       style="fill:#008000;fill-rule:evenodd;stroke:#000000;stroke-width:1.37639511px;stroke-linecap:butt;stroke-linejoin:miter;stroke-opacity:1"
       d="m 217.4458,947.58403 c -5.05442,-11.2547 11.37441,-12.23668 -3.79147,-30.59171 -15.16589,-18.35503 -81.18846,16.01266 -120.853163,28.04239 -15.628774,4.73999 -31.097107,17.27938 -45.971594,17.3353 -14.874487,0.056 -28.24713,-19.43279 -34.59718,-9.68738 -5.803529,8.90667 13.059049,26.82934 36.492915,35.69032 23.433866,8.86098 43.319605,17.06105 106.161202,-5.0986 28.68026,-10.11345 62.58219,24.98695 73.9337,-5.09862 4.64059,-12.29921 -6.00686,-18.63971 -11.37441,-30.5917 z"
       id="path3338"
       inkscape:connector-curvature="0"
       sodipodi:nodetypes="szazszsss" />
    <path
       style="fill:#00ff00;fill-rule:evenodd;stroke:#000000;stroke-width:1px;stroke-linecap:butt;stroke-linejoin:miter;stroke-opacity:1"
       d="m 221.42857,934.50501 c -1.43655,-2.43601 -6.78571,-7.14286 -6.78571,-7.14286 0,0 0.19474,7.5744 -2.50001,10.35714 -2.69474,2.78273 -9.28571,2.14286 -9.28571,2.14286 0,0 10.08027,2.61779 11.42858,7.5 1.34831,4.88222 -6.42858,13.21429 -6.42858,13.21429 0,0 8.36856,-5.83937 12.50001,-3.57143 4.13144,2.26794 3.92856,13.57143 3.92856,13.57143 0,0 2.92946,-4.74785 3.21429,-8.21429 0.28483,-3.46644 -2.5,-11.78571 -2.5,-11.78571 0,0 10.66247,5.84021 17.85714,2.85714 7.19467,-2.98307 15.44263,-15.3899 16.78572,-23.21429 1.34309,-7.82439 -5.35715,-18.21428 -5.35715,-18.21428 l -7.85714,3.92857 c 0,0 4.78851,7.48103 3.92857,12.85714 -0.85994,5.37611 -5.60845,13.54729 -11.07143,15.71429 -5.46298,2.167 -12.84706,-0.63106 -15.71428,-3.21429 -2.86722,-2.58323 -0.70631,-4.3497 -2.14286,-6.78571 z"
       id="path3340"
       inkscape:connector-curvature="0"
       sodipodi:nodetypes="zczczczczczzcczzzz" />
  </g>
</svg>
