  0
SECTION
  2
HEADER
  9
$ACADVER
  1
AC1004
  9
$INSBASE
 10
0.0
 20
0.0
  9
$EXTMIN
 10
1.000000000000000E+20
 20
1.000000000000000E+20
  9
$EXTMAX
 10
-1.000000000000000E+20
 20
-1.000000000000000E+20
  9
$LIMMIN
 10
0.0
 20
0.0
  9
$LIMMAX
 10
12.0
 20
9.0
  9
$ORTHOMODE
 70
     0
  9
$REGENMODE
 70
     1
  9
$FILLMODE
 70
     1
  9
$QTEXTMODE
 70
     0
  9
$DRAGMODE
 70
     2
  9
$LTSCALE
 40
1.0
  9
$OSMODE
 70
    37
  9
$ATTMODE
 70
     1
  9
$TEXTSIZE
 40
0.2
  9
$TRACEWID
 40
0.05
  9
$TEXTSTYLE
  7
STANDARD
  9
$CLAYER
  8
0
  9
$CELTYPE
  6
BYLAYER
  9
$CECOLOR
 62
    18
  9
$DIMSCALE
 40
1.0
  9
$DIMASZ
 40
0.125
  9
$DIMEXO
 40
0.03125
  9
$DIMDLI
 40
0.38
  9
$DIMRND
 40
0.0
  9
$DIMDLE
 40
0.0
  9
$DIMEXE
 40
0.0625
  9
$DIMTP
 40
0.0
  9
$DIMTM
 40
0.0
  9
$DIMTXT
 40
0.125
  9
$DIMCEN
 40
0.09
  9
$DIMTSZ
 40
0.0
  9
$DIMTOL
 70
     0
  9
$DIMLIM
 70
     0
  9
$DIMTIH
 70
     1
  9
$DIMTOH
 70
     1
  9
$DIMSE1
 70
     0
  9
$DIMSE2
 70
     0
  9
$DIMTAD
 70
     0
  9
$DIMZIN
 70
     8
  9
$DIMBLK
  1

  9
$DIMASO
 70
     1
  9
$DIMSHO
 70
     1
  9
$DIMPOST
  1

  9
$DIMAPOST
  1

  9
$DIMALT
 70
     0
  9
$DIMALTD
 70
     2
  9
$DIMALTF
 40
25.4
  9
$DIMLFAC
 40
1.0
  9
$DIMTOFL
 70
     0
  9
$DIMTVP
 40
0.0
  9
$DIMTIX
 70
     0
  9
$DIMSOXD
 70
     0
  9
$DIMSAH
 70
     0
  9
$DIMBLK1
  1

  9
$DIMBLK2
  1

  9
$LUNITS
 70
     2
  9
$LUPREC
 70
     4
  9
$SKETCHINC
 40
0.1
  9
$FILLETRAD
 40
0.5
  9
$AUNITS
 70
     0
  9
$AUPREC
 70
     0
  9
$MENU
  1
.
  9
$ELEVATION
 40
0.0
  9
$THICKNESS
 40
0.0
  9
$LIMCHECK
 70
     0
  9
$CHAMFERA
 40
0.0
  9
$CHAMFERB
 40
0.0
  9
$SKPOLY
 70
     0
  9
$TDCREATE
 40
2457952.904224259
  9
$TDUPDATE
 40
2457952.904224294
  9
$TDINDWG
 40
0.0000000116
  9
$TDUSRTIMER
 40
0.0000000116
  9
$USRTIMER
 70
     1
  9
$ANGBASE
 50
0.0
  9
$ANGDIR
 70
     0
  9
$PDMODE
 70
     0
  9
$PDSIZE
 40
0.0
  9
$PLINEWID
 40
0.0
  9
$COORDS
 70
     1
  9
$SPLFRAME
 70
     0
  9
$SPLINETYPE
 70
     6
  9
$SPLINESEGS
 70
     8
  9
$ATTDIA
 70
     0
  9
$ATTREQ
 70
     1
  9
$SURFTAB1
 70
     6
  9
$SURFTAB2
 70
     6
  9
$SURFTYPE
 70
     6
  9
$SURFU
 70
     6
  9
$SURFV
 70
     6
  9
$UCSNAME
  2

  9
$UCSORG
 10
0.0
 20
0.0
 30
0.0
  9
$UCSXDIR
 10
1.0
 20
0.0
 30
0.0
  9
$UCSYDIR
 10
0.0
 20
1.0
 30
0.0
  9
$USERI1
 70
     0
  9
$USERI2
 70
     0
  9
$USERI3
 70
     0
  9
$USERI4
 70
     0
  9
$USERI5
 70
     0
  9
$USERR1
 40
0.0
  9
$USERR2
 40
0.0
  9
$USERR3
 40
0.0
  9
$USERR4
 40
0.0
  9
$USERR5
 40
0.0
  9
$WORLDVIEW
 70
     1
  0
ENDSEC
  0
SECTION
  2
TABLES
  0
TABLE
  2
LTYPE
 70
    52
  0
LTYPE
  2
CONTINUOUS
 70
     0
  3
Solid line
 72
    65
 73
     0
 40
0.0
  0
LTYPE
  2
BORDER2
 70
     0
  3
Border (.5x) __.__.__.__.__.__.__.__.__.__.__.
 72
    65
 73
     6
 40
22.225
 49
6.35
 49
-3.175
 49
6.35
 49
-3.175
 49
0.0
 49
-3.175
  0
LTYPE
  2
CUTRIGHT
 70
     0
  3
G42 ----/----/-----/---
 72
    65
 73
     2
 40
10.16
 49
5.08
 49
5.08
  0
LTYPE
  2
CUTLEFT2
 70
     0
  3
G41 reversed----/----/----/----
 72
    65
 73
     2
 40
10.16
 49
5.08
 49
5.08
  0
LTYPE
  2
CUTLEFT
 70
     0
  3
G41 ----\----\----\----
 72
    65
 73
     2
 40
10.16
 49
5.08
 49
5.08
  0
LTYPE
  2
CENTERX2
 70
     0
  3
Center (2x) ________  __  ________  __  _____
 72
    65
 73
     4
 40
101.6
 49
63.5
 49
-12.7
 49
12.7
 49
-12.7
  0
LTYPE
  2
ACAD_ISO13W100
 70
     0
  3
ISO double-dash double-dot __ __ . . __ __ . . _
 72
    65
 73
     8
 40
36.0
 49
12.0
 49
-3.0
 49
12.0
 49
-3.0
 49
0.0
 49
-3.0
 49
0.0
 49
-3.0
  0
LTYPE
  2
ACAD_ISO12W100
 70
     0
  3
ISO dash double-dot __ . . __ . . __ . . __ . . 
 72
    65
 73
     6
 40
21.0
 49
12.0
 49
-3.0
 49
0.0
 49
-3.0
 49
0.0
 49
-3.0
  0
LTYPE
  2
ACAD_ISO11W100
 70
     0
  3
ISO double-dash dot __ __ . __ __ . __ __ . __ _
 72
    65
 73
     6
 40
33.0
 49
12.0
 49
-3.0
 49
12.0
 49
-3.0
 49
0.0
 49
-3.0
  0
LTYPE
  2
ACAD_ISO10W100
 70
     0
  3
ISO dash dot __ . __ . __ . __ . __ . __ . __ . 
 72
    65
 73
     4
 40
18.0
 49
12.0
 49
-3.0
 49
0.0
 49
-3.0
  0
LTYPE
  2
BORDER
 70
     0
  3
Border __ __ . __ __ . __ __ . __ __ . __ __ .
 72
    65
 73
     6
 40
44.45
 49
12.7
 49
-6.35
 49
12.7
 49
-6.35
 49
0.0
 49
-6.35
  0
LTYPE
  2
BATTING
 70
     0
  3
Batting SSSSSSSSSSSSSSSSSSSSSSSSSSSSSSSSSSSSSSSSSSSSSSS
 72
    65
 73
     4
 40
10.16254
 49
0.00254
 49
-2.54
 49
-5.08
 49
-2.54
  0
LTYPE
  2
ACAD_ISO15W100
 70
     0
  3
ISO double-dash triple-dot __ __ . . . __ __ . .
 72
    65
 73
    10
 40
39.0
 49
12.0
 49
-3.0
 49
12.0
 49
-3.0
 49
0.0
 49
-3.0
 49
0.0
 49
-3.0
 49
0.0
 49
-3.0
  0
LTYPE
  2
ACAD_ISO14W100
 70
     0
  3
ISO dash triple-dot __ . . . __ . . . __ . . . _
 72
    65
 73
     8
 40
24.0
 49
12.0
 49
-3.0
 49
0.0
 49
-3.0
 49
0.0
 49
-3.0
 49
0.0
 49
-3.0
  0
LTYPE
  2
ACAD_ISO05W100
 70
     0
  3
ISO long-dash double-dot ____ .. ____ .. ____ . 
 72
    65
 73
     6
 40
33.0
 49
24.0
 49
-3.0
 49
0.0
 49
-3.0
 49
0.0
 49
-3.0
  0
LTYPE
  2
ACAD_ISO04W100
 70
     0
  3
ISO long-dash dot ____ . ____ . ____ . ____ . _
 72
    65
 73
     4
 40
30.0
 49
24.0
 49
-3.0
 49
0.0
 49
-3.0
  0
LTYPE
  2
ACAD_ISO03W100
 70
     0
  3
ISO dash space __    __    __    __    __    __
 72
    65
 73
     2
 40
30.0
 49
12.0
 49
-18.0
  0
LTYPE
  2
ACAD_ISO02W100
 70
     0
  3
ISO dash __ __ __ __ __ __ __ __ __ __ __ __ __
 72
    65
 73
     2
 40
15.0
 49
12.0
 49
-3.0
  0
LTYPE
  2
ACAD_ISO09W100
 70
     0
  3
ISO long-dash double-short-dash ____ __ __ ____
 72
    65
 73
     6
 40
45.0
 49
24.0
 49
-3.0
 49
6.0
 49
-3.0
 49
6.0
 49
-3.0
  0
LTYPE
  2
ACAD_ISO08W100
 70
     0
  3
ISO long-dash short-dash ____ __ ____ __ ____ _
 72
    65
 73
     4
 40
36.0
 49
24.0
 49
-3.0
 49
6.0
 49
-3.0
  0
LTYPE
  2
ACAD_ISO07W100
 70
     0
  3
ISO dot . . . . . . . . . . . . . . . . . . . . 
 72
    65
 73
     2
 40
3.0
 49
0.0
 49
-3.0
  0
LTYPE
  2
ACAD_ISO06W100
 70
     0
  3
ISO long-dash triple-dot ____ ... ____ ... ____
 72
    65
 73
     8
 40
36.0
 49
24.0
 49
-3.0
 49
0.0
 49
-3.0
 49
0.0
 49
-3.0
 49
0.0
 49
-3.0
  0
LTYPE
  2
ZIGZAG
 70
     0
  3
Zig zag /\/\/\/\/\/\/\/\/\/\/\/\/\/\/\/\/\/\/\/\/\/\/\/
 72
    65
 73
     4
 40
20.32254
 49
0.00254
 49
-5.08
 49
-10.16
 49
-5.08
  0
LTYPE
  2
TRACKS
 70
     0
  3
Tracks -|-|-|-|-|-|-|-|-|-|-|-|-|-|-|-|-|-|-|-|-|-|-|-|-
 72
    65
 73
     2
 40
7.62
 49
3.81
 49
3.81
  0
LTYPE
  2
PHANTOMX2
 70
     0
  3
Phantom (2x) ____________    ____    ____   _
 72
    65
 73
     6
 40
127.0
 49
63.5
 49
-12.7
 49
12.7
 49
-12.7
 49
12.7
 49
-12.7
  0
LTYPE
  2
HIDDEN2
 70
     0
  3
Hidden (.5x) _ _ _ _ _ _ _ _ _ _ _ _ _ _ _ _ _ 
 72
    65
 73
     2
 40
4.762499999999999
 49
3.175
 49
-1.5875
  0
LTYPE
  2
HIDDEN
 70
     0
  3
Hidden __ __ __ __ __ __ __ __ __ __ __ __ __ __
 72
    65
 73
     2
 40
9.524999999999999
 49
6.35
 49
-3.175
  0
LTYPE
  2
GAS_LINE
 70
     0
  3
Gas line ----GAS----GAS----GAS----GAS----GAS----GAS--
 72
    65
 73
     3
 40
24.13
 49
12.7
 49
-5.08
 49
-6.35
  0
LTYPE
  2
FENCELINE2
 70
     0
  3
Fenceline square ----[]-----[]----[]-----[]----[]---
 72
    65
 73
     4
 40
36.83
 49
6.35
 49
-2.54
 49
-2.54
 49
25.4
  0
LTYPE
  2
PHANTOM2
 70
     0
  3
Phantom (.5x) ___ _ _ ___ _ _ ___ _ _ ___ _ _
 72
    65
 73
     6
 40
31.75
 49
15.875
 49
-3.175
 49
3.175
 49
-3.175
 49
3.175
 49
-3.175
  0
LTYPE
  2
PHANTOM
 70
     0
  3
Phantom ______  __  __  ______  __  __  ______ 
 72
    65
 73
     6
 40
63.50000000000001
 49
31.75
 49
-6.35
 49
6.35
 49
-6.35
 49
6.35
 49
-6.35
  0
LTYPE
  2
HOT_WATER_SUPPLY
 70
     0
  3
Hot water supply ---- HW ---- HW ---- HW ----
 72
    65
 73
     3
 40
22.86
 49
12.7
 49
-5.08
 49
-5.08
  0
LTYPE
  2
HIDDENX2
 70
     0
  3
Hidden (2x) ____ ____ ____ ____ ____ ____ ____ 
 72
    65
 73
     2
 40
19.05
 49
12.7
 49
-6.35
  0
LTYPE
  2
DOT2
 70
     0
  3
Dot (.5x) ........................................
 72
    65
 73
     2
 40
3.175
 49
0.0
 49
-3.175
  0
LTYPE
  2
DOT
 70
     0
  3
Dot . . . . . . . . . . . . . . . . . . . . . . . .
 72
    65
 73
     2
 40
6.35
 49
0.0
 49
-6.35
  0
LTYPE
  2
DIVIDEX2
 70
     0
  3
Divide (2x) ________  .  .  ________  .  .  _
 72
    65
 73
     6
 40
63.5
 49
25.4
 49
-12.7
 49
0.0
 49
-12.7
 49
0.0
 49
-12.7
  0
LTYPE
  2
DIVIDE2
 70
     0
  3
Divide (.5x) __..__..__..__..__..__..__..__.._
 72
    65
 73
     6
 40
15.875
 49
6.35
 49
-3.175
 49
0.0
 49
-3.175
 49
0.0
 49
-3.175
  0
LTYPE
  2
FENCELINE1
 70
     0
  3
Fenceline circle ----0-----0----0-----0----0-----0--
 72
    65
 73
     4
 40
36.83
 49
6.35
 49
-2.54
 49
-2.54
 49
25.4
  0
LTYPE
  2
DRAINAGE2
 70
     0
  3
Drainage reversed----<----<----<----
 72
    65
 73
     2
 40
10.16
 49
5.08
 49
5.08
  0
LTYPE
  2
DRAINAGE
 70
     0
  3
Drainage ---->---->---->----
 72
    65
 73
     2
 40
10.16
 49
5.08
 49
5.08
  0
LTYPE
  2
DOTX2
 70
     0
  3
Dot (2x) .  .  .  .  .  .  .  .  .  .  .  .  .  .
 72
    65
 73
     2
 40
12.7
 49
0.0
 49
-12.7
  0
LTYPE
  2
DASHDOTX2
 70
     0
  3
Dash dot (2x) ____  .  ____  .  ____  .  ___
 72
    65
 73
     4
 40
50.8
 49
25.4
 49
-12.7
 49
0.0
 49
-12.7
  0
LTYPE
  2
DASHDOT2
 70
     0
  3
Dash dot (.5x) _._._._._._._._._._._._._._._.
 72
    65
 73
     4
 40
12.7
 49
6.35
 49
-3.175
 49
0.0
 49
-3.175
  0
LTYPE
  2
DASHDOT
 70
     0
  3
Dash dot __ . __ . __ . __ . __ . __ . __ . __
 72
    65
 73
     4
 40
25.4
 49
12.7
 49
-6.35
 49
0.0
 49
-6.35
  0
LTYPE
  2
CUTRIGHT2
 70
     0
  3
G42 reversed----\----\----\----
 72
    65
 73
     2
 40
10.16
 49
5.08
 49
5.08
  0
LTYPE
  2
DIVIDE
 70
     0
  3
Divide ____ . . ____ . . ____ . . ____ . . ____
 72
    65
 73
     6
 40
31.75
 49
12.7
 49
-6.35
 49
0.0
 49
-6.35
 49
0.0
 49
-6.35
  0
LTYPE
  2
DASHEDX2
 70
     0
  3
Dashed (2x) ____  ____  ____  ____  ____  ___
 72
    65
 73
     2
 40
38.09999999999999
 49
25.4
 49
-12.7
  0
LTYPE
  2
DASHED2
 70
     0
  3
Dashed (.5x) _ _ _ _ _ _ _ _ _ _ _ _ _ _ _ _ _ 
 72
    65
 73
     2
 40
9.524999999999999
 49
6.35
 49
-3.175
  0
LTYPE
  2
DASHED
 70
     0
  3
Dashed __ __ __ __ __ __ __ __ __ __ __ __ __ _
 72
    65
 73
     2
 40
19.05
 49
12.7
 49
-6.35
  0
LTYPE
  2
CENTER2
 70
     0
  3
Center (.5x) ___ _ ___ _ ___ _ ___ _ ___ _ ___
 72
    65
 73
     4
 40
28.575
 49
19.05
 49
-3.175
 49
3.175
 49
-3.175
  0
LTYPE
  2
CENTER
 70
     0
  3
Center ____ _ ____ _ ____ _ ____ _ ____ _ ____
 72
    65
 73
     4
 40
50.8
 49
31.75
 49
-6.35
 49
6.35
 49
-6.35
  0
LTYPE
  2
BORDERX2
 70
     0
  3
Border (2x) ____  ____  .  ____  ____  .  ___
 72
    65
 73
     6
 40
88.89999999999999
 49
25.4
 49
-12.7
 49
25.4
 49
-12.7
 49
0.0
 49
-12.7
  0
ENDTAB
  0
TABLE
  2
LAYER
 70
     1
  0
LAYER
  2
0
 70
     0
 62
     7
  6
CONTINUOUS
  0
ENDTAB
  0
TABLE
  2
STYLE
 70
     2
  0
STYLE
  2
STANDARD
 70
     0
 40
0.0
 41
1.0
 50
0.0
 71
     0
 42
0.2
  3
txt
  4

  0
STYLE
  2
QCADDIMTEXTSTYLE
 70
     0
 40
0.0
 41
1.0
 50
0.0
 71
     0
 42
0.2
  3

  4

  0
ENDTAB
  0
TABLE
  2
VIEW
 70
     0
  0
ENDTAB
  0
ENDSEC
  0
SECTION
  2
BLOCKS
  0
ENDSEC
  0
SECTION
  2
ENTITIES
  0
POLYLINE
  8
0
 62
   178
 66
     1
  0
VERTEX
  8
0
 62
   178
 10
2.631127385584995
 20
2.015665996234204
  0
VERTEX
  8
0
 62
   178
 10
2.605952269925352
 20
2.014986398610403
  0
VERTEX
  8
0
 62
   178
 10
2.580200803509395
 20
2.012897575014807
  0
VERTEX
  8
0
 62
   178
 10
2.553892687661358
 20
2.009450184540269
  0
VERTEX
  8
0
 62
   178
 10
2.527047623705471
 20
2.004694886279633
  0
VERTEX
  8
0
 62
   178
 10
2.499685312965966
 20
1.998682339325749
  0
VERTEX
  8
0
 62
   178
 10
2.471825456767075
 20
1.991463202771468
  0
VERTEX
  8
0
 62
   178
 10
2.44348775643303
 20
1.983088135709638
  0
VERTEX
  8
0
 62
   178
 10
2.414691913288062
 20
1.973607797233109
  0
VERTEX
  8
0
 62
   178
 10
2.385457628656403
 20
1.96307284643473
  0
VERTEX
  8
0
 62
   178
 10
2.355804603862285
 20
1.951533942407348
  0
VERTEX
  8
0
 62
   178
 10
2.32575254022994
 20
1.939041744243816
  0
VERTEX
  8
0
 62
   178
 10
2.295321139083599
 20
1.92564691103698
  0
VERTEX
  8
0
 62
   178
 10
2.264530101747494
 20
1.911400101879691
  0
VERTEX
  8
0
 62
   178
 10
2.233399129545859
 20
1.896351975864797
  0
VERTEX
  8
0
 62
   178
 10
2.201947923802922
 20
1.880553192085148
  0
VERTEX
  8
0
 62
   178
 10
2.170196185842916
 20
1.864054409633593
  0
VERTEX
  8
0
 62
   178
 10
2.138163616990075
 20
1.846906287602981
  0
VERTEX
  8
0
 62
   178
 10
2.105869918568628
 20
1.82915948508616
  0
VERTEX
  8
0
 62
   178
 10
2.073334791902807
 20
1.810864661175981
  0
VERTEX
  8
0
 62
   178
 10
2.040577938316845
 20
1.792072474965293
  0
VERTEX
  8
0
 62
   178
 10
2.007619059134973
 20
1.772833585546943
  0
VERTEX
  8
0
 62
   178
 10
1.974477855681424
 20
1.753198652013784
  0
VERTEX
  8
0
 62
   178
 10
1.941174029280427
 20
1.733218333458662
  0
VERTEX
  8
0
 62
   178
 10
1.907727281256217
 20
1.712943288974426
  0
SEQEND
  8
0
 62
   178
  0
POLYLINE
  8
0
 62
   178
 66
     1
  0
VERTEX
  8
0
 62
   178
 10
1.907727281256217
 20
1.712943288974426
  0
VERTEX
  8
0
 62
   178
 10
1.87417501642682
 20
1.692407565008538
  0
VERTEX
  8
0
 62
   178
 10
1.840562013634515
 20
1.671643018663298
  0
VERTEX
  8
0
 62
   178
 10
1.806919087218805
 20
1.650697018425003
  0
VERTEX
  8
0
 62
   178
 10
1.773277051519193
 20
1.629616932779952
  0
VERTEX
  8
0
 62
   178
 10
1.739666720875179
 20
1.608450130214439
  0
VERTEX
  8
0
 62
   178
 10
1.706118909626268
 20
1.587243979214763
  0
VERTEX
  8
0
 62
   178
 10
1.672664432111959
 20
1.566045848267221
  0
VERTEX
  8
0
 62
   178
 10
1.639334102671758
 20
1.544903105858112
  0
VERTEX
  8
0
 62
   178
 10
1.606158735645164
 20
1.523863120473729
  0
VERTEX
  8
0
 62
   178
 10
1.57316914537168
 20
1.50297326060037
  0
VERTEX
  8
0
 62
   178
 10
1.540396146190809
 20
1.482280894724335
  0
VERTEX
  8
0
 62
   178
 10
1.507870552442052
 20
1.461833391331918
  0
VERTEX
  8
0
 62
   178
 10
1.475623178464913
 20
1.441678118909418
  0
VERTEX
  8
0
 62
   178
 10
1.443684838598893
 20
1.421862445943132
  0
VERTEX
  8
0
 62
   178
 10
1.412086347183495
 20
1.402433740919356
  0
VERTEX
  8
0
 62
   178
 10
1.380858518558219
 20
1.383439372324388
  0
VERTEX
  8
0
 62
   178
 10
1.350032167062569
 20
1.364926708644524
  0
VERTEX
  8
0
 62
   178
 10
1.319638107036048
 20
1.346943118366061
  0
VERTEX
  8
0
 62
   178
 10
1.289707152818157
 20
1.329535969975297
  0
VERTEX
  8
0
 62
   178
 10
1.260270118748397
 20
1.312752631958531
  0
VERTEX
  8
0
 62
   178
 10
1.231357819166272
 20
1.296640472802055
  0
VERTEX
  8
0
 62
   178
 10
1.203001068411285
 20
1.281246860992171
  0
VERTEX
  8
0
 62
   178
 10
1.175230680822936
 20
1.266619165015173
  0
VERTEX
  8
0
 62
   178
 10
1.148077470740728
 20
1.25280475335736
  0
SEQEND
  8
0
 62
   178
  0
POLYLINE
  8
0
 62
   178
 66
     1
  0
VERTEX
  8
0
 62
   178
 10
1.148077470740728
 20
1.25280475335736
  0
VERTEX
  8
0
 62
   178
 10
1.133719227949568
 20
1.245404308572079
  0
VERTEX
  8
0
 62
   178
 10
1.119434219719679
 20
1.237588252405494
  0
VERTEX
  8
0
 62
   178
 10
1.105220575586966
 20
1.229381782069397
  0
VERTEX
  8
0
 62
   178
 10
1.091076425087329
 20
1.220810094775587
  0
VERTEX
  8
0
 62
   178
 10
1.076999897756672
 20
1.211898387735855
  0
VERTEX
  8
0
 62
   178
 10
1.062989123130897
 20
1.202671858161999
  0
VERTEX
  8
0
 62
   178
 10
1.049042230745906
 20
1.193155703265811
  0
VERTEX
  8
0
 62
   178
 10
1.035157350137601
 20
1.183375120259088
  0
VERTEX
  8
0
 62
   178
 10
1.021332610841884
 20
1.173355306353625
  0
VERTEX
  8
0
 62
   178
 10
1.007566142394657
 20
1.163121458761216
  0
VERTEX
  8
0
 62
   178
 10
0.9938560743318229
 20
1.152698774693658
  0
VERTEX
  8
0
 62
   178
 10
0.9802005361892836
 20
1.142112451362743
  0
VERTEX
  8
0
 62
   178
 10
0.9665976575029414
 20
1.131387685980267
  0
VERTEX
  8
0
 62
   178
 10
0.9530455678086982
 20
1.120549675758028
  0
VERTEX
  8
0
 62
   178
 10
0.9395423966424564
 20
1.109623617907816
  0
VERTEX
  8
0
 62
   178
 10
0.9260862735401181
 20
1.098634709641429
  0
VERTEX
  8
0
 62
   178
 10
0.9126753280375857
 20
1.087608148170661
  0
VERTEX
  8
0
 62
   178
 10
0.8993076896707611
 20
1.07656913070731
  0
VERTEX
  8
0
 62
   178
 10
0.8859814879755467
 20
1.065542854463166
  0
VERTEX
  8
0
 62
   178
 10
0.8726948524878445
 20
1.054554516650026
  0
VERTEX
  8
0
 62
   178
 10
0.859445912743557
 20
1.043629314479686
  0
VERTEX
  8
0
 62
   178
 10
0.8462327982785861
 20
1.032792445163941
  0
VERTEX
  8
0
 62
   178
 10
0.8330536386288341
 20
1.022069105914584
  0
VERTEX
  8
0
 62
   178
 10
0.8199065633302031
 20
1.011484493943413
  0
SEQEND
  8
0
 62
   178
  0
POLYLINE
  8
0
 62
   178
 66
     1
  0
VERTEX
  8
0
 62
   178
 10
0.8199065633302031
 20
1.011484493943413
  0
VERTEX
  8
0
 62
   178
 10
0.8067959708529179
 20
1.001080232935816
  0
VERTEX
  8
0
 62
   178
 10
0.7937309333999603
 20
0.9908942800926075
  0
VERTEX
  8
0
 62
   178
 10
0.7807165911063702
 20
0.980946337605007
  0
VERTEX
  8
0
 62
   178
 10
0.7677580841071865
 20
0.9712561076642358
  0
VERTEX
  8
0
 62
   178
 10
0.754860552537448
 20
0.9618432924615142
  0
VERTEX
  8
0
 62
   178
 10
0.7420291365321946
 20
0.952727594188063
  0
VERTEX
  8
0
 62
   178
 10
0.729268976226465
 20
0.9439287150351034
  0
VERTEX
  8
0
 62
   178
 10
0.7165852117552983
 20
0.935466357193856
  0
VERTEX
  8
0
 62
   178
 10
0.7039829832537341
 20
0.9273602228555413
  0
VERTEX
  8
0
 62
   178
 10
0.6914674308568112
 20
0.9196300142113805
  0
VERTEX
  8
0
 62
   178
 10
0.679043694699569
 20
0.9122954334525939
  0
VERTEX
  8
0
 62
   178
 10
0.6667169149170467
 20
0.9053761827704028
  0
VERTEX
  8
0
 62
   178
 10
0.6544922316442833
 20
0.8988919643560279
  0
VERTEX
  8
0
 62
   178
 10
0.6423747850163181
 20
0.8928624804006897
  0
VERTEX
  8
0
 62
   178
 10
0.6303697151681902
 20
0.8873074330956089
  0
VERTEX
  8
0
 62
   178
 10
0.6184821622349388
 20
0.8822465246320065
  0
VERTEX
  8
0
 62
   178
 10
0.6067172663516031
 20
0.8776994572011035
  0
VERTEX
  8
0
 62
   178
 10
0.5950801676532225
 20
0.8736859329941202
  0
VERTEX
  8
0
 62
   178
 10
0.5835760062748356
 20
0.8702256542022776
  0
VERTEX
  8
0
 62
   178
 10
0.5722099223514823
 20
0.8673383230167967
  0
VERTEX
  8
0
 62
   178
 10
0.5609870560182014
 20
0.8650436416288979
  0
VERTEX
  8
0
 62
   178
 10
0.5499125474100321
 20
0.8633613122298024
  0
VERTEX
  8
0
 62
   178
 10
0.5389915366620135
 20
0.8623110370107304
  0
VERTEX
  8
0
 62
   178
 10
0.5282291639091848
 20
0.8619125181629032
  0
SEQEND
  8
0
 62
   178
  0
POLYLINE
  8
0
 62
   178
 66
     1
  0
VERTEX
  8
0
 62
   178
 10
0.5282291639091848
 20
0.8619125181629032
  0
VERTEX
  8
0
 62
   178
 10
0.5234755211052478
 20
0.8619978641106908
  0
VERTEX
  8
0
 62
   178
 10
0.5186624300105575
 20
0.8623100235192238
  0
VERTEX
  8
0
 62
   178
 10
0.5137919402960732
 20
0.8628454063067963
  0
VERTEX
  8
0
 62
   178
 10
0.5088661016327548
 20
0.863600422391702
  0
VERTEX
  8
0
 62
   178
 10
0.5038869636915613
 20
0.8645714816922342
  0
VERTEX
  8
0
 62
   178
 10
0.4988565761434521
 20
0.8657549941266872
  0
VERTEX
  8
0
 62
   178
 10
0.493776988659387
 20
0.8671473696133544
  0
VERTEX
  8
0
 62
   178
 10
0.488650250910325
 20
0.8687450180705295
  0
VERTEX
  8
0
 62
   178
 10
0.4834784125672256
 20
0.8705443494165059
  0
VERTEX
  8
0
 62
   178
 10
0.4782635233010484
 20
0.872541773569578
  0
VERTEX
  8
0
 62
   178
 10
0.4730076327827524
 20
0.8747337004480389
  0
VERTEX
  8
0
 62
   178
 10
0.4677127906832974
 20
0.8771165399701828
  0
VERTEX
  8
0
 62
   178
 10
0.4623810466736425
 20
0.8796867020543031
  0
VERTEX
  8
0
 62
   178
 10
0.4570144504247475
 20
0.8824405966186935
  0
VERTEX
  8
0
 62
   178
 10
0.4516150516075714
 20
0.8853746335816478
  0
VERTEX
  8
0
 62
   178
 10
0.4461848998930737
 20
0.8884852228614597
  0
VERTEX
  8
0
 62
   178
 10
0.4407260449522141
 20
0.891768774376423
  0
VERTEX
  8
0
 62
   178
 10
0.4352405364559515
 20
0.8952216980448312
  0
VERTEX
  8
0
 62
   178
 10
0.4297304240752455
 20
0.898840403784978
  0
VERTEX
  8
0
 62
   178
 10
0.4241977574810558
 20
0.9026213015151573
  0
VERTEX
  8
0
 62
   178
 10
0.4186445863443415
 20
0.9065608011536629
  0
VERTEX
  8
0
 62
   178
 10
0.413072960336062
 20
0.9106553126187883
  0
VERTEX
  8
0
 62
   178
 10
0.4074849291271769
 20
0.914901245828827
  0
VERTEX
  8
0
 62
   178
 10
0.4018825423886453
 20
0.9192950107020732
  0
SEQEND
  8
0
 62
   178
  0
LINE
  8
0
 62
   178
 10
0.2703380453636791
 20
1.044698208758178
 11
0.4018825423886437
 21
0.9192950107020755
  0
POLYLINE
  8
0
 62
   178
 66
     1
  0
VERTEX
  8
0
 62
   178
 10
0.2703380453636805
 20
1.044698208758176
  0
VERTEX
  8
0
 62
   178
 10
0.2651049626464842
 20
1.049939590486421
  0
VERTEX
  8
0
 62
   178
 10
0.2599209065240561
 20
1.055129194771774
  0
VERTEX
  8
0
 62
   178
 10
0.254778792953008
 20
1.060258896509282
  0
VERTEX
  8
0
 62
   178
 10
0.249671537889951
 20
1.065320570593996
  0
VERTEX
  8
0
 62
   178
 10
0.2445920572914966
 20
1.070306091920963
  0
VERTEX
  8
0
 62
   178
 10
0.2395332671142562
 20
1.075207335385234
  0
VERTEX
  8
0
 62
   178
 10
0.2344880833148412
 20
1.080016175881857
  0
VERTEX
  8
0
 62
   178
 10
0.2294494218498631
 20
1.08472448830588
  0
VERTEX
  8
0
 62
   178
 10
0.2244101986759333
 20
1.089324147552354
  0
VERTEX
  8
0
 62
   178
 10
0.2193633297496632
 20
1.093807028516328
  0
VERTEX
  8
0
 62
   178
 10
0.2143017310276643
 20
1.098165006092849
  0
VERTEX
  8
0
 62
   178
 10
0.2092183184665479
 20
1.102389955176967
  0
VERTEX
  8
0
 62
   178
 10
0.2041060080229255
 20
1.106473750663731
  0
VERTEX
  8
0
 62
   178
 10
0.1989577156534085
 20
1.11040826744819
  0
VERTEX
  8
0
 62
   178
 10
0.1937663573146084
 20
1.114185380425393
  0
VERTEX
  8
0
 62
   178
 10
0.1885248489631365
 20
1.11779696449039
  0
VERTEX
  8
0
 62
   178
 10
0.1832261065556043
 20
1.121234894538229
  0
VERTEX
  8
0
 62
   178
 10
0.1778630460486231
 20
1.124491045463958
  0
VERTEX
  8
0
 62
   178
 10
0.1724285833988045
 20
1.127557292162628
  0
VERTEX
  8
0
 62
   178
 10
0.1669156345627598
 20
1.130425509529287
  0
VERTEX
  8
0
 62
   178
 10
0.1613171154971005
 20
1.133087572458985
  0
VERTEX
  8
0
 62
   178
 10
0.1556259421584378
 20
1.135535355846768
  0
VERTEX
  8
0
 62
   178
 10
0.1498350305033835
 20
1.137760734587689
  0
VERTEX
  8
0
 62
   178
 10
0.1439372964885487
 20
1.139755583576794
  0
SEQEND
  8
0
 62
   178
  0
POLYLINE
  8
0
 62
   178
 66
     1
  0
VERTEX
  8
0
 62
   178
 10
0.1439372964885487
 20
1.139755583576794
  0
VERTEX
  8
0
 62
   178
 10
0.1283270239838097
 20
1.143309836584492
  0
VERTEX
  8
0
 62
   178
 10
0.1122588064856592
 20
1.144170048420613
  0
VERTEX
  8
0
 62
   178
 10
0.0962947109943778
 20
1.142306128834861
  0
VERTEX
  8
0
 62
   178
 10
0.0809931623175715
 20
1.137783277821604
  0
VERTEX
  8
0
 62
   178
 10
0.0668894093442603
 20
1.130759704921005
  0
SEQEND
  8
0
 62
   178
  0
POLYLINE
  8
0
 62
   178
 66
     1
  0
VERTEX
  8
0
 62
   178
 10
0.0668894093442603
 20
1.130759704921005
  0
VERTEX
  8
0
 62
   178
 10
0.04531884471914
 20
1.111007499209222
  0
VERTEX
  8
0
 62
   178
 10
0.0285766425344625
 20
1.087730868442199
  0
VERTEX
  8
0
 62
   178
 10
0.0173470256366327
 20
1.061881085480125
  0
SEQEND
  8
0
 62
   178
  0
POLYLINE
  8
0
 62
   178
 66
     1
  0
VERTEX
  8
0
 62
   178
 10
0.0173470256366329
 20
1.061881085480125
  0
VERTEX
  8
0
 62
   178
 10
0.0120269130950146
 20
1.046956395819996
  0
VERTEX
  8
0
 62
   178
 10
0.007707042123308
 20
1.031628505364101
  0
VERTEX
  8
0
 62
   178
 10
0.0043651152584961
 20
1.015915615626948
  0
VERTEX
  8
0
 62
   178
 10
0.0019788350375622
 20
0.9998359281230396
  0
VERTEX
  8
0
 62
   178
 10
0.0005259039974894
 20
0.9834076443668831
  0
VERTEX
  8
0
 62
   178
 10
-0.0000159753247391
 20
0.966648965872984
  0
VERTEX
  8
0
 62
   178
 10
0.0003308996078601
 20
0.9495780941558479
  0
VERTEX
  8
0
 62
   178
 10
0.00154423133227
 20
0.9322132307299805
  0
VERTEX
  8
0
 62
   178
 10
0.0036017223854739
 20
0.914572577109887
  0
VERTEX
  8
0
 62
   178
 10
0.0064810753044549
 20
0.8966743348100736
  0
VERTEX
  8
0
 62
   178
 10
0.0101599926261963
 20
0.878536705345046
  0
VERTEX
  8
0
 62
   178
 10
0.0146161768876813
 20
0.8601778902293091
  0
VERTEX
  8
0
 62
   178
 10
0.0198273306258931
 20
0.8416160909773692
  0
VERTEX
  8
0
 62
   178
 10
0.0257711563778148
 20
0.822869509103732
  0
VERTEX
  8
0
 62
   178
 10
0.0324253566804296
 20
0.8039563461229028
  0
VERTEX
  8
0
 62
   178
 10
0.0397676340707208
 20
0.7848948035493872
  0
VERTEX
  8
0
 62
   178
 10
0.0477756910856718
 20
0.7657030828976914
  0
VERTEX
  8
0
 62
   178
 10
0.0564272302622653
 20
0.7463993856823204
  0
VERTEX
  8
0
 62
   178
 10
0.065699954137485
 20
0.7270019134177801
  0
VERTEX
  8
0
 62
   178
 10
0.0755715652483138
 20
0.7075288676185764
  0
VERTEX
  8
0
 62
   178
 10
0.0860197661317349
 20
0.6879984497992145
  0
VERTEX
  8
0
 62
   178
 10
0.0970222593247318
 20
0.6684288614742007
  0
VERTEX
  8
0
 62
   178
 10
0.1085567473642874
 20
0.6488383041580399
  0
VERTEX
  8
0
 62
   178
 10
0.120600932787385
 20
0.629244979365238
  0
SEQEND
  8
0
 62
   178
  0
POLYLINE
  8
0
 62
   178
 66
     1
  0
VERTEX
  8
0
 62
   178
 10
0.1206009327873836
 20
0.6292449793652399
  0
VERTEX
  8
0
 62
   178
 10
0.3028194167201755
 20
0.4006147086063598
  0
VERTEX
  8
0
 62
   178
 10
0.5352679654943974
 20
0.2130073421243998
  0
SEQEND
  8
0
 62
   178
  0
POLYLINE
  8
0
 62
   178
 66
     1
  0
VERTEX
  8
0
 62
   178
 10
0.5352679654943977
 20
0.2130073421243994
  0
VERTEX
  8
0
 62
   178
 10
0.5554774430289274
 20
0.2004205243284819
  0
VERTEX
  8
0
 62
   178
 10
0.5756756321073886
 20
0.1878572773975442
  0
VERTEX
  8
0
 62
   178
 10
0.5958951707704249
 20
0.1753587475993326
  0
VERTEX
  8
0
 62
   178
 10
0.6161686970586805
 20
0.1629660812015925
  0
VERTEX
  8
0
 62
   178
 10
0.6365288490127993
 20
0.1507204244720698
  0
VERTEX
  8
0
 62
   178
 10
0.657008264673425
 20
0.1386629236785104
  0
VERTEX
  8
0
 62
   178
 10
0.6776395820812018
 20
0.12683472508866
  0
VERTEX
  8
0
 62
   178
 10
0.6984554392767738
 20
0.1152769749702645
  0
VERTEX
  8
0
 62
   178
 10
0.7194884743007846
 20
0.1040308195910695
  0
VERTEX
  8
0
 62
   178
 10
0.7407713251938784
 20
0.0931374052188209
  0
VERTEX
  8
0
 62
   178
 10
0.7623366299966992
 20
0.0826378781212645
  0
VERTEX
  8
0
 62
   178
 10
0.7842170267498905
 20
0.0725733845661462
  0
VERTEX
  8
0
 62
   178
 10
0.8064451534940967
 20
0.0629850708212118
  0
VERTEX
  8
0
 62
   178
 10
0.8290536482699616
 20
0.0539140831542068
  0
VERTEX
  8
0
 62
   178
 10
0.8520751491181291
 20
0.0454015678328773
  0
VERTEX
  8
0
 62
   178
 10
0.8755422940792432
 20
0.037488671124969
  0
VERTEX
  8
0
 62
   178
 10
0.899487721193948
 20
0.0302165392982276
  0
VERTEX
  8
0
 62
   178
 10
0.9239440685028872
 20
0.0236263186203989
  0
VERTEX
  8
0
 62
   178
 10
0.9489439740467049
 20
0.0177591553592289
  0
VERTEX
  8
0
 62
   178
 10
0.9745200758660452
 20
0.0126561957824633
  0
VERTEX
  8
0
 62
   178
 10
1.000705012001552
 20
0.0083585861578478
  0
VERTEX
  8
0
 62
   178
 10
1.027531420493868
 20
0.0049074727531282
  0
VERTEX
  8
0
 62
   178
 10
1.055031939383639
 20
0.0023440018360504
  0
VERTEX
  8
0
 62
   178
 10
1.083239206711509
 20
0.0007093196743602
  0
SEQEND
  8
0
 62
   178
  0
POLYLINE
  8
0
 62
   178
 66
     1
  0
VERTEX
  8
0
 62
   178
 10
1.083239206711509
 20
0.0007093196743602
  0
VERTEX
  8
0
 62
   178
 10
1.112150809708276
 20
0.0000391705390284
  0
VERTEX
  8
0
 62
   178
 10
1.141765986231408
 20
0.0003646412251034
  0
VERTEX
  8
0
 62
   178
 10
1.172119855459438
 20
0.001719891786447
  0
VERTEX
  8
0
 62
   178
 10
1.203247536570898
 20
0.0041390822769207
  0
VERTEX
  8
0
 62
   178
 10
1.235184148744322
 20
0.0076563727503866
  0
VERTEX
  8
0
 62
   178
 10
1.267964811158245
 20
0.0123059232607062
  0
VERTEX
  8
0
 62
   178
 10
1.301624642991197
 20
0.0181218938617414
  0
VERTEX
  8
0
 62
   178
 10
1.336198763421713
 20
0.0251384446073541
  0
VERTEX
  8
0
 62
   178
 10
1.371722291628326
 20
0.0333897355514059
  0
VERTEX
  8
0
 62
   178
 10
1.40823034678957
 20
0.0429099267477588
  0
VERTEX
  8
0
 62
   178
 10
1.445758048083977
 20
0.0537331782502742
  0
VERTEX
  8
0
 62
   178
 10
1.484340514690081
 20
0.0658936501128141
  0
VERTEX
  8
0
 62
   178
 10
1.524012865786413
 20
0.0794255023892403
  0
VERTEX
  8
0
 62
   178
 10
1.56481022055151
 20
0.0943628951334144
  0
VERTEX
  8
0
 62
   178
 10
1.606767698163903
 20
0.1107399883991984
  0
VERTEX
  8
0
 62
   178
 10
1.649920417802124
 20
0.128590942240454
  0
VERTEX
  8
0
 62
   178
 10
1.694303498644709
 20
0.147949916711043
  0
VERTEX
  8
0
 62
   178
 10
1.739952059870189
 20
0.168851071864827
  0
VERTEX
  8
0
 62
   178
 10
1.7869012206571
 20
0.1913285677556678
  0
VERTEX
  8
0
 62
   178
 10
1.835186100183972
 20
0.2154165644374275
  0
VERTEX
  8
0
 62
   178
 10
1.88484181762934
 20
0.2411492219639676
  0
VERTEX
  8
0
 62
   178
 10
1.935903492171737
 20
0.2685607003891499
  0
VERTEX
  8
0
 62
   178
 10
1.988406242989695
 20
0.2976851597668361
  0
VERTEX
  8
0
 62
   178
 10
2.042385189261749
 20
0.3285567601508885
  0
SEQEND
  8
0
 62
   178
  0
POLYLINE
  8
0
 62
   178
 66
     1
  0
VERTEX
  8
0
 62
   178
 10
2.042385189261749
 20
0.3285567601508885
  0
VERTEX
  8
0
 62
   178
 10
2.053517141634345
 20
0.3347176564533299
  0
VERTEX
  8
0
 62
   178
 10
2.064657476686435
 20
0.3402948980579961
  0
VERTEX
  8
0
 62
   178
 10
2.075809162629426
 20
0.3453027951729233
  0
VERTEX
  8
0
 62
   178
 10
2.086975167674727
 20
0.3497556580061471
  0
VERTEX
  8
0
 62
   178
 10
2.098158460033742
 20
0.3536677967657036
  0
VERTEX
  8
0
 62
   178
 10
2.109362007917878
 20
0.3570535216596285
  0
VERTEX
  8
0
 62
   178
 10
2.120588779538541
 20
0.3599271428959575
  0
VERTEX
  8
0
 62
   178
 10
2.131841743107138
 20
0.3623029706827268
  0
VERTEX
  8
0
 62
   178
 10
2.143123866835076
 20
0.364195315227972
  0
VERTEX
  8
0
 62
   178
 10
2.15443811893376
 20
0.3656184867397291
  0
VERTEX
  8
0
 62
   178
 10
2.165787467614598
 20
0.366586795426034
  0
VERTEX
  8
0
 62
   178
 10
2.177174881088995
 20
0.3671145514949224
  0
VERTEX
  8
0
 62
   178
 10
2.188603327568357
 20
0.3672160651544301
  0
VERTEX
  8
0
 62
   178
 10
2.200075775264092
 20
0.366905646612593
  0
VERTEX
  8
0
 62
   178
 10
2.211595192387605
 20
0.366197606077447
  0
VERTEX
  8
0
 62
   178
 10
2.223164547150304
 20
0.365106253757028
  0
VERTEX
  8
0
 62
   178
 10
2.234786807763594
 20
0.3636458998593719
  0
VERTEX
  8
0
 62
   178
 10
2.246464942438882
 20
0.3618308545925142
  0
VERTEX
  8
0
 62
   178
 10
2.258201919387574
 20
0.3596754281644911
  0
VERTEX
  8
0
 62
   178
 10
2.270000706821077
 20
0.3571939307833385
  0
VERTEX
  8
0
 62
   178
 10
2.281864272950797
 20
0.354400672657092
  0
VERTEX
  8
0
 62
   178
 10
2.29379558598814
 20
0.3513099639937876
  0
VERTEX
  8
0
 62
   178
 10
2.305797614144514
 20
0.347936115001461
  0
VERTEX
  8
0
 62
   178
 10
2.317873325631325
 20
0.3442934358881481
  0
SEQEND
  8
0
 62
   178
  0
POLYLINE
  8
0
 62
   178
 66
     1
  0
VERTEX
  8
0
 62
   178
 10
2.317873325631325
 20
0.3442934358881481
  0
VERTEX
  8
0
 62
   178
 10
2.330000848985476
 20
0.3403895720043473
  0
VERTEX
  8
0
 62
   178
 10
2.342154271785961
 20
0.3362336670422798
  0
VERTEX
  8
0
 62
   178
 10
2.354330500807325
 20
0.3318422551910853
  0
VERTEX
  8
0
 62
   178
 10
2.366526442824106
 20
0.3272318706399032
  0
VERTEX
  8
0
 62
   178
 10
2.378739004610849
 20
0.3224190475778724
  0
VERTEX
  8
0
 62
   178
 10
2.390965092942092
 20
0.3174203201941325
  0
VERTEX
  8
0
 62
   178
 10
2.403201614592378
 20
0.3122522226778223
  0
VERTEX
  8
0
 62
   178
 10
2.415445476336248
 20
0.3069312892180817
  0
VERTEX
  8
0
 62
   178
 10
2.427693584948245
 20
0.3014740540040494
  0
VERTEX
  8
0
 62
   178
 10
2.439942847202909
 20
0.2958970512248648
  0
VERTEX
  8
0
 62
   178
 10
2.452190169874782
 20
0.2902168150696676
  0
VERTEX
  8
0
 62
   178
 10
2.464432459738406
 20
0.2844498797275964
  0
VERTEX
  8
0
 62
   178
 10
2.476666623568322
 20
0.2786127793877907
  0
VERTEX
  8
0
 62
   178
 10
2.48888956813907
 20
0.27272204823939
  0
VERTEX
  8
0
 62
   178
 10
2.501098200225195
 20
0.2667942204715336
  0
VERTEX
  8
0
 62
   178
 10
2.513289426601236
 20
0.2608458302733601
  0
VERTEX
  8
0
 62
   178
 10
2.525460154041735
 20
0.2548934118340094
  0
VERTEX
  8
0
 62
   178
 10
2.537607289321233
 20
0.2489534993426206
  0
VERTEX
  8
0
 62
   178
 10
2.549727739214272
 20
0.2430426269883327
  0
VERTEX
  8
0
 62
   178
 10
2.561818410495392
 20
0.2371773289602855
  0
VERTEX
  8
0
 62
   178
 10
2.573876209939138
 20
0.2313741394476178
  0
VERTEX
  8
0
 62
   178
 10
2.58589804432005
 20
0.2256495926394691
  0
VERTEX
  8
0
 62
   178
 10
2.597880820412668
 20
0.2200202227249786
  0
VERTEX
  8
0
 62
   178
 10
2.609821444991535
 20
0.2145025638932854
  0
SEQEND
  8
0
 62
   178
  0
POLYLINE
  8
0
 62
   178
 66
     1
  0
VERTEX
  8
0
 62
   178
 10
2.609821444991535
 20
0.2145025638932854
  0
VERTEX
  8
0
 62
   178
 10
2.621737183973188
 20
0.209097581289231
  0
VERTEX
  8
0
 62
   178
 10
2.633645756725843
 20
0.2038114966204284
  0
VERTEX
  8
0
 62
   178
 10
2.645544750201556
 20
0.1986687289201745
  0
VERTEX
  8
0
 62
   178
 10
2.657431751352381
 20
0.1936936972217663
  0
VERTEX
  8
0
 62
   178
 10
2.669304347130373
 20
0.188910820558501
  0
VERTEX
  8
0
 62
   178
 10
2.681160124487585
 20
0.1843445179636753
  0
VERTEX
  8
0
 62
   178
 10
2.692996670376076
 20
0.1800192084705863
  0
VERTEX
  8
0
 62
   178
 10
2.704811571747897
 20
0.1759593111125307
  0
VERTEX
  8
0
 62
   178
 10
2.716602415555106
 20
0.172189244922806
  0
VERTEX
  8
0
 62
   178
 10
2.728366788749756
 20
0.1687334289347087
  0
VERTEX
  8
0
 62
   178
 10
2.740102278283904
 20
0.1656162821815359
  0
VERTEX
  8
0
 62
   178
 10
2.751806471109604
 20
0.1628622236965847
  0
VERTEX
  8
0
 62
   178
 10
2.763476954178909
 20
0.160495672513152
  0
VERTEX
  8
0
 62
   178
 10
2.775111314443877
 20
0.1585410476645347
  0
VERTEX
  8
0
 62
   178
 10
2.786707138856562
 20
0.1570227681840298
  0
VERTEX
  8
0
 62
   178
 10
2.798262014369018
 20
0.1559652531049343
  0
VERTEX
  8
0
 62
   178
 10
2.809773527933302
 20
0.1553929214605453
  0
VERTEX
  8
0
 62
   178
 10
2.821239266501467
 20
0.1553301922841596
  0
VERTEX
  8
0
 62
   178
 10
2.832656817025569
 20
0.1558014846090741
  0
VERTEX
  8
0
 62
   178
 10
2.844023766457661
 20
0.1568312174685859
  0
VERTEX
  8
0
 62
   178
 10
2.855337701749802
 20
0.158443809895992
  0
VERTEX
  8
0
 62
   178
 10
2.866596209854044
 20
0.1606636809245895
  0
VERTEX
  8
0
 62
   178
 10
2.877796877722444
 20
0.1635152495876749
  0
VERTEX
  8
0
 62
   178
 10
2.888937292307053
 20
0.1670229349185457
  0
SEQEND
  8
0
 62
   178
  0
POLYLINE
  8
0
 62
   178
 66
     1
  0
VERTEX
  8
0
 62
   178
 10
2.888937292307053
 20
0.1670229349185457
  0
VERTEX
  8
0
 62
   178
 10
2.899910130718624
 20
0.1711838958456678
  0
VERTEX
  8
0
 62
   178
 10
2.910610851620528
 20
0.1759858465702626
  0
VERTEX
  8
0
 62
   178
 10
2.921041162314881
 20
0.1814390390347602
  0
VERTEX
  8
0
 62
   178
 10
2.931202770103793
 20
0.1875537251815905
  0
VERTEX
  8
0
 62
   178
 10
2.941097382289372
 20
0.1943401569531834
  0
VERTEX
  8
0
 62
   178
 10
2.950726706173726
 20
0.2018085862919688
  0
VERTEX
  8
0
 62
   178
 10
2.960092449058968
 20
0.2099692651403768
  0
VERTEX
  8
0
 62
   178
 10
2.969196318247207
 20
0.2188324454408372
  0
VERTEX
  8
0
 62
   178
 10
2.978040021040556
 20
0.2284083791357802
  0
VERTEX
  8
0
 62
   178
 10
2.986625264741121
 20
0.2387073181676355
  0
VERTEX
  8
0
 62
   178
 10
2.99495375665101
 20
0.2497395144788331
  0
VERTEX
  8
0
 62
   178
 10
3.00302720407234
 20
0.2615152200118031
  0
VERTEX
  8
0
 62
   178
 10
3.010847314307215
 20
0.2740446867089752
  0
VERTEX
  8
0
 62
   178
 10
3.018415794657749
 20
0.2873381665127796
  0
VERTEX
  8
0
 62
   178
 10
3.025734352426049
 20
0.301405911365646
  0
VERTEX
  8
0
 62
   178
 10
3.032804694914227
 20
0.3162581732100047
  0
VERTEX
  8
0
 62
   178
 10
3.03962852942439
 20
0.3319052039882854
  0
VERTEX
  8
0
 62
   178
 10
3.046207563258653
 20
0.348357255642918
  0
VERTEX
  8
0
 62
   178
 10
3.052543503719121
 20
0.3656245801163326
  0
VERTEX
  8
0
 62
   178
 10
3.058638058107905
 20
0.3837174293509592
  0
VERTEX
  8
0
 62
   178
 10
3.064492933727119
 20
0.4026460552892276
  0
VERTEX
  8
0
 62
   178
 10
3.070109837878868
 20
0.4224207098735679
  0
VERTEX
  8
0
 62
   178
 10
3.075490477865265
 20
0.44305164504641
  0
VERTEX
  8
0
 62
   178
 10
3.080636560988419
 20
0.464549112750184
  0
SEQEND
  8
0
 62
   178
  0
POLYLINE
  8
0
 62
   178
 66
     1
  0
VERTEX
  8
0
 62
   178
 10
3.08063656098842
 20
0.4645491127501838
  0
VERTEX
  8
0
 62
   178
 10
3.096288561898365
 20
0.5792255036111286
  0
VERTEX
  8
0
 62
   178
 10
3.089651412029346
 20
0.694617871241777
  0
VERTEX
  8
0
 62
   178
 10
3.060927827839177
 20
0.8072018215141002
  0
SEQEND
  8
0
 62
   178
  0
LINE
  8
0
 62
   178
 10
3.060927827839177
 20
0.807201821514097
 11
3.063039418415003
 21
0.8295567298222116
  0
LINE
  8
0
 62
   178
 10
3.063039418415003
 20
0.8295567298222054
 11
3.046904338162306
 21
0.9992040093942943
  0
LINE
  8
0
 62
   178
 10
3.046904338162304
 20
0.9992040093942977
 11
3.041787674481325
 21
1.027711415173022
  0
LINE
  8
0
 62
   178
 10
3.041787674481326
 20
1.027711415173016
 11
3.063689223890877
 21
1.014107281599706
  0
POLYLINE
  8
0
 62
   178
 66
     1
  0
VERTEX
  8
0
 62
   178
 10
3.063689223890878
 20
1.014107281599706
  0
VERTEX
  8
0
 62
   178
 10
3.108605519131543
 20
0.9953657710068007
  0
VERTEX
  8
0
 62
   178
 10
3.156682652677834
 20
0.9848645138575283
  0
SEQEND
  8
0
 62
   178
  0
POLYLINE
  8
0
 62
   178
 66
     1
  0
VERTEX
  8
0
 62
   178
 10
3.156682652677834
 20
0.9848645138575278
  0
VERTEX
  8
0
 62
   178
 10
3.184471379999265
 20
0.9839953402557851
  0
VERTEX
  8
0
 62
   178
 10
3.211936258168882
 20
0.9879227709769722
  0
VERTEX
  8
0
 62
   178
 10
3.238076583227818
 20
0.9965037070622442
  0
VERTEX
  8
0
 62
   178
 10
3.261939912328474
 20
1.009425495505885
  0
SEQEND
  8
0
 62
   178
  0
POLYLINE
  8
0
 62
   178
 66
     1
  0
VERTEX
  8
0
 62
   178
 10
3.261939912328474
 20
1.009425495505885
  0
VERTEX
  8
0
 62
   178
 10
3.269754160860197
 20
1.015042426437275
  0
VERTEX
  8
0
 62
   178
 10
3.277440879838106
 20
1.021132678626655
  0
VERTEX
  8
0
 62
   178
 10
3.285002807479036
 20
1.027682008467711
  0
VERTEX
  8
0
 62
   178
 10
3.292442681999823
 20
1.03467617235413
  0
VERTEX
  8
0
 62
   178
 10
3.299763241617297
 20
1.042100926679593
  0
VERTEX
  8
0
 62
   178
 10
3.306967224548294
 20
1.049942027837788
  0
VERTEX
  8
0
 62
   178
 10
3.314057369009648
 20
1.058185232222401
  0
VERTEX
  8
0
 62
   178
 10
3.321036413218193
 20
1.066816296227118
  0
VERTEX
  8
0
 62
   178
 10
3.327907095390766
 20
1.075820976245622
  0
VERTEX
  8
0
 62
   178
 10
3.334672153744198
 20
1.085185028671599
  0
VERTEX
  8
0
 62
   178
 10
3.341334326495323
 20
1.094894209898735
  0
VERTEX
  8
0
 62
   178
 10
3.347896351860975
 20
1.104934276320714
  0
VERTEX
  8
0
 62
   178
 10
3.354360968057992
 20
1.115290984331225
  0
VERTEX
  8
0
 62
   178
 10
3.360730913303203
 20
1.125950090323949
  0
VERTEX
  8
0
 62
   178
 10
3.367008925813446
 20
1.136897350692574
  0
VERTEX
  8
0
 62
   178
 10
3.373197743805552
 20
1.148118521830783
  0
VERTEX
  8
0
 62
   178
 10
3.379300105496357
 20
1.159599360132265
  0
VERTEX
  8
0
 62
   178
 10
3.385318749102694
 20
1.171325621990702
  0
VERTEX
  8
0
 62
   178
 10
3.3912564128414
 20
1.183283063799782
  0
VERTEX
  8
0
 62
   178
 10
3.397115834929307
 20
1.195457441953187
  0
VERTEX
  8
0
 62
   178
 10
3.402899753583247
 20
1.207834512844607
  0
VERTEX
  8
0
 62
   178
 10
3.408610907020059
 20
1.220400032867723
  0
VERTEX
  8
0
 62
   178
 10
3.414252033456573
 20
1.233139758416222
  0
VERTEX
  8
0
 62
   178
 10
3.419825871109625
 20
1.246039445883791
  0
SEQEND
  8
0
 62
   178
  0
LINE
  8
0
 62
   178
 10
3.419825871109623
 20
1.246039445883788
 11
3.507756832875384
 21
1.559988646907005
  0
POLYLINE
  8
0
 62
   178
 66
     1
  0
VERTEX
  8
0
 62
   178
 10
3.507756832875385
 20
1.559988646907008
  0
VERTEX
  8
0
 62
   178
 10
3.50965216573542
 20
1.584012937564896
  0
VERTEX
  8
0
 62
   178
 10
3.51043423769273
 20
1.60840649943976
  0
VERTEX
  8
0
 62
   178
 10
3.510194850632639
 20
1.633045616903895
  0
VERTEX
  8
0
 62
   178
 10
3.50902580644047
 20
1.657806574329598
  0
VERTEX
  8
0
 62
   178
 10
3.507018907001549
 20
1.68256565608916
  0
VERTEX
  8
0
 62
   178
 10
3.504265954201199
 20
1.707199146554878
  0
VERTEX
  8
0
 62
   178
 10
3.500858749924743
 20
1.731583330099044
  0
VERTEX
  8
0
 62
   178
 10
3.496889096057509
 20
1.755594491093954
  0
VERTEX
  8
0
 62
   178
 10
3.492448794484818
 20
1.779108913911903
  0
VERTEX
  8
0
 62
   178
 10
3.487629647091994
 20
1.802002882925185
  0
VERTEX
  8
0
 62
   178
 10
3.482523455764361
 20
1.824152682506091
  0
VERTEX
  8
0
 62
   178
 10
3.477222022387245
 20
1.84543459702692
  0
VERTEX
  8
0
 62
   178
 10
3.471817148845969
 20
1.865724910859964
  0
VERTEX
  8
0
 62
   178
 10
3.466400637025856
 20
1.884899908377518
  0
VERTEX
  8
0
 62
   178
 10
3.461064288812233
 20
1.902835873951875
  0
VERTEX
  8
0
 62
   178
 10
3.455899906090422
 20
1.91940909195533
  0
VERTEX
  8
0
 62
   178
 10
3.450999290745747
 20
1.93449584676018
  0
VERTEX
  8
0
 62
   178
 10
3.446454244663533
 20
1.947972422738717
  0
VERTEX
  8
0
 62
   178
 10
3.442356569729102
 20
1.959715104263234
  0
VERTEX
  8
0
 62
   178
 10
3.438798067827783
 20
1.969600175706028
  0
VERTEX
  8
0
 62
   178
 10
3.435870540844895
 20
1.977503921439393
  0
VERTEX
  8
0
 62
   178
 10
3.433665790665764
 20
1.983302625835622
  0
VERTEX
  8
0
 62
   178
 10
3.432275619175715
 20
1.986872573267011
  0
VERTEX
  8
0
 62
   178
 10
3.43179182826007
 20
1.988090048105852
  0
SEQEND
  8
0
 62
   178
  0
POLYLINE
  8
0
 62
   178
 66
     1
  0
VERTEX
  8
0
 62
   178
 10
3.43179182826007
 20
1.988090048105852
  0
VERTEX
  8
0
 62
   178
 10
3.428919119365117
 20
1.993620000779368
  0
VERTEX
  8
0
 62
   178
 10
3.424908330945708
 20
1.998535093919013
  0
VERTEX
  8
0
 62
   178
 10
3.419914099636302
 20
2.002645825266958
  0
VERTEX
  8
0
 62
   178
 10
3.414128978880419
 20
2.005793704872018
  0
VERTEX
  8
0
 62
   178
 10
3.407776014999649
 20
2.007857365696866
  0
VERTEX
  8
0
 62
   178
 10
3.401100147604515
 20
2.008757242944947
  0
VERTEX
  8
0
 62
   178
 10
3.394358765905847
 20
2.008458641694836
  0
VERTEX
  8
0
 62
   178
 10
3.387811785029665
 20
2.006973074568874
  0
VERTEX
  8
0
 62
   178
 10
3.381711624944985
 20
2.004357817862041
  0
VERTEX
  8
0
 62
   178
 10
3.376293478368674
 20
2.000713703244598
  0
SEQEND
  8
0
 62
   178
  0
LINE
  8
0
 62
   178
 10
3.376293478368674
 20
2.000713703244598
 11
3.267543930116358
 21
1.911269559620045
  0
POLYLINE
  8
0
 62
   178
 66
     1
  0
VERTEX
  8
0
 62
   178
 10
3.267543930116358
 20
1.911269559620045
  0
VERTEX
  8
0
 62
   178
 10
3.263047484969621
 20
1.906766739693055
  0
VERTEX
  8
0
 62
   178
 10
3.259601946925377
 20
1.901559281649904
  0
VERTEX
  8
0
 62
   178
 10
3.25733839603246
 20
1.89584529500087
  0
VERTEX
  8
0
 62
   178
 10
3.256342945506793
 20
1.889842159336416
  0
VERTEX
  8
0
 62
   178
 10
3.256653465690204
 20
1.883778254464265
  0
VERTEX
  8
0
 62
   178
 10
3.258258143333128
 20
1.87788427206059
  0
SEQEND
  8
0
 62
   178
  0
POLYLINE
  8
0
 62
   178
 66
     1
  0
VERTEX
  8
0
 62
   178
 10
3.258258143333129
 20
1.87788427206059
  0
VERTEX
  8
0
 62
   178
 10
3.2585773916518
 20
1.877016165968989
  0
VERTEX
  8
0
 62
   178
 10
3.259495472741343
 20
1.874478362973881
  0
VERTEX
  8
0
 62
   178
 10
3.260952890802058
 20
1.870370635994814
  0
VERTEX
  8
0
 62
   178
 10
3.262890150034241
 20
1.864792757951339
  0
VERTEX
  8
0
 62
   178
 10
3.265247754638188
 20
1.857844501762999
  0
VERTEX
  8
0
 62
   178
 10
3.267966208814197
 20
1.849625640349343
  0
VERTEX
  8
0
 62
   178
 10
3.270986016762567
 20
1.840235946629919
  0
VERTEX
  8
0
 62
   178
 10
3.274247682683594
 20
1.829775193524274
  0
VERTEX
  8
0
 62
   178
 10
3.277691710777576
 20
1.818343153951957
  0
VERTEX
  8
0
 62
   178
 10
3.281258605244809
 20
1.806039600832513
  0
VERTEX
  8
0
 62
   178
 10
3.284888870285592
 20
1.792964307085493
  0
VERTEX
  8
0
 62
   178
 10
3.288523010100222
 20
1.779217045630442
  0
VERTEX
  8
0
 62
   178
 10
3.292101528888995
 20
1.764897589386907
  0
VERTEX
  8
0
 62
   178
 10
3.295564930852211
 20
1.750105711274437
  0
VERTEX
  8
0
 62
   178
 10
3.298853720190167
 20
1.734941184212579
  0
VERTEX
  8
0
 62
   178
 10
3.301908401103157
 20
1.719503781120881
  0
VERTEX
  8
0
 62
   178
 10
3.304669477791481
 20
1.70389327491889
  0
VERTEX
  8
0
 62
   178
 10
3.307077454455436
 20
1.688209438526155
  0
VERTEX
  8
0
 62
   178
 10
3.30907283529532
 20
1.672552044862222
  0
VERTEX
  8
0
 62
   178
 10
3.310596124511429
 20
1.657020866846638
  0
VERTEX
  8
0
 62
   178
 10
3.311587826304062
 20
1.64171567739895
  0
VERTEX
  8
0
 62
   178
 10
3.311988444873515
 20
1.62673624943871
  0
VERTEX
  8
0
 62
   178
 10
3.311738484420086
 20
1.61218235588546
  0
VERTEX
  8
0
 62
   178
 10
3.310778449144072
 20
1.598153769658752
  0
SEQEND
  8
0
 62
   178
  0
LINE
  8
0
 62
   178
 10
3.260017802146317
 20
1.399778464423797
 11
3.310778449144072
 21
1.598153769658751
  0
POLYLINE
  8
0
 62
   178
 66
     1
  0
VERTEX
  8
0
 62
   178
 10
3.260017802146318
 20
1.399778464423799
  0
VERTEX
  8
0
 62
   178
 10
3.256677565174296
 20
1.391668094422279
  0
VERTEX
  8
0
 62
   178
 10
3.25323576367002
 20
1.383674821086395
  0
VERTEX
  8
0
 62
   178
 10
3.249702236865064
 20
1.375811196980413
  0
VERTEX
  8
0
 62
   178
 10
3.246086823991001
 20
1.368089774668596
  0
VERTEX
  8
0
 62
   178
 10
3.242399364279399
 20
1.360523106715211
  0
VERTEX
  8
0
 62
   178
 10
3.238649696961832
 20
1.353123745684519
  0
VERTEX
  8
0
 62
   178
 10
3.234847661269874
 20
1.345904244140785
  0
VERTEX
  8
0
 62
   178
 10
3.231003096435095
 20
1.338877154648275
  0
VERTEX
  8
0
 62
   178
 10
3.227125841689067
 20
1.332055029771253
  0
VERTEX
  8
0
 62
   178
 10
3.223225736263364
 20
1.32545042207398
  0
VERTEX
  8
0
 62
   178
 10
3.219312619389556
 20
1.319075884120725
  0
VERTEX
  8
0
 62
   178
 10
3.215396330299217
 20
1.31294396847575
  0
VERTEX
  8
0
 62
   178
 10
3.211486708223918
 20
1.30706722770332
  0
VERTEX
  8
0
 62
   178
 10
3.207593592395233
 20
1.301458214367699
  0
VERTEX
  8
0
 62
   178
 10
3.20372682204473
 20
1.29612948103315
  0
VERTEX
  8
0
 62
   178
 10
3.199896236403985
 20
1.29109358026394
  0
VERTEX
  8
0
 62
   178
 10
3.196111674704569
 20
1.286363064624332
  0
VERTEX
  8
0
 62
   178
 10
3.192382976178052
 20
1.281950486678591
  0
VERTEX
  8
0
 62
   178
 10
3.18871998005601
 20
1.277868398990978
  0
VERTEX
  8
0
 62
   178
 10
3.185132525570014
 20
1.274129354125762
  0
VERTEX
  8
0
 62
   178
 10
3.181630451951633
 20
1.270745904647206
  0
VERTEX
  8
0
 62
   178
 10
3.178223598432443
 20
1.267730603119573
  0
VERTEX
  8
0
 62
   178
 10
3.174921804244014
 20
1.265096002107128
  0
VERTEX
  8
0
 62
   178
 10
3.171734908617919
 20
1.262854654174135
  0
SEQEND
  8
0
 62
   178
  0
POLYLINE
  8
0
 62
   178
 66
     1
  0
VERTEX
  8
0
 62
   178
 10
3.084318329983765
 20
1.261776096520802
  0
VERTEX
  8
0
 62
   178
 10
3.098061575960136
 20
1.255516705069217
  0
VERTEX
  8
0
 62
   178
 10
3.112870966506139
 20
1.251745173537058
  0
VERTEX
  8
0
 62
   178
 10
3.128202940203265
 20
1.250599931593202
  0
VERTEX
  8
0
 62
   178
 10
3.143494754827564
 20
1.252123014008331
  0
VERTEX
  8
0
 62
   178
 10
3.158185142147044
 20
1.256258517817667
  0
VERTEX
  8
0
 62
   178
 10
3.171734908617917
 20
1.262854654174136
  0
SEQEND
  8
0
 62
   178
  0
POLYLINE
  8
0
 62
   178
 66
     1
  0
VERTEX
  8
0
 62
   178
 10
3.003669819134593
 20
1.327026939478725
  0
VERTEX
  8
0
 62
   178
 10
3.026174483841787
 20
1.301094084124787
  0
VERTEX
  8
0
 62
   178
 10
3.053335635338556
 20
1.279118625282323
  0
VERTEX
  8
0
 62
   178
 10
3.084318329983766
 20
1.261776096520803
  0
SEQEND
  8
0
 62
   178
  0
POLYLINE
  8
0
 62
   178
 66
     1
  0
VERTEX
  8
0
 62
   178
 10
2.986478943593982
 20
1.389287313798628
  0
VERTEX
  8
0
 62
   178
 10
2.987233059234145
 20
1.367576980941851
  0
VERTEX
  8
0
 62
   178
 10
2.993051452161192
 20
1.34650444622874
  0
VERTEX
  8
0
 62
   178
 10
3.003669819134593
 20
1.327026939478725
  0
SEQEND
  8
0
 62
   178
  0
POLYLINE
  8
0
 62
   178
 66
     1
  0
VERTEX
  8
0
 62
   178
 10
2.986478943593982
 20
1.389287313798628
  0
VERTEX
  8
0
 62
   178
 10
2.986096558436842
 20
1.432470172243094
  0
VERTEX
  8
0
 62
   178
 10
2.977409666229121
 20
1.474932105685508
  0
SEQEND
  8
0
 62
   178
  0
LINE
  8
0
 62
   178
 10
2.977409666229121
 20
1.474932105685509
 11
2.959947945999974
 21
1.512606989219969
  0
POLYLINE
  8
0
 62
   178
 66
     1
  0
VERTEX
  8
0
 62
   178
 10
2.959947945999974
 20
1.512606989219969
  0
VERTEX
  8
0
 62
   178
 10
2.960925605489939
 20
1.52350563720898
  0
VERTEX
  8
0
 62
   178
 10
2.961627173491308
 20
1.534664150590578
  0
VERTEX
  8
0
 62
   178
 10
2.962033482967525
 20
1.546097885045516
  0
VERTEX
  8
0
 62
   178
 10
2.962125366882042
 20
1.557822196254545
  0
VERTEX
  8
0
 62
   178
 10
2.961883658198301
 20
1.569852439898418
  0
VERTEX
  8
0
 62
   178
 10
2.961289189879753
 20
1.582203971657885
  0
VERTEX
  8
0
 62
   178
 10
2.960322794889844
 20
1.594892147213699
  0
VERTEX
  8
0
 62
   178
 10
2.95896530619202
 20
1.607932322246611
  0
VERTEX
  8
0
 62
   178
 10
2.957197556749728
 20
1.621339852437372
  0
VERTEX
  8
0
 62
   178
 10
2.955000379526417
 20
1.635130093466736
  0
VERTEX
  8
0
 62
   178
 10
2.952354607485533
 20
1.649318401015452
  0
VERTEX
  8
0
 62
   178
 10
2.949241073590524
 20
1.663920130764273
  0
VERTEX
  8
0
 62
   178
 10
2.945640610804836
 20
1.678950638393952
  0
VERTEX
  8
0
 62
   178
 10
2.941534052091916
 20
1.694425279585239
  0
VERTEX
  8
0
 62
   178
 10
2.936902230415212
 20
1.710359410018885
  0
VERTEX
  8
0
 62
   178
 10
2.93172597873817
 20
1.726768385375645
  0
VERTEX
  8
0
 62
   178
 10
2.925986130024239
 20
1.743667561336267
  0
VERTEX
  8
0
 62
   178
 10
2.919663517236864
 20
1.761072293581504
  0
VERTEX
  8
0
 62
   178
 10
2.912738973339493
 20
1.778997937792109
  0
VERTEX
  8
0
 62
   178
 10
2.905193331295573
 20
1.797459849648832
  0
VERTEX
  8
0
 62
   178
 10
2.897007424068553
 20
1.816473384832427
  0
VERTEX
  8
0
 62
   178
 10
2.888162084621879
 20
1.836053899023643
  0
VERTEX
  8
0
 62
   178
 10
2.878638145918996
 20
1.856216747903233
  0
VERTEX
  8
0
 62
   178
 10
2.868416440923353
 20
1.876977287151949
  0
SEQEND
  8
0
 62
   178
  0
POLYLINE
  8
0
 62
   178
 66
     1
  0
VERTEX
  8
0
 62
   178
 10
2.868416440923355
 20
1.876977287151949
  0
VERTEX
  8
0
 62
   178
 10
2.844586206553783
 20
1.916712092458348
  0
VERTEX
  8
0
 62
   178
 10
2.812510598942568
 20
1.951366947756932
  0
VERTEX
  8
0
 62
   178
 10
2.773468948418971
 20
1.979559649849028
  0
VERTEX
  8
0
 62
   178
 10
2.729018424787062
 20
2.000165737452795
  0
VERTEX
  8
0
 62
   178
 10
2.680931929864419
 20
2.012363340156349
  0
VERTEX
  8
0
 62
   178
 10
2.631127385584995
 20
2.015665958583833
  0
SEQEND
  8
0
 62
   178
  0
LINE
  8
0
 62
   178
 10
2.631127385584995
 20
2.015665958583833
 11
2.631127385584995
 21
2.015665996234204
  0
ENDSEC
  0
EOF
