  0
SECTION
  2
HEADER
  9
$ACADVER
  1
AC1004
  9
$INSBASE
 10
0.0
 20
0.0
  9
$EXTMIN
 10
1.000000000000000E+20
 20
1.000000000000000E+20
  9
$EXTMAX
 10
-1.000000000000000E+20
 20
-1.000000000000000E+20
  9
$LIMMIN
 10
0.0
 20
0.0
  9
$LIMMAX
 10
12.0
 20
9.0
  9
$ORTHOMODE
 70
     0
  9
$REGENMODE
 70
     1
  9
$FILLMODE
 70
     1
  9
$QTEXTMODE
 70
     0
  9
$DRAGMODE
 70
     2
  9
$LTSCALE
 40
1.0
  9
$OSMODE
 70
    37
  9
$ATTMODE
 70
     1
  9
$TEXTSIZE
 40
0.2
  9
$TRACEWID
 40
0.05
  9
$TEXTSTYLE
  7
STANDARD
  9
$CLAYER
  8
0
  9
$CELTYPE
  6
BYLAYER
  9
$CECOLOR
 62
   256
  9
$DIMSCALE
 40
1.0
  9
$DIMASZ
 40
0.125
  9
$DIMEXO
 40
0.03125
  9
$DIMDLI
 40
0.38
  9
$DIMRND
 40
0.0
  9
$DIMDLE
 40
0.0
  9
$DIMEXE
 40
0.0625
  9
$DIMTP
 40
0.0
  9
$DIMTM
 40
0.0
  9
$DIMTXT
 40
0.125
  9
$DIMCEN
 40
0.09
  9
$DIMTSZ
 40
0.0
  9
$DIMTOL
 70
     0
  9
$DIMLIM
 70
     0
  9
$DIMTIH
 70
     1
  9
$DIMTOH
 70
     1
  9
$DIMSE1
 70
     0
  9
$DIMSE2
 70
     0
  9
$DIMTAD
 70
     0
  9
$DIMZIN
 70
     8
  9
$DIMBLK
  1

  9
$DIMASO
 70
     1
  9
$DIMSHO
 70
     1
  9
$DIMPOST
  1

  9
$DIMAPOST
  1

  9
$DIMALT
 70
     0
  9
$DIMALTD
 70
     2
  9
$DIMALTF
 40
25.4
  9
$DIMLFAC
 40
1.0
  9
$DIMTOFL
 70
     0
  9
$DIMTVP
 40
0.0
  9
$DIMTIX
 70
     0
  9
$DIMSOXD
 70
     0
  9
$DIMSAH
 70
     0
  9
$DIMBLK1
  1

  9
$DIMBLK2
  1

  9
$LUNITS
 70
     2
  9
$LUPREC
 70
     4
  9
$SKETCHINC
 40
0.1
  9
$FILLETRAD
 40
0.5
  9
$AUNITS
 70
     0
  9
$AUPREC
 70
     0
  9
$MENU
  1
.
  9
$ELEVATION
 40
0.0
  9
$THICKNESS
 40
0.0
  9
$LIMCHECK
 70
     0
  9
$CHAMFERA
 40
0.0
  9
$CHAMFERB
 40
0.0
  9
$SKPOLY
 70
     0
  9
$TDCREATE
 40
2457593.921250856
  9
$TDUPDATE
 40
2457593.921250914
  9
$TDINDWG
 40
0.0000000116
  9
$TDUSRTIMER
 40
0.0000000116
  9
$USRTIMER
 70
     1
  9
$ANGBASE
 50
0.0
  9
$ANGDIR
 70
     0
  9
$PDMODE
 70
     0
  9
$PDSIZE
 40
0.0
  9
$PLINEWID
 40
0.0
  9
$COORDS
 70
     1
  9
$SPLFRAME
 70
     0
  9
$SPLINETYPE
 70
     6
  9
$SPLINESEGS
 70
     8
  9
$ATTDIA
 70
     0
  9
$ATTREQ
 70
     1
  9
$SURFTAB1
 70
     6
  9
$SURFTAB2
 70
     6
  9
$SURFTYPE
 70
     6
  9
$SURFU
 70
     6
  9
$SURFV
 70
     6
  9
$UCSNAME
  2

  9
$UCSORG
 10
0.0
 20
0.0
 30
0.0
  9
$UCSXDIR
 10
1.0
 20
0.0
 30
0.0
  9
$UCSYDIR
 10
0.0
 20
1.0
 30
0.0
  9
$USERI1
 70
     0
  9
$USERI2
 70
     0
  9
$USERI3
 70
     0
  9
$USERI4
 70
     0
  9
$USERI5
 70
     0
  9
$USERR1
 40
0.0
  9
$USERR2
 40
0.0
  9
$USERR3
 40
0.0
  9
$USERR4
 40
0.0
  9
$USERR5
 40
0.0
  9
$WORLDVIEW
 70
     1
  0
ENDSEC
  0
SECTION
  2
TABLES
  0
TABLE
  2
LTYPE
 70
    52
  0
LTYPE
  2
CONTINUOUS
 70
     0
  3
Solid line
 72
    65
 73
     0
 40
0.0
  0
LTYPE
  2
DASHDOT
 70
     0
  3
Dash dot __ . __ . __ . __ . __ . __ . __ . __
 72
    65
 73
     4
 40
25.4
 49
12.7
 49
-6.35
 49
0.0
 49
-6.35
  0
LTYPE
  2
CUTRIGHT2
 70
     0
  3
G42 reversed----\----\----\----
 72
    65
 73
     2
 40
10.16
 49
5.08
 49
5.08
  0
LTYPE
  2
DIVIDE
 70
     0
  3
Divide ____ . . ____ . . ____ . . ____ . . ____
 72
    65
 73
     6
 40
31.75
 49
12.7
 49
-6.35
 49
0.0
 49
-6.35
 49
0.0
 49
-6.35
  0
LTYPE
  2
DASHEDX2
 70
     0
  3
Dashed (2x) ____  ____  ____  ____  ____  ___
 72
    65
 73
     2
 40
38.09999999999999
 49
25.4
 49
-12.7
  0
LTYPE
  2
DASHED2
 70
     0
  3
Dashed (.5x) _ _ _ _ _ _ _ _ _ _ _ _ _ _ _ _ _ 
 72
    65
 73
     2
 40
9.524999999999999
 49
6.35
 49
-3.175
  0
LTYPE
  2
DASHED
 70
     0
  3
Dashed __ __ __ __ __ __ __ __ __ __ __ __ __ _
 72
    65
 73
     2
 40
19.05
 49
12.7
 49
-6.35
  0
LTYPE
  2
DOT2
 70
     0
  3
Dot (.5x) ........................................
 72
    65
 73
     2
 40
3.175
 49
0.0
 49
-3.175
  0
LTYPE
  2
DOT
 70
     0
  3
Dot . . . . . . . . . . . . . . . . . . . . . . . .
 72
    65
 73
     2
 40
6.35
 49
0.0
 49
-6.35
  0
LTYPE
  2
DIVIDEX2
 70
     0
  3
Divide (2x) ________  .  .  ________  .  .  _
 72
    65
 73
     6
 40
63.5
 49
25.4
 49
-12.7
 49
0.0
 49
-12.7
 49
0.0
 49
-12.7
  0
LTYPE
  2
DIVIDE2
 70
     0
  3
Divide (.5x) __..__..__..__..__..__..__..__.._
 72
    65
 73
     6
 40
15.875
 49
6.35
 49
-3.175
 49
0.0
 49
-3.175
 49
0.0
 49
-3.175
  0
LTYPE
  2
FENCELINE1
 70
     0
  3
Fenceline circle ----0-----0----0-----0----0-----0--
 72
    65
 73
     4
 40
36.83
 49
6.35
 49
-2.54
 49
-2.54
 49
25.4
  0
LTYPE
  2
DRAINAGE2
 70
     0
  3
Drainage reversed----<----<----<----
 72
    65
 73
     2
 40
10.16
 49
5.08
 49
5.08
  0
LTYPE
  2
DRAINAGE
 70
     0
  3
Drainage ---->---->---->----
 72
    65
 73
     2
 40
10.16
 49
5.08
 49
5.08
  0
LTYPE
  2
DOTX2
 70
     0
  3
Dot (2x) .  .  .  .  .  .  .  .  .  .  .  .  .  .
 72
    65
 73
     2
 40
12.7
 49
0.0
 49
-12.7
  0
LTYPE
  2
HIDDEN2
 70
     0
  3
Hidden (.5x) _ _ _ _ _ _ _ _ _ _ _ _ _ _ _ _ _ 
 72
    65
 73
     2
 40
4.762499999999999
 49
3.175
 49
-1.5875
  0
LTYPE
  2
HIDDEN
 70
     0
  3
Hidden __ __ __ __ __ __ __ __ __ __ __ __ __ __
 72
    65
 73
     2
 40
9.524999999999999
 49
6.35
 49
-3.175
  0
LTYPE
  2
GAS_LINE
 70
     0
  3
Gas line ----GAS----GAS----GAS----GAS----GAS----GAS--
 72
    65
 73
     3
 40
24.13
 49
12.7
 49
-5.08
 49
-6.35
  0
LTYPE
  2
FENCELINE2
 70
     0
  3
Fenceline square ----[]-----[]----[]-----[]----[]---
 72
    65
 73
     4
 40
36.83
 49
6.35
 49
-2.54
 49
-2.54
 49
25.4
  0
LTYPE
  2
PHANTOM2
 70
     0
  3
Phantom (.5x) ___ _ _ ___ _ _ ___ _ _ ___ _ _
 72
    65
 73
     6
 40
31.75
 49
15.875
 49
-3.175
 49
3.175
 49
-3.175
 49
3.175
 49
-3.175
  0
LTYPE
  2
PHANTOM
 70
     0
  3
Phantom ______  __  __  ______  __  __  ______ 
 72
    65
 73
     6
 40
63.50000000000001
 49
31.75
 49
-6.35
 49
6.35
 49
-6.35
 49
6.35
 49
-6.35
  0
LTYPE
  2
HOT_WATER_SUPPLY
 70
     0
  3
Hot water supply ---- HW ---- HW ---- HW ----
 72
    65
 73
     3
 40
22.86
 49
12.7
 49
-5.08
 49
-5.08
  0
LTYPE
  2
HIDDENX2
 70
     0
  3
Hidden (2x) ____ ____ ____ ____ ____ ____ ____ 
 72
    65
 73
     2
 40
19.05
 49
12.7
 49
-6.35
  0
LTYPE
  2
ZIGZAG
 70
     0
  3
Zig zag /\/\/\/\/\/\/\/\/\/\/\/\/\/\/\/\/\/\/\/\/\/\/\/
 72
    65
 73
     4
 40
20.32254
 49
0.00254
 49
-5.08
 49
-10.16
 49
-5.08
  0
LTYPE
  2
TRACKS
 70
     0
  3
Tracks -|-|-|-|-|-|-|-|-|-|-|-|-|-|-|-|-|-|-|-|-|-|-|-|-
 72
    65
 73
     2
 40
7.62
 49
3.81
 49
3.81
  0
LTYPE
  2
PHANTOMX2
 70
     0
  3
Phantom (2x) ____________    ____    ____   _
 72
    65
 73
     6
 40
127.0
 49
63.5
 49
-12.7
 49
12.7
 49
-12.7
 49
12.7
 49
-12.7
  0
LTYPE
  2
ACAD_ISO05W100
 70
     0
  3
ISO long-dash double-dot ____ .. ____ .. ____ . 
 72
    65
 73
     6
 40
33.0
 49
24.0
 49
-3.0
 49
0.0
 49
-3.0
 49
0.0
 49
-3.0
  0
LTYPE
  2
ACAD_ISO04W100
 70
     0
  3
ISO long-dash dot ____ . ____ . ____ . ____ . _
 72
    65
 73
     4
 40
30.0
 49
24.0
 49
-3.0
 49
0.0
 49
-3.0
  0
LTYPE
  2
ACAD_ISO03W100
 70
     0
  3
ISO dash space __    __    __    __    __    __
 72
    65
 73
     2
 40
30.0
 49
12.0
 49
-18.0
  0
LTYPE
  2
ACAD_ISO02W100
 70
     0
  3
ISO dash __ __ __ __ __ __ __ __ __ __ __ __ __
 72
    65
 73
     2
 40
15.0
 49
12.0
 49
-3.0
  0
LTYPE
  2
ACAD_ISO09W100
 70
     0
  3
ISO long-dash double-short-dash ____ __ __ ____
 72
    65
 73
     6
 40
45.0
 49
24.0
 49
-3.0
 49
6.0
 49
-3.0
 49
6.0
 49
-3.0
  0
LTYPE
  2
ACAD_ISO08W100
 70
     0
  3
ISO long-dash short-dash ____ __ ____ __ ____ _
 72
    65
 73
     4
 40
36.0
 49
24.0
 49
-3.0
 49
6.0
 49
-3.0
  0
LTYPE
  2
ACAD_ISO07W100
 70
     0
  3
ISO dot . . . . . . . . . . . . . . . . . . . . 
 72
    65
 73
     2
 40
3.0
 49
0.0
 49
-3.0
  0
LTYPE
  2
ACAD_ISO06W100
 70
     0
  3
ISO long-dash triple-dot ____ ... ____ ... ____
 72
    65
 73
     8
 40
36.0
 49
24.0
 49
-3.0
 49
0.0
 49
-3.0
 49
0.0
 49
-3.0
 49
0.0
 49
-3.0
  0
LTYPE
  2
ACAD_ISO13W100
 70
     0
  3
ISO double-dash double-dot __ __ . . __ __ . . _
 72
    65
 73
     8
 40
36.0
 49
12.0
 49
-3.0
 49
12.0
 49
-3.0
 49
0.0
 49
-3.0
 49
0.0
 49
-3.0
  0
LTYPE
  2
ACAD_ISO12W100
 70
     0
  3
ISO dash double-dot __ . . __ . . __ . . __ . . 
 72
    65
 73
     6
 40
21.0
 49
12.0
 49
-3.0
 49
0.0
 49
-3.0
 49
0.0
 49
-3.0
  0
LTYPE
  2
ACAD_ISO11W100
 70
     0
  3
ISO double-dash dot __ __ . __ __ . __ __ . __ _
 72
    65
 73
     6
 40
33.0
 49
12.0
 49
-3.0
 49
12.0
 49
-3.0
 49
0.0
 49
-3.0
  0
LTYPE
  2
ACAD_ISO10W100
 70
     0
  3
ISO dash dot __ . __ . __ . __ . __ . __ . __ . 
 72
    65
 73
     4
 40
18.0
 49
12.0
 49
-3.0
 49
0.0
 49
-3.0
  0
LTYPE
  2
BORDER
 70
     0
  3
Border __ __ . __ __ . __ __ . __ __ . __ __ .
 72
    65
 73
     6
 40
44.45
 49
12.7
 49
-6.35
 49
12.7
 49
-6.35
 49
0.0
 49
-6.35
  0
LTYPE
  2
BATTING
 70
     0
  3
Batting SSSSSSSSSSSSSSSSSSSSSSSSSSSSSSSSSSSSSSSSSSSSSSS
 72
    65
 73
     4
 40
10.16254
 49
0.00254
 49
-2.54
 49
-5.08
 49
-2.54
  0
LTYPE
  2
ACAD_ISO15W100
 70
     0
  3
ISO double-dash triple-dot __ __ . . . __ __ . .
 72
    65
 73
    10
 40
39.0
 49
12.0
 49
-3.0
 49
12.0
 49
-3.0
 49
0.0
 49
-3.0
 49
0.0
 49
-3.0
 49
0.0
 49
-3.0
  0
LTYPE
  2
ACAD_ISO14W100
 70
     0
  3
ISO dash triple-dot __ . . . __ . . . __ . . . _
 72
    65
 73
     8
 40
24.0
 49
12.0
 49
-3.0
 49
0.0
 49
-3.0
 49
0.0
 49
-3.0
 49
0.0
 49
-3.0
  0
LTYPE
  2
CENTER2
 70
     0
  3
Center (.5x) ___ _ ___ _ ___ _ ___ _ ___ _ ___
 72
    65
 73
     4
 40
28.575
 49
19.05
 49
-3.175
 49
3.175
 49
-3.175
  0
LTYPE
  2
CENTER
 70
     0
  3
Center ____ _ ____ _ ____ _ ____ _ ____ _ ____
 72
    65
 73
     4
 40
50.8
 49
31.75
 49
-6.35
 49
6.35
 49
-6.35
  0
LTYPE
  2
BORDERX2
 70
     0
  3
Border (2x) ____  ____  .  ____  ____  .  ___
 72
    65
 73
     6
 40
88.89999999999999
 49
25.4
 49
-12.7
 49
25.4
 49
-12.7
 49
0.0
 49
-12.7
  0
LTYPE
  2
BORDER2
 70
     0
  3
Border (.5x) __.__.__.__.__.__.__.__.__.__.__.
 72
    65
 73
     6
 40
22.225
 49
6.35
 49
-3.175
 49
6.35
 49
-3.175
 49
0.0
 49
-3.175
  0
LTYPE
  2
CUTRIGHT
 70
     0
  3
G42 ----/----/-----/---
 72
    65
 73
     2
 40
10.16
 49
5.08
 49
5.08
  0
LTYPE
  2
CUTLEFT2
 70
     0
  3
G41 reversed----/----/----/----
 72
    65
 73
     2
 40
10.16
 49
5.08
 49
5.08
  0
LTYPE
  2
CUTLEFT
 70
     0
  3
G41 ----\----\----\----
 72
    65
 73
     2
 40
10.16
 49
5.08
 49
5.08
  0
LTYPE
  2
CENTERX2
 70
     0
  3
Center (2x) ________  __  ________  __  _____
 72
    65
 73
     4
 40
101.6
 49
63.5
 49
-12.7
 49
12.7
 49
-12.7
  0
LTYPE
  2
DASHDOTX2
 70
     0
  3
Dash dot (2x) ____  .  ____  .  ____  .  ___
 72
    65
 73
     4
 40
50.8
 49
25.4
 49
-12.7
 49
0.0
 49
-12.7
  0
LTYPE
  2
DASHDOT2
 70
     0
  3
Dash dot (.5x) _._._._._._._._._._._._._._._.
 72
    65
 73
     4
 40
12.7
 49
6.35
 49
-3.175
 49
0.0
 49
-3.175
  0
ENDTAB
  0
TABLE
  2
LAYER
 70
     1
  0
LAYER
  2
0
 70
     0
 62
     7
  6
CONTINUOUS
  0
ENDTAB
  0
TABLE
  2
STYLE
 70
    16
  0
STYLE
  2
STANDARD
 70
     0
 40
0.0
 41
1.0
 50
0.0
 71
     0
 42
0.2
  3
txt
  4

  0
STYLE
  2
TEXTSTYLE0
 70
     0
 40
0.0
 41
1.0
 50
0.0
 71
     0
 42
0.2
  3
qcadshp.shx
  4

  0
STYLE
  2
TEXTSTYLE1
 70
     0
 40
0.0
 41
1.0
 50
0.0
 71
     0
 42
0.2
  3
ltypeshp.shx
  4

  0
STYLE
  2
TEXTSTYLE2
 70
     0
 40
0.0
 41
1.0
 50
0.0
 71
     0
 42
0.2
  3
qcadshp.shx
  4

  0
STYLE
  2
TEXTSTYLE3
 70
     0
 40
0.0
 41
1.0
 50
0.0
 71
     0
 42
0.2
  3
qcadshp.shx
  4

  0
STYLE
  2
TEXTSTYLE4
 70
     0
 40
0.0
 41
1.0
 50
0.0
 71
     0
 42
0.2
  3
STANDARD
  4

  0
STYLE
  2
TEXTSTYLE5
 70
     0
 40
0.0
 41
1.0
 50
0.0
 71
     0
 42
0.2
  3
ltypeshp.shx
  4

  0
STYLE
  2
TEXTSTYLE6
 70
     0
 40
0.0
 41
1.0
 50
0.0
 71
     0
 42
0.2
  3
STANDARD
  4

  0
STYLE
  2
TEXTSTYLE7
 70
     0
 40
0.0
 41
1.0
 50
0.0
 71
     0
 42
0.2
  3
ltypeshp.shx
  4

  0
STYLE
  2
TEXTSTYLE8
 70
     0
 40
0.0
 41
1.0
 50
0.0
 71
     0
 42
0.2
  3
ltypeshp.shx
  4

  0
STYLE
  2
TEXTSTYLE9
 70
     0
 40
0.0
 41
1.0
 50
0.0
 71
     0
 42
0.2
  3
ltypeshp.shx
  4

  0
STYLE
  2
TEXTSTYLE10
 70
     0
 40
0.0
 41
1.0
 50
0.0
 71
     0
 42
0.2
  3
ltypeshp.shx
  4

  0
STYLE
  2
TEXTSTYLE11
 70
     0
 40
0.0
 41
1.0
 50
0.0
 71
     0
 42
0.2
  3
ltypeshp.shx
  4

  0
STYLE
  2
TEXTSTYLE12
 70
     0
 40
0.0
 41
1.0
 50
0.0
 71
     0
 42
0.2
  3
qcadshp.shx
  4

  0
STYLE
  2
TEXTSTYLE13
 70
     0
 40
0.0
 41
1.0
 50
0.0
 71
     0
 42
0.2
  3
qcadshp.shx
  4

  0
STYLE
  2
TEXTSTYLE14
 70
     0
 40
0.0
 41
1.0
 50
0.0
 71
     0
 42
0.2
  3
qcadshp.shx
  4

  0
ENDTAB
  0
TABLE
  2
VIEW
 70
     0
  0
ENDTAB
  0
ENDSEC
  0
SECTION
  2
BLOCKS
  0
ENDSEC
  0
SECTION
  2
ENTITIES
  0
ARC
  8
0
 10
1.998212345807252
 20
-10.00099764553271
 40
0.0164707638272636
 50
40.28795026397783
 51
109.4004595952031
  0
LINE
  8
0
 10
1.992741273633563
 20
-9.985462091782559
 11
1.977320723031432
 21
-9.985462091782559
  0
LINE
  8
0
 10
1.977320723031432
 20
-9.985462091782559
 11
1.972032684587708
 21
-9.965311161085477
  0
ARC
  8
0
 10
2.132148788279392
 20
-9.923794113150143
 40
0.1654110997807302
 50
178.0939155808114
 51
194.5362876548305
  0
ARC
  8
0
 10
2.07540327128568
 20
-9.910904590136155
 40
0.1088251115282093
 50
142.8547313077152
 51
183.8925914593492
  0
ARC
  8
0
 10
1.962835704044682
 20
-9.819549328356771
 40
0.0363913504193419
 50
315.2001377662314
 51
0.731005429667219
  0
LINE
  8
0
 10
1.999224092646996
 20
-9.819085043670007
 11
1.999785333383447
 21
-9.80594701680572
  0
LINE
  8
0
 10
1.999785333383447
 20
-9.80594701680572
 11
1.980658314219482
 21
-9.802794189976167
  0
ARC
  8
0
 10
1.988576773556685
 20
-9.729982295262952
 40
0.0732412043183569
 50
213.821465588162
 51
263.7933456423181
  0
ARC
  8
0
 10
2.094732513021998
 20
-9.667337315852166
 40
0.1964277805395406
 50
193.151912038797
 51
211.7666400935469
  0
ARC
  8
0
 10
1.542734247176308
 20
-9.806323318401661
 40
0.3728429860909862
 50
14.64919811817556
 51
20.35839575885491
  0
ARC
  8
0
 10
1.995710613997705
 20
-9.633584624245339
 40
0.1120174052664058
 50
182.7746261093149
 51
202.5900684798507
  0
ARC
  8
0
 10
1.857576717962199
 20
-9.63991696596103
 40
0.026263577089383
 50
1.985332608448608
 51
33.98634393598238
  0
ARC
  8
0
 10
0.730030358169752
 20
-10.60541708656429
 40
1.510529582450553
 50
40.45865255943983
 51
43.26257866130727
  0
ARC
  8
0
 10
9.20995022397972
 20
-2.509119309502355
 40
10.21380954910515
 50
223.3871779534946
 51
223.735126173187
  0
ARC
  8
0
 10
-3.488914714840198
 20
-14.51903503152226
 40
7.264728104690517
 50
43.42488126189593
 51
44.05181409012773
  0
ARC
  8
0
 10
4.426732219034448
 20
-6.852269799562834
 40
3.755110101466621
 50
223.1529784993355
 51
224.149060738557
  0
ARC
  8
0
 10
2.836996607183493
 20
-8.32576305049216
 40
1.587604273152106
 50
221.2424165419995
 51
223.5983159356362
  0
ARC
  8
0
 10
0.4243288233072764
 20
-10.38670009483954
 40
1.585737777343959
 50
39.76561463201396
 51
40.86519258294395
  0
ARC
  8
0
 10
7.127816720579054
 20
-4.580147108480338
 40
7.282904371230845
 50
220.6400181042563
 51
220.9064466668198
  0
ARC
  8
0
 10
-0.1880569494698838
 20
-10.92027084479421
 40
2.39829593331257
 50
41.742155202115
 51
43.43679345713418
  0
ARC
  8
0
 10
1.810901241995965
 20
-9.006820182808319
 40
0.3691208006200284
 50
210.3653648427118
 51
225.7702174653611
  0
ARC
  8
0
 10
1.481771564539898
 20
-9.198084305332868
 40
0.0116240119660566
 50
23.68265497550362
 51
63.75857693655731
  0
ARC
  8
0
 10
1.488547398362447
 20
-9.18242921865806
 40
0.0054790764026193
 50
192.0348305494755
 51
252.6245663355741
  0
ARC
  8
0
 10
1.460590539148021
 20
-9.192215330268862
 40
0.0241948826254859
 50
20.93157719763284
 51
47.75149605997672
  0
LINE
  8
0
 10
1.47685790749183
 20
-9.174305414790895
 11
1.470526960004568
 21
-9.167697429323088
  0
LINE
  8
0
 10
1.470526960004568
 20
-9.167697429323088
 11
1.44543993331397
 21
-9.196154614362458
  0
ARC
  8
0
 10
0.3121558109490826
 20
-8.168966936835687
 40
1.529525229235267
 50
314.4015410629273
 51
317.8114224729948
  0
ARC
  8
0
 10
-0.9705521253879259
 20
-6.889973269386368
 40
3.340865040618271
 50
313.209898879066
 51
314.771058493794
  0
ARC
  8
0
 10
0.9106354046878045
 20
-8.923942976315548
 40
0.5708121793078276
 50
306.2338996117868
 51
315.3684942528317
  0
ARC
  8
0
 10
1.257895084602135
 20
-9.403277369693312
 40
0.0213283149029029
 50
117.5423440772762
 51
140.3956774314206
  0
ARC
  8
0
 10
1.175213368505968
 20
-9.322206062647329
 40
0.094561035877992
 50
303.6698144512698
 51
314.4747636700927
  0
ARC
  8
0
 10
2.245182153968332
 20
-10.7960681236792
 40
1.726811361576496
 50
126.1046245218824
 51
128.0559543131102
  0
ARC
  8
0
 10
0.537103645983454
 20
-8.616816446631475
 40
1.042064637386204
 50
304.660191064953
 51
308.1438656828248
  0
ARC
  8
0
 10
1.642255231874539
 20
-10.23440586440605
 40
0.9170399295137364
 50
123.9788029043321
 51
127.269392069726
  0
ARC
  8
0
 10
0.8983179452219983
 20
-9.268985919609063
 40
0.3018303526023393
 50
301.5266840641553
 51
308.6742922893647
  0
ARC
  8
0
 10
1.066529367435619
 20
-9.550366163978927
 40
0.0262435123163403
 50
113.3122533341707
 51
136.7107585711499
  0
ARC
  8
0
 10
1.017508755614529
 20
-9.503121147502267
 40
0.0418409267907869
 50
302.3252978934327
 51
315.6464440125332
  0
ARC
  8
0
 10
1.319164682005996
 20
-9.979625984210683
 40
0.5221210916679837
 50
122.3371225976429
 51
125.9647482501535
  0
ARC
  8
0
 10
0.813063395933957
 20
-9.284646300499984
 40
0.337610631472613
 50
299.7588718355517
 51
306.2150179227606
  0
ARC
  8
0
 10
0.9826657272771693
 20
-9.585740560040199
 40
0.0082601250137274
 50
104.2193915967004
 51
155.6391060897105
  0
ARC
  8
0
 10
0.956548501154258
 20
-9.568021179966108
 40
0.023463208122503
 50
290.4863575597921
 51
322.4115327345449
  0
ARC
  8
0
 10
1.030378075448217
 20
-9.718858133929617
 40
0.1446028893166797
 50
116.9864290013106
 51
125.186634522153
  0
ARC
  8
0
 10
0.7791288300264607
 20
-9.348891225499576
 40
0.3026455216719583
 50
297.7797337923269
 51
303.7004213918729
  0
ARC
  8
0
 10
1.11237479111036
 20
-9.980865430049331
 40
0.4118083454246773
 50
117.8202799810879
 51
121.9364152331801
  0
ARC
  8
0
 10
0.5715626416716253
 20
-9.17014791508584
 40
0.5630782100697135
 50
298.9117281987063
 51
305.0007802966792
  0
ARC
  8
0
 10
0.9425477988881721
 20
-9.851902643145722
 40
0.213118781698704
 50
117.6064895825322
 51
125.7420416331217
  0
ARC
  8
0
 10
0.6935574170341288
 20
-9.505932402068215
 40
0.2131342159061883
 50
297.6072665200077
 51
305.7421288446754
  0
ARC
  8
0
 10
0.8530519709028599
 20
-9.760121432898334
 40
0.089188322744146
 50
132.9122876933461
 51
155.3260110847606
  0
ARC
  8
0
 10
0.8288274535823115
 20
-9.757926091377241
 40
0.0667545220345421
 50
148.3412268942255
 51
165.4447362177889
  0
ARC
  8
0
 10
0.5458474937622293
 20
-9.678033777071127
 40
0.2273063091688221
 50
330.1182553527952
 51
343.8788484020731
  0
ARC
  8
0
 10
0.846193837587385
 20
-9.84380551620821
 40
0.1158505095506029
 50
153.0387981731316
 51
174.5505720972104
  0
ARC
  8
0
 10
0.5614413103522968
 20
-9.81619142445605
 40
0.1702380709627545
 50
345.2022919670267
 51
354.400075472375
  0
ARC
  8
0
 10
0.9877814215299063
 20
-9.92462298648316
 40
0.2696865523798154
 50
166.06382351775
 51
173.4275754073796
  0
POLYLINE
  8
0
 66
     1
  0
VERTEX
  8
0
 10
0.7198672578855312
 20
-9.893754921217482
  0
VERTEX
  8
0
 10
0.7193253554084972
 20
-9.897628822396204
  0
VERTEX
  8
0
 10
0.7188013422537765
 20
-9.901243154822934
  0
VERTEX
  8
0
 10
0.7182899692283112
 20
-9.90461179742292
  0
VERTEX
  8
0
 10
0.7177859871390436
 20
-9.907748629121413
  0
VERTEX
  8
0
 10
0.717284146792915
 20
-9.910667528843657
  0
VERTEX
  8
0
 10
0.7167791989968675
 20
-9.913382375514901
  0
VERTEX
  8
0
 10
0.7162658945578428
 20
-9.915907048060394
  0
VERTEX
  8
0
 10
0.715738984282783
 20
-9.918255425405379
  0
VERTEX
  8
0
 10
0.7151932189786299
 20
-9.920441386475108
  0
VERTEX
  8
0
 10
0.7146233494523253
 20
-9.922478810194827
  0
VERTEX
  8
0
 10
0.714024126510811
 20
-9.924381575489782
  0
VERTEX
  8
0
 10
0.7133903009610292
 20
-9.926163561285223
  0
VERTEX
  8
0
 10
0.7127166236099215
 20
-9.927838646506396
  0
VERTEX
  8
0
 10
0.7119978452644298
 20
-9.92942071007855
  0
VERTEX
  8
0
 10
0.7112287167314961
 20
-9.93092363092693
  0
VERTEX
  8
0
 10
0.7104039888180619
 20
-9.932361287976786
  0
VERTEX
  8
0
 10
0.7095184123310696
 20
-9.933747560153364
  0
VERTEX
  8
0
 10
0.7085667380774606
 20
-9.935096326381911
  0
VERTEX
  8
0
 10
0.707543716864177
 20
-9.936421465587678
  0
VERTEX
  8
0
 10
0.7064440994981608
 20
-9.937736856695906
  0
VERTEX
  8
0
 10
0.7052626367863537
 20
-9.93905637863185
  0
VERTEX
  8
0
 10
0.7039940795356975
 20
-9.940393910320754
  0
VERTEX
  8
0
 10
0.7026331785531341
 20
-9.941763330687863
  0
VERTEX
  8
0
 10
0.7011746846456055
 20
-9.943178518658428
  0
SEQEND
  8
0
  0
ARC
  8
0
 10
0.6630773754891714
 20
-9.902006341062387
 40
0.0560941456210955
 50
264.4078779841086
 51
312.7786067708375
  0
ARC
  8
0
 10
0.6577756358326414
 20
-9.530145389788709
 40
0.4276881656827801
 50
261.7053783504838
 51
269.977974109009
  0
ARC
  8
0
 10
0.626171420630768
 20
-9.62740205038853
 40
0.3273440050504297
 50
253.9211648350564
 51
264.7248661033369
  0
ARC
  8
0
 10
0.5830072804115722
 20
-9.858401211787296
 40
0.0960980449996562
 50
225.4598966256284
 51
240.3793455610927
  0
ARC
  8
0
 10
0.5505013976607553
 20
-9.888432473487311
 40
0.0519357400784073
 50
173.8971856817808
 51
227.7824550645906
  0
ARC
  8
0
 10
0.9268938509068343
 20
-9.90320260950894
 40
0.4285145652118332
 50
167.5500669966468
 51
177.2858411731205
  0
ARC
  8
0
 10
0.1100478343709684
 20
-9.721331493486057
 40
0.4083347989351474
 50
347.3405087794611
 51
0.6382359860735739
  0
ARC
  8
0
 10
0.4136102843399272
 20
-9.704589252106922
 40
0.1054543743684866
 50
353.3599954930861
 51
18.58174341292334
  0
ARC
  8
0
 10
0.4931881096834481
 20
-9.677526601890534
 40
0.0214032473441695
 50
17.79517433889856
 51
52.24393913229972
  0
ARC
  8
0
 10
0.506576513816243
 20
-9.657743844687289
 40
0.0028747997216555
 50
176.1634814755327
 51
264.3470319014594
  0
ARC
  8
0
 10
0.367834252385086
 20
-9.738605038522103
 40
0.1582131320967147
 50
30.81755765190991
 51
42.70840433022484
  0
ARC
  8
0
 10
0.7162875038062604
 20
-9.409124241408946
 40
0.3213633645984021
 50
211.6320684904444
 51
223.7359370037905
  0
ARC
  8
0
 10
0.4375618371501171
 20
-9.578547990206003
 40
0.0051815193750323
 50
9.78608322860555
 51
71.45308618486476
  0
ARC
  8
0
 10
0.4641370409757709
 20
-9.540702305596392
 40
0.0413032561091328
 50
211.2574882536544
 51
232.8780705211751
  0
ARC
  8
0
 10
-1.073943046536972
 20
-10.62642322716604
 40
1.841476606998422
 50
35.30678568544246
 51
36.87508754521908
  0
ARC
  8
0
 10
0.7466243808741562
 20
-9.253585365890068
 40
0.4387179126727799
 50
211.5016526801351
 51
217.6225607783746
  0
ARC
  8
0
 10
0.3481503998090026
 20
-9.493773621042813
 40
0.0267545892417788
 50
24.1546081351184
 51
53.16964626982802
  0
ARC
  8
0
 10
0.367375499270821
 20
-9.4648128596795
 40
0.0081914652213031
 50
198.8140314632018
 51
247.1028349037878
  0
ARC
  8
0
 10
0.0377198040923641
 20
-9.668993639111356
 40
0.3797878633295421
 50
32.05020600958004
 51
38.94052957737689
  0
ARC
  8
0
 10
0.8492930239500829
 20
-9.024532127658324
 40
0.6565647626454878
 50
213.7692176142264
 51
218.170532790172
  0
ARC
  8
0
 10
0.1436755117120605
 20
-9.482057075830227
 40
0.1847007784663932
 50
30.08013838617547
 51
36.89804887797749
  0
ARC
  8
0
 10
0.8079826971879898
 20
-8.970719080364185
 40
0.6536304584013025
 50
211.7402135899402
 51
217.7811678729747
  0
ARC
  8
0
 10
0.2316175756528751
 20
-9.32436374704862
 40
0.0227089906905811
 50
25.53826690257575
 51
50.69842282246984
  0
ARC
  8
0
 10
0.2587573512708057
 20
-9.291176481300932
 40
0.0201624736779886
 50
201.0263527545387
 51
230.7538639146708
  0
ARC
  8
0
 10
0.1454185415914216
 20
-9.346198039919297
 40
0.1059124148649306
 50
26.82048004248722
 51
39.71996694862543
  0
ARC
  8
0
 10
0.8474486466761266
 20
-8.7888397392237
 40
0.7904958025395188
 50
213.2279991835946
 51
218.276336199374
  0
ARC
  8
0
 10
-0.1619031488575459
 20
-9.43181527259191
 40
0.4064423916265534
 50
31.07775644552548
 51
36.04889879460096
  0
ARC
  8
0
 10
0.7339149266569851
 20
-8.792403995575787
 40
0.6941927175717675
 50
211.1894135051708
 51
215.2075530656345
  0
ARC
  8
0
 10
-0.3765051352129369
 20
-9.450152410365535
 40
0.5964830459083904
 50
30.00066929367354
 51
33.36091329274171
  0
ARC
  8
0
 10
0.2001265544392033
 20
-9.06508881071498
 40
0.0969891448342703
 50
202.4422781246242
 51
216.0307994963536
  0
ARC
  8
0
 10
0.0883321744196362
 20
-9.109408204908926
 40
0.0233206226822824
 50
18.22509379858753
 51
46.52862190014231
  0
ARC
  8
0
 10
0.1207353511261638
 20
-9.075163607919608
 40
0.0238244748017804
 50
199.4482345909285
 51
226.6354962100005
  0
ARC
  8
0
 10
-0.0395798988071456
 20
-9.137468737150783
 40
0.1481858457544303
 50
21.52591495036039
 51
31.68328054386286
  0
ARC
  8
0
 10
0.5124729323362305
 20
-8.82117971659715
 40
0.4881571983657155
 50
203.9624317557551
 51
209.2411725634198
  0
ARC
  8
0
 10
-0.0940138491676427
 20
-9.082935650492272
 40
0.1725136345667522
 50
21.5965919533427
 51
29.23656450779578
  0
ARC
  8
0
 10
0.4090746224016231
 20
-8.813897113501836
 40
0.3980402452036578
 50
200.4017962980193
 51
207.660040429912
  0
ARC
  8
0
 10
-0.1402523988220763
 20
-9.018245248101538
 40
0.1880641300768087
 50
20.41197397141953
 51
27.03878679321302
  0
ARC
  8
0
 10
0.1351612327278427
 20
-8.873809492383005
 40
0.1229544203823811
 50
177.0643938231208
 51
208.6455122061911
  0
ARC
  8
0
 10
-0.0759457239767966
 20
-8.861239262665057
 40
0.0885364149043528
 50
355.9368730590161
 51
17.46975022965496
  0
ARC
  8
0
 10
0.9005270422726366
 20
-8.757228113579606
 40
0.8953745138175733
 50
178.7751792928205
 51
184.9611573416204
  0
ARC
  8
0
 10
6.695875716661802
 20
-8.688771160213376
 40
6.690700376650845
 50
179.5938620484188
 51
180.422337007442
  0
ARC
  8
0
 10
0.9015113542166089
 20
-8.621960260569876
 40
0.8963775503379767
 50
175.0599197705682
 51
181.2391481381972
  0
ARC
  8
0
 10
-0.3296749464530989
 20
-8.486746049631234
 40
0.3430807582955377
 50
350.2630291761268
 51
2.731811899862484
  0
POLYLINE
  8
0
 66
     1
  0
VERTEX
  8
0
 10
0.0130159233556566
 20
-8.470394460645458
  0
VERTEX
  8
0
 10
0.0131856778590717
 20
-8.462647699711562
  0
VERTEX
  8
0
 10
0.0133503215044748
 20
-8.45545143546079
  0
VERTEX
  8
0
 10
0.0135119636186182
 20
-8.44877875447068
  0
VERTEX
  8
0
 10
0.0136727135282544
 20
-8.442602743318766
  0
VERTEX
  8
0
 10
0.0138346805601356
 20
-8.436896488582581
  0
VERTEX
  8
0
 10
0.0139999740410142
 20
-8.431633076839661
  0
VERTEX
  8
0
 10
0.0141707032976426
 20
-8.426785594667543
  0
VERTEX
  8
0
 10
0.0143489776567731
 20
-8.422327128643762
  0
VERTEX
  8
0
 10
0.0145369064451582
 20
-8.41823076534585
  0
VERTEX
  8
0
 10
0.01473659898955
 20
-8.414469591351347
  0
VERTEX
  8
0
 10
0.014950164616701
 20
-8.411016693237784
  0
VERTEX
  8
0
 10
0.0151797126533636
 20
-8.407845157582699
  0
VERTEX
  8
0
 10
0.0154273524262901
 20
-8.404928070963624
  0
VERTEX
  8
0
 10
0.0156951932622328
 20
-8.402238519958098
  0
VERTEX
  8
0
 10
0.0159853444879441
 20
-8.399749591143655
  0
VERTEX
  8
0
 10
0.0162999154301764
 20
-8.397434371097829
  0
VERTEX
  8
0
 10
0.0166410154156819
 20
-8.395265946398156
  0
VERTEX
  8
0
 10
0.0170107537712132
 20
-8.39321740362217
  0
VERTEX
  8
0
 10
0.0174112398235224
 20
-8.391261829347407
  0
VERTEX
  8
0
 10
0.0178445828993621
 20
-8.389372310151403
  0
VERTEX
  8
0
 10
0.0183128923254844
 20
-8.387521932611692
  0
VERTEX
  8
0
 10
0.0188182774286418
 20
-8.38568378330581
  0
VERTEX
  8
0
 10
0.0193628475355866
 20
-8.38383094881129
  0
VERTEX
  8
0
 10
0.0199487119730713
 20
-8.381936515705672
  0
SEQEND
  8
0
  0
ARC
  8
0
 10
-2.840511032335807
 20
-7.478067025624402
 40
2.999868331095781
 50
342.464115611663
 51
342.9893026513422
  0
ARC
  8
0
 10
0.0448011363996386
 20
-8.358466294240172
 40
0.0169187565543769
 50
135.0804113027371
 51
170.5183638376674
  0
ARC
  8
0
 10
0.031867601671098
 20
-8.343736658497638
 40
0.0029418410960565
 50
288.9097902350437
 51
10.63037458886722
  0
ARC
  8
0
 10
0.3071406933153552
 20
-8.439166014267709
 40
0.2887948150657372
 50
150.1048312166103
 51
160.59040161939
  0
ARC
  8
0
 10
0.0437848255921489
 20
-8.28426141035849
 40
0.0169979929471286
 50
319.8284380420002
 51
345.6683999296547
  0
ARC
  8
0
 10
0.5504346082220533
 20
-8.55857725218725
 40
0.5596746136152027
 50
142.7661958055614
 51
151.1435624645208
  0
ARC
  8
0
 10
0.6707446533571024
 20
-8.706359170675317
 40
0.7462303412544434
 50
134.236241266135
 51
139.3194380454856
  0
ARC
  8
0
 10
0.4883942320136892
 20
-8.486899148758251
 40
0.4623283497968974
 50
128.8202243547242
 51
137.019641107294
  0
ARC
  8
0
 10
0.1948035803321327
 20
-8.114088768983923
 40
0.0131535084171167
 50
286.6408058399105
 51
323.2653119096082
  0
ARC
  8
0
 10
0.2438358342383225
 20
-8.159448508264747
 40
0.053732973118171
 50
119.7476386452446
 51
135.7527800513515
  0
ARC
  8
0
 10
-0.1320533192887711
 20
-7.541175819530386
 40
0.6698584379540831
 50
301.4225689599822
 51
304.3370485122821
  0
ARC
  8
0
 10
0.3742768615606487
 20
-8.276983767039843
 40
0.2233445415007471
 50
116.8419819426518
 51
125.1205335569502
  0
ARC
  8
0
 10
0.2646434098043633
 20
-8.05229456242842
 40
0.0268851475388064
 50
289.0753477140436
 51
312.1245239333367
  0
ARC
  8
0
 10
0.3599674533463205
 20
-8.18577216545344
 40
0.1373484268297669
 50
113.1907347316431
 51
124.2452647644238
  0
ARC
  8
0
 10
0.2151834269205737
 20
-7.854331328424962
 40
0.2243413221927097
 50
293.8461362697997
 51
300.1503130061267
  0
ARC
  8
0
 10
0.3830158752170577
 20
-8.137645644341179
 40
0.1049788929460219
 50
112.6077576574472
 51
121.6929711955346
  0
ARC
  8
0
 10
0.2653825092351648
 20
-7.894205931622705
 40
0.1656566410463173
 50
297.8067653732573
 51
310.8198129682409
  0
ARC
  8
0
 10
0.5169927778715528
 20
-8.177617935158265
 40
0.213356132520787
 50
125.7963479655889
 51
132.2028064451987
  0
ARC
  8
0
 10
0.3643844666101839
 20
-7.961511551735722
 40
0.0512565702951626
 50
302.8650921538163
 51
315.8138975305898
  0
ARC
  8
0
 10
0.4231579369438854
 20
-8.017794654655184
 40
0.0301235968739363
 50
112.1945616646689
 51
136.964929281024
  0
ARC
  8
0
 10
0.3847949663218538
 20
-7.915274060906437
 40
0.0793574295603052
 50
289.8785388034476
 51
303.6073020187493
  0
ARC
  8
0
 10
0.5570574752652202
 20
-8.231373970981208
 40
0.281023562464478
 50
102.4654168428615
 51
117.1731983908111
  0
ARC
  8
0
 10
0.4844942127583989
 20
-7.889867143537972
 40
0.068155647828238
 50
280.059025664564
 51
291.8247948658137
  0
ARC
  8
0
 10
0.5861128961534805
 20
-8.398459350190626
 40
0.4518075378820609
 50
92.86018043019483
 51
99.72003373018862
  0
ARC
  8
0
 10
0.5267259113857305
 20
-7.351416384791566
 40
0.5969362748129599
 50
273.5384876030331
 51
279.7966222656373
  0
ARC
  8
0
 10
0.7110036870588494
 20
-8.530188500861655
 40
0.5963041368527139
 50
88.41867358568416
 51
97.97270983290517
  0
ARC
  8
0
 10
0.7427246862171704
 20
-7.376216433199121
 40
0.5581038388957664
 50
268.4326273433643
 51
277.354790199964
  0
POLYLINE
  8
0
 66
     1
  0
VERTEX
  8
0
 10
0.8141692712597781
 20
-7.929728462208683
  0
VERTEX
  8
0
 10
0.8152038394052177
 20
-7.928972709848595
  0
VERTEX
  8
0
 10
0.8164014463807393
 20
-7.928254271105589
  0
VERTEX
  8
0
 10
0.8177620170349807
 20
-7.927573154366465
  0
VERTEX
  8
0
 10
0.8192854762165809
 20
-7.926929368018022
  0
VERTEX
  8
0
 10
0.820971748774177
 20
-7.926322920447054
  0
VERTEX
  8
0
 10
0.8228207595564075
 20
-7.925753820040361
  0
VERTEX
  8
0
 10
0.8248324334119106
 20
-7.925222075184741
  0
VERTEX
  8
0
 10
0.8270066951893243
 20
-7.924727694266991
  0
VERTEX
  8
0
 10
0.8293434697372866
 20
-7.924270685673909
  0
VERTEX
  8
0
 10
0.8318426819044356
 20
-7.923851057792294
  0
VERTEX
  8
0
 10
0.8345042565394096
 20
-7.923468819008941
  0
VERTEX
  8
0
 10
0.8373281184908463
 20
-7.923123977710651
  0
VERTEX
  8
0
 10
0.8403141926073843
 20
-7.922816542284218
  0
VERTEX
  8
0
 10
0.8434624037376612
 20
-7.922546521116444
  0
VERTEX
  8
0
 10
0.8467726767303154
 20
-7.922313922594124
  0
VERTEX
  8
0
 10
0.8502449364339849
 20
-7.922118755104055
  0
VERTEX
  8
0
 10
0.8538791076973078
 20
-7.921961027033039
  0
VERTEX
  8
0
 10
0.8576751153689219
 20
-7.921840746767868
  0
VERTEX
  8
0
 10
0.8616328842974659
 20
-7.921757922695343
  0
VERTEX
  8
0
 10
0.8657523393315774
 20
-7.921712563202261
  0
VERTEX
  8
0
 10
0.8700334053198947
 20
-7.921704676675422
  0
VERTEX
  8
0
 10
0.8744760071110558
 20
-7.921734271501621
  0
VERTEX
  8
0
 10
0.8790800695536988
 20
-7.921801356067656
  0
VERTEX
  8
0
 10
0.8838455174964619
 20
-7.921905938760326
  0
SEQEND
  8
0
  0
POLYLINE
  8
0
 66
     1
  0
VERTEX
  8
0
 10
0.8838455174964619
 20
-7.921905938760326
  0
VERTEX
  8
0
 10
0.8883687289157223
 20
-7.922022719107995
  0
VERTEX
  8
0
 10
0.892538131633806
 20
-7.922135568403358
  0
VERTEX
  8
0
 10
0.8963741735588614
 20
-7.922247709061428
  0
VERTEX
  8
0
 10
0.8998973025990366
 20
-7.922362363497217
  0
VERTEX
  8
0
 10
0.9031279666624789
 20
-7.922482754125736
  0
VERTEX
  8
0
 10
0.9060866136573363
 20
-7.922612103361995
  0
VERTEX
  8
0
 10
0.9087936914917574
 20
-7.922753633621007
  0
VERTEX
  8
0
 10
0.9112696480738898
 20
-7.922910567317786
  0
VERTEX
  8
0
 10
0.9135349313118811
 20
-7.923086126867342
  0
VERTEX
  8
0
 10
0.9156099891138798
 20
-7.923283534684687
  0
VERTEX
  8
0
 10
0.9175152693880335
 20
-7.923506013184832
  0
VERTEX
  8
0
 10
0.9192712200424903
 20
-7.92375678478279
  0
VERTEX
  8
0
 10
0.9208982889853979
 20
-7.924039071893572
  0
VERTEX
  8
0
 10
0.9224169241249045
 20
-7.924356096932192
  0
VERTEX
  8
0
 10
0.923847573369158
 20
-7.924711082313658
  0
VERTEX
  8
0
 10
0.9252106846263062
 20
-7.925107250452983
  0
VERTEX
  8
0
 10
0.9265267058044973
 20
-7.92554782376518
  0
VERTEX
  8
0
 10
0.9278160848118788
 20
-7.926036024665259
  0
VERTEX
  8
0
 10
0.9290992695565989
 20
-7.926575075568234
  0
VERTEX
  8
0
 10
0.9303967079468056
 20
-7.927168198889116
  0
VERTEX
  8
0
 10
0.931728847890647
 20
-7.927818617042915
  0
VERTEX
  8
0
 10
0.9331161372962707
 20
-7.928529552444647
  0
VERTEX
  8
0
 10
0.9345790240718248
 20
-7.929304227509317
  0
VERTEX
  8
0
 10
0.9361379561254572
 20
-7.930145864651943
  0
SEQEND
  8
0
  0
POLYLINE
  8
0
 66
     1
  0
VERTEX
  8
0
 10
0.9361379561254572
 20
-7.930145864651943
  0
VERTEX
  8
0
 10
0.9377237429567926
 20
-7.931003479539514
  0
VERTEX
  8
0
 10
0.939205793156872
 20
-7.931791361030758
  0
VERTEX
  8
0
 10
0.9406089741935595
 20
-7.932513033748105
  0
VERTEX
  8
0
 10
0.9419581535347193
 20
-7.933172022313992
  0
VERTEX
  8
0
 10
0.9432781986482154
 20
-7.933771851350848
  0
VERTEX
  8
0
 10
0.9445939770019116
 20
-7.934316045481104
  0
VERTEX
  8
0
 10
0.9459303560636723
 20
-7.934808129327195
  0
VERTEX
  8
0
 10
0.9473122033013613
 20
-7.93525162751155
  0
VERTEX
  8
0
 10
0.9487643861828429
 20
-7.935650064656603
  0
VERTEX
  8
0
 10
0.9503117721759811
 20
-7.936006965384784
  0
VERTEX
  8
0
 10
0.9519792287486396
 20
-7.93632585431853
  0
VERTEX
  8
0
 10
0.953791623368683
 20
-7.936610256080266
  0
VERTEX
  8
0
 10
0.9557738235039749
 20
-7.93686369529243
  0
VERTEX
  8
0
 10
0.9579506966223796
 20
-7.93708969657745
  0
VERTEX
  8
0
 10
0.960347110191761
 20
-7.937291784557761
  0
VERTEX
  8
0
 10
0.9629879316799832
 20
-7.937473483855793
  0
VERTEX
  8
0
 10
0.9658980285549105
 20
-7.937638319093979
  0
VERTEX
  8
0
 10
0.9691022682844065
 20
-7.937789814894749
  0
VERTEX
  8
0
 10
0.9726255183363355
 20
-7.937931495880538
  0
VERTEX
  8
0
 10
0.9764926461785616
 20
-7.938066886673777
  0
VERTEX
  8
0
 10
0.9807285192789488
 20
-7.938199511896898
  0
VERTEX
  8
0
 10
0.9853580051053612
 20
-7.938332896172332
  0
VERTEX
  8
0
 10
0.9904059711256626
 20
-7.938470564122511
  0
VERTEX
  8
0
 10
0.9958972848077174
 20
-7.938616040369869
  0
SEQEND
  8
0
  0
POLYLINE
  8
0
 66
     1
  0
VERTEX
  8
0
 10
0.9958972848077174
 20
-7.938616040369869
  0
VERTEX
  8
0
 10
1.000902377219486
 20
-7.938750830745346
  0
VERTEX
  8
0
 10
1.005555558984914
 20
-7.938883515704768
  0
VERTEX
  8
0
 10
1.009873828493963
 20
-7.939016057334759
  0
VERTEX
  8
0
 10
1.013874184136592
 20
-7.939150417721942
  0
VERTEX
  8
0
 10
1.017573624302765
 20
-7.939288558952939
  0
VERTEX
  8
0
 10
1.020989147382441
 20
-7.939432443114375
  0
VERTEX
  8
0
 10
1.024137751765581
 20
-7.939584032292874
  0
VERTEX
  8
0
 10
1.027036435842147
 20
-7.939745288575056
  0
VERTEX
  8
0
 10
1.029702198002099
 20
-7.939918174047547
  0
VERTEX
  8
0
 10
1.032152036635398
 20
-7.940104650796968
  0
VERTEX
  8
0
 10
1.034402950132006
 20
-7.940306680909945
  0
VERTEX
  8
0
 10
1.036471936881883
 20
-7.9405262264731
  0
VERTEX
  8
0
 10
1.038375995274991
 20
-7.940765249573054
  0
VERTEX
  8
0
 10
1.04013212370129
 20
-7.941025712296433
  0
VERTEX
  8
0
 10
1.041757320550742
 20
-7.94130957672986
  0
VERTEX
  8
0
 10
1.043268584213306
 20
-7.941618804959956
  0
VERTEX
  8
0
 10
1.044682913078945
 20
-7.941955359073347
  0
VERTEX
  8
0
 10
1.04601730553762
 20
-7.942321201156654
  0
VERTEX
  8
0
 10
1.047288759979291
 20
-7.942718293296503
  0
VERTEX
  8
0
 10
1.048514274793919
 20
-7.943148597579514
  0
VERTEX
  8
0
 10
1.049710848371465
 20
-7.943614076092311
  0
VERTEX
  8
0
 10
1.050895479101891
 20
-7.94411669092152
  0
VERTEX
  8
0
 10
1.052085165375157
 20
-7.94465840415376
  0
VERTEX
  8
0
 10
1.053296905581224
 20
-7.945241177875658
  0
SEQEND
  8
0
  0
ARC
  8
0
 10
0.9536467801737525
 20
-8.15851024951696
 40
0.2354014537178298
 50
54.4416919213399
 51
64.95563369503247
  0
POLYLINE
  8
0
 66
     1
  0
VERTEX
  8
0
 10
1.090540059240326
 20
-7.967005485714935
  0
VERTEX
  8
0
 10
1.091256486353349
 20
-7.967551214629181
  0
VERTEX
  8
0
 10
1.091976889892195
 20
-7.968059424496916
  0
VERTEX
  8
0
 10
1.092713125726297
 20
-7.968531892848093
  0
VERTEX
  8
0
 10
1.093477049725086
 20
-7.968970397212671
  0
VERTEX
  8
0
 10
1.094280517757993
 20
-7.969376715120604
  0
VERTEX
  8
0
 10
1.095135385694449
 20
-7.969752624101848
  0
VERTEX
  8
0
 10
1.096053509403887
 20
-7.970099901686359
  0
VERTEX
  8
0
 10
1.097046744755739
 20
-7.970420325404092
  0
VERTEX
  8
0
 10
1.098126947619435
 20
-7.970715672785004
  0
VERTEX
  8
0
 10
1.099305973864408
 20
-7.97098772135905
  0
VERTEX
  8
0
 10
1.100595679360089
 20
-7.971238248656185
  0
VERTEX
  8
0
 10
1.102007919975909
 20
-7.971469032206366
  0
VERTEX
  8
0
 10
1.103554551581301
 20
-7.971681849539549
  0
VERTEX
  8
0
 10
1.105247430045695
 20
-7.971878478185689
  0
VERTEX
  8
0
 10
1.107098411238524
 20
-7.972060695674742
  0
VERTEX
  8
0
 10
1.109119351029219
 20
-7.972230279536664
  0
VERTEX
  8
0
 10
1.111322105287212
 20
-7.97238900730141
  0
VERTEX
  8
0
 10
1.113718529881935
 20
-7.972538656498935
  0
VERTEX
  8
0
 10
1.116320480682818
 20
-7.972681004659196
  0
VERTEX
  8
0
 10
1.119139813559294
 20
-7.972817829312151
  0
VERTEX
  8
0
 10
1.122188384380794
 20
-7.972950907987753
  0
VERTEX
  8
0
 10
1.12547804901675
 20
-7.973082018215957
  0
VERTEX
  8
0
 10
1.129020663336593
 20
-7.97321293752672
  0
VERTEX
  8
0
 10
1.132828083209755
 20
-7.973345443449998
  0
SEQEND
  8
0
  0
ARC
  8
0
 10
1.135535139682522
 20
-8.143981341322094
 40
0.1706573695958157
 50
78.28706529568106
 51
90.90889374649824
  0
ARC
  8
0
 10
1.190664749693928
 20
-7.952730523129008
 40
0.0316655071495561
 50
229.6909552573999
 51
250.7886738300743
  0
ARC
  8
0
 10
1.129491159253216
 20
-8.083861281552368
 40
0.1132395921526641
 50
50.25628816259481
 51
63.37176354561857
  0
ARC
  8
0
 10
1.256657082672526
 20
-7.929157984854567
 40
0.0870250982797978
 50
231.0008486060469
 51
258.4461664401348
  0
ARC
  8
0
 10
1.159981775390832
 20
-8.301221068631431
 40
0.2975480281768234
 50
55.74671792559493
 51
74.55416130652618
  0
ARC
  8
0
 10
1.37637231336243
 20
-7.992030598482339
 40
0.079957639770145
 50
232.2830675346411
 51
246.6481491168879
  0
ARC
  8
0
 10
1.895030223076344
 20
-8.489825925993559
 40
0.6949755106153702
 50
136.6903085469388
 51
142.3634435509119
  0
ARC
  8
0
 10
1.288996004539325
 20
-7.90878710998926
 40
0.1447418696365875
 50
313.8815030345503
 51
323.8969259134298
  0
ARC
  8
0
 10
1.427120157815055
 20
-8.007528788777984
 40
0.0250908487156684
 50
116.143037946351
 51
147.5738355537632
  0
ARC
  8
0
 10
1.407802695085355
 20
-7.965463417103715
 40
0.021216227965033
 50
292.9186201405745
 51
324.4918740456666
  0
ARC
  8
0
 10
1.43450951362923
 20
-7.98246284190735
 40
0.0105314355559841
 50
113.5909241639931
 51
153.6364239601868
  0
ARC
  8
0
 10
1.351499406085063
 20
-7.836592695890662
 40
0.1573667423441093
 50
300.0471040944732
 51
309.8328796994697
  0
ARC
  8
0
 10
1.731401800605502
 20
-8.29653027168692
 40
0.4391828157161962
 50
120.7454068395043
 51
129.4571413803012
  0
ARC
  8
0
 10
1.473276683006293
 20
-7.842276004639846
 40
0.0838298563086624
 50
293.6321032529547
 51
305.8051481586904
  0
ARC
  8
0
 10
1.689446326914658
 20
-8.170495196702484
 40
0.3092767729376164
 50
116.726795378797
 51
122.7094303714782
  0
ARC
  8
0
 10
0.7231238655509868
 20
-6.218405383298117
 40
1.868903707982816
 50
296.271685999416
 51
297.3203290288619
  0
ARC
  8
0
 10
1.732419882146276
 20
-8.175999062952188
 40
0.3335650620810205
 50
111.269646260997
 51
117.0192031931572
  0
ARC
  8
0
 10
1.556534358882654
 20
-7.711453667488529
 40
0.1632061468666014
 50
289.650132139387
 51
297.1295141978016
  0
ARC
  8
0
 10
1.748905741405542
 20
-8.143768060531164
 40
0.3103513441542669
 50
105.4222787545542
 51
112.336738723009
  0
ARC
  8
0
 10
1.58962866785695
 20
-7.562325257602068
 40
0.2925136166209369
 50
285.2103790483969
 51
292.0480731512384
  0
ARC
  8
0
 10
1.840574924340437
 20
-8.23155871465793
 40
0.4223904331919236
 50
100.4345042312448
 51
109.5207782303473
  0
LINE
  8
0
 10
1.764075188351025
 20
-7.816153528790434
 11
1.789721827420038
 21
-7.810382845024801
  0
LINE
  8
0
 10
1.789721827420038
 20
-7.810382845024801
 11
1.88831579679967
 21
-7.810382845024801
  0
LINE
  8
0
 10
1.88831579679967
 20
-7.810382845024801
 11
1.98690931970524
 21
-7.810382845024801
  0
LINE
  8
0
 10
1.98690931970524
 20
-7.810382845024801
 11
2.08550405443486
 21
-7.810382845024801
  0
LINE
  8
0
 10
2.08550405443486
 20
-7.810382845024801
 11
2.185271660990991
 21
-7.810452856473967
  0
LINE
  8
0
 10
2.185271660990991
 20
-7.810452856473967
 11
2.285030246823552
 21
-7.810787396423018
  0
ARC
  8
0
 10
2.310189199472697
 20
-8.868570211154811
 40
1.05808197037863
 50
85.96104696116655
 51
91.36250093405033
  0
ARC
  8
0
 10
2.459168903135902
 20
-7.624159884650569
 40
0.2030956859453668
 50
248.4941656544752
 51
264.7705767076372
  0
ARC
  8
0
 10
2.408653673941327
 20
-8.036702343436575
 40
0.2127135318862064
 50
72.90292084537627
 51
81.3465781982481
  0
ARC
  8
0
 10
2.533206579190304
 20
-7.673758062751055
 40
0.1712546314525359
 50
248.7687655162311
 51
257.3199378207941
  0
ARC
  8
0
 10
2.41639718444871
 20
-8.13520673089762
 40
0.3048435945447428
 50
66.67050810575789
 51
74.93801217235931
  0
ARC
  8
0
 10
1.949063760095185
 20
-9.126486215033013
 40
1.400628504165269
 50
60.85612866758011
 51
65.1747398777183
  0
ARC
  8
0
 10
2.72567091235126
 20
-7.765152987736851
 40
0.1672727879601984
 50
235.6035434733777
 51
242.4384547790143
  0
ARC
  8
0
 10
2.267834444616499
 20
-8.553707242165778
 40
0.7447634676160259
 50
55.07212927478648
 51
59.28161709758862
  0
ARC
  8
0
 10
2.996091862757587
 20
-7.521250977910572
 40
0.5187141391045871
 50
234.414726613263
 51
238.9160690382231
  0
ARC
  8
0
 10
2.496887426483582
 20
-8.289222081685013
 40
0.3979326945431624
 50
45.83182498901985
 51
54.44423799917154
  0
ARC
  8
0
 10
2.48025607523804
 20
-8.318971954752417
 40
0.4309502231704785
 50
35.48150281220708
 51
47.00176502313359
  0
ARC
  8
0
 10
2.89911811246547
 20
-8.031682258123656
 40
0.0774313443503048
 50
208.6701034245135
 51
220.0485957397526
  0
ARC
  8
0
 10
2.462207023884995
 20
-8.383852228308927
 40
0.4837605144403585
 50
29.50597253640604
 51
38.68180037162083
  0
ARC
  8
0
 10
3.678096078697037
 20
-7.718271416676638
 40
0.9024536267952431
 50
208.2624548942249
 51
210.6121564226202
  0
ARC
  8
0
 10
2.846393494571267
 20
-8.214591843663424
 40
0.0661756721171743
 50
17.14629191904573
 51
33.75429326657247
  0
ARC
  8
0
 10
2.944819582909689
 20
-8.18724109804056
 40
0.0360545997793666
 50
192.5613551283531
 51
213.7942679285902
  0
ARC
  8
0
 10
2.7978869157242
 20
-8.277408849757357
 40
0.1363740482127958
 50
355.894058463978
 51
30.93919530127157
  0
ARC
  8
0
 10
3.071203249839633
 20
-8.294472458972816
 40
0.1374861991452387
 50
176.9567507958027
 51
194.8874744224719
  0
ARC
  8
0
 10
2.927679191635213
 20
-8.338409375202042
 40
0.0136997175323123
 50
0.6422572404748635
 51
38.95825502096562
  0
ARC
  8
0
 10
2.948312614622354
 20
-8.338906788539582
 40
0.0069650541243423
 50
174.6371184181526
 51
236.1329973348165
  0
ARC
  8
0
 10
2.615953039566723
 20
-8.394045401371311
 40
0.3321654107963953
 50
356.0542141302809
 51
8.54502108900096
  0
LINE
  8
0
 10
2.947331088232334
 20
-8.41690254450228
 11
2.947484391106929
 21
-8.48941086002017
  0
LINE
  8
0
 10
2.947484391106929
 20
-8.48941086002017
 11
2.947331088232334
 21
-8.561919566930197
  0
ARC
  8
0
 10
2.616011757546208
 20
-8.58477694569749
 40
0.3321068482437741
 50
351.4540436983704
 51
3.946523507157913
  0
ARC
  8
0
 10
2.948649159756136
 20
-8.640098488939024
 40
0.0073093775628121
 50
125.2439325702283
 51
185.8653670573999
  0
ARC
  8
0
 10
2.93410700486147
 20
-8.641600975717123
 40
0.0073101918021942
 50
305.4735067207515
 51
5.932299996925734
  0
ARC
  8
0
 10
3.060874125967291
 20
-8.681210330908252
 40
0.1270632213486401
 50
164.6403896695809
 51
186.1290584483012
  0
ARC
  8
0
 10
2.759796815335871
 20
-8.709113929931918
 40
0.1753275848893024
 50
341.690329149629
 51
4.690552579613827
  0
ARC
  8
0
 10
2.737055538358527
 20
-8.708514213667055
 40
0.197215558501837
 50
335.5513436132802
 51
343.6008410234764
  0
ARC
  8
0
 10
3.030949351810551
 20
-8.84778250904241
 40
0.1280689346289473
 50
153.2492202401648
 51
162.6904386082821
  0
ARC
  8
0
 10
2.623964466876477
 20
-8.709238764516885
 40
0.301912552681605
 50
334.0960391667319
 51
340.5687624617249
  0
ARC
  8
0
 10
3.616144742103248
 20
-9.198510853740753
 40
0.8043539407674413
 50
153.6212064850393
 51
156.1196980987455
  0
ARC
  8
0
 10
1.548131876255433
 20
-8.256670162329605
 40
1.468102297931113
 50
331.6099244413284
 51
335.1820394596454
  0
ARC
  8
0
 10
2.517409015163314
 20
-8.78662180869644
 40
0.3634615136129745
 50
327.1043025527263
 51
332.4534638210158
  0
ARC
  8
0
 10
3.135473329549424
 20
-9.191993376987531
 40
0.3756940501353625
 50
146.3879943264444
 51
150.8186360084687
  0
ARC
  8
0
 10
2.251960931464588
 20
-8.683979524668155
 40
0.6435052762272887
 50
325.6933282748556
 51
329.6826351987504
  0
ARC
  8
0
 10
3.338494559128926
 20
-9.428348650675291
 40
0.6735545514474242
 50
145.4824776388852
 51
148.7852450437426
  0
ARC
  8
0
 10
2.569009858578412
 20
-8.964064901502462
 40
0.2251527915600423
 50
322.8478015016551
 51
329.2213097376502
  0
ARC
  8
0
 10
3.002918696934878
 20
-9.278124304926328
 40
0.3105804262156175
 50
145.0134480489854
 51
152.4008958541243
  0
ARC
  8
0
 10
2.498476770036846
 20
-9.016089644994485
 40
0.2578617101852209
 50
324.4562627177157
 51
332.7299703211567
  0
ARC
  8
0
 10
3.024304144450809
 20
-9.413971560072458
 40
0.4016943076676487
 50
141.8780919093692
 51
145.7634100752551
  0
ARC
  8
0
 10
2.330191206661608
 20
-8.914205549877698
 40
0.4538833964475096
 50
315.1641437191939
 51
322.9028324527687
  0
ARC
  8
0
 10
-0.2613916669922822
 20
-6.483100464439581
 40
4.0071023375722
 50
315.764647031551
 51
316.6413447130851
  0
ARC
  8
0
 10
3.492308027607664
 20
-10.13369546867542
 40
1.22903509331842
 50
135.9058537112724
 51
139.4485877122281
  0
ARC
  8
0
 10
1.35467308362144
 20
-8.33739553426673
 40
1.563215427388954
 50
317.3504891134558
 51
320.3602113959362
  0
ARC
  8
0
 10
-3.142592818865429
 20
-4.219289150288148
 40
7.661094929578299
 50
316.8712388834485
 51
317.485365175056
  0
LINE
  8
0
 10
2.448621334479874
 20
-9.456721709418764
 11
2.392501108916101
 21
-9.516660961340225
  0
ARC
  8
0
 10
2.971321171775374
 20
-10.09572118306481
 40
0.8187450186426409
 50
134.9881161382737
 51
141.4665599097641
  0
ARC
  8
0
 10
2.274208390784644
 20
-9.547035677853543
 40
0.0685711313917197
 50
308.7990749870578
 51
325.7108779922291
  0
ARC
  8
0
 10
2.318961638387221
 20
-9.605542726838667
 40
0.0053722518887307
 50
109.430812845722
 51
171.6727863061859
  0
ARC
  8
0
 10
2.238055161181856
 20
-9.558920415610748
 40
0.088406310470319
 50
312.7390101640986
 51
328.7640699280549
  0
ARC
  8
0
 10
2.328172196596975
 20
-9.66305009140983
 40
0.0494344222105487
 50
127.537189016061
 51
170.131786008371
  0
ARC
  8
0
 10
2.201802268212671
 20
-9.641664247642241
 40
0.0787331646692973
 50
337.6559083436157
 51
350.5598148765958
  0
ARC
  8
0
 10
2.514974896498253
 20
-9.771899431405757
 40
0.2604406690993978
 50
157.3482279904772
 51
167.2318724452534
  0
ARC
  8
0
 10
2.02610331411963
 20
-9.64770700900673
 40
0.2441401107710741
 50
337.1600826728256
 51
344.1612309569704
  0
ARC
  8
0
 10
2.926328195369264
 20
-10.03993599964905
 40
0.7378458544363752
 50
156.2246191800491
 51
158.3834373433437
  0
ARC
  8
0
 10
2.204450538649922
 20
-9.760017815666243
 40
0.0368264787237091
 50
298.1058705783564
 51
347.2927505421532
  0
ARC
  8
0
 10
2.224680898003638
 20
-9.805847376046186
 40
0.0136532059464274
 50
102.183088329965
 51
137.4688729148096
  0
ARC
  8
0
 10
2.194445092097924
 20
-9.76129524269104
 40
0.0406781016907145
 50
264.4579291863657
 51
299.7329243166026
  0
LINE
  8
0
 10
2.190516538513137
 20
-9.801783196750138
 11
2.170529529191692
 21
-9.802831859325403
  0
LINE
  8
0
 10
2.170529529191692
 20
-9.802831859325403
 11
2.174030281854962
 21
-9.820259958271675
  0
ARC
  8
0
 10
2.225740983423282
 20
-9.813911069951265
 40
0.0520989926926874
 50
186.9995770615114
 51
219.3658815316935
  0
ARC
  8
0
 10
2.147912506899855
 20
-9.878613538438033
 40
0.0491143482381756
 50
350.8672680868893
 51
40.13343058841481
  0
ARC
  8
0
 10
2.13475786053514
 20
-9.890382793602003
 40
0.061774326519819
 50
319.368568242428
 51
3.688178803346593
  0
POLYLINE
  8
0
 66
     1
  0
VERTEX
  8
0
 10
2.18163927328618
 20
-9.930609657206366
  0
VERTEX
  8
0
 10
2.180795073466407
 20
-9.93142322414525
  0
VERTEX
  8
0
 10
2.180019360661158
 20
-9.932187103924884
  0
VERTEX
  8
0
 10
2.179309239870351
 20
-9.932913683751316
  0
VERTEX
  8
0
 10
2.178661816093904
 20
-9.933615350830602
  0
VERTEX
  8
0
 10
2.178074194331736
 20
-9.934304492368788
  0
VERTEX
  8
0
 10
2.177543479583764
 20
-9.934993495571929
  0
VERTEX
  8
0
 10
2.17706677684991
 20
-9.935694747646076
  0
VERTEX
  8
0
 10
2.176641191130089
 20
-9.93642063579728
  0
VERTEX
  8
0
 10
2.176263827424222
 20
-9.937183547231589
  0
VERTEX
  8
0
 10
2.175931790732227
 20
-9.937995869155056
  0
VERTEX
  8
0
 10
2.175642186054022
 20
-9.938869988773735
  0
VERTEX
  8
0
 10
2.175392118389526
 20
-9.939818293293675
  0
VERTEX
  8
0
 10
2.175178692738658
 20
-9.940853169920928
  0
VERTEX
  8
0
 10
2.174999014101336
 20
-9.941987005861543
  0
VERTEX
  8
0
 10
2.174850187477479
 20
-9.943232188321575
  0
VERTEX
  8
0
 10
2.174729317867004
 20
-9.944601104507072
  0
VERTEX
  8
0
 10
2.174633510269832
 20
-9.946106141624085
  0
VERTEX
  8
0
 10
2.17455986968588
 20
-9.947759686878667
  0
VERTEX
  8
0
 10
2.174505501115068
 20
-9.94957412747687
  0
VERTEX
  8
0
 10
2.174467509557312
 20
-9.951561850624744
  0
VERTEX
  8
0
 10
2.174443000012533
 20
-9.953735243528339
  0
VERTEX
  8
0
 10
2.174429077480649
 20
-9.956106693393709
  0
VERTEX
  8
0
 10
2.174422846961579
 20
-9.958688587426902
  0
VERTEX
  8
0
 10
2.17442141345524
 20
-9.961493312833971
  0
SEQEND
  8
0
  0
LINE
  8
0
 10
2.17442141345524
 20
-9.961493312833971
 11
2.17442141345524
 21
-9.98546165755375
  0
LINE
  8
0
 10
2.17442141345524
 20
-9.98546165755375
 11
2.166868437540464
 21
-9.98546165755375
  0
ARC
  8
0
 10
2.168368937952161
 20
-10.01152027448053
 40
0.0261017818859582
 50
93.29555138420957
 51
125.7874948685858
  0
POLYLINE
  8
0
 66
     1
  0
VERTEX
  8
0
 10
2.153105121190301
 20
-9.990346731662134
  0
VERTEX
  8
0
 10
2.152376928774269
 20
-9.990901207433184
  0
VERTEX
  8
0
 10
2.15164132883691
 20
-9.99141220307631
  0
VERTEX
  8
0
 10
2.150871916346479
 20
-9.99188148646251
  0
VERTEX
  8
0
 10
2.150042286271229
 20
-9.992310825462795
  0
VERTEX
  8
0
 10
2.149126033579412
 20
-9.992701987948161
  0
VERTEX
  8
0
 10
2.148096753239282
 20
-9.993056741789617
  0
VERTEX
  8
0
 10
2.146928040219092
 20
-9.993376854858163
  0
VERTEX
  8
0
 10
2.145593489487096
 20
-9.993664095024803
  0
VERTEX
  8
0
 10
2.144066696011544
 20
-9.993920230160537
  0
VERTEX
  8
0
 10
2.142321254760692
 20
-9.994147028136377
  0
VERTEX
  8
0
 10
2.140330760702791
 20
-9.994346256823318
  0
VERTEX
  8
0
 10
2.138068808806096
 20
-9.994519684092367
  0
VERTEX
  8
0
 10
2.135508994038859
 20
-9.994669077814526
  0
VERTEX
  8
0
 10
2.132624911369333
 20
-9.9947962058608
  0
VERTEX
  8
0
 10
2.129390155765771
 20
-9.994902836102192
  0
VERTEX
  8
0
 10
2.125778322196426
 20
-9.9949907364097
  0
VERTEX
  8
0
 10
2.121763005629552
 20
-9.995061674654337
  0
VERTEX
  8
0
 10
2.1173178010334
 20
-9.995117418707096
  0
VERTEX
  8
0
 10
2.112416303376226
 20
-9.995159736438989
  0
VERTEX
  8
0
 10
2.107032107626281
 20
-9.995190395721014
  0
VERTEX
  8
0
 10
2.101138808751818
 20
-9.995211164424177
  0
VERTEX
  8
0
 10
2.09471000172109
 20
-9.99522381041948
  0
VERTEX
  8
0
 10
2.087719281502352
 20
-9.995230101577926
  0
VERTEX
  8
0
 10
2.080140243063854
 20
-9.995231805770517
  0
SEQEND
  8
0
  0
POLYLINE
  8
0
 66
     1
  0
VERTEX
  8
0
 10
2.080140243063854
 20
-9.995231805770517
  0
VERTEX
  8
0
 10
2.072425096250479
 20
-9.995230536678397
  0
VERTEX
  8
0
 10
2.065325482297292
 20
-9.995225475151717
  0
VERTEX
  8
0
 10
2.058814675730911
 20
-9.995214739815005
  0
VERTEX
  8
0
 10
2.052865951077949
 20
-9.99519644929279
  0
VERTEX
  8
0
 10
2.047452582865023
 20
-9.995168722209591
  0
VERTEX
  8
0
 10
2.042547845618748
 20
-9.99512967718994
  0
VERTEX
  8
0
 10
2.038125013865739
 20
-9.99507743285836
  0
VERTEX
  8
0
 10
2.034157362132611
 20
-9.995010107839379
  0
VERTEX
  8
0
 10
2.030618164945978
 20
-9.994925820757517
  0
VERTEX
  8
0
 10
2.027480696832458
 20
-9.994822690237308
  0
VERTEX
  8
0
 10
2.024718232318663
 20
-9.994698834903273
  0
VERTEX
  8
0
 10
2.022304045931212
 20
-9.994552373379943
  0
VERTEX
  8
0
 10
2.020211412196717
 20
-9.99438142429184
  0
VERTEX
  8
0
 10
2.018413605641794
 20
-9.99418410626349
  0
VERTEX
  8
0
 10
2.016883900793059
 20
-9.993958537919417
  0
VERTEX
  8
0
 10
2.015595572177127
 20
-9.99370283788415
  0
VERTEX
  8
0
 10
2.014521894320612
 20
-9.993415124782217
  0
VERTEX
  8
0
 10
2.013636141750131
 20
-9.993093517238139
  0
VERTEX
  8
0
 10
2.012911588992298
 20
-9.992736133876445
  0
VERTEX
  8
0
 10
2.012321510573729
 20
-9.99234109332166
  0
VERTEX
  8
0
 10
2.011839181021038
 20
-9.99190651419831
  0
VERTEX
  8
0
 10
2.011437874860842
 20
-9.991430515130922
  0
VERTEX
  8
0
 10
2.011090866619754
 20
-9.99091121474402
  0
VERTEX
  8
0
 10
2.010771430824391
 20
-9.990346731662134
  0
SEQEND
  8
0
  0
LINE
  8
0
 10
2.010771430824391
 20
-9.990346731662134
 11
2.010776315898499
 21
-9.990347165890944
  0
ENDSEC
  0
EOF
