<?xml version="1.0" encoding="UTF-8" standalone="no"?>
<svg
   xmlns:dc="http://purl.org/dc/elements/1.1/"
   xmlns:cc="http://creativecommons.org/ns#"
   xmlns:rdf="http://www.w3.org/1999/02/22-rdf-syntax-ns#"
   xmlns:svg="http://www.w3.org/2000/svg"
   xmlns="http://www.w3.org/2000/svg"
   version="1.1"
   id="svg2"
   viewBox="0 0 271.03766 201.26246"
   height="56.800739mm"
   width="76.492851mm">
  <defs
     id="defs4" />
  <metadata
     id="metadata7">
    <rdf:RDF>
      <cc:Work
         rdf:about="">
        <dc:format>image/svg+xml</dc:format>
        <dc:type
           rdf:resource="http://purl.org/dc/dcmitype/StillImage" />
        <dc:title></dc:title>
      </cc:Work>
    </rdf:RDF>
  </metadata>
  <g
     id="layer1"
     transform="translate(-618.5851,-788.81754)">
    <path
       style="fill:#000000"
       d="M803.33571 989.63004C803.13392 989.25299 802.8646 989.18004 801.67437 989.18004C801.67437 989.18004 800.25387 989.18004 800.25387 989.18004C800.25387 989.18004 799.76675 987.32379 799.76675 987.32379C799.40536 985.94663 799.28164 984.82875 799.28742 982.99254C799.29642 980.01243 799.86167 978.12077 801.29823 976.25872C802.0839 975.24035 802.22752 974.88548 802.27155 973.85383C802.27155 973.85383 802.32325 972.64359 802.32325 972.64359C802.32325 972.64359 800.56132 972.35316 800.56132 972.35316C798.397555227 971.99649744 796.879620722 971.138643891 795.685680792 969.401229197C794.807865604 968.123837458 794.105187844 966.37099308 793.44974 963.99232C793.05945 962.57594 792.59645 961.10782 792.42084 960.72982C792.01292 959.85175 791.64832 958.23155 791.64125 957.26553C791.63825 956.85192 791.4529 956.28106 791.22941 955.99695C790.6955 955.31819 787.68798 951.96161 786.68575 950.92595C786.25262 950.47837 784.48075 948.6152 782.74825 946.78555C781.01575 944.95591 778.73762 942.57518 777.68575 941.49504C776.437874668 940.213635587 774.927860474 938.627908291 773.5348103 937.143888808C771.670119388 935.157429385 770.015000099 933.353206102 769.47869 932.70504C769.01792 932.14817 768.20175 931.18629 767.66497 930.56754C767.12819 929.94879 766.2114 928.88567 765.62764 928.20504C765.04389 927.52442 763.05405 925.35969 761.20578 923.39453C758.27421 920.27757 756.12983 917.53957 755.5858 916.2188C755.4955 915.9995 755.26725 915.76085 755.07865 915.68848C754.89006 915.61608 754.73575 915.44671 754.73575 915.31203C754.73575 915.17735 754.47332 914.79324 754.15257 914.45845C754.15257 914.45845 753.56938 913.84974 753.56938 913.84974C753.56938 913.84974 751.25843 916.47114 751.25843 916.47114C749.923599577 917.985293228 747.791039296 920.185091365 745.445642149 922.51288815C743.46919676 924.474501869 741.341609878 926.527011056 739.412892503 928.336709666C736.253026067 931.301584651 733.62694721 933.614729403 733.07381 933.80869C732.93084 933.85879 732.65848 934.07913 732.46856 934.29827C732.27864 934.5174 731.7056 934.98263 731.19515 935.33212C730.6847 935.6816 728.73989 937.15139 726.87337 938.59832C725.00684 940.04525 722.89323 941.60365 722.17647 942.06143C721.4597 942.5192 719.68532 943.79066 718.2334 944.8869C716.78148 945.98312 715.50533 946.88004 715.3975 946.88004C715.28968 946.88004 714.92833 947.13317 714.59451 947.44254C714.26069 947.75192 713.94795 948.00504 713.89953 948.00504C713.85113 948.00504 712.71727 948.77418 711.37988 949.71424C710.04248 950.6543 708.72044 951.51242 708.442 951.62117C708.16356 951.72992 707.93575 951.9206 707.93575 952.0449C707.93575 952.1692 707.50544 952.48702 706.9795 952.75117C706.45356 953.01532 705.7195 953.4579 705.34825 953.73468C704.977 954.01146 703.86325 954.67381 702.87325 955.20657C701.88325 955.73932 700.82012 956.35011 700.51075 956.56388C698.9011 957.67608 696.00926 959.48004 695.83598 959.48004C695.72688 959.48004 694.66021 960.13817 693.46561 960.94254C692.27101 961.74692 691.20436 962.40504 691.09528 962.40504C690.90522 962.40504 690.44785 963.03731 689.22356 964.99254C688.91361 965.48754 688.59063 966.24449 688.50584 966.67464C688.34994 967.46546 688.10667 968.03854 686.54552 971.29254C685.88517 972.66896 685.62358 973.56907 685.43387 975.11754C685.29743 976.23129 685.09706 977.34504 684.9886 977.59254C684.88014 977.84004 684.62455 979.25289 684.42061 980.73222C684.01338 983.6861 683.81077 984.22181 682.6987 985.28499C681.69652 986.2431 680.9579 986.49157 678.68575 986.63497C677.610358055 986.702836094 675.288919604 986.509239773 673.017282418 986.222848948C670.533169072 985.909670738 668.108608947 985.485527242 667.43814 985.17098C667.00633 984.9684 666.18113 984.34475 665.60436 983.78509C664.43348 982.64897 664.06398 981.67828 664.06201 979.73331C664.06101 978.31278 664.66654 973.7603 664.94596 973.09254C665.38637 972.04003 665.8648 967.49615 665.85805 964.43004C665.85205 961.69827 665.78025 961.01198 665.41681 960.21129C665.17808 959.68535 664.87655 959.25504 664.74675 959.25504C664.61695 959.25504 664.50979 959.12848 664.50861 958.97379C664.50761 958.8191 663.69427 957.73067 662.70159 956.55504C660.112 953.4882 658.88575 951.9007 658.88575 951.61507C658.88575 951.47803 658.74241 951.31091 658.56721 951.24368C658.39201 951.17648 657.9617 950.69968 657.61096 950.18418C657.26022 949.66868 656.02944 947.9803 654.8759 946.43223C653.72235 944.88415 652.62072 943.28498 652.42782 942.87851C652.23492 942.47204 651.88779 942.03817 651.65642 941.91434C651.42505 941.79052 651.23575 941.58722 651.23575 941.46257C651.23575 941.33793 650.13711 939.79742 648.79433 938.03924C647.45155 936.28106 646.22386 934.58942 646.06613 934.28004C645.90839 933.97067 645.40599 933.21129 644.94966 932.59254C642.97325 929.91261 641.33546 927.55269 641.33186 927.37958C641.32986 927.27671 641.0766 926.9541 640.76936 926.66267C640.46213 926.37125 640.21075 926.02386 640.21075 925.8907C640.21075 925.75755 639.66965 924.93286 639.0083 924.05807C636.94015 921.32244 635.26075 918.98979 635.26075 918.85281C635.26075 918.78041 634.45284 917.56274 633.46539 916.14682C632.47795 914.73089 631.3732 913.04256 631.01039 912.39497C630.64758 911.74739 629.88611 910.51354 629.31824 909.65309C628.75037 908.79264 628.28575 907.96255 628.28575 907.80843C628.28575 907.65432 628.03263 907.2551 627.72325 906.92128C627.41387 906.58746 627.16075 906.1983 627.16075 906.05649C627.16075 905.91468 626.67371 904.94228 626.07844 903.8956C625.48316 902.84892 624.64864 901.18254 624.22394 900.19254C623.79924 899.20254 623.39028 898.34191 623.31514 898.28004C623.14689 898.1415 621.64173 894.76575 621.42486 894.04056C621.33816 893.75072 620.9756 892.92573 620.61912 892.20724C619.54039 890.03304 619.32623 889.09457 619.24768 886.19751C619.19868 884.39142 619.07705 883.35628 618.892 883.17126C618.735341646 883.014617049 618.6385037 879.079269184 618.601840169 874.275358257C618.579955799 871.407915766 618.579510769 868.231015859 618.600580365 865.363548539C618.635879852 860.55946384 618.731568385 856.623920305 618.888 856.4673C619.08876 856.26654 619.20499 854.36761 619.30735 849.61605C619.43485 843.69771 619.4985 842.88556 619.94598 841.46754C620.21933 840.60129 620.55779 839.51285 620.6981 839.04879C620.83842 838.58473 621.03356 838.20504 621.13174 838.20504C621.22994 838.20504 621.31026 838.06718 621.31026 837.89868C621.31026 837.54296 623.09815 833.64728 623.33816 833.48004C623.42696 833.41814 623.57124 833.13805 623.65878 832.85756C623.85441 832.23076 626.29762 828.47503 627.76564 826.54444C628.324967079 825.808865389 630.125857056 823.920950319 631.94075318 822.101840625C634.055973113 819.98170987 636.190218113 817.95504 636.40013 817.95504C636.5379 817.95504 636.81873 817.75875 637.02419 817.51883C637.22966 817.27892 637.72002 816.89924 638.1139 816.67508C638.50777 816.45094 639.69384 815.68422 640.74961 814.97128C641.80538 814.25833 642.95124 813.57033 643.29598 813.4424C643.64071 813.31446 644.02401 813.08777 644.14776 812.93866C644.27151 812.78954 645.23338 812.26254 646.28526 811.76754C647.33713 811.27254 648.24838 810.80827 648.31026 810.73583C648.37216 810.66343 648.98549 810.34884 649.67327 810.03683C650.36105 809.72481 651.64648 808.84752 652.52978 808.08728C653.41308 807.32705 654.18121 806.70504 654.23673 806.70504C654.29223 806.70504 654.66284 806.40129 655.06026 806.03004C655.45768 805.65879 655.8987 805.35478 656.04031 805.35446C656.18191 805.35415 656.88414 805.0003 657.60082 804.56814C658.84377 803.81865 662.15621 802.62483 663.83526 802.32123C664.26838 802.24293 664.82526 802.08384 665.07276 801.96774C665.32026 801.85164 667.54776 801.60611 670.02276 801.42212C672.49776 801.23813 675.18088 800.92448 675.98526 800.72511C677.11045 800.44624 679.21726 800.3286 685.11996 800.21509C690.31761 800.11509 692.89385 799.98491 693.10746 799.81134C693.80978 799.24065 695.95456 798.99986 699.52585 799.09075C702.99457 799.17905 703.15364 799.20409 704.34289 799.84979C705.55585 800.50836 705.63153 800.51909 709.84776 800.63004C713.67005 800.73063 714.22998 800.79525 715.13526 801.24033C716.62013 801.97035 717.885 802.70952 718.566 803.2452C719.09541 803.66163 719.55514 803.73055 722.46146 803.82922C724.27383 803.89072 725.82217 804.03716 725.90222 804.15459C725.98232 804.27201 726.39949 804.51058 726.82939 804.68473C727.25928 804.85888 728.15658 805.44574 728.82339 805.98887C729.7948 806.78008 730.4784 807.10288 732.26264 807.61287C735.315 808.48532 737.88721 809.67655 740.39019 811.37686C741.22478 811.94381 741.93866 812.36489 741.9766 812.31261C742.75692 811.23701 745.22588 808.34348 746.08942 807.49254C746.71733 806.87379 747.40606 806.08458 747.61993 805.73875C747.83381 805.39291 748.25345 805.01694 748.55247 804.90325C748.85149 804.78956 749.22492 804.49033 749.38232 804.23829C749.53972 803.98625 749.75616 803.78004 749.8633 803.78004C749.97044 803.78004 750.88264 803.14273 751.89043 802.36379C754.28489 800.51307 756.67948 798.83004 756.91821 798.83004C757.02261 798.83004 757.66259 798.46473 758.34039 798.01823C759.01819 797.57174 760.18026 796.90842 760.92276 796.54419C761.66526 796.17996 762.93088 795.54075 763.73526 795.12374C764.53963 794.70672 765.80526 794.1394 766.54776 793.86303C767.29026 793.58666 768.10026 793.23631 768.34776 793.08448C768.59526 792.93265 770.06339 792.43059 771.61026 791.96878C773.15714 791.50698 774.52756 791.045 774.65566 790.94216C774.92462 790.72625 777.22495 790.11083 780.61026 789.34912C780.61026 789.34912 782.97276 788.81754 782.97276 788.81754C782.97276 788.81754 787.05268396 788.81754 792.054973542 788.81754C794.977423324 788.81754 798.214691111 788.81754 801.137145956 788.81754C806.139467705 788.81754 810.21943 788.81754 810.21943 788.81754C813.63955876 788.81754 816.694637109 788.819613379 819.409755869 788.823989268C823.070384549 788.829889012 826.113052336 788.839974139 828.599250773 788.854806196C834.9222814 788.892527863 837.645993838 788.960953304 837.78193 789.06932C838.14064 789.35529 839.23807 789.61608 842.93526 790.29394C844.35838 790.55486 845.62401 790.84415 845.74776 790.93681C845.87151 791.02951 846.88401 791.33816 847.99776 791.6228C849.11151 791.90743 850.83204 792.50644 851.82116 792.95393C854.17572 794.01914 860.05367 797.01212 860.48526 797.36557C860.67088 797.51759 861.37963 797.94309 862.06026 798.31114C862.74089 798.67918 864.64652 799.90837 866.29501 801.04267C867.94352 802.17697 869.35449 803.10504 869.43054 803.10504C869.61263 803.10504 871.41054 804.60629 873.656 806.63331C875.32043 808.13582 878.70671 811.99825 878.90912 812.62511C878.95662 812.77219 879.31578 813.29754 879.70726 813.79254C881.29367 815.79849 882.83309 818.07273 883.70344 819.69623C884.20953 820.64027 884.96346 821.97626 885.37886 822.6651C885.79425 823.35394 886.13474 824.06942 886.13553 824.25504C886.13553 824.44067 886.35306 824.94691 886.61719 825.38004C887.90414 827.49031 888.23881 828.89336 888.37241 832.73821C888.45791 835.19898 888.5903 836.47507 888.77968 836.66446C888.93399 836.81878 889.06026 837.16948 889.06026 837.44379C889.06026 837.7181 889.18682 837.98482 889.34151 838.0365C889.504674215 838.090974304 889.580290387 839.671942307 889.608638148 844.68851733C889.618642965 846.459024485 889.62276 848.657472969 889.62276 851.36779C889.62276 854.078140944 889.618642965 856.276598842 889.608638148 858.047098724C889.580290387 863.063653139 889.504674215 864.644466566 889.34151 864.69883C889.18682 864.75033 889.06026 865.02879 889.06026 865.31754C889.06026 865.60629 888.93471 865.88439 888.78126 865.93554C888.57586 866.00404 888.48322 867.15141 888.4301 870.28554C888.3617 874.32279 888.32226 874.65288 887.66652 876.68004C887.28623 877.85567 886.88577 878.93111 886.7766 879.06991C886.66743 879.20871 886.33967 880.01871 886.04825 880.86991C885.75683 881.72111 885.21224 883.02504 884.83807 883.76754C884.46387 884.51004 883.84647 885.82629 883.46606 886.69254C882.82326 888.1563 881.88499 890.02965 879.6909 894.23004C879.20609 895.15817 878.49833 896.37317 878.11813 896.93004C877.7379 897.48692 877.11067 898.51462 876.72428 899.21383C876.33786 899.91304 875.34529 901.48242 874.51855 902.70133C873.69184 903.92025 872.81852 905.27192 872.57788 905.70504C872.33725 906.13817 871.75749 906.99879 871.28956 907.61754C870.82163 908.23629 869.96001 909.65379 869.37487 910.76754C868.78972 911.88129 867.98606 913.19754 867.58896 913.69254C867.19186 914.18754 866.52543 915.09879 866.10801 915.71754C865.576524829 916.505347888 864.470890809 917.785866512 862.408442319 919.978432967C861.366227445 921.086400213 860.079682991 922.427265549 858.49943 924.05514C856.931 925.67083 854.81031 927.99958 853.78678 929.23014C852.245232966 931.083500771 851.038740443 932.486005618 848.810382664 934.925725404C847.524046798 936.33407154 845.897198832 938.088044689 843.668825525 940.473885951C842.22271531 942.022185513 840.52327848 943.836590256 838.49918 945.99533C834.53873 950.21923 833.84511 950.99574 832.82117 952.35194C832.30645 953.03368 831.73906 953.64759 831.56029 953.71619C831.38152 953.78479 831.23526 953.96255 831.23526 954.11121C831.23526 954.25988 830.58888 955.05104 829.79887 955.86936C828.52811 957.18564 828.33071 957.51202 828.08698 958.69987C827.93546 959.43834 827.73461 960.14379 827.64065 960.26754C827.46204 960.50276 827.06766 961.7378 826.38328 964.20504C826.16016 965.00941 825.75089 966.17554 825.47379 966.79643C825.19669 967.41732 824.75206 968.48045 824.48573 969.15893C823.97803 970.4523 823.25222 971.40504 822.77461 971.40504C822.6194 971.40504 822.32177 971.57567 822.11322 971.78422C821.83948 972.05797 821.22211 972.19027 819.8929 972.26003C819.8929 972.26003 818.05175 972.35663 818.05175 972.35663C818.05175 972.35663 818.37423 973.96206 818.37423 973.96206C818.61494 975.16045 818.88195 975.78396 819.42735 976.42122C820.25045 977.38297 820.43526 978.04935 820.43526 980.05554C820.43526 981.80527 819.93474 983.30365 819.07515 984.12718C818.42708 984.74808 818.41026 984.82004 818.41026 986.9721C818.41026 986.9721 818.41026 989.18 818.41026 989.18C818.41026 989.18 817.7145 989.18 817.7145 989.18C817.33183 989.18 816.7613 989.3825 816.44666 989.63C815.90627 990.05507 815.53388 990.08 809.72533 990.08C803.80637 990.08 803.56707 990.0631 803.33526 989.63C803.33526 989.63 803.33571 989.63004 803.33571 989.63004M815.99711 989.18004C816.31175 988.93254 816.88228 988.73004 817.26495 988.73004C817.26495 988.73004 817.96071 988.73004 817.96071 988.73004C817.96071 988.73004 817.96071 986.52214 817.96071 986.52214C817.96071 984.37008 817.97751 984.29812 818.6256 983.67722C819.73833 982.61116 820.24736 980.41953 819.84708 978.41814C819.77088 978.0369 819.37994 977.34081 818.97842 976.87126C818.4121 976.20899 818.16568 975.60886 817.87955 974.19509C817.67669 973.19274 817.51071 972.26888 817.51071 972.14205C817.51071 972.01081 818.32364 971.8688 819.3976 971.81243C820.76771 971.74053 821.38835 971.60955 821.66367 971.33422C821.87222 971.12567 822.16985 970.95504 822.32506 970.95504C822.80267 970.95504 823.52848 970.0023 824.03618 968.70893C824.30251 968.03045 824.74714 966.96732 825.02424 966.34643C825.30134 965.72554 825.71061 964.55942 825.93373 963.75504C826.61811 961.2878 827.01249 960.05276 827.1911 959.81754C827.2851 959.69379 827.48591 958.98834 827.63743 958.24987C827.88116 957.06202 828.07856 956.73564 829.34932 955.41936C830.13933 954.60104 830.78571 953.80988 830.78571 953.66121C830.78571 953.51255 830.93197 953.33479 831.11074 953.26619C831.28951 953.19759 831.8569 952.58368 832.37162 951.90194C833.39556 950.54574 834.08918 949.76923 838.04963 945.54533C840.07404907 943.386248341 841.773703638 941.571610767 843.219962639 940.023150281C845.447999092 937.637667178 847.07465213 935.883901861 848.36086008 934.475695388C850.589200338 932.035994114 851.795689288 930.633493171 853.33723 928.78014C854.36076 927.54958 856.48145 925.22083 858.04988 923.60514C859.630132991 921.977265549 860.916677445 920.636400213 861.958892319 919.528432967C864.021340809 917.335866512 865.126974829 916.055347888 865.65846 915.26754C866.07588 914.64879 866.74231 913.73754 867.13941 913.24254C867.53651 912.74754 868.34017 911.43129 868.92532 910.31754C869.51046 909.20379 870.37207 907.78629 870.84001 907.16754C871.30794 906.54879 871.8877 905.68817 872.12833 905.25504C872.36897 904.82192 873.24229 903.47025 874.069 902.25133C874.89575 901.03242 875.88831 899.46304 876.27472 898.76383C876.66112 898.06462 877.28835 897.03692 877.66858 896.48004C878.04878 895.92317 878.75654 894.70816 879.24135 893.78004C881.43544 889.57965 882.37371 887.7063 883.01651 886.24254C883.39692 885.37629 884.01432 884.06004 884.38852 883.31754C884.76269 882.57504 885.30728 881.27111 885.5987 880.41991C885.89012 879.56871 886.21788 878.75871 886.32705 878.61991C886.43622 878.48111 886.83668 877.40567 887.21697 876.23004C887.87271 874.20288 887.91213 873.87279 887.98055 869.83554C888.03365 866.70141 888.12631 865.55401 888.33171 865.48554C888.48516 865.43434 888.61071 865.15629 888.61071 864.86754C888.61071 864.57879 888.73727 864.30037 888.89196 864.24883C889.054966876 864.194521467 889.130636403 862.66385304 889.159038885 857.822102645C889.169075711 856.111132202 889.17321 853.986685903 889.17321 851.3678C889.17321 848.748950652 889.16907162 846.624517728 889.159029817 844.913543532C889.130613252 840.071782516 889.054922543 838.540966311 888.89196 838.48651C888.73727 838.43481 888.61071 838.1681 888.61071 837.89379C888.61071 837.61948 888.48444 837.26878 888.33013 837.11446C888.14075 836.92507 888.00838 835.64898 887.92286 833.18821C887.78926 829.34336 887.45459 827.94031 886.16764 825.83004C885.90351 825.39692 885.68674 824.89067 885.68598 824.70504C885.68598 824.51942 885.3447 823.80394 884.9293 823.1151C884.51391 822.42626 883.75998 821.09027 883.25389 820.14623C882.38354 818.52273 880.84411 816.24849 879.25771 814.24254C878.86623 813.74754 878.50706 813.22219 878.45956 813.07511C878.25715 812.44825 874.87088 808.58582 873.20645 807.08331C870.96099 805.05629 869.16308 803.55504 868.98099 803.55504C868.90489 803.55504 867.49396 802.62697 865.84546 801.49267C864.19697 800.35837 862.29133 799.12918 861.61071 798.76114C860.93008 798.39309 860.22133 797.96759 860.03571 797.81557C859.60411 797.46212 853.72617 794.46914 851.37161 793.40393C850.38249 792.95644 848.66196 792.35743 847.54821 792.0728C846.43446 791.78816 845.4196 791.4775 845.29295 791.38243C845.16631 791.28733 843.69819 790.95494 842.03045 790.64372C837.7721 789.84904 837.54104 789.7957 837.40525 789.57598C837.33865 789.46821 836.0811 789.38004 834.61071 789.38004C833.07112 789.38004 831.87829 789.28464 831.79821 789.15504C831.743272637 789.066150878 828.199372991 789.002693138 823.162911293 788.964666779C820.584109582 788.945196277 817.614001225 788.932393149 814.520580088 788.926257394C811.674337434 788.920611913 808.723701189 788.920610869 805.877419908 788.92625426C802.783896022 788.932387866 799.813644132 788.945189106 797.234673899 788.964657983C792.197593608 789.002683351 788.653151599 789.066144023 788.59821 789.15504C788.51791 789.28493 787.31141 789.38004 785.74403 789.38004C783.09448 789.38004 782.33106 789.49635 777.47714 790.63951C776.6818 790.82682 775.61868 791.16373 775.11464 791.3882C774.6106 791.61266 773.08446 792.12507 771.72321 792.52688C770.36196 792.92868 769.04571 793.38188 768.79821 793.53399C768.55071 793.68609 767.74071 794.03666 766.99821 794.31303C766.25571 794.5894 764.99009 795.15672 764.18571 795.57374C763.38133 795.99075 762.11571 796.62996 761.37321 796.99419C760.63071 797.35842 759.46864 798.02174 758.79084 798.46823C758.11304 798.91473 757.47306 799.28004 757.36866 799.28004C757.12993 799.28004 754.73534 800.96307 752.34088 802.81379C751.33309 803.59273 750.42089 804.23004 750.31375 804.23004C750.20661 804.23004 749.99017 804.43625 749.83277 804.68829C749.67537 804.94033 749.30194 805.23956 749.00292 805.35325C748.7039 805.46694 748.28426 805.84291 748.07038 806.18875C747.85651 806.53458 747.16667 807.32379 746.53741 807.94254C745.90814 808.56129 744.68565 809.95118 743.82075 811.03119C742.95585 812.1112 742.11045 812.99714 741.94208 812.99994C741.7737 813.00294 740.9753 812.54322 740.16784 811.97877C737.69434 810.24966 734.92869 808.95339 731.81309 808.06287C730.02885 807.55288 729.34525 807.23008 728.37384 806.43887C727.70703 805.89574 726.80973 805.30888 726.37984 805.13473C725.94994 804.96058 725.53272 804.72201 725.45267 804.60459C725.37257 804.48716 723.82428 804.34075 722.01191 804.27922C719.10559 804.18052 718.64586 804.11163 718.11645 803.6952C717.43545 803.15952 716.17058 802.42035 714.68571 801.69033C713.76252 801.23645 713.31174 801.18969 709.57528 801.16018C705.57856 801.12858 705.45076 801.11298 704.40029 800.52533C702.98652 799.73451 701.67181 799.50504 698.55463 799.50504C696.0124 799.50504 694.1687 799.78684 693.55791 800.26876C693.35045 800.43246 690.61867 800.568 685.57041 800.66509C679.66771 800.7786 677.5609 800.89624 676.43571 801.17511C675.63134 801.37448 672.94821 801.68813 670.47321 801.87212C667.99821 802.05611 665.77071 802.30164 665.52321 802.41774C665.27571 802.53384 664.71884 802.69291 664.28571 802.77123C662.60666 803.07483 659.29422 804.26865 658.05128 805.01814C657.33459 805.4503 656.63236 805.80414 656.49076 805.80446C656.34915 805.80478 655.90813 806.10879 655.51071 806.48004C655.11329 806.85129 654.7427 807.15504 654.68718 807.15504C654.63168 807.15504 653.86353 807.77705 652.98023 808.53728C652.09693 809.29752 650.8115 810.17481 650.12372 810.48683C649.43594 810.79884 648.82258 811.1134 648.76071 811.18583C648.69881 811.25823 647.78759 811.72254 646.73571 812.21754C645.68384 812.71254 644.72196 813.23954 644.59821 813.38866C644.47446 813.53777 644.09116 813.76446 643.74643 813.8924C643.40169 814.02033 642.25583 814.70833 641.20006 815.42128C640.14429 816.13422 638.95822 816.90094 638.56435 817.12508C638.17047 817.34924 637.68011 817.72892 637.47464 817.96883C637.26918 818.20875 636.98835 818.40504 636.85058 818.40504C636.640668113 818.40504 634.506423113 820.43170987 632.39120318 822.551840625C630.576307056 824.370950319 628.775417079 826.258865389 628.21609 826.99444C626.74807 828.92503 624.30486 832.68076 624.10923 833.30755C624.02173 833.58805 623.87741 833.86817 623.78861 833.93004C623.5486 834.09728 621.76071 837.99296 621.76071 838.34868C621.76071 838.51718 621.68041 838.65504 621.58219 838.65504C621.48399 838.65504 621.28887 839.03473 621.14855 839.49879C621.00824 839.96285 620.66978 841.05129 620.39643 841.91754C619.94895 843.33556 619.8853 844.14771 619.7578 850.06605C619.65544 854.81761 619.53921 856.71654 619.33845 856.9173C619.18192043 857.07382957 619.086160263 860.874538532 619.05081566 865.513341573C619.029706224 868.283849905 619.030147215 871.353309111 619.052063252 874.123911562C619.088761702 878.763291247 619.185675263 882.564689337 619.34245 882.72126C619.5275 882.90628 619.64916 883.94142 619.69813 885.74751C619.77673 888.64457 619.99084 889.58304 621.06957 891.75724C621.42605 892.47573 621.78863 893.30072 621.87531 893.59056C622.09218 894.31575 623.59734 897.6915 623.76559 897.83004C623.84069 897.89194 624.24969 898.75254 624.67439 899.74254C625.09909 900.73254 625.93361 902.39892 626.52889 903.4456C627.12416 904.49228 627.6112 905.46468 627.6112 905.60649C627.6112 905.7483 627.86432 906.13746 628.1737 906.47128C628.48307 906.8051 628.7362 907.20432 628.7362 907.35843C628.7362 907.51255 629.20082 908.34264 629.76869 909.20309C630.33656 910.06354 631.09803 911.29739 631.46084 911.94497C631.82365 912.59256 632.9284 914.28089 633.91584 915.69682C634.90329 917.11274 635.7112 918.33044 635.7112 918.40281C635.7112 918.53979 637.3906 920.87244 639.45875 923.60807C640.1201 924.48286 640.6612 925.30755 640.6612 925.4407C640.6612 925.57386 640.91258 925.92125 641.21981 926.21267C641.52705 926.5041 641.78017 926.82671 641.78231 926.92958C641.78631 927.10269 643.4237 929.46261 645.40011 932.14254C645.85644 932.76129 646.35884 933.52066 646.51658 933.83004C646.67431 934.13942 647.902 935.83106 649.24478 937.58924C650.58756 939.34742 651.6862 940.88793 651.6862 941.01257C651.6862 941.13722 651.8755 941.34052 652.10687 941.46434C652.33824 941.58817 652.68537 942.02204 652.87827 942.42851C653.07117 942.83498 654.1728 944.43415 655.32635 945.98223C656.47989 947.5303 657.71067 949.21868 658.06141 949.73418C658.41215 950.24968 658.84246 950.72645 659.01766 950.79368C659.19286 950.86088 659.3362 951.02803 659.3362 951.16507C659.3362 951.4507 660.56245 953.0382 663.15204 956.10504C664.14472 957.28066 664.95788 958.3691 664.95906 958.52379C664.96006 958.67848 665.0674 958.80504 665.1972 958.80504C665.327 958.80504 665.62853 959.23535 665.86726 959.76129C666.23866 960.57949 666.30236 961.25349 666.3085 964.43004C666.3155 967.93438 665.86636 972.41943 665.39641 973.54254C665.16283 974.10076 664.51075 978.66759 664.51246 979.73331C664.51546 981.75688 665.8862 983.78157 667.88859 984.72098C668.3204 984.92356 670.59745 985.3624 672.9487 985.69618C678.7864 986.52489 680.66331 986.35109 682.24915 984.83499C683.36122 983.77181 683.56383 983.2361 683.97106 980.28222C684.175 978.80289 684.43059 977.39004 684.53905 977.14254C684.64751 976.89504 684.84788 975.78129 684.98432 974.66754C685.17403 973.11907 685.43562 972.21896 686.09597 970.84254C687.65712 967.58854 687.90039 967.01546 688.05629 966.22464C688.14109 965.79448 688.46406 965.03754 688.77401 964.54254C689.9983 962.58731 690.45567 961.95504 690.64573 961.95504C690.75481 961.95504 691.82146 961.29692 693.01606 960.49254C694.21066 959.68817 695.27733 959.03004 695.38643 959.03004C695.55971 959.03004 698.45155 957.22608 700.0612 956.11388C700.37058 955.90011 701.4337 955.28932 702.4237 954.75657C703.4137 954.22381 704.52745 953.56146 704.8987 953.28468C705.26995 953.0079 706.00401 952.56532 706.52995 952.30117C707.05589 952.03702 707.4862 951.7192 707.4862 951.5949C707.4862 951.4706 707.71401 951.27992 707.99245 951.17117C708.27089 951.06242 709.59293 950.2043 710.93033 949.26424C712.26772 948.32418 713.40157 947.55504 713.44998 947.55504C713.49838 947.55504 713.81114 947.30191 714.14496 946.99254C714.47878 946.68317 714.84013 946.43004 714.94795 946.43004C715.05578 946.43004 716.33193 945.53312 717.78385 944.4369C719.23577 943.34066 721.01015 942.0692 721.72692 941.61143C722.44368 941.15365 724.55729 939.59525 726.42382 938.14832C728.29034 936.70139 730.23515 935.2316 730.7456 934.88212C731.25606 934.53263 731.82909 934.0674 732.01901 933.84827C732.20893 933.62913 732.48129 933.40882 732.62426 933.35869C733.184343715 933.16229623 735.818829985 930.84127578 738.987783317 927.865338112C740.923200203 926.047804242 743.057977219 923.98598145 745.041299026 922.014686765C747.392921786 919.677324551 749.531616361 917.467234191 750.87259 915.94254C752.17865 914.45754 753.37532 913.21066 753.53185 913.17169C753.8459 913.09349 755.16912 914.44106 755.17961 914.84972C755.18361 914.99117 755.34051 915.16611 755.5291 915.23848C755.7177 915.31088 755.94592 915.5495 756.03625 915.7688C756.58028 917.08957 758.72466 919.82757 761.65623 922.94453C763.5045 924.90969 765.49434 927.07442 766.07809 927.75504C766.66185 928.43566 767.57864 929.49879 768.11542 930.11754C768.6522 930.73629 769.46837 931.69817 769.92915 932.25504C770.465454375 932.903206102 772.120571217 934.707429385 773.985261082 936.693888808C775.378310474 938.177908291 776.888324668 939.763635587 778.1362 941.04504C779.18808 942.12518 781.4662 944.50591 783.1987 946.33555C784.9312 948.1652 786.70307 950.02837 787.1362 950.47595C788.13843 951.51161 791.14595 954.86819 791.67986 955.54695C791.90335 955.83106 792.08868 956.40192 792.0917 956.81553C792.0987 957.78155 792.46337 959.40175 792.87129 960.27982C793.0469 960.65782 793.5099 962.12594 793.90019 963.54232C794.555495603 965.920468743 795.258048768 967.673133188 796.135564405 968.950453824C797.329693754 970.68864058 798.847817815 971.546587827 801.01177 971.90264C801.01177 971.90264 802.7737 972.19254 802.7737 972.19254C802.7737 972.19254 802.7428 973.82636 802.7428 973.82636C802.7134 975.38011 802.6657 975.52004 801.76947 976.68178C800.708238164 978.057335078 800.050394634 979.733392975 799.815486358 981.581614605C799.604938941 983.238168806 799.734155313 985.033030234 800.21721 986.87379C800.21721 986.87379 800.70433 988.73004 800.70433 988.73004C800.70433 988.73004 802.12483 988.73004 802.12483 988.73004C803.31506 988.73004 803.58438 988.80294 803.78617 989.18004C804.01727 989.61186 804.25728 989.63004 809.72624 989.63004C815.08479 989.63004 815.45968 989.60314 815.99757 989.18004C815.99757 989.18004 815.99711 989.18004 815.99711 989.18004"
       id="path4011" />
  </g>
</svg>
