G75*
%MOIN*%
%OFA0B0*%
%FSLAX25Y25*%
%IPPOS*%
%LPD*%
%AMOC8*
5,1,8,0,0,1.08239X$1,22.5*
%
%ADD10C,0.00300*%
%ADD11C,0.00200*%
%ADD12R,0.04000X0.00250*%
%ADD13R,0.04260X0.00250*%
%ADD14R,0.05010X0.00250*%
%ADD15R,0.05260X0.00250*%
%ADD16R,0.01260X0.00250*%
%ADD17R,0.00260X0.00250*%
%ADD18R,0.01010X0.00250*%
%ADD19R,0.01500X0.00250*%
%ADD20R,0.01000X0.00250*%
%ADD21R,0.01250X0.00250*%
%ADD22R,0.00990X0.00250*%
%ADD23R,0.00510X0.00250*%
%ADD24R,0.00500X0.00250*%
%ADD25R,0.00740X0.00250*%
%ADD26R,0.01490X0.00250*%
%ADD27R,0.01240X0.00250*%
%ADD28R,0.00490X0.00250*%
%ADD29R,0.01510X0.00250*%
%ADD30R,0.04750X0.00250*%
%ADD31R,0.00250X0.00250*%
%ADD32R,0.00240X0.00250*%
%ADD33R,0.08500X0.00250*%
%ADD34R,0.04250X0.00250*%
%ADD35R,0.04510X0.00250*%
%ADD36R,0.03740X0.00250*%
%ADD37R,0.09250X0.00250*%
%ADD38R,0.04740X0.00250*%
%ADD39R,0.00760X0.00250*%
%ADD40R,0.05490X0.00250*%
%ADD41R,0.02000X0.00250*%
%ADD42R,0.05240X0.00250*%
%ADD43R,0.09260X0.00250*%
%ADD44R,0.04500X0.00250*%
%ADD45R,0.03490X0.00250*%
%ADD46R,0.02750X0.00250*%
%ADD47R,0.03500X0.00250*%
%ADD48R,0.09510X0.00250*%
%ADD49R,0.03750X0.00250*%
%ADD50R,0.01750X0.00250*%
%ADD51R,0.06740X0.00250*%
%ADD52R,0.03250X0.00250*%
%ADD53R,0.02500X0.00250*%
%ADD54R,0.01740X0.00250*%
%ADD55R,0.03010X0.00250*%
%ADD56R,0.01760X0.00250*%
%ADD57R,0.02490X0.00250*%
%ADD58R,0.02740X0.00250*%
%ADD59R,0.02250X0.00250*%
%ADD60R,0.02240X0.00250*%
%ADD61R,0.00750X0.00250*%
%ADD62R,0.02760X0.00250*%
%ADD63R,0.02510X0.00250*%
%ADD64R,0.05760X0.00250*%
%ADD65R,0.02260X0.00250*%
%ADD66R,0.03510X0.00250*%
%ADD67R,0.05510X0.00250*%
%ADD68R,0.03260X0.00250*%
%ADD69R,0.06000X0.00250*%
%ADD70R,0.03000X0.00250*%
%ADD71R,0.06250X0.00250*%
%ADD72R,0.06510X0.00250*%
%ADD73R,0.03990X0.00250*%
%ADD74R,0.03240X0.00250*%
%ADD75R,0.06760X0.00250*%
%ADD76R,0.07240X0.00250*%
%ADD77R,0.06750X0.00250*%
%ADD78R,0.04010X0.00250*%
%ADD79R,0.02010X0.00250*%
%ADD80R,0.01990X0.00250*%
%ADD81R,0.05000X0.00250*%
%ADD82R,0.07250X0.00250*%
%ADD83R,0.04760X0.00250*%
%ADD84R,0.08990X0.00250*%
%ADD85R,0.08250X0.00250*%
%ADD86R,0.07490X0.00250*%
%ADD87R,0.02990X0.00250*%
%ADD88C,0.00400*%
%ADD89C,0.00500*%
%ADD90C,0.00600*%
%ADD91C,0.00800*%
D10*
X0223750Y0072305D02*
X0226652Y0072305D01*
X0226652Y0073272D01*
X0223750Y0073272D02*
X0223750Y0072305D01*
X0223750Y0077216D02*
X0226652Y0077216D01*
X0225685Y0078183D01*
X0226652Y0079151D01*
X0223750Y0079151D01*
X0224234Y0080162D02*
X0224717Y0080646D01*
X0224717Y0082097D01*
X0225201Y0082097D02*
X0223750Y0082097D01*
X0223750Y0080646D01*
X0224234Y0080162D01*
X0225685Y0080646D02*
X0225685Y0081613D01*
X0225201Y0082097D01*
X0225201Y0083109D02*
X0224234Y0083109D01*
X0223750Y0083593D01*
X0223750Y0085044D01*
X0223266Y0085044D02*
X0225685Y0085044D01*
X0225685Y0083593D01*
X0225201Y0083109D01*
X0222783Y0084076D02*
X0222783Y0084560D01*
X0223266Y0085044D01*
X0223750Y0086055D02*
X0225685Y0086055D01*
X0225685Y0087507D01*
X0225201Y0087990D01*
X0223750Y0087990D01*
X0224234Y0089002D02*
X0225201Y0089002D01*
X0225685Y0089486D01*
X0225685Y0090453D01*
X0225201Y0090937D01*
X0224717Y0090937D01*
X0224717Y0089002D01*
X0224234Y0089002D02*
X0223750Y0089486D01*
X0223750Y0090453D01*
X0224234Y0092432D02*
X0223750Y0092916D01*
X0224234Y0092432D02*
X0226169Y0092432D01*
X0225685Y0091948D02*
X0225685Y0092916D01*
X0225201Y0096859D02*
X0225685Y0097343D01*
X0225685Y0098310D01*
X0225201Y0098794D01*
X0223750Y0098794D01*
X0224234Y0099806D02*
X0223750Y0100289D01*
X0223750Y0101257D01*
X0224234Y0101741D01*
X0225201Y0101741D01*
X0225685Y0101257D01*
X0225685Y0100289D01*
X0225201Y0099806D01*
X0224234Y0099806D01*
X0223750Y0102752D02*
X0223750Y0103720D01*
X0223750Y0103236D02*
X0226652Y0103236D01*
X0226652Y0102752D01*
X0225201Y0104717D02*
X0225685Y0105200D01*
X0225685Y0106652D01*
X0226652Y0106652D02*
X0223750Y0106652D01*
X0223750Y0105200D01*
X0224234Y0104717D01*
X0225201Y0104717D01*
X0225201Y0107663D02*
X0225685Y0108147D01*
X0225685Y0109114D01*
X0225201Y0109598D01*
X0224717Y0109598D01*
X0224717Y0107663D01*
X0224234Y0107663D02*
X0225201Y0107663D01*
X0224234Y0107663D02*
X0223750Y0108147D01*
X0223750Y0109114D01*
X0223750Y0110610D02*
X0225685Y0110610D01*
X0225685Y0111577D02*
X0225685Y0112061D01*
X0225685Y0111577D02*
X0224717Y0110610D01*
X0224234Y0116012D02*
X0223750Y0116495D01*
X0223750Y0117947D01*
X0223266Y0117947D02*
X0225685Y0117947D01*
X0225685Y0116495D01*
X0225201Y0116012D01*
X0224234Y0116012D01*
X0222783Y0116979D02*
X0222783Y0117463D01*
X0223266Y0117947D01*
X0224234Y0118958D02*
X0223750Y0119442D01*
X0223750Y0120409D01*
X0224234Y0120893D01*
X0225201Y0120893D01*
X0225685Y0120409D01*
X0225685Y0119442D01*
X0225201Y0118958D01*
X0224234Y0118958D01*
X0224234Y0121905D02*
X0225201Y0121905D01*
X0225685Y0122388D01*
X0225685Y0123356D01*
X0225201Y0123840D01*
X0224717Y0123840D01*
X0224717Y0121905D01*
X0224234Y0121905D02*
X0223750Y0122388D01*
X0223750Y0123356D01*
X0223750Y0124851D02*
X0223750Y0126302D01*
X0224234Y0126786D01*
X0224717Y0126302D01*
X0224717Y0125335D01*
X0225201Y0124851D01*
X0225685Y0125335D01*
X0225685Y0126786D01*
X0225201Y0130744D02*
X0225685Y0131228D01*
X0225685Y0132195D01*
X0225201Y0132679D01*
X0223750Y0132679D01*
X0224234Y0133691D02*
X0225201Y0133691D01*
X0225685Y0134174D01*
X0225685Y0135142D01*
X0225201Y0135626D01*
X0224717Y0135626D01*
X0224717Y0133691D01*
X0224234Y0133691D02*
X0223750Y0134174D01*
X0223750Y0135142D01*
X0223750Y0136637D02*
X0225685Y0136637D01*
X0224717Y0136637D02*
X0225685Y0137605D01*
X0225685Y0138088D01*
X0225201Y0139093D02*
X0225685Y0139576D01*
X0225685Y0140544D01*
X0225201Y0141028D01*
X0224717Y0141028D01*
X0224717Y0139093D01*
X0224234Y0139093D02*
X0225201Y0139093D01*
X0224234Y0139093D02*
X0223750Y0139576D01*
X0223750Y0140544D01*
X0223750Y0144986D02*
X0223750Y0145953D01*
X0226652Y0145953D01*
X0226652Y0144986D01*
X0226652Y0130744D02*
X0223750Y0130744D01*
X0223750Y0096859D02*
X0226652Y0096859D01*
X0291414Y0089970D02*
X0294550Y0086834D01*
X0291414Y0089970D01*
X0292982Y0089970D02*
X0292982Y0086834D01*
X0292982Y0089970D01*
X0294550Y0089970D02*
X0291414Y0086834D01*
X0294550Y0089970D01*
X0294550Y0088402D02*
X0291414Y0088402D01*
X0294550Y0088402D01*
X0275416Y0061653D02*
X0274181Y0060419D01*
X0274181Y0057950D01*
X0274181Y0059802D02*
X0276650Y0059802D01*
X0276650Y0060419D02*
X0275416Y0061653D01*
X0276650Y0060419D02*
X0276650Y0057950D01*
X0271732Y0057950D02*
X0271732Y0061653D01*
X0270498Y0061653D02*
X0272967Y0061653D01*
X0269284Y0061653D02*
X0266815Y0061653D01*
X0268049Y0061653D02*
X0268049Y0057950D01*
X0265601Y0057950D02*
X0264366Y0057950D01*
X0264983Y0057950D02*
X0264983Y0060419D01*
X0265601Y0060419D01*
X0264983Y0061653D02*
X0264983Y0062270D01*
X0263145Y0060419D02*
X0261294Y0060419D01*
X0260676Y0059802D01*
X0260676Y0057950D01*
X0259462Y0058567D02*
X0258845Y0057950D01*
X0256993Y0057950D01*
X0256993Y0057333D02*
X0257610Y0056716D01*
X0258228Y0056716D01*
X0258234Y0055653D02*
X0258234Y0051950D01*
X0258234Y0053802D02*
X0257617Y0054419D01*
X0256383Y0054419D01*
X0255766Y0053802D01*
X0255766Y0051950D01*
X0254551Y0052567D02*
X0254551Y0053802D01*
X0253934Y0054419D01*
X0252700Y0054419D01*
X0252082Y0053802D01*
X0252082Y0053184D01*
X0254551Y0053184D01*
X0254551Y0052567D02*
X0253934Y0051950D01*
X0252700Y0051950D01*
X0250868Y0051950D02*
X0250868Y0054419D01*
X0249634Y0054419D02*
X0250868Y0053184D01*
X0249634Y0054419D02*
X0249016Y0054419D01*
X0247799Y0053802D02*
X0247182Y0054419D01*
X0245947Y0054419D01*
X0245330Y0053802D01*
X0245330Y0053184D01*
X0247799Y0053184D01*
X0247799Y0052567D02*
X0247799Y0053802D01*
X0247799Y0052567D02*
X0247182Y0051950D01*
X0245947Y0051950D01*
X0250244Y0057950D02*
X0249627Y0058567D01*
X0249627Y0059802D01*
X0250244Y0060419D01*
X0250861Y0060419D01*
X0252096Y0059802D01*
X0252096Y0061653D01*
X0249627Y0061653D01*
X0253310Y0061036D02*
X0253310Y0060419D01*
X0253927Y0059802D01*
X0255162Y0059802D01*
X0255779Y0060419D01*
X0255779Y0061036D01*
X0255162Y0061653D01*
X0253927Y0061653D01*
X0253310Y0061036D01*
X0253927Y0059802D02*
X0253310Y0059184D01*
X0253310Y0058567D01*
X0253927Y0057950D01*
X0255162Y0057950D01*
X0255779Y0058567D01*
X0255779Y0059184D01*
X0255162Y0059802D01*
X0256993Y0060419D02*
X0256993Y0057333D01*
X0259462Y0058567D02*
X0259462Y0060419D01*
X0263145Y0060419D02*
X0263145Y0057950D01*
X0263132Y0054419D02*
X0264983Y0054419D01*
X0265601Y0053802D01*
X0264983Y0053184D01*
X0263749Y0053184D01*
X0263132Y0052567D01*
X0263749Y0051950D01*
X0265601Y0051950D01*
X0266815Y0053184D02*
X0269284Y0053184D01*
X0269284Y0052567D02*
X0269284Y0053802D01*
X0268667Y0054419D01*
X0267432Y0054419D01*
X0266815Y0053802D01*
X0266815Y0053184D01*
X0267432Y0051950D02*
X0268667Y0051950D01*
X0269284Y0052567D01*
X0270498Y0052567D02*
X0270498Y0053802D01*
X0271115Y0054419D01*
X0272350Y0054419D01*
X0272967Y0053802D01*
X0272967Y0052567D01*
X0272350Y0051950D01*
X0271115Y0051950D01*
X0270498Y0052567D01*
X0274181Y0051950D02*
X0276033Y0051950D01*
X0276650Y0052567D01*
X0276650Y0053802D01*
X0276033Y0054419D01*
X0274181Y0054419D01*
X0274181Y0051333D01*
X0274798Y0050716D01*
X0275416Y0050716D01*
X0252096Y0058567D02*
X0251479Y0057950D01*
X0250244Y0057950D01*
D11*
X0139419Y0116092D02*
X0138148Y0115358D01*
X0137322Y0115305D02*
X0137187Y0114803D01*
X0136552Y0114436D01*
X0136417Y0113935D01*
X0136601Y0113617D01*
X0137102Y0113483D01*
X0137738Y0113850D01*
X0137872Y0114351D01*
X0137322Y0115305D02*
X0137138Y0115622D01*
X0136637Y0115757D01*
X0136001Y0115390D01*
X0135867Y0114888D01*
X0135591Y0113882D02*
X0135090Y0114016D01*
X0134454Y0113649D01*
X0134320Y0113148D01*
X0134687Y0112512D01*
X0135188Y0112378D01*
X0135824Y0112745D01*
X0135958Y0113246D01*
X0135591Y0113882D01*
X0133127Y0113730D02*
X0132809Y0113547D01*
X0133910Y0111640D01*
X0134228Y0111823D02*
X0133592Y0111456D01*
X0132769Y0111405D02*
X0132402Y0112040D01*
X0131900Y0112175D01*
X0130947Y0111624D01*
X0130580Y0112260D02*
X0131681Y0110353D01*
X0132634Y0110903D01*
X0132769Y0111405D01*
X0130855Y0110300D02*
X0130488Y0110935D01*
X0129987Y0111070D01*
X0129351Y0110703D01*
X0129217Y0110201D01*
X0129400Y0109883D01*
X0130671Y0110617D01*
X0130855Y0110300D02*
X0130721Y0109798D01*
X0130085Y0109431D01*
X0129125Y0108877D02*
X0128391Y0110148D01*
X0128758Y0109512D02*
X0127755Y0109781D01*
X0127437Y0109598D01*
X0126429Y0109863D02*
X0127530Y0107956D01*
X0127163Y0108592D02*
X0125842Y0108677D01*
X0125201Y0108307D02*
X0124883Y0108123D01*
X0125617Y0106852D01*
X0125935Y0107035D02*
X0125299Y0106668D01*
X0124158Y0106433D02*
X0124023Y0105932D01*
X0124158Y0106433D02*
X0123424Y0107704D01*
X0123925Y0107570D02*
X0123289Y0107203D01*
X0122833Y0106515D02*
X0121561Y0105782D01*
X0120552Y0106046D02*
X0120051Y0106180D01*
X0119415Y0105813D01*
X0119281Y0105312D01*
X0119464Y0104994D01*
X0121469Y0104457D01*
X0120198Y0103723D01*
X0119372Y0103670D02*
X0117367Y0104207D01*
X0118101Y0102936D01*
X0118602Y0102802D01*
X0119238Y0103169D01*
X0119372Y0103670D01*
X0118638Y0104941D01*
X0118137Y0105076D01*
X0117501Y0104709D01*
X0117367Y0104207D01*
X0116908Y0103518D02*
X0115905Y0103787D01*
X0117006Y0101880D01*
X0117642Y0102247D02*
X0116370Y0101513D01*
X0115728Y0101142D02*
X0115544Y0101460D01*
X0113539Y0101997D01*
X0113356Y0102315D01*
X0114627Y0103049D01*
X0124516Y0108759D02*
X0124333Y0109076D01*
X0126576Y0107406D02*
X0127163Y0108592D01*
X0129357Y0117325D02*
X0130310Y0117875D01*
X0130444Y0118377D01*
X0129943Y0118511D01*
X0128990Y0117960D01*
X0128806Y0118278D02*
X0129357Y0117325D01*
X0128806Y0118278D02*
X0128941Y0118780D01*
X0129576Y0119147D01*
X0130537Y0119701D02*
X0131490Y0120251D01*
X0131991Y0120117D01*
X0132358Y0119481D01*
X0132224Y0118980D01*
X0131270Y0118430D01*
X0130170Y0120337D01*
X0132267Y0121124D02*
X0132401Y0121625D01*
X0133037Y0121992D01*
X0133538Y0121858D01*
X0134272Y0120586D01*
X0134138Y0120085D01*
X0133502Y0119718D01*
X0133001Y0119852D01*
X0132267Y0121124D01*
X0137010Y0121743D02*
X0137645Y0122110D01*
X0137327Y0121927D02*
X0136593Y0123198D01*
X0136911Y0123381D01*
X0137553Y0123752D02*
X0137870Y0123935D01*
X0138873Y0123667D01*
X0138506Y0124302D02*
X0139240Y0123031D01*
X0139148Y0124673D02*
X0139465Y0124856D01*
X0140468Y0124587D01*
X0140835Y0123952D02*
X0140101Y0125223D01*
X0140927Y0125276D02*
X0141110Y0124958D01*
X0142382Y0125692D01*
X0142565Y0125375D02*
X0142198Y0126010D01*
X0141697Y0126145D01*
X0141061Y0125778D01*
X0140927Y0125276D01*
X0141795Y0124506D02*
X0142431Y0124873D01*
X0142565Y0125375D01*
X0144027Y0125795D02*
X0142926Y0127702D01*
X0143562Y0128069D02*
X0142290Y0127335D01*
X0147032Y0127953D02*
X0147215Y0127636D01*
X0147533Y0127819D01*
X0147350Y0128137D01*
X0147032Y0127953D01*
X0147441Y0129461D02*
X0147758Y0129644D01*
X0148761Y0129376D01*
X0148394Y0130011D02*
X0149128Y0128740D01*
X0149587Y0129429D02*
X0148853Y0130700D01*
X0148988Y0131201D01*
X0149941Y0131752D01*
X0151042Y0129845D01*
X0150088Y0129294D01*
X0149587Y0129429D01*
X0149829Y0127530D02*
X0150930Y0125624D01*
X0150295Y0125257D02*
X0151566Y0125991D01*
X0152025Y0126679D02*
X0152526Y0126545D01*
X0153162Y0126912D01*
X0153296Y0127413D01*
X0151291Y0127951D01*
X0152025Y0126679D01*
X0150832Y0127262D02*
X0149829Y0127530D01*
X0148551Y0126792D02*
X0147280Y0126058D01*
X0147464Y0125741D01*
X0149469Y0125203D01*
X0149652Y0124886D01*
X0149716Y0123308D02*
X0149447Y0122305D01*
X0150181Y0121034D01*
X0149538Y0120663D02*
X0148585Y0120112D01*
X0148084Y0120247D01*
X0147900Y0120565D01*
X0148035Y0121066D01*
X0148988Y0121616D01*
X0149631Y0121987D02*
X0150902Y0122721D01*
X0150718Y0123039D02*
X0149716Y0123308D01*
X0150718Y0123039D02*
X0151452Y0121768D01*
X0149538Y0120663D02*
X0148437Y0122570D01*
X0147484Y0122019D01*
X0147350Y0121518D01*
X0147533Y0121200D01*
X0148035Y0121066D01*
X0147441Y0119876D02*
X0146707Y0121147D01*
X0146206Y0121281D01*
X0145570Y0120914D01*
X0145436Y0120413D01*
X0146170Y0119142D01*
X0146671Y0119008D01*
X0147307Y0119375D01*
X0147441Y0119876D01*
X0146622Y0119827D02*
X0146353Y0118824D01*
X0145711Y0118453D02*
X0144610Y0120360D01*
X0144341Y0119357D01*
X0143339Y0119626D01*
X0144440Y0117719D01*
X0143797Y0117348D02*
X0142696Y0119255D01*
X0142427Y0118252D01*
X0141425Y0118521D01*
X0142526Y0116614D01*
X0141883Y0116243D02*
X0140782Y0118150D01*
X0139511Y0117416D01*
X0140697Y0116830D02*
X0141333Y0117197D01*
X0136226Y0123834D02*
X0136043Y0124151D01*
X0131225Y0125870D02*
X0130907Y0125686D01*
X0130406Y0125821D01*
X0129488Y0127410D01*
X0130760Y0128144D02*
X0131310Y0127190D01*
X0131176Y0126689D01*
X0130222Y0126138D01*
X0131769Y0127879D02*
X0133040Y0128613D01*
X0132857Y0128931D02*
X0132356Y0129065D01*
X0131720Y0128698D01*
X0131586Y0128197D01*
X0131769Y0127879D01*
X0132454Y0127427D02*
X0133090Y0127794D01*
X0133224Y0128295D01*
X0132857Y0128931D01*
X0134048Y0128347D02*
X0134683Y0128714D01*
X0134365Y0128530D02*
X0133264Y0130437D01*
X0133582Y0130621D01*
X0134592Y0130356D02*
X0135142Y0129403D01*
X0135644Y0129268D01*
X0135778Y0129770D01*
X0136279Y0129635D01*
X0136414Y0130137D01*
X0135863Y0131090D01*
X0136689Y0131143D02*
X0137240Y0130190D01*
X0138193Y0130740D01*
X0138327Y0131242D01*
X0137826Y0131376D01*
X0136873Y0130825D01*
X0136689Y0131143D02*
X0136823Y0131645D01*
X0137459Y0132012D01*
X0138603Y0132248D02*
X0139874Y0132982D01*
X0140425Y0132029D02*
X0139324Y0133936D01*
X0138052Y0133202D02*
X0139153Y0131295D01*
X0143754Y0134375D02*
X0143020Y0135646D01*
X0143155Y0136148D01*
X0143790Y0136515D01*
X0144292Y0136380D01*
X0144475Y0136062D01*
X0144341Y0135561D01*
X0143387Y0135011D01*
X0143754Y0134375D02*
X0144256Y0134241D01*
X0144891Y0134608D01*
X0145026Y0135109D01*
X0145852Y0135162D02*
X0146805Y0135713D01*
X0146939Y0136214D01*
X0146572Y0136850D01*
X0146071Y0136984D01*
X0145118Y0136433D01*
X0146035Y0134844D01*
X0146536Y0134710D01*
X0146854Y0134893D01*
X0147582Y0136585D02*
X0147215Y0137220D01*
X0147349Y0137722D01*
X0147985Y0138089D01*
X0148486Y0137954D01*
X0148853Y0137319D01*
X0148719Y0136818D01*
X0148083Y0136451D01*
X0147582Y0136585D01*
X0149679Y0137372D02*
X0149129Y0138325D01*
X0149263Y0138827D01*
X0149899Y0139194D01*
X0150400Y0139059D01*
X0150857Y0139747D02*
X0151492Y0140114D01*
X0150991Y0140248D02*
X0151725Y0138977D01*
X0151591Y0138476D01*
X0150951Y0138106D02*
X0149850Y0140013D01*
X0152134Y0140484D02*
X0152452Y0140668D01*
X0153454Y0140399D01*
X0153821Y0139763D02*
X0153087Y0141035D01*
X0153913Y0141088D02*
X0154464Y0140134D01*
X0155417Y0140685D01*
X0155552Y0141186D01*
X0155050Y0141320D01*
X0154097Y0140770D01*
X0153913Y0141088D02*
X0154048Y0141589D01*
X0154683Y0141956D01*
X0155277Y0143146D02*
X0156378Y0141239D01*
X0156646Y0142242D01*
X0157649Y0141973D01*
X0156548Y0143880D01*
X0157371Y0143931D02*
X0157872Y0143797D01*
X0157371Y0143931D02*
X0157004Y0144567D01*
X0160612Y0144955D02*
X0161162Y0144002D01*
X0160612Y0144955D02*
X0160746Y0145456D01*
X0161699Y0146007D01*
X0162433Y0144736D01*
X0163076Y0145107D02*
X0162525Y0146060D01*
X0162660Y0146561D01*
X0163295Y0146928D01*
X0163797Y0146794D01*
X0164439Y0147165D02*
X0164574Y0147666D01*
X0165209Y0148033D01*
X0165711Y0147899D01*
X0166077Y0147263D01*
X0165943Y0146762D01*
X0165308Y0146395D01*
X0164806Y0146529D01*
X0164439Y0147165D01*
X0163246Y0147747D02*
X0164347Y0145841D01*
X0165365Y0144814D02*
X0164094Y0144080D01*
X0165280Y0143494D02*
X0165916Y0143860D01*
X0166466Y0142907D02*
X0165365Y0144814D01*
X0166008Y0145185D02*
X0167109Y0143278D01*
X0168380Y0144012D02*
X0167279Y0145919D01*
X0167010Y0144916D01*
X0166008Y0145185D01*
X0167922Y0146290D02*
X0169022Y0144383D01*
X0169717Y0143169D02*
X0169399Y0142986D01*
X0170500Y0141079D01*
X0170182Y0140896D02*
X0170818Y0141263D01*
X0171460Y0141634D02*
X0170726Y0142905D01*
X0171998Y0143639D02*
X0172548Y0142685D01*
X0172414Y0142184D01*
X0171460Y0141634D01*
X0172474Y0140604D02*
X0171520Y0140054D01*
X0171386Y0139553D01*
X0171570Y0139235D01*
X0172071Y0139100D01*
X0173024Y0139651D01*
X0173667Y0140022D02*
X0174938Y0140756D01*
X0175214Y0141762D02*
X0175348Y0142264D01*
X0175984Y0142631D01*
X0176485Y0142496D01*
X0177219Y0141225D01*
X0177085Y0140724D01*
X0176449Y0140357D01*
X0175948Y0140491D01*
X0177145Y0139144D02*
X0178245Y0137237D01*
X0177292Y0136687D01*
X0176791Y0136821D01*
X0176424Y0137457D01*
X0176558Y0137958D01*
X0177512Y0138508D01*
X0178154Y0138879D02*
X0178888Y0137608D01*
X0179841Y0138159D01*
X0179976Y0138660D01*
X0179425Y0139613D01*
X0180251Y0139667D02*
X0180802Y0138713D01*
X0180251Y0139667D02*
X0180386Y0140168D01*
X0181021Y0140535D01*
X0181523Y0140400D01*
X0181979Y0141088D02*
X0182615Y0141455D01*
X0182114Y0141589D02*
X0182848Y0140318D01*
X0182713Y0139817D01*
X0182073Y0139447D02*
X0180972Y0141354D01*
X0178998Y0141829D02*
X0178363Y0141462D01*
X0177861Y0141596D01*
X0178998Y0141829D02*
X0179133Y0142330D01*
X0178399Y0143601D01*
X0177897Y0143736D01*
X0177262Y0143369D01*
X0177127Y0142867D01*
X0176559Y0144577D02*
X0175825Y0145849D01*
X0174872Y0145298D01*
X0174738Y0144797D01*
X0175288Y0143843D01*
X0174645Y0143473D02*
X0173692Y0142922D01*
X0173191Y0143056D01*
X0173325Y0143558D01*
X0173961Y0143925D01*
X0174095Y0144426D01*
X0173594Y0144560D01*
X0172640Y0144010D01*
X0170294Y0145117D02*
X0169193Y0147024D01*
X0168924Y0146021D01*
X0167922Y0146290D01*
X0167539Y0147684D02*
X0167038Y0147818D01*
X0166120Y0149407D01*
X0166438Y0149590D02*
X0165803Y0149223D01*
X0167539Y0147684D02*
X0167857Y0147867D01*
X0167991Y0148368D01*
X0170731Y0149526D02*
X0171685Y0150077D01*
X0171819Y0150578D01*
X0171268Y0151532D01*
X0172094Y0151585D02*
X0172229Y0152086D01*
X0173182Y0152637D01*
X0172815Y0153272D02*
X0173916Y0151365D01*
X0172963Y0150815D01*
X0172461Y0150949D01*
X0172094Y0151585D01*
X0169997Y0150798D02*
X0170915Y0149209D01*
X0171416Y0149074D01*
X0171734Y0149258D01*
X0172067Y0148683D02*
X0171933Y0148182D01*
X0172667Y0146911D01*
X0173168Y0146776D01*
X0173804Y0147143D01*
X0173938Y0147645D01*
X0173204Y0148916D01*
X0172703Y0149050D01*
X0172067Y0148683D01*
X0173119Y0147595D02*
X0172850Y0146593D01*
X0174580Y0148016D02*
X0175082Y0147881D01*
X0176035Y0148432D01*
X0174934Y0150339D01*
X0173981Y0149788D01*
X0173846Y0149287D01*
X0174030Y0148969D01*
X0174531Y0148835D01*
X0175485Y0149385D01*
X0176127Y0149756D02*
X0177398Y0150490D01*
X0177215Y0150808D02*
X0176212Y0151077D01*
X0175944Y0150074D01*
X0176678Y0148803D01*
X0177949Y0149537D02*
X0177215Y0150808D01*
X0176473Y0152841D02*
X0177426Y0153392D01*
X0177560Y0153893D01*
X0177193Y0154529D01*
X0176692Y0154663D01*
X0175739Y0154113D01*
X0175372Y0154748D02*
X0176473Y0152841D01*
X0178019Y0154582D02*
X0179291Y0155316D01*
X0179107Y0155634D02*
X0178606Y0155768D01*
X0177970Y0155401D01*
X0177836Y0154900D01*
X0178019Y0154582D01*
X0178704Y0154130D02*
X0179340Y0154497D01*
X0179474Y0154998D01*
X0179107Y0155634D01*
X0179750Y0156005D02*
X0180300Y0155051D01*
X0179750Y0156005D02*
X0179884Y0156506D01*
X0180837Y0157056D01*
X0181571Y0155785D01*
X0182214Y0156156D02*
X0183167Y0156707D01*
X0183302Y0157208D01*
X0182935Y0157843D01*
X0182433Y0157978D01*
X0181480Y0157427D01*
X0182397Y0155838D01*
X0182899Y0155704D01*
X0183217Y0155887D01*
X0183731Y0154994D02*
X0184465Y0153723D01*
X0184331Y0153221D01*
X0183690Y0152852D02*
X0182589Y0154758D01*
X0182639Y0153939D02*
X0182003Y0153572D01*
X0181869Y0153071D01*
X0182419Y0152118D01*
X0181593Y0152064D02*
X0181226Y0152700D01*
X0180725Y0152834D01*
X0180089Y0152467D01*
X0179955Y0151966D01*
X0180138Y0151648D01*
X0181410Y0152382D01*
X0181593Y0152064D02*
X0181459Y0151563D01*
X0180823Y0151196D01*
X0182795Y0150720D02*
X0183896Y0148813D01*
X0183529Y0149449D02*
X0182208Y0149534D01*
X0183529Y0149449D02*
X0182942Y0148263D01*
X0184006Y0146415D02*
X0183370Y0146048D01*
X0183236Y0145547D01*
X0183419Y0145229D01*
X0184691Y0145963D01*
X0184507Y0146281D02*
X0184006Y0146415D01*
X0184507Y0146281D02*
X0184874Y0145645D01*
X0184740Y0145144D01*
X0184104Y0144777D01*
X0182960Y0144540D02*
X0182593Y0145176D01*
X0182092Y0145310D01*
X0181139Y0144759D01*
X0180772Y0145395D02*
X0181873Y0143488D01*
X0182826Y0144039D01*
X0182960Y0144540D01*
X0183023Y0142961D02*
X0183206Y0142644D01*
X0183573Y0142008D02*
X0184307Y0140737D01*
X0184625Y0140920D02*
X0183989Y0140553D01*
X0185267Y0141291D02*
X0186221Y0141842D01*
X0186355Y0142343D01*
X0185988Y0142979D01*
X0185487Y0143113D01*
X0184533Y0142563D01*
X0185451Y0140973D01*
X0185952Y0140839D01*
X0186270Y0141023D01*
X0183891Y0142192D02*
X0183573Y0142008D01*
X0186080Y0144303D02*
X0188452Y0143130D01*
X0190366Y0144235D02*
X0187994Y0145408D01*
X0187614Y0146803D02*
X0187063Y0147756D01*
X0187198Y0148258D01*
X0188151Y0148808D01*
X0188885Y0147537D01*
X0189161Y0148544D02*
X0190432Y0149278D01*
X0190249Y0149595D02*
X0189747Y0149730D01*
X0189112Y0149363D01*
X0188977Y0148861D01*
X0189161Y0148544D01*
X0189846Y0148091D02*
X0190481Y0148458D01*
X0190616Y0148960D01*
X0190249Y0149595D01*
X0190708Y0150284D02*
X0191661Y0150835D01*
X0192162Y0150700D01*
X0192529Y0150065D01*
X0192395Y0149563D01*
X0191442Y0149013D01*
X0193278Y0148035D02*
X0194012Y0146763D01*
X0193877Y0146262D01*
X0193237Y0145893D02*
X0192284Y0145342D01*
X0191782Y0145476D01*
X0191415Y0146112D01*
X0191550Y0146613D01*
X0192503Y0147164D01*
X0193604Y0145257D01*
X0193143Y0147533D02*
X0193779Y0147900D01*
X0194419Y0148270D02*
X0195055Y0148637D01*
X0194553Y0148771D02*
X0195287Y0147500D01*
X0195153Y0146999D01*
X0196431Y0147737D02*
X0195881Y0148690D01*
X0196015Y0149192D01*
X0196651Y0149559D01*
X0197152Y0149424D01*
X0197702Y0148471D02*
X0196602Y0150378D01*
X0195902Y0151588D02*
X0194631Y0150854D01*
X0193989Y0150483D02*
X0193353Y0150117D01*
X0193671Y0150300D02*
X0192937Y0151571D01*
X0193255Y0151755D01*
X0192570Y0152207D02*
X0192386Y0152525D01*
X0192189Y0153601D02*
X0191455Y0154872D01*
X0191822Y0154237D02*
X0190819Y0154505D01*
X0190501Y0154322D01*
X0189860Y0153952D02*
X0189224Y0153585D01*
X0189359Y0154086D02*
X0190093Y0152815D01*
X0189958Y0152313D01*
X0189134Y0152262D02*
X0188584Y0153215D01*
X0189134Y0152262D02*
X0189000Y0151760D01*
X0188499Y0151895D01*
X0188365Y0151393D01*
X0187863Y0151528D01*
X0187313Y0152481D01*
X0186854Y0151792D02*
X0187221Y0151157D01*
X0187086Y0150655D01*
X0186451Y0150288D01*
X0185949Y0150423D01*
X0185582Y0151058D01*
X0185717Y0151560D01*
X0186352Y0151927D01*
X0186854Y0151792D01*
X0185123Y0150369D02*
X0184121Y0150638D01*
X0183803Y0150455D01*
X0184756Y0151005D02*
X0185490Y0149734D01*
X0185920Y0147520D02*
X0184966Y0146969D01*
X0185651Y0146517D02*
X0186287Y0146884D01*
X0186421Y0147385D01*
X0185920Y0147520D01*
X0185651Y0146517D02*
X0185517Y0146016D01*
X0186018Y0145882D01*
X0186971Y0146432D01*
X0190271Y0145875D02*
X0190455Y0145558D01*
X0190773Y0145741D01*
X0190589Y0146059D01*
X0190271Y0145875D01*
X0190822Y0144922D02*
X0191005Y0144604D01*
X0191323Y0144788D01*
X0191140Y0145105D01*
X0190822Y0144922D01*
X0195902Y0151588D02*
X0194802Y0153495D01*
X0194102Y0154706D02*
X0193369Y0155977D01*
X0192366Y0156246D01*
X0192097Y0155243D01*
X0192831Y0153972D01*
X0192281Y0154926D02*
X0193552Y0155660D01*
X0192302Y0157824D02*
X0191202Y0159731D01*
X0189930Y0158997D01*
X0191116Y0158410D02*
X0191752Y0158777D01*
X0189838Y0157672D02*
X0190205Y0157037D01*
X0190071Y0156535D01*
X0189435Y0156168D01*
X0188934Y0156303D01*
X0188567Y0156938D01*
X0188701Y0157440D01*
X0189337Y0157807D01*
X0189838Y0157672D01*
X0188108Y0156250D02*
X0187105Y0156518D01*
X0186787Y0156335D01*
X0187741Y0156885D02*
X0188475Y0155614D01*
X0186675Y0158732D02*
X0185721Y0158181D01*
X0185220Y0158315D01*
X0185354Y0158817D01*
X0185990Y0159184D01*
X0186124Y0159685D01*
X0185623Y0159819D01*
X0184670Y0159269D01*
X0184027Y0158898D02*
X0183709Y0158714D01*
X0184443Y0157443D01*
X0184125Y0157260D02*
X0184761Y0157627D01*
X0183342Y0159350D02*
X0183159Y0159668D01*
X0186767Y0160056D02*
X0186950Y0159738D01*
X0188222Y0160472D01*
X0188405Y0160154D02*
X0188038Y0160790D01*
X0187537Y0160924D01*
X0186901Y0160557D01*
X0186767Y0160056D01*
X0187635Y0159286D02*
X0188271Y0159653D01*
X0188405Y0160154D01*
X0189048Y0160525D02*
X0188314Y0161797D01*
X0188448Y0162298D01*
X0189402Y0162848D01*
X0190502Y0160942D01*
X0189549Y0160391D01*
X0189048Y0160525D01*
X0184232Y0154859D02*
X0183597Y0154492D01*
X0183140Y0153805D02*
X0182639Y0153939D01*
X0174531Y0148835D02*
X0174397Y0148333D01*
X0174580Y0148016D01*
X0176786Y0146403D02*
X0177421Y0146770D01*
X0177923Y0146636D01*
X0178290Y0146000D01*
X0178155Y0145499D01*
X0177520Y0145132D01*
X0177018Y0145266D01*
X0176651Y0145902D01*
X0176786Y0146403D01*
X0178382Y0147325D02*
X0179335Y0147875D01*
X0179836Y0147741D01*
X0180203Y0147105D01*
X0180069Y0146604D01*
X0179116Y0146053D01*
X0172474Y0140604D02*
X0173575Y0138697D01*
X0172621Y0138147D01*
X0172120Y0138281D01*
X0171937Y0138599D01*
X0172071Y0139100D01*
X0170744Y0139182D02*
X0170475Y0138179D01*
X0171025Y0137225D01*
X0170475Y0138179D02*
X0169472Y0138448D01*
X0169289Y0138765D01*
X0169197Y0137441D02*
X0167925Y0136707D01*
X0167099Y0136654D02*
X0166965Y0136153D01*
X0166329Y0135786D01*
X0166195Y0135284D01*
X0166379Y0134966D01*
X0166880Y0134832D01*
X0167516Y0135199D01*
X0167650Y0135700D01*
X0167099Y0136654D02*
X0166916Y0136972D01*
X0166415Y0137106D01*
X0165779Y0136739D01*
X0165645Y0136238D01*
X0165186Y0135549D02*
X0165920Y0134278D01*
X0165369Y0135231D02*
X0164098Y0134497D01*
X0163914Y0134815D02*
X0164648Y0133544D01*
X0163914Y0134815D02*
X0164183Y0135818D01*
X0165186Y0135549D01*
X0165081Y0137950D02*
X0166034Y0138501D01*
X0166169Y0139002D01*
X0165802Y0139638D01*
X0165301Y0139772D01*
X0164347Y0139222D01*
X0163980Y0139857D02*
X0165081Y0137950D01*
X0166628Y0139691D02*
X0167899Y0140425D01*
X0167716Y0140743D02*
X0168083Y0140107D01*
X0167948Y0139606D01*
X0167313Y0139239D01*
X0166628Y0139691D02*
X0166444Y0140009D01*
X0166579Y0140510D01*
X0167214Y0140877D01*
X0167716Y0140743D01*
X0168172Y0141430D02*
X0168808Y0141797D01*
X0168307Y0141932D02*
X0169041Y0140660D01*
X0168906Y0140159D01*
X0170560Y0139499D02*
X0170744Y0139182D01*
X0173370Y0136117D02*
X0174323Y0136667D01*
X0174824Y0136533D01*
X0175191Y0135898D01*
X0175057Y0135396D01*
X0174104Y0134846D01*
X0173277Y0134793D02*
X0173143Y0134291D01*
X0172508Y0133924D01*
X0172006Y0134059D01*
X0171639Y0134694D01*
X0171774Y0135196D01*
X0172409Y0135563D01*
X0172911Y0135428D01*
X0173277Y0134793D01*
X0171547Y0133370D02*
X0170813Y0134641D01*
X0170495Y0134458D01*
X0170361Y0133956D01*
X0169860Y0134091D01*
X0169725Y0133589D01*
X0170276Y0132636D01*
X0170912Y0133003D02*
X0170361Y0133956D01*
X0169633Y0132265D02*
X0167261Y0133438D01*
X0166986Y0132431D02*
X0167536Y0131478D01*
X0167402Y0130976D01*
X0166900Y0131111D01*
X0166766Y0130609D01*
X0166265Y0130744D01*
X0165714Y0131697D01*
X0164754Y0131143D02*
X0164118Y0130776D01*
X0163984Y0130274D01*
X0164535Y0129321D01*
X0165488Y0129872D01*
X0165622Y0130373D01*
X0165121Y0130507D01*
X0164168Y0129957D01*
X0163525Y0129586D02*
X0162522Y0129854D01*
X0162205Y0129671D01*
X0161563Y0129301D02*
X0160928Y0128934D01*
X0161062Y0129435D02*
X0161796Y0128164D01*
X0161662Y0127662D01*
X0161021Y0127293D02*
X0159920Y0129199D01*
X0159969Y0128380D02*
X0159334Y0128013D01*
X0159200Y0127512D01*
X0159750Y0126559D01*
X0158924Y0126505D02*
X0158790Y0126004D01*
X0158154Y0125637D01*
X0157653Y0125772D01*
X0157286Y0126407D01*
X0157420Y0126908D01*
X0158056Y0127275D01*
X0158557Y0127141D01*
X0158924Y0126505D01*
X0159969Y0128380D02*
X0160471Y0128246D01*
X0158903Y0130227D02*
X0159038Y0130728D01*
X0157033Y0131265D01*
X0157767Y0129994D01*
X0158268Y0129860D01*
X0158903Y0130227D01*
X0159038Y0130728D02*
X0158304Y0131999D01*
X0157803Y0132134D01*
X0157167Y0131767D01*
X0157033Y0131265D01*
X0155830Y0132609D02*
X0155329Y0132744D01*
X0154962Y0133379D01*
X0155096Y0133880D01*
X0156049Y0134431D01*
X0155682Y0135067D02*
X0156783Y0133160D01*
X0155830Y0132609D01*
X0154686Y0132373D02*
X0154552Y0131871D01*
X0153598Y0131321D01*
X0153782Y0131003D02*
X0154283Y0130869D01*
X0154601Y0131052D01*
X0153782Y0131003D02*
X0152864Y0132592D01*
X0154136Y0133326D02*
X0154686Y0132373D01*
X0159677Y0131097D02*
X0159860Y0130779D01*
X0160178Y0130963D01*
X0159995Y0131281D01*
X0159677Y0131097D01*
X0160270Y0132287D02*
X0161541Y0133021D01*
X0160038Y0133424D01*
X0161139Y0131517D01*
X0163158Y0130221D02*
X0163892Y0128950D01*
X0157010Y0125401D02*
X0156876Y0124899D01*
X0155922Y0124349D01*
X0156106Y0124031D02*
X0155188Y0125620D01*
X0156142Y0126170D01*
X0156643Y0126036D01*
X0157010Y0125401D01*
X0156925Y0124080D02*
X0156607Y0123897D01*
X0156106Y0124031D01*
X0155096Y0124296D02*
X0154962Y0123794D01*
X0154326Y0123427D01*
X0153825Y0123562D01*
X0153091Y0124833D01*
X0153225Y0125334D01*
X0153861Y0125701D01*
X0154362Y0125567D01*
X0154546Y0125249D01*
X0154412Y0124748D01*
X0153458Y0124197D01*
X0153366Y0122873D02*
X0150994Y0124046D01*
X0151291Y0127951D02*
X0151425Y0128452D01*
X0152061Y0128819D01*
X0152562Y0128685D01*
X0153296Y0127413D01*
X0154122Y0127466D02*
X0155394Y0128200D01*
X0153388Y0128738D01*
X0153205Y0129056D01*
X0153339Y0129557D01*
X0153975Y0129924D01*
X0154476Y0129789D01*
X0159340Y0134636D02*
X0158789Y0135589D01*
X0158923Y0136090D01*
X0159877Y0136641D01*
X0160611Y0135370D01*
X0161070Y0136058D02*
X0160703Y0136694D01*
X0160837Y0137195D01*
X0161473Y0137562D01*
X0161974Y0137428D01*
X0162341Y0136792D01*
X0162207Y0136291D01*
X0161571Y0135924D01*
X0161070Y0136058D01*
X0175830Y0136267D02*
X0176014Y0135949D01*
X0176332Y0136132D01*
X0176148Y0136450D01*
X0175830Y0136267D01*
X0142561Y0134957D02*
X0142060Y0135092D01*
X0141693Y0135727D01*
X0103833Y0097352D02*
X0104200Y0096985D01*
X0104200Y0095517D01*
X0103833Y0095150D01*
X0103099Y0095150D01*
X0102732Y0095517D01*
X0101990Y0095884D02*
X0100889Y0095884D01*
X0100522Y0096251D01*
X0100522Y0096985D01*
X0100889Y0097352D01*
X0101990Y0097352D01*
X0101990Y0095150D01*
X0101256Y0095884D02*
X0100522Y0095150D01*
X0099780Y0095150D02*
X0098312Y0096618D01*
X0098312Y0096985D01*
X0098679Y0097352D01*
X0099413Y0097352D01*
X0099780Y0096985D01*
X0099780Y0095150D02*
X0098312Y0095150D01*
X0097570Y0095517D02*
X0096102Y0096985D01*
X0096102Y0095517D01*
X0096469Y0095150D01*
X0097203Y0095150D01*
X0097570Y0095517D01*
X0097570Y0096985D01*
X0097203Y0097352D01*
X0096469Y0097352D01*
X0096102Y0096985D01*
X0095360Y0096985D02*
X0094994Y0097352D01*
X0094260Y0097352D01*
X0093893Y0096985D01*
X0093893Y0096618D01*
X0094260Y0096251D01*
X0093893Y0095884D01*
X0093893Y0095517D01*
X0094260Y0095150D01*
X0094994Y0095150D01*
X0095360Y0095517D01*
X0094627Y0096251D02*
X0094260Y0096251D01*
X0093151Y0096985D02*
X0092784Y0097352D01*
X0092050Y0097352D01*
X0091683Y0096985D01*
X0091683Y0096618D01*
X0093151Y0095150D01*
X0091683Y0095150D01*
X0102732Y0096985D02*
X0103099Y0097352D01*
X0103833Y0097352D01*
X0100750Y0015435D02*
X0100750Y0013967D01*
X0100383Y0013600D01*
X0100383Y0015068D02*
X0101117Y0015068D01*
X0101859Y0015068D02*
X0101859Y0013600D01*
X0102960Y0013600D01*
X0103327Y0013967D01*
X0103327Y0015068D01*
X0104068Y0014701D02*
X0104068Y0013967D01*
X0104435Y0013600D01*
X0105536Y0013600D01*
X0105536Y0012866D02*
X0105536Y0015068D01*
X0104435Y0015068D01*
X0104068Y0014701D01*
X0108488Y0014701D02*
X0108488Y0013967D01*
X0108855Y0013600D01*
X0109589Y0013600D01*
X0109956Y0013967D01*
X0109956Y0014701D01*
X0109589Y0015068D01*
X0108855Y0015068D01*
X0108488Y0014701D01*
X0110695Y0015068D02*
X0111429Y0015068D01*
X0111062Y0015435D02*
X0111062Y0013967D01*
X0110695Y0013600D01*
X0110697Y0011468D02*
X0110330Y0011101D01*
X0110330Y0010734D01*
X0111798Y0010734D01*
X0111798Y0011101D02*
X0111431Y0011468D01*
X0110697Y0011468D01*
X0109588Y0011468D02*
X0109588Y0010000D01*
X0109588Y0010734D02*
X0108854Y0011468D01*
X0108487Y0011468D01*
X0110697Y0010000D02*
X0111431Y0010000D01*
X0111798Y0010367D01*
X0111798Y0011101D01*
X0112540Y0011468D02*
X0113641Y0011468D01*
X0114008Y0011101D01*
X0114008Y0010367D01*
X0113641Y0010000D01*
X0112540Y0010000D01*
X0112540Y0012202D01*
X0115114Y0012202D02*
X0115114Y0010000D01*
X0115481Y0010000D02*
X0114747Y0010000D01*
X0116223Y0010367D02*
X0116590Y0010000D01*
X0117324Y0010000D01*
X0117691Y0010367D01*
X0117691Y0011101D01*
X0117324Y0011468D01*
X0116590Y0011468D01*
X0116223Y0011101D01*
X0116223Y0010367D01*
X0115481Y0012202D02*
X0115114Y0012202D01*
X0115481Y0013600D02*
X0115481Y0015068D01*
X0115481Y0014334D02*
X0114747Y0015068D01*
X0114380Y0015068D01*
X0116223Y0014701D02*
X0116223Y0014334D01*
X0117691Y0014334D01*
X0117691Y0014701D02*
X0117324Y0015068D01*
X0116590Y0015068D01*
X0116223Y0014701D01*
X0116590Y0013600D02*
X0117324Y0013600D01*
X0117691Y0013967D01*
X0117691Y0014701D01*
X0118433Y0014701D02*
X0118800Y0015068D01*
X0119901Y0015068D01*
X0119901Y0015802D02*
X0119901Y0013600D01*
X0118800Y0013600D01*
X0118433Y0013967D01*
X0118433Y0014701D01*
X0120643Y0014701D02*
X0120643Y0013600D01*
X0121377Y0013600D02*
X0121377Y0014701D01*
X0121010Y0015068D01*
X0120643Y0014701D01*
X0121377Y0014701D02*
X0121744Y0015068D01*
X0122110Y0015068D01*
X0122110Y0013600D01*
X0122852Y0014334D02*
X0124320Y0014334D01*
X0124320Y0014701D02*
X0123953Y0015068D01*
X0123219Y0015068D01*
X0122852Y0014701D01*
X0122852Y0014334D01*
X0123219Y0013600D02*
X0123953Y0013600D01*
X0124320Y0013967D01*
X0124320Y0014701D01*
X0125062Y0014701D02*
X0125062Y0013600D01*
X0125796Y0013600D02*
X0125796Y0014701D01*
X0125429Y0015068D01*
X0125062Y0014701D01*
X0125796Y0014701D02*
X0126163Y0015068D01*
X0126530Y0015068D01*
X0126530Y0013600D01*
X0127272Y0014334D02*
X0128740Y0014334D01*
X0128740Y0014701D02*
X0128373Y0015068D01*
X0127639Y0015068D01*
X0127272Y0014701D01*
X0127272Y0014334D01*
X0127639Y0013600D02*
X0128373Y0013600D01*
X0128740Y0013967D01*
X0128740Y0014701D01*
X0129482Y0014701D02*
X0129849Y0014334D01*
X0130950Y0014334D01*
X0130216Y0014334D02*
X0129482Y0013600D01*
X0129482Y0014701D02*
X0129482Y0015435D01*
X0129849Y0015802D01*
X0130950Y0015802D01*
X0130950Y0013600D01*
X0130583Y0011468D02*
X0129482Y0011468D01*
X0129849Y0010734D02*
X0130583Y0010734D01*
X0130950Y0011101D01*
X0130583Y0011468D01*
X0129849Y0010734D02*
X0129482Y0010367D01*
X0129849Y0010000D01*
X0130950Y0010000D01*
X0130583Y0007868D02*
X0129482Y0007868D01*
X0129849Y0007134D02*
X0130583Y0007134D01*
X0130950Y0007501D01*
X0130583Y0007868D01*
X0129849Y0007134D02*
X0129482Y0006767D01*
X0129849Y0006400D01*
X0130950Y0006400D01*
X0128740Y0006767D02*
X0128373Y0006400D01*
X0127272Y0006400D01*
X0127272Y0005666D02*
X0127272Y0007868D01*
X0128373Y0007868D01*
X0128740Y0007501D01*
X0128740Y0006767D01*
X0126530Y0006767D02*
X0126163Y0006400D01*
X0125062Y0006400D01*
X0125062Y0007868D01*
X0123953Y0007868D02*
X0123219Y0007868D01*
X0122852Y0007501D01*
X0122852Y0006400D01*
X0123953Y0006400D01*
X0124320Y0006767D01*
X0123953Y0007134D01*
X0122852Y0007134D01*
X0122110Y0007134D02*
X0121377Y0007868D01*
X0121010Y0007868D01*
X0120269Y0007501D02*
X0119902Y0007868D01*
X0119168Y0007868D01*
X0118801Y0007501D01*
X0118801Y0007134D01*
X0120269Y0007134D01*
X0120269Y0006767D02*
X0120269Y0007501D01*
X0120269Y0006767D02*
X0119902Y0006400D01*
X0119168Y0006400D01*
X0122110Y0006400D02*
X0122110Y0007868D01*
X0123219Y0010000D02*
X0123953Y0010000D01*
X0124320Y0010367D01*
X0124320Y0011101D01*
X0123953Y0011468D01*
X0123219Y0011468D01*
X0122852Y0011101D01*
X0122852Y0010734D01*
X0124320Y0010734D01*
X0125062Y0011101D02*
X0125062Y0010000D01*
X0125796Y0010000D02*
X0125796Y0011101D01*
X0125429Y0011468D01*
X0125062Y0011101D01*
X0125796Y0011101D02*
X0126163Y0011468D01*
X0126530Y0011468D01*
X0126530Y0010000D01*
X0127272Y0010367D02*
X0127639Y0010000D01*
X0128373Y0010000D01*
X0128740Y0010367D01*
X0128740Y0011101D01*
X0128373Y0011468D01*
X0127639Y0011468D01*
X0127272Y0011101D01*
X0127272Y0010367D01*
X0126530Y0007868D02*
X0126530Y0006767D01*
X0119901Y0010000D02*
X0118800Y0010000D01*
X0118433Y0010367D01*
X0118800Y0010734D01*
X0119534Y0010734D01*
X0119901Y0011101D01*
X0119534Y0011468D01*
X0118433Y0011468D01*
X0115849Y0007868D02*
X0114748Y0007868D01*
X0114381Y0007501D01*
X0114381Y0006767D01*
X0114748Y0006400D01*
X0115849Y0006400D01*
X0115849Y0005666D02*
X0115849Y0007868D01*
X0113639Y0006767D02*
X0113272Y0007134D01*
X0112171Y0007134D01*
X0112171Y0007501D02*
X0112171Y0006400D01*
X0113272Y0006400D01*
X0113639Y0006767D01*
X0113272Y0007868D02*
X0112538Y0007868D01*
X0112171Y0007501D01*
X0111429Y0007501D02*
X0111062Y0007868D01*
X0109961Y0007868D01*
X0109961Y0008602D02*
X0109961Y0006400D01*
X0111062Y0006400D01*
X0111429Y0006767D01*
X0111429Y0007501D01*
X0107010Y0006767D02*
X0106643Y0007134D01*
X0105542Y0007134D01*
X0105542Y0007501D02*
X0105542Y0006400D01*
X0106643Y0006400D01*
X0107010Y0006767D01*
X0106643Y0007868D02*
X0105909Y0007868D01*
X0105542Y0007501D01*
X0104800Y0007868D02*
X0103699Y0007868D01*
X0103332Y0007501D01*
X0103332Y0006767D01*
X0103699Y0006400D01*
X0104800Y0006400D01*
X0104800Y0008602D01*
X0104435Y0010000D02*
X0104068Y0010367D01*
X0104068Y0011101D01*
X0104435Y0011468D01*
X0105169Y0011468D01*
X0105536Y0011101D01*
X0105536Y0010367D01*
X0105169Y0010000D01*
X0104435Y0010000D01*
X0103327Y0010000D02*
X0103327Y0011468D01*
X0102226Y0011468D01*
X0101859Y0011101D01*
X0101859Y0010000D01*
X0102223Y0007868D02*
X0102590Y0007501D01*
X0102590Y0006767D01*
X0102223Y0006400D01*
X0101489Y0006400D01*
X0101122Y0006767D01*
X0101122Y0007501D01*
X0101489Y0007868D01*
X0102223Y0007868D01*
X0100380Y0007868D02*
X0099646Y0006400D01*
X0098912Y0007868D01*
X0098170Y0007501D02*
X0097803Y0007868D01*
X0097069Y0007868D01*
X0096702Y0007501D01*
X0096702Y0007134D01*
X0098170Y0007134D01*
X0098170Y0006767D02*
X0098170Y0007501D01*
X0098170Y0006767D02*
X0097803Y0006400D01*
X0097069Y0006400D01*
X0097433Y0010000D02*
X0097433Y0012202D01*
X0097067Y0011468D02*
X0096333Y0011468D01*
X0095966Y0011101D01*
X0095966Y0010000D01*
X0095224Y0010367D02*
X0094857Y0010000D01*
X0094123Y0010000D01*
X0093756Y0010734D02*
X0095224Y0010734D01*
X0095224Y0011101D02*
X0094857Y0011468D01*
X0094123Y0011468D01*
X0093756Y0011101D01*
X0093756Y0010734D01*
X0095224Y0010367D02*
X0095224Y0011101D01*
X0097067Y0011468D02*
X0097433Y0011101D01*
X0098173Y0011468D02*
X0098907Y0011468D01*
X0098540Y0011835D02*
X0098540Y0010367D01*
X0098173Y0010000D01*
D12*
X0226680Y0158550D03*
X0230930Y0171550D03*
X0231680Y0185300D03*
X0268680Y0172050D03*
X0265180Y0166800D03*
X0279680Y0171800D03*
X0279680Y0172050D03*
X0279680Y0172300D03*
X0281180Y0185550D03*
D13*
X0226550Y0158800D03*
D14*
X0226675Y0159050D03*
X0249425Y0162300D03*
X0245675Y0174550D03*
X0239175Y0174550D03*
X0239175Y0174800D03*
X0245175Y0181300D03*
D15*
X0279050Y0166800D03*
X0249300Y0162550D03*
X0226550Y0159300D03*
D16*
X0224550Y0159550D03*
X0228550Y0159800D03*
X0228550Y0160050D03*
X0233300Y0162800D03*
X0233300Y0165300D03*
X0235050Y0165300D03*
X0245800Y0167800D03*
X0243050Y0171550D03*
X0243300Y0172050D03*
X0243300Y0172300D03*
X0243300Y0172550D03*
X0243300Y0173050D03*
X0243550Y0173300D03*
X0241550Y0173050D03*
X0241300Y0173300D03*
X0241300Y0173800D03*
X0241050Y0174300D03*
X0241550Y0172550D03*
X0241550Y0172300D03*
X0241550Y0172050D03*
X0237550Y0172800D03*
X0237300Y0173550D03*
X0237300Y0173800D03*
X0237300Y0174050D03*
X0226550Y0171300D03*
X0226550Y0171050D03*
X0224550Y0169550D03*
X0220800Y0169550D03*
X0220800Y0169300D03*
X0220550Y0169800D03*
X0220300Y0170550D03*
X0220300Y0170800D03*
X0222300Y0165550D03*
X0222300Y0165300D03*
X0222550Y0164800D03*
X0247800Y0173800D03*
X0250050Y0174050D03*
X0250050Y0173300D03*
X0250050Y0173050D03*
X0250050Y0172800D03*
X0249800Y0171550D03*
X0249800Y0171300D03*
X0254050Y0172550D03*
X0258300Y0171300D03*
X0260050Y0171300D03*
X0260050Y0166300D03*
X0264050Y0164550D03*
X0253800Y0164800D03*
X0253800Y0165800D03*
X0252050Y0165300D03*
X0252050Y0164800D03*
X0251800Y0164550D03*
X0251800Y0163300D03*
X0274550Y0166550D03*
X0274550Y0166800D03*
X0275050Y0168800D03*
X0274550Y0170050D03*
X0274550Y0170800D03*
X0274550Y0171050D03*
X0281300Y0171050D03*
X0281300Y0164050D03*
X0281300Y0163550D03*
X0276550Y0180550D03*
X0276550Y0181800D03*
X0276550Y0182300D03*
X0276550Y0183050D03*
X0270800Y0179800D03*
X0262550Y0179800D03*
X0262550Y0180300D03*
X0262550Y0180550D03*
X0262550Y0181050D03*
X0262550Y0182050D03*
X0262550Y0182300D03*
X0262550Y0182800D03*
X0258050Y0179550D03*
X0255800Y0181050D03*
X0255800Y0182050D03*
X0252050Y0182300D03*
X0252050Y0180550D03*
X0250050Y0182550D03*
X0250050Y0182800D03*
X0241550Y0182300D03*
X0241300Y0182550D03*
X0241550Y0181800D03*
X0241550Y0180050D03*
X0241300Y0179800D03*
X0233050Y0180800D03*
X0233050Y0181550D03*
X0233050Y0182550D03*
X0233050Y0182800D03*
X0233050Y0183300D03*
X0233050Y0184300D03*
X0233050Y0184550D03*
X0228550Y0180300D03*
X0228800Y0179800D03*
X0225050Y0179300D03*
X0225050Y0178800D03*
X0283300Y0184550D03*
D17*
X0278550Y0184550D03*
X0274550Y0183550D03*
X0276550Y0176800D03*
X0266050Y0173800D03*
X0257800Y0174550D03*
X0259800Y0179550D03*
X0245300Y0179300D03*
X0243300Y0179300D03*
X0234800Y0170050D03*
X0232800Y0167050D03*
X0232800Y0166800D03*
X0232800Y0163550D03*
X0228550Y0161800D03*
X0226550Y0159550D03*
X0237050Y0161550D03*
X0257800Y0168050D03*
X0259800Y0163050D03*
X0266050Y0165800D03*
X0284800Y0162800D03*
D18*
X0281175Y0163300D03*
X0281175Y0164300D03*
X0281175Y0165050D03*
X0281175Y0165300D03*
X0281175Y0165800D03*
X0281175Y0166050D03*
X0274675Y0167050D03*
X0274675Y0167300D03*
X0274925Y0169050D03*
X0274925Y0169300D03*
X0274675Y0170300D03*
X0274675Y0170550D03*
X0274425Y0171300D03*
X0276675Y0177050D03*
X0276675Y0177300D03*
X0276675Y0177550D03*
X0276675Y0177800D03*
X0276675Y0178050D03*
X0276675Y0178300D03*
X0276675Y0179050D03*
X0276425Y0180300D03*
X0276675Y0180800D03*
X0276675Y0181550D03*
X0276425Y0182050D03*
X0276675Y0182550D03*
X0276425Y0182800D03*
X0276675Y0184050D03*
X0276675Y0184300D03*
X0278925Y0181300D03*
X0278925Y0181050D03*
X0278675Y0180800D03*
X0278925Y0180550D03*
X0278925Y0180300D03*
X0274425Y0179050D03*
X0270675Y0179550D03*
X0268425Y0179550D03*
X0267925Y0180050D03*
X0267925Y0180300D03*
X0262425Y0181300D03*
X0268175Y0183300D03*
X0257925Y0183550D03*
X0257675Y0183300D03*
X0255925Y0182300D03*
X0255675Y0182550D03*
X0255925Y0181800D03*
X0255925Y0181550D03*
X0255925Y0181300D03*
X0255925Y0180800D03*
X0255925Y0180550D03*
X0255675Y0180050D03*
X0257675Y0180050D03*
X0257675Y0179800D03*
X0257675Y0180550D03*
X0257675Y0180800D03*
X0249925Y0182300D03*
X0249925Y0183050D03*
X0249925Y0184050D03*
X0247175Y0182300D03*
X0247175Y0182050D03*
X0247175Y0180550D03*
X0243675Y0179800D03*
X0243425Y0181800D03*
X0243175Y0182050D03*
X0243425Y0182300D03*
X0243675Y0182800D03*
X0241425Y0182800D03*
X0241175Y0183050D03*
X0240925Y0183300D03*
X0241425Y0182050D03*
X0239425Y0183300D03*
X0241425Y0179550D03*
X0233175Y0179550D03*
X0233175Y0179800D03*
X0233175Y0180300D03*
X0233175Y0180550D03*
X0232925Y0181050D03*
X0233175Y0181300D03*
X0233175Y0183050D03*
X0232925Y0183550D03*
X0233175Y0183800D03*
X0233175Y0184050D03*
X0228925Y0184050D03*
X0226925Y0183550D03*
X0226925Y0183300D03*
X0226925Y0183050D03*
X0226925Y0182800D03*
X0226675Y0182550D03*
X0228675Y0181050D03*
X0228675Y0180800D03*
X0228675Y0180550D03*
X0228675Y0180050D03*
X0228925Y0179550D03*
X0228925Y0181300D03*
X0224425Y0180050D03*
X0224925Y0178550D03*
X0220175Y0171300D03*
X0220175Y0171050D03*
X0220425Y0170300D03*
X0220675Y0170050D03*
X0224425Y0169800D03*
X0226425Y0170800D03*
X0222425Y0165800D03*
X0222425Y0165050D03*
X0233175Y0165550D03*
X0238925Y0168300D03*
X0245175Y0165800D03*
X0245175Y0165050D03*
X0247175Y0163800D03*
X0247425Y0162800D03*
X0251675Y0163050D03*
X0251925Y0163550D03*
X0251675Y0163800D03*
X0251675Y0164050D03*
X0251925Y0164300D03*
X0251925Y0165050D03*
X0253675Y0165050D03*
X0253675Y0165300D03*
X0253675Y0165550D03*
X0253675Y0166050D03*
X0253925Y0166550D03*
X0259925Y0166550D03*
X0259925Y0166800D03*
X0259925Y0166050D03*
X0263925Y0165550D03*
X0263925Y0164800D03*
X0263925Y0163050D03*
X0259925Y0171050D03*
X0258175Y0171050D03*
X0258175Y0171550D03*
X0249925Y0171800D03*
X0249925Y0172050D03*
X0249925Y0172300D03*
X0249925Y0172550D03*
X0247675Y0174300D03*
X0243675Y0174300D03*
X0243675Y0174050D03*
X0243675Y0173800D03*
X0243425Y0173550D03*
X0243425Y0172800D03*
X0243175Y0171800D03*
X0241425Y0172800D03*
X0241425Y0173550D03*
X0241175Y0174050D03*
X0237425Y0173300D03*
X0237425Y0173050D03*
X0228425Y0159550D03*
X0224425Y0159800D03*
X0224425Y0160050D03*
X0281175Y0170300D03*
X0281175Y0170550D03*
X0281175Y0170800D03*
X0281175Y0171300D03*
X0281175Y0171550D03*
X0283175Y0183800D03*
X0283175Y0184050D03*
X0283175Y0184800D03*
D19*
X0276430Y0180050D03*
X0270920Y0183300D03*
X0267930Y0179800D03*
X0262670Y0183050D03*
X0255430Y0183050D03*
X0255430Y0179800D03*
X0246680Y0175300D03*
X0240430Y0178800D03*
X0238430Y0179550D03*
X0238430Y0183050D03*
X0243920Y0183300D03*
X0225170Y0179550D03*
X0237670Y0172550D03*
X0237670Y0171550D03*
X0234680Y0169800D03*
X0229170Y0167800D03*
X0229170Y0167550D03*
X0229170Y0167300D03*
X0229170Y0167050D03*
X0225170Y0167800D03*
X0226180Y0170050D03*
X0238430Y0163550D03*
X0238680Y0163800D03*
X0244680Y0163300D03*
X0245920Y0168050D03*
X0249180Y0169550D03*
X0253180Y0169550D03*
X0254170Y0172800D03*
X0254170Y0173050D03*
X0259680Y0171550D03*
X0263930Y0171800D03*
X0263930Y0172800D03*
X0263930Y0173050D03*
X0271930Y0169300D03*
X0271930Y0168300D03*
X0275170Y0168550D03*
X0274430Y0171550D03*
X0274430Y0171800D03*
X0275170Y0173300D03*
X0275170Y0173550D03*
X0263930Y0165800D03*
X0263930Y0165050D03*
X0228180Y0160800D03*
X0224430Y0160300D03*
X0223930Y0161550D03*
D20*
X0222930Y0163800D03*
X0228180Y0164550D03*
X0228180Y0164800D03*
X0228180Y0161050D03*
X0228180Y0160300D03*
X0221930Y0167050D03*
X0220930Y0169050D03*
X0226180Y0181050D03*
X0227180Y0183800D03*
X0229180Y0183550D03*
X0229180Y0183300D03*
X0241680Y0181550D03*
X0241680Y0180800D03*
X0241680Y0180550D03*
X0243930Y0183050D03*
X0246930Y0182550D03*
X0246930Y0180050D03*
X0250180Y0180050D03*
X0250180Y0180300D03*
X0250180Y0180800D03*
X0250180Y0181050D03*
X0250180Y0181800D03*
X0250180Y0182050D03*
X0250180Y0183550D03*
X0252180Y0181800D03*
X0252180Y0181550D03*
X0252180Y0181300D03*
X0252180Y0181050D03*
X0252180Y0180800D03*
X0250180Y0179300D03*
X0250180Y0178800D03*
X0250180Y0173800D03*
X0250180Y0173550D03*
X0248180Y0172550D03*
X0248180Y0172300D03*
X0247930Y0173550D03*
X0253180Y0170050D03*
X0253180Y0169800D03*
X0249180Y0168800D03*
X0249180Y0168550D03*
X0249180Y0168300D03*
X0249180Y0168050D03*
X0245930Y0168300D03*
X0245930Y0168550D03*
X0244930Y0164800D03*
X0246930Y0164300D03*
X0246930Y0164050D03*
X0246930Y0163550D03*
X0252180Y0165550D03*
X0257430Y0166550D03*
X0263680Y0167550D03*
X0263680Y0167800D03*
X0263680Y0168050D03*
X0263680Y0168300D03*
X0263680Y0168550D03*
X0263680Y0168800D03*
X0263680Y0169050D03*
X0263680Y0169300D03*
X0263680Y0169550D03*
X0263680Y0169800D03*
X0263680Y0170050D03*
X0263680Y0170300D03*
X0263680Y0170550D03*
X0263680Y0172300D03*
X0263680Y0174050D03*
X0263680Y0174300D03*
X0262680Y0179050D03*
X0262680Y0179300D03*
X0262680Y0180050D03*
X0262680Y0180800D03*
X0262680Y0181550D03*
X0262680Y0181800D03*
X0262680Y0182550D03*
X0262680Y0183300D03*
X0265680Y0183800D03*
X0265680Y0184050D03*
X0265680Y0182300D03*
X0265680Y0182050D03*
X0265680Y0181550D03*
X0265680Y0181300D03*
X0265680Y0180550D03*
X0265680Y0179800D03*
X0265680Y0179550D03*
X0265680Y0179050D03*
X0260680Y0179550D03*
X0273180Y0180300D03*
X0273180Y0180550D03*
X0273180Y0180800D03*
X0273180Y0181550D03*
X0273180Y0182300D03*
X0273180Y0182550D03*
X0279180Y0181550D03*
X0283430Y0180550D03*
X0283430Y0180050D03*
X0283430Y0184300D03*
X0271930Y0169550D03*
X0271930Y0168800D03*
X0271930Y0168550D03*
X0274180Y0165800D03*
X0281430Y0163800D03*
X0284430Y0163550D03*
X0263680Y0163300D03*
X0263680Y0165300D03*
X0241680Y0171550D03*
X0241680Y0171800D03*
D21*
X0248055Y0172800D03*
X0248055Y0173050D03*
X0248055Y0173300D03*
X0249055Y0169300D03*
X0249055Y0169050D03*
X0253055Y0168800D03*
X0253055Y0169300D03*
X0255305Y0169550D03*
X0257555Y0166800D03*
X0257555Y0166300D03*
X0247055Y0163300D03*
X0247055Y0163050D03*
X0244805Y0164050D03*
X0244805Y0164300D03*
X0244805Y0164550D03*
X0245055Y0165300D03*
X0230305Y0170800D03*
X0226305Y0170550D03*
X0226305Y0170300D03*
X0226055Y0169800D03*
X0224305Y0170050D03*
X0224305Y0170300D03*
X0224055Y0170800D03*
X0224055Y0171050D03*
X0221805Y0166800D03*
X0221805Y0166550D03*
X0222055Y0166300D03*
X0222055Y0166050D03*
X0223055Y0163550D03*
X0228055Y0161550D03*
X0228055Y0161300D03*
X0228055Y0160550D03*
X0224055Y0160550D03*
X0224055Y0160800D03*
X0224305Y0180300D03*
X0226305Y0181550D03*
X0226305Y0181800D03*
X0246805Y0181050D03*
X0246805Y0179800D03*
X0246805Y0182800D03*
X0246805Y0183050D03*
X0253055Y0179300D03*
X0255305Y0179550D03*
X0257555Y0180300D03*
X0260555Y0182550D03*
X0265555Y0182550D03*
X0265555Y0182800D03*
X0265555Y0183050D03*
X0265555Y0183300D03*
X0267805Y0183050D03*
X0267805Y0180550D03*
X0265555Y0180800D03*
X0265555Y0181050D03*
X0265555Y0180300D03*
X0255305Y0183300D03*
X0263805Y0172550D03*
X0263805Y0172050D03*
X0272055Y0169050D03*
X0271805Y0168050D03*
X0274305Y0166300D03*
X0274305Y0166050D03*
X0274055Y0165550D03*
X0278055Y0170550D03*
X0278055Y0171550D03*
X0284305Y0171550D03*
X0284305Y0170800D03*
X0284305Y0169050D03*
X0284305Y0172550D03*
X0284305Y0164050D03*
X0284305Y0163800D03*
X0284305Y0163300D03*
X0282555Y0185300D03*
D22*
X0279425Y0184800D03*
X0273425Y0183300D03*
X0273425Y0183050D03*
X0271425Y0182300D03*
X0271175Y0182800D03*
X0271425Y0181550D03*
X0271425Y0180800D03*
X0271175Y0180300D03*
X0271175Y0180050D03*
X0273425Y0180050D03*
X0267675Y0180800D03*
X0267675Y0181050D03*
X0267675Y0181800D03*
X0267675Y0182050D03*
X0267425Y0182300D03*
X0265425Y0181800D03*
X0265425Y0180050D03*
X0265425Y0179300D03*
X0265425Y0184300D03*
X0252675Y0183300D03*
X0252425Y0183050D03*
X0248675Y0183550D03*
X0246175Y0179300D03*
X0244175Y0179300D03*
X0238175Y0179050D03*
X0238175Y0178800D03*
X0238175Y0178550D03*
X0238175Y0180550D03*
X0238175Y0180800D03*
X0238175Y0181550D03*
X0238175Y0182300D03*
X0238175Y0183300D03*
X0237925Y0183550D03*
X0237925Y0183800D03*
X0238175Y0184050D03*
X0237925Y0184550D03*
X0237925Y0185300D03*
X0223425Y0183050D03*
X0223675Y0181550D03*
X0221675Y0183050D03*
X0221675Y0183300D03*
X0221675Y0179050D03*
X0221675Y0178800D03*
X0225425Y0178050D03*
X0223925Y0171300D03*
X0225925Y0169550D03*
X0229425Y0168550D03*
X0229675Y0169550D03*
X0229925Y0170050D03*
X0229925Y0170300D03*
X0221425Y0168300D03*
X0221175Y0168550D03*
X0221175Y0168800D03*
X0221425Y0167800D03*
X0221675Y0167300D03*
X0223425Y0163050D03*
X0223425Y0162550D03*
X0223425Y0162300D03*
X0223925Y0161300D03*
X0223925Y0161050D03*
X0227425Y0162800D03*
X0227675Y0163300D03*
X0229425Y0163300D03*
X0229425Y0163550D03*
X0229675Y0163800D03*
X0229425Y0164050D03*
X0229425Y0164300D03*
X0229425Y0162800D03*
X0238425Y0163300D03*
X0239925Y0163550D03*
X0244675Y0163550D03*
X0244675Y0163800D03*
X0246675Y0164550D03*
X0246675Y0164800D03*
X0252425Y0166550D03*
X0242425Y0168300D03*
X0242425Y0168550D03*
X0248425Y0171300D03*
X0248425Y0171800D03*
X0271425Y0170800D03*
X0271675Y0170050D03*
X0271675Y0169800D03*
X0271675Y0167550D03*
X0281675Y0162300D03*
X0284175Y0164550D03*
X0284175Y0164800D03*
X0284175Y0165550D03*
X0284175Y0166300D03*
X0284175Y0166550D03*
X0284175Y0167300D03*
X0284175Y0167550D03*
X0284175Y0167800D03*
X0284175Y0168050D03*
X0284175Y0168300D03*
X0284175Y0168550D03*
X0284175Y0168800D03*
X0284175Y0169300D03*
X0284175Y0169550D03*
X0284175Y0169800D03*
X0284175Y0170050D03*
X0284175Y0170300D03*
X0284175Y0170550D03*
X0284175Y0171050D03*
X0284175Y0171300D03*
X0284175Y0171800D03*
X0284175Y0172050D03*
X0284175Y0172300D03*
X0284175Y0172800D03*
X0284175Y0173050D03*
X0284175Y0173550D03*
X0284175Y0173800D03*
X0284175Y0174300D03*
D23*
X0268425Y0174300D03*
X0259925Y0169800D03*
X0268175Y0163300D03*
X0257675Y0162050D03*
X0243175Y0161800D03*
X0234675Y0161550D03*
X0232925Y0163300D03*
X0228425Y0171550D03*
X0234925Y0172800D03*
X0238925Y0175300D03*
X0230675Y0178550D03*
D24*
X0231680Y0178550D03*
X0232420Y0178550D03*
X0233180Y0178550D03*
X0235680Y0172800D03*
X0235180Y0171800D03*
X0234420Y0171800D03*
X0233430Y0171800D03*
X0234420Y0168300D03*
X0235930Y0162550D03*
X0235430Y0161550D03*
X0231180Y0162800D03*
X0225180Y0166300D03*
X0241430Y0161800D03*
X0242670Y0162800D03*
X0243930Y0161800D03*
X0249170Y0167050D03*
X0249170Y0167550D03*
X0248430Y0171550D03*
X0245680Y0178550D03*
X0245680Y0181050D03*
X0243930Y0181050D03*
X0243680Y0180050D03*
X0259420Y0178800D03*
X0260930Y0180050D03*
X0262680Y0178800D03*
X0262430Y0175550D03*
X0260680Y0175550D03*
X0259420Y0174550D03*
X0258680Y0174550D03*
X0267670Y0174300D03*
X0267920Y0175300D03*
X0268930Y0175300D03*
X0271180Y0180550D03*
X0269920Y0184300D03*
X0281430Y0185300D03*
X0265670Y0167550D03*
X0268680Y0165050D03*
X0269180Y0163300D03*
X0269920Y0163300D03*
X0268680Y0162300D03*
X0260180Y0164800D03*
X0283680Y0162300D03*
D25*
X0284300Y0164300D03*
X0284300Y0165050D03*
X0284300Y0165300D03*
X0284300Y0165800D03*
X0284300Y0166050D03*
X0284300Y0166800D03*
X0284300Y0167050D03*
X0284050Y0173300D03*
X0284050Y0174050D03*
X0271800Y0167800D03*
X0269550Y0172550D03*
X0269300Y0174300D03*
X0265550Y0178800D03*
X0261550Y0175550D03*
X0267550Y0181300D03*
X0267550Y0181550D03*
X0271300Y0181800D03*
X0271300Y0182050D03*
X0271300Y0182550D03*
X0271300Y0181300D03*
X0271300Y0181050D03*
X0257300Y0182800D03*
X0238050Y0182050D03*
X0238050Y0181800D03*
X0238050Y0181300D03*
X0238050Y0181050D03*
X0238050Y0180300D03*
X0226050Y0180550D03*
X0226050Y0180800D03*
X0225800Y0180300D03*
X0225800Y0180050D03*
X0225800Y0179800D03*
X0225550Y0177800D03*
X0224050Y0181050D03*
X0224050Y0181300D03*
X0223800Y0182050D03*
X0223550Y0182300D03*
X0223550Y0182550D03*
X0223550Y0182800D03*
X0221550Y0178550D03*
X0229800Y0169800D03*
X0229550Y0169050D03*
X0229550Y0168800D03*
X0236300Y0161550D03*
X0240050Y0163300D03*
X0240050Y0163800D03*
X0242550Y0167550D03*
X0242300Y0167800D03*
X0242300Y0168050D03*
X0253050Y0169050D03*
X0256800Y0162050D03*
D26*
X0258925Y0162050D03*
X0254925Y0163550D03*
X0254425Y0164050D03*
X0254925Y0169800D03*
X0242425Y0169550D03*
X0242425Y0169050D03*
X0242425Y0168800D03*
X0238175Y0169550D03*
X0238175Y0169800D03*
X0238175Y0170550D03*
X0237925Y0170800D03*
X0229675Y0172300D03*
X0223175Y0163300D03*
X0223425Y0162800D03*
X0223675Y0161800D03*
X0227425Y0162550D03*
X0227675Y0162050D03*
X0237925Y0163050D03*
X0238175Y0179800D03*
X0240175Y0183800D03*
X0246425Y0183300D03*
X0229675Y0182800D03*
X0229675Y0182550D03*
X0267425Y0162300D03*
X0273675Y0164800D03*
X0273675Y0165050D03*
X0271425Y0170550D03*
X0275425Y0173800D03*
X0275675Y0174050D03*
X0279425Y0179800D03*
X0279675Y0185050D03*
D27*
X0279300Y0181800D03*
X0279300Y0180050D03*
X0273550Y0179800D03*
X0271050Y0183050D03*
X0273550Y0183550D03*
X0267550Y0182550D03*
X0252800Y0179550D03*
X0252550Y0179800D03*
X0252300Y0180050D03*
X0252300Y0180300D03*
X0252300Y0182550D03*
X0252300Y0182800D03*
X0246550Y0179550D03*
X0244050Y0179550D03*
X0238300Y0180050D03*
X0238300Y0182550D03*
X0238300Y0182800D03*
X0238050Y0184300D03*
X0238050Y0184800D03*
X0238050Y0185050D03*
X0238050Y0185550D03*
X0229550Y0184550D03*
X0229300Y0184300D03*
X0229550Y0181800D03*
X0229300Y0181550D03*
X0229300Y0179300D03*
X0225800Y0177300D03*
X0225550Y0177550D03*
X0221550Y0183550D03*
X0221550Y0183800D03*
X0237800Y0171300D03*
X0238050Y0171050D03*
X0238050Y0170300D03*
X0238300Y0170050D03*
X0242550Y0169300D03*
X0248300Y0172050D03*
X0250300Y0174300D03*
X0254800Y0170050D03*
X0254550Y0168800D03*
X0252300Y0166050D03*
X0246550Y0165800D03*
X0246550Y0165300D03*
X0246550Y0165050D03*
X0244550Y0163050D03*
X0240300Y0163050D03*
X0238050Y0162800D03*
X0229550Y0163050D03*
X0229550Y0164550D03*
X0229550Y0164800D03*
X0227800Y0164300D03*
X0227800Y0164050D03*
X0227800Y0163800D03*
X0227550Y0163550D03*
X0227550Y0163050D03*
X0227550Y0162300D03*
X0227550Y0161800D03*
X0223550Y0162050D03*
X0225300Y0167300D03*
X0221550Y0167550D03*
X0221300Y0168050D03*
X0229300Y0168050D03*
X0229300Y0168300D03*
X0229800Y0169300D03*
X0265300Y0167300D03*
X0271300Y0167050D03*
X0271300Y0166800D03*
X0271550Y0167300D03*
X0271550Y0170300D03*
X0277800Y0170800D03*
X0277800Y0171050D03*
X0277800Y0171300D03*
X0273800Y0165300D03*
D28*
X0267425Y0163300D03*
X0258925Y0163050D03*
X0265175Y0170050D03*
X0261175Y0174550D03*
X0263175Y0175550D03*
X0267175Y0175300D03*
X0269675Y0175300D03*
X0269675Y0179550D03*
X0248675Y0183800D03*
X0248675Y0184050D03*
X0244675Y0184050D03*
X0240425Y0184050D03*
X0229925Y0178550D03*
X0223675Y0181800D03*
X0221675Y0179300D03*
X0229675Y0172550D03*
X0236175Y0169800D03*
X0242425Y0167300D03*
X0246675Y0174300D03*
X0229925Y0161800D03*
D29*
X0231175Y0161800D03*
X0222925Y0164050D03*
X0222675Y0164300D03*
X0222675Y0164550D03*
X0245675Y0167550D03*
X0253925Y0164550D03*
X0247675Y0174050D03*
X0260175Y0182050D03*
X0260425Y0183300D03*
X0260175Y0183550D03*
X0268175Y0183550D03*
X0270675Y0183550D03*
X0274675Y0184300D03*
X0282925Y0185050D03*
X0283175Y0183550D03*
X0282925Y0183300D03*
X0282925Y0179800D03*
X0249925Y0183300D03*
X0249925Y0183800D03*
X0226675Y0176550D03*
D30*
X0222045Y0171800D03*
X0222045Y0171550D03*
X0234545Y0161800D03*
X0252305Y0174800D03*
X0268805Y0165800D03*
D31*
X0267795Y0165050D03*
X0266555Y0165550D03*
X0265545Y0166300D03*
X0264805Y0167550D03*
X0265795Y0170050D03*
X0267795Y0171300D03*
X0267055Y0172300D03*
X0268045Y0172550D03*
X0270555Y0174050D03*
X0270555Y0175300D03*
X0270045Y0178800D03*
X0270555Y0180550D03*
X0270555Y0182550D03*
X0267055Y0182800D03*
X0263545Y0183300D03*
X0260055Y0184300D03*
X0259295Y0184300D03*
X0258805Y0183550D03*
X0258305Y0184300D03*
X0257295Y0181300D03*
X0258555Y0178800D03*
X0260055Y0178800D03*
X0255295Y0179050D03*
X0252555Y0175550D03*
X0251805Y0175550D03*
X0250555Y0175300D03*
X0245805Y0174300D03*
X0245045Y0174300D03*
X0240545Y0175300D03*
X0239805Y0175300D03*
X0238055Y0175300D03*
X0237305Y0175300D03*
X0239305Y0178800D03*
X0240545Y0178550D03*
X0240545Y0179550D03*
X0238795Y0180300D03*
X0243045Y0181050D03*
X0244305Y0181800D03*
X0244795Y0181050D03*
X0246305Y0180300D03*
X0244795Y0178550D03*
X0243805Y0178800D03*
X0243555Y0183550D03*
X0245555Y0184050D03*
X0248555Y0183300D03*
X0241305Y0183800D03*
X0239805Y0184050D03*
X0230295Y0179300D03*
X0236545Y0171550D03*
X0239305Y0169050D03*
X0245805Y0169550D03*
X0245805Y0169800D03*
X0249295Y0167300D03*
X0247555Y0164550D03*
X0245805Y0164800D03*
X0240545Y0161800D03*
X0237555Y0163300D03*
X0235555Y0164550D03*
X0234295Y0166800D03*
X0229055Y0162050D03*
X0222555Y0163050D03*
X0225305Y0166050D03*
X0221795Y0169050D03*
X0221305Y0170300D03*
X0255545Y0168800D03*
X0258805Y0168050D03*
X0259295Y0169800D03*
X0260305Y0172550D03*
X0266305Y0175050D03*
X0266555Y0175300D03*
X0268045Y0179050D03*
X0274295Y0178800D03*
X0278295Y0181550D03*
X0280545Y0183050D03*
X0281805Y0182300D03*
X0283305Y0180800D03*
X0282545Y0180050D03*
X0283055Y0179300D03*
X0283305Y0175550D03*
X0282545Y0175550D03*
X0279055Y0174300D03*
X0278295Y0174300D03*
X0277305Y0174300D03*
X0278295Y0172800D03*
X0280045Y0170300D03*
X0280545Y0166300D03*
X0276805Y0166550D03*
X0270805Y0165550D03*
X0271305Y0163800D03*
X0271305Y0162550D03*
X0265795Y0162800D03*
X0265055Y0164550D03*
X0262305Y0163050D03*
X0261545Y0163050D03*
X0260555Y0163050D03*
X0259295Y0164800D03*
X0258055Y0163050D03*
X0256055Y0162050D03*
X0281555Y0162050D03*
X0284295Y0162300D03*
X0279555Y0184300D03*
X0279055Y0184300D03*
X0281805Y0186050D03*
X0283055Y0185800D03*
X0283555Y0185300D03*
D32*
X0273800Y0182800D03*
X0269550Y0171300D03*
X0277800Y0167550D03*
X0269550Y0166300D03*
X0269550Y0165050D03*
X0267300Y0166550D03*
X0259050Y0166050D03*
X0259050Y0171050D03*
X0242300Y0166800D03*
X0242300Y0161800D03*
X0246550Y0162800D03*
X0234050Y0170050D03*
X0232050Y0162800D03*
X0232050Y0179300D03*
X0229800Y0183050D03*
D33*
X0233680Y0162050D03*
X0259670Y0162300D03*
X0280170Y0175050D03*
D34*
X0278545Y0175300D03*
X0279555Y0170050D03*
X0279555Y0166550D03*
X0252305Y0175050D03*
X0245555Y0175050D03*
X0231555Y0182050D03*
X0231555Y0182300D03*
X0231555Y0185050D03*
X0228545Y0172050D03*
X0222045Y0172050D03*
X0242305Y0162050D03*
D35*
X0249425Y0162050D03*
X0239175Y0175050D03*
X0245175Y0181550D03*
D36*
X0261800Y0162050D03*
X0282800Y0163050D03*
X0282800Y0174550D03*
D37*
X0233555Y0162300D03*
D38*
X0242300Y0162300D03*
D39*
X0235050Y0162550D03*
X0233050Y0163050D03*
X0224300Y0170550D03*
X0224550Y0179800D03*
X0224300Y0180550D03*
X0224300Y0180800D03*
X0226300Y0181300D03*
X0226550Y0182050D03*
X0226550Y0182300D03*
X0233050Y0180050D03*
X0233050Y0179300D03*
X0243550Y0182550D03*
X0247050Y0180800D03*
X0247050Y0180300D03*
X0255550Y0180300D03*
X0255550Y0182800D03*
X0257550Y0183050D03*
X0276550Y0181300D03*
X0276550Y0181050D03*
X0276550Y0179550D03*
X0276550Y0179300D03*
X0276550Y0178800D03*
X0276550Y0178550D03*
X0274800Y0169800D03*
X0274800Y0169550D03*
X0274800Y0167550D03*
X0282800Y0162300D03*
X0263800Y0167300D03*
X0249300Y0167800D03*
D40*
X0231675Y0162550D03*
X0268925Y0162800D03*
D41*
X0271430Y0163300D03*
X0266920Y0166300D03*
X0265930Y0163300D03*
X0276430Y0167550D03*
X0280430Y0169300D03*
X0274180Y0172300D03*
X0272430Y0173800D03*
X0271930Y0174050D03*
X0270430Y0171550D03*
X0265430Y0174050D03*
X0264180Y0171300D03*
X0259180Y0172300D03*
X0254420Y0173550D03*
X0253920Y0171300D03*
X0253920Y0171050D03*
X0255180Y0169300D03*
X0255180Y0169050D03*
X0245920Y0166300D03*
X0245670Y0166550D03*
X0239180Y0165300D03*
X0239180Y0164550D03*
X0238680Y0166800D03*
X0234180Y0164550D03*
X0234180Y0164300D03*
X0237420Y0162550D03*
X0244170Y0162800D03*
X0242430Y0170550D03*
X0242430Y0170800D03*
X0242430Y0171300D03*
X0244680Y0175300D03*
X0238680Y0179300D03*
X0226430Y0176800D03*
X0227680Y0172300D03*
X0225170Y0168550D03*
X0228920Y0165800D03*
X0228920Y0165050D03*
X0258670Y0181300D03*
X0263180Y0183550D03*
X0263680Y0183800D03*
X0274430Y0184050D03*
X0276180Y0183550D03*
X0279930Y0185300D03*
D42*
X0278050Y0174550D03*
X0242300Y0162550D03*
D43*
X0259550Y0162550D03*
X0259550Y0174800D03*
D44*
X0268430Y0171800D03*
X0268930Y0175050D03*
X0268680Y0162550D03*
X0231430Y0178800D03*
X0231430Y0184800D03*
D45*
X0282675Y0162550D03*
D46*
X0274055Y0172800D03*
X0265805Y0174300D03*
X0259305Y0170550D03*
X0240805Y0162800D03*
X0280055Y0179550D03*
X0259305Y0184050D03*
D47*
X0258680Y0167050D03*
X0258680Y0165800D03*
X0268680Y0165550D03*
X0250180Y0162800D03*
X0237680Y0167800D03*
D48*
X0259675Y0162800D03*
D49*
X0265055Y0170800D03*
X0265055Y0171050D03*
X0282545Y0162800D03*
X0275055Y0183800D03*
X0237305Y0168050D03*
X0222045Y0172300D03*
D50*
X0227045Y0171550D03*
X0230555Y0171050D03*
X0225295Y0168300D03*
X0225295Y0168050D03*
X0225295Y0167550D03*
X0229045Y0166800D03*
X0229295Y0166550D03*
X0233545Y0166550D03*
X0234805Y0165550D03*
X0238805Y0166550D03*
X0239055Y0166300D03*
X0239055Y0166050D03*
X0239055Y0165800D03*
X0239055Y0165550D03*
X0245795Y0166800D03*
X0245795Y0167050D03*
X0245795Y0167300D03*
X0249055Y0169800D03*
X0249055Y0170050D03*
X0249055Y0170300D03*
X0254045Y0171550D03*
X0254045Y0171800D03*
X0254045Y0172050D03*
X0254045Y0172300D03*
X0254295Y0173300D03*
X0254045Y0178800D03*
X0258295Y0181050D03*
X0263555Y0184050D03*
X0265305Y0183550D03*
X0276305Y0183300D03*
X0276305Y0179800D03*
X0282555Y0179550D03*
X0276055Y0174300D03*
X0274305Y0172550D03*
X0274305Y0172050D03*
X0273045Y0173300D03*
X0270795Y0171300D03*
X0270795Y0171050D03*
X0266545Y0171300D03*
X0265305Y0170300D03*
X0264055Y0171550D03*
X0264055Y0166050D03*
X0264055Y0164300D03*
X0257805Y0166050D03*
X0255305Y0163300D03*
X0255555Y0163050D03*
X0254045Y0164300D03*
X0270795Y0166300D03*
X0271045Y0166550D03*
X0273045Y0164300D03*
X0275295Y0168300D03*
X0245305Y0178800D03*
X0240805Y0179300D03*
X0226305Y0177050D03*
X0225045Y0179050D03*
D51*
X0268550Y0163050D03*
D52*
X0264805Y0163550D03*
X0255305Y0174300D03*
X0281305Y0182550D03*
D53*
X0280180Y0182300D03*
X0279930Y0182050D03*
X0281170Y0179050D03*
X0274180Y0173050D03*
X0259180Y0172050D03*
X0259180Y0170300D03*
X0256170Y0174550D03*
X0249180Y0171050D03*
X0253430Y0168300D03*
X0253180Y0167300D03*
X0259180Y0165050D03*
X0271930Y0163550D03*
X0245920Y0166050D03*
X0238680Y0167050D03*
X0225170Y0169300D03*
X0259180Y0181550D03*
X0259430Y0181800D03*
D54*
X0254800Y0179300D03*
X0242300Y0170300D03*
X0242300Y0170050D03*
X0242300Y0169800D03*
X0238050Y0169300D03*
X0254550Y0163800D03*
X0273300Y0164550D03*
D55*
X0264925Y0163800D03*
X0258925Y0165300D03*
X0258925Y0165550D03*
X0258925Y0167550D03*
X0264925Y0167050D03*
X0268925Y0172300D03*
X0252675Y0175300D03*
X0259175Y0183800D03*
X0269675Y0183800D03*
X0281675Y0182800D03*
X0234175Y0165050D03*
X0231925Y0181800D03*
D56*
X0230800Y0171300D03*
X0253800Y0170800D03*
X0264300Y0166300D03*
X0272550Y0163800D03*
X0260300Y0182300D03*
X0253800Y0184050D03*
D57*
X0264425Y0173800D03*
X0264425Y0173300D03*
X0253925Y0170300D03*
X0239175Y0164050D03*
X0228925Y0165550D03*
D58*
X0237050Y0171800D03*
X0245300Y0179050D03*
X0253550Y0168550D03*
X0264550Y0164050D03*
X0268550Y0165300D03*
X0274550Y0179550D03*
D59*
X0274555Y0179300D03*
X0282305Y0183050D03*
X0281295Y0185800D03*
X0269805Y0184050D03*
X0269555Y0179050D03*
X0262795Y0174550D03*
X0267045Y0171550D03*
X0265555Y0170550D03*
X0259305Y0170050D03*
X0254805Y0174050D03*
X0249055Y0170800D03*
X0249055Y0170550D03*
X0253305Y0168050D03*
X0253305Y0167800D03*
X0253305Y0167550D03*
X0253055Y0167050D03*
X0253055Y0166800D03*
X0253055Y0166300D03*
X0245795Y0165550D03*
X0238555Y0167300D03*
X0242305Y0171050D03*
X0229045Y0166300D03*
X0225295Y0168800D03*
X0225295Y0169050D03*
X0272555Y0164050D03*
X0278555Y0170300D03*
D60*
X0264300Y0173550D03*
X0253800Y0170550D03*
X0239300Y0165050D03*
X0239300Y0164800D03*
X0239300Y0164300D03*
X0228800Y0165300D03*
X0228800Y0166050D03*
X0253800Y0179050D03*
D61*
X0250055Y0179050D03*
X0250055Y0179550D03*
X0250055Y0179800D03*
X0250055Y0180550D03*
X0250055Y0181300D03*
X0250055Y0181550D03*
X0252055Y0182050D03*
X0260555Y0182800D03*
X0260555Y0183050D03*
X0260805Y0179800D03*
X0262555Y0179550D03*
X0267795Y0182800D03*
X0269055Y0184300D03*
X0273055Y0182800D03*
X0273055Y0182050D03*
X0273055Y0181800D03*
X0273055Y0181300D03*
X0273055Y0181050D03*
X0279305Y0184550D03*
X0283305Y0180300D03*
X0260305Y0174550D03*
X0252305Y0165800D03*
X0245805Y0168800D03*
X0245805Y0169050D03*
X0245805Y0169300D03*
X0233555Y0168300D03*
X0230295Y0170550D03*
X0225305Y0167050D03*
X0225305Y0166800D03*
X0225305Y0166550D03*
X0225305Y0178300D03*
X0229055Y0183050D03*
X0229055Y0183800D03*
X0223305Y0183300D03*
X0223055Y0183550D03*
X0223055Y0183800D03*
X0241555Y0181300D03*
X0241555Y0181050D03*
X0241555Y0180300D03*
X0281305Y0166300D03*
X0281305Y0165550D03*
X0281305Y0164800D03*
X0281305Y0164550D03*
D62*
X0275550Y0167800D03*
X0271300Y0174300D03*
X0269550Y0179300D03*
X0259050Y0171800D03*
X0259050Y0170800D03*
X0259050Y0167800D03*
X0238050Y0174300D03*
X0234050Y0165800D03*
X0234050Y0164800D03*
X0246050Y0181800D03*
X0240300Y0183550D03*
D63*
X0240175Y0179050D03*
X0238175Y0167550D03*
X0233925Y0166050D03*
X0275425Y0168050D03*
D64*
X0268550Y0166050D03*
D65*
X0233800Y0166300D03*
D66*
X0259175Y0179300D03*
X0279925Y0172550D03*
X0279925Y0169800D03*
X0279925Y0169550D03*
X0265175Y0166550D03*
D67*
X0278925Y0167050D03*
D68*
X0258800Y0167300D03*
X0259050Y0179050D03*
D69*
X0278680Y0167300D03*
D70*
X0282430Y0175300D03*
X0236430Y0168300D03*
D71*
X0236055Y0168550D03*
X0235795Y0169050D03*
X0268795Y0174800D03*
D72*
X0235925Y0168800D03*
D73*
X0234925Y0169300D03*
D74*
X0234800Y0169550D03*
X0254050Y0183550D03*
X0281050Y0179300D03*
D75*
X0229550Y0171800D03*
D76*
X0234800Y0172050D03*
D77*
X0234805Y0172300D03*
D78*
X0234175Y0172550D03*
D79*
X0272675Y0173550D03*
D80*
X0254675Y0173800D03*
D81*
X0252180Y0174550D03*
X0231180Y0179050D03*
D82*
X0268805Y0174550D03*
D83*
X0245550Y0174800D03*
D84*
X0280175Y0174800D03*
D85*
X0259795Y0175050D03*
D86*
X0259925Y0175300D03*
D87*
X0253925Y0183800D03*
X0245425Y0183550D03*
X0245175Y0183800D03*
D88*
X0276750Y0127715D02*
X0276750Y0124646D01*
X0279819Y0127715D01*
X0280587Y0127715D01*
X0281354Y0126948D01*
X0281354Y0125413D01*
X0280587Y0124646D01*
X0280587Y0123111D02*
X0279052Y0123111D01*
X0278285Y0122344D01*
X0278285Y0120042D01*
X0278285Y0121577D02*
X0276750Y0123111D01*
X0280587Y0123111D02*
X0281354Y0122344D01*
X0281354Y0120042D01*
X0276750Y0120042D01*
X0181808Y0101104D02*
X0181808Y0096500D01*
X0181808Y0098035D02*
X0179506Y0098035D01*
X0178739Y0098802D01*
X0178739Y0100337D01*
X0179506Y0101104D01*
X0181808Y0101104D01*
X0180273Y0098035D02*
X0178739Y0096500D01*
X0177204Y0096500D02*
X0174135Y0096500D01*
X0175669Y0096500D02*
X0175669Y0101104D01*
X0177204Y0099569D01*
X0053558Y0066854D02*
X0053558Y0062250D01*
X0053558Y0063785D02*
X0051256Y0063785D01*
X0050489Y0064552D01*
X0050489Y0066087D01*
X0051256Y0066854D01*
X0053558Y0066854D01*
X0052023Y0063785D02*
X0050489Y0062250D01*
X0048954Y0063017D02*
X0048187Y0062250D01*
X0046652Y0062250D01*
X0045885Y0063017D01*
X0045885Y0063785D01*
X0046652Y0064552D01*
X0047419Y0064552D01*
X0046652Y0064552D02*
X0045885Y0065319D01*
X0045885Y0066087D01*
X0046652Y0066854D01*
X0048187Y0066854D01*
X0048954Y0066087D01*
D89*
X0075928Y0042085D02*
X0075928Y0033085D01*
X0095928Y0012085D01*
X0134928Y0012085D01*
X0155928Y0034085D01*
X0155928Y0042085D01*
X0175928Y0042085D01*
X0175928Y0062085D01*
X0155928Y0062085D01*
X0155928Y0090085D01*
X0136928Y0090085D01*
X0127928Y0078085D01*
X0102928Y0078085D01*
X0092928Y0090085D01*
X0075928Y0090085D01*
X0075928Y0062085D01*
X0055928Y0062085D01*
X0055928Y0042085D01*
X0075928Y0042085D01*
X0062322Y0053085D02*
X0062324Y0053205D01*
X0062330Y0053325D01*
X0062340Y0053444D01*
X0062354Y0053563D01*
X0062372Y0053682D01*
X0062393Y0053800D01*
X0062419Y0053917D01*
X0062449Y0054033D01*
X0062482Y0054148D01*
X0062519Y0054262D01*
X0062560Y0054374D01*
X0062605Y0054486D01*
X0062654Y0054595D01*
X0062706Y0054703D01*
X0062761Y0054810D01*
X0062820Y0054914D01*
X0062883Y0055016D01*
X0062949Y0055116D01*
X0063018Y0055214D01*
X0063090Y0055310D01*
X0063166Y0055403D01*
X0063244Y0055493D01*
X0063326Y0055581D01*
X0063410Y0055666D01*
X0063497Y0055749D01*
X0063587Y0055828D01*
X0063680Y0055904D01*
X0063775Y0055977D01*
X0063872Y0056047D01*
X0063972Y0056114D01*
X0064073Y0056177D01*
X0064177Y0056237D01*
X0064283Y0056294D01*
X0064390Y0056347D01*
X0064500Y0056396D01*
X0064611Y0056442D01*
X0064723Y0056484D01*
X0064837Y0056522D01*
X0064951Y0056556D01*
X0065067Y0056587D01*
X0065184Y0056613D01*
X0065302Y0056636D01*
X0065420Y0056655D01*
X0065539Y0056670D01*
X0065659Y0056681D01*
X0065778Y0056688D01*
X0065898Y0056691D01*
X0066018Y0056690D01*
X0066138Y0056685D01*
X0066257Y0056676D01*
X0066376Y0056663D01*
X0066495Y0056646D01*
X0066613Y0056625D01*
X0066730Y0056601D01*
X0066847Y0056572D01*
X0066962Y0056540D01*
X0067076Y0056503D01*
X0067189Y0056463D01*
X0067301Y0056419D01*
X0067411Y0056372D01*
X0067520Y0056321D01*
X0067626Y0056266D01*
X0067731Y0056208D01*
X0067834Y0056146D01*
X0067935Y0056081D01*
X0068033Y0056013D01*
X0068129Y0055941D01*
X0068223Y0055867D01*
X0068314Y0055789D01*
X0068403Y0055708D01*
X0068488Y0055624D01*
X0068571Y0055538D01*
X0068651Y0055448D01*
X0068729Y0055357D01*
X0068802Y0055262D01*
X0068873Y0055166D01*
X0068941Y0055067D01*
X0069005Y0054965D01*
X0069066Y0054862D01*
X0069123Y0054757D01*
X0069177Y0054650D01*
X0069227Y0054541D01*
X0069274Y0054430D01*
X0069317Y0054318D01*
X0069356Y0054205D01*
X0069391Y0054090D01*
X0069422Y0053975D01*
X0069450Y0053858D01*
X0069474Y0053741D01*
X0069494Y0053622D01*
X0069510Y0053504D01*
X0069522Y0053384D01*
X0069530Y0053265D01*
X0069534Y0053145D01*
X0069534Y0053025D01*
X0069530Y0052905D01*
X0069522Y0052786D01*
X0069510Y0052666D01*
X0069494Y0052548D01*
X0069474Y0052429D01*
X0069450Y0052312D01*
X0069422Y0052195D01*
X0069391Y0052080D01*
X0069356Y0051965D01*
X0069317Y0051852D01*
X0069274Y0051740D01*
X0069227Y0051629D01*
X0069177Y0051520D01*
X0069123Y0051413D01*
X0069066Y0051308D01*
X0069005Y0051205D01*
X0068941Y0051103D01*
X0068873Y0051004D01*
X0068802Y0050908D01*
X0068729Y0050813D01*
X0068651Y0050722D01*
X0068571Y0050632D01*
X0068488Y0050546D01*
X0068403Y0050462D01*
X0068314Y0050381D01*
X0068223Y0050303D01*
X0068129Y0050229D01*
X0068033Y0050157D01*
X0067935Y0050089D01*
X0067834Y0050024D01*
X0067731Y0049962D01*
X0067626Y0049904D01*
X0067520Y0049849D01*
X0067411Y0049798D01*
X0067301Y0049751D01*
X0067189Y0049707D01*
X0067076Y0049667D01*
X0066962Y0049630D01*
X0066847Y0049598D01*
X0066730Y0049569D01*
X0066613Y0049545D01*
X0066495Y0049524D01*
X0066376Y0049507D01*
X0066257Y0049494D01*
X0066138Y0049485D01*
X0066018Y0049480D01*
X0065898Y0049479D01*
X0065778Y0049482D01*
X0065659Y0049489D01*
X0065539Y0049500D01*
X0065420Y0049515D01*
X0065302Y0049534D01*
X0065184Y0049557D01*
X0065067Y0049583D01*
X0064951Y0049614D01*
X0064837Y0049648D01*
X0064723Y0049686D01*
X0064611Y0049728D01*
X0064500Y0049774D01*
X0064390Y0049823D01*
X0064283Y0049876D01*
X0064177Y0049933D01*
X0064073Y0049993D01*
X0063972Y0050056D01*
X0063872Y0050123D01*
X0063775Y0050193D01*
X0063680Y0050266D01*
X0063587Y0050342D01*
X0063497Y0050421D01*
X0063410Y0050504D01*
X0063326Y0050589D01*
X0063244Y0050677D01*
X0063166Y0050767D01*
X0063090Y0050860D01*
X0063018Y0050956D01*
X0062949Y0051054D01*
X0062883Y0051154D01*
X0062820Y0051256D01*
X0062761Y0051360D01*
X0062706Y0051467D01*
X0062654Y0051575D01*
X0062605Y0051684D01*
X0062560Y0051796D01*
X0062519Y0051908D01*
X0062482Y0052022D01*
X0062449Y0052137D01*
X0062419Y0052253D01*
X0062393Y0052370D01*
X0062372Y0052488D01*
X0062354Y0052607D01*
X0062340Y0052726D01*
X0062330Y0052845D01*
X0062324Y0052965D01*
X0062322Y0053085D01*
X0107376Y0092894D02*
X0111446Y0092894D01*
X0109411Y0092894D02*
X0109411Y0099000D01*
X0111446Y0096965D01*
X0113453Y0099000D02*
X0117524Y0099000D01*
X0115489Y0099000D02*
X0115489Y0092894D01*
X0119531Y0092894D02*
X0119531Y0096965D01*
X0121566Y0099000D01*
X0123601Y0096965D01*
X0123601Y0092894D01*
X0125608Y0093912D02*
X0126625Y0092894D01*
X0129678Y0092894D01*
X0129678Y0099000D01*
X0126625Y0099000D01*
X0125608Y0097982D01*
X0125608Y0096965D01*
X0126625Y0095947D01*
X0129678Y0095947D01*
X0126625Y0095947D02*
X0125608Y0094930D01*
X0125608Y0093912D01*
X0123601Y0095947D02*
X0119531Y0095947D01*
X0163322Y0052085D02*
X0163324Y0052205D01*
X0163330Y0052325D01*
X0163340Y0052444D01*
X0163354Y0052563D01*
X0163372Y0052682D01*
X0163393Y0052800D01*
X0163419Y0052917D01*
X0163449Y0053033D01*
X0163482Y0053148D01*
X0163519Y0053262D01*
X0163560Y0053374D01*
X0163605Y0053486D01*
X0163654Y0053595D01*
X0163706Y0053703D01*
X0163761Y0053810D01*
X0163820Y0053914D01*
X0163883Y0054016D01*
X0163949Y0054116D01*
X0164018Y0054214D01*
X0164090Y0054310D01*
X0164166Y0054403D01*
X0164244Y0054493D01*
X0164326Y0054581D01*
X0164410Y0054666D01*
X0164497Y0054749D01*
X0164587Y0054828D01*
X0164680Y0054904D01*
X0164775Y0054977D01*
X0164872Y0055047D01*
X0164972Y0055114D01*
X0165073Y0055177D01*
X0165177Y0055237D01*
X0165283Y0055294D01*
X0165390Y0055347D01*
X0165500Y0055396D01*
X0165611Y0055442D01*
X0165723Y0055484D01*
X0165837Y0055522D01*
X0165951Y0055556D01*
X0166067Y0055587D01*
X0166184Y0055613D01*
X0166302Y0055636D01*
X0166420Y0055655D01*
X0166539Y0055670D01*
X0166659Y0055681D01*
X0166778Y0055688D01*
X0166898Y0055691D01*
X0167018Y0055690D01*
X0167138Y0055685D01*
X0167257Y0055676D01*
X0167376Y0055663D01*
X0167495Y0055646D01*
X0167613Y0055625D01*
X0167730Y0055601D01*
X0167847Y0055572D01*
X0167962Y0055540D01*
X0168076Y0055503D01*
X0168189Y0055463D01*
X0168301Y0055419D01*
X0168411Y0055372D01*
X0168520Y0055321D01*
X0168626Y0055266D01*
X0168731Y0055208D01*
X0168834Y0055146D01*
X0168935Y0055081D01*
X0169033Y0055013D01*
X0169129Y0054941D01*
X0169223Y0054867D01*
X0169314Y0054789D01*
X0169403Y0054708D01*
X0169488Y0054624D01*
X0169571Y0054538D01*
X0169651Y0054448D01*
X0169729Y0054357D01*
X0169802Y0054262D01*
X0169873Y0054166D01*
X0169941Y0054067D01*
X0170005Y0053965D01*
X0170066Y0053862D01*
X0170123Y0053757D01*
X0170177Y0053650D01*
X0170227Y0053541D01*
X0170274Y0053430D01*
X0170317Y0053318D01*
X0170356Y0053205D01*
X0170391Y0053090D01*
X0170422Y0052975D01*
X0170450Y0052858D01*
X0170474Y0052741D01*
X0170494Y0052622D01*
X0170510Y0052504D01*
X0170522Y0052384D01*
X0170530Y0052265D01*
X0170534Y0052145D01*
X0170534Y0052025D01*
X0170530Y0051905D01*
X0170522Y0051786D01*
X0170510Y0051666D01*
X0170494Y0051548D01*
X0170474Y0051429D01*
X0170450Y0051312D01*
X0170422Y0051195D01*
X0170391Y0051080D01*
X0170356Y0050965D01*
X0170317Y0050852D01*
X0170274Y0050740D01*
X0170227Y0050629D01*
X0170177Y0050520D01*
X0170123Y0050413D01*
X0170066Y0050308D01*
X0170005Y0050205D01*
X0169941Y0050103D01*
X0169873Y0050004D01*
X0169802Y0049908D01*
X0169729Y0049813D01*
X0169651Y0049722D01*
X0169571Y0049632D01*
X0169488Y0049546D01*
X0169403Y0049462D01*
X0169314Y0049381D01*
X0169223Y0049303D01*
X0169129Y0049229D01*
X0169033Y0049157D01*
X0168935Y0049089D01*
X0168834Y0049024D01*
X0168731Y0048962D01*
X0168626Y0048904D01*
X0168520Y0048849D01*
X0168411Y0048798D01*
X0168301Y0048751D01*
X0168189Y0048707D01*
X0168076Y0048667D01*
X0167962Y0048630D01*
X0167847Y0048598D01*
X0167730Y0048569D01*
X0167613Y0048545D01*
X0167495Y0048524D01*
X0167376Y0048507D01*
X0167257Y0048494D01*
X0167138Y0048485D01*
X0167018Y0048480D01*
X0166898Y0048479D01*
X0166778Y0048482D01*
X0166659Y0048489D01*
X0166539Y0048500D01*
X0166420Y0048515D01*
X0166302Y0048534D01*
X0166184Y0048557D01*
X0166067Y0048583D01*
X0165951Y0048614D01*
X0165837Y0048648D01*
X0165723Y0048686D01*
X0165611Y0048728D01*
X0165500Y0048774D01*
X0165390Y0048823D01*
X0165283Y0048876D01*
X0165177Y0048933D01*
X0165073Y0048993D01*
X0164972Y0049056D01*
X0164872Y0049123D01*
X0164775Y0049193D01*
X0164680Y0049266D01*
X0164587Y0049342D01*
X0164497Y0049421D01*
X0164410Y0049504D01*
X0164326Y0049589D01*
X0164244Y0049677D01*
X0164166Y0049767D01*
X0164090Y0049860D01*
X0164018Y0049956D01*
X0163949Y0050054D01*
X0163883Y0050154D01*
X0163820Y0050256D01*
X0163761Y0050360D01*
X0163706Y0050467D01*
X0163654Y0050575D01*
X0163605Y0050684D01*
X0163560Y0050796D01*
X0163519Y0050908D01*
X0163482Y0051022D01*
X0163449Y0051137D01*
X0163419Y0051253D01*
X0163393Y0051370D01*
X0163372Y0051488D01*
X0163354Y0051607D01*
X0163340Y0051726D01*
X0163330Y0051845D01*
X0163324Y0051965D01*
X0163322Y0052085D01*
D90*
X0266200Y0066300D02*
X0266200Y0067300D01*
X0266200Y0066300D02*
X0287400Y0066300D01*
X0287400Y0067300D01*
X0287400Y0071300D02*
X0287400Y0072300D01*
X0287400Y0076300D02*
X0287400Y0077300D01*
X0287400Y0081300D02*
X0287400Y0082300D01*
X0287400Y0086300D02*
X0287400Y0087300D01*
X0278000Y0087300D01*
X0275600Y0087300D01*
X0266200Y0087300D01*
X0266200Y0086300D01*
X0266200Y0082300D02*
X0266200Y0081300D01*
X0266200Y0077300D02*
X0266200Y0076300D01*
X0266200Y0072300D02*
X0266200Y0071300D01*
X0275600Y0087300D02*
X0275602Y0087231D01*
X0275608Y0087163D01*
X0275618Y0087095D01*
X0275631Y0087028D01*
X0275649Y0086962D01*
X0275670Y0086897D01*
X0275695Y0086833D01*
X0275723Y0086771D01*
X0275755Y0086710D01*
X0275790Y0086651D01*
X0275829Y0086595D01*
X0275871Y0086540D01*
X0275916Y0086489D01*
X0275964Y0086439D01*
X0276014Y0086393D01*
X0276067Y0086350D01*
X0276123Y0086309D01*
X0276180Y0086272D01*
X0276240Y0086239D01*
X0276302Y0086208D01*
X0276365Y0086182D01*
X0276429Y0086159D01*
X0276495Y0086139D01*
X0276562Y0086124D01*
X0276629Y0086112D01*
X0276697Y0086104D01*
X0276766Y0086100D01*
X0276834Y0086100D01*
X0276903Y0086104D01*
X0276971Y0086112D01*
X0277038Y0086124D01*
X0277105Y0086139D01*
X0277171Y0086159D01*
X0277235Y0086182D01*
X0277298Y0086208D01*
X0277360Y0086239D01*
X0277420Y0086272D01*
X0277477Y0086309D01*
X0277533Y0086350D01*
X0277586Y0086393D01*
X0277636Y0086439D01*
X0277684Y0086489D01*
X0277729Y0086540D01*
X0277771Y0086595D01*
X0277810Y0086651D01*
X0277845Y0086710D01*
X0277877Y0086771D01*
X0277905Y0086833D01*
X0277930Y0086897D01*
X0277951Y0086962D01*
X0277969Y0087028D01*
X0277982Y0087095D01*
X0277992Y0087163D01*
X0277998Y0087231D01*
X0278000Y0087300D01*
X0277998Y0087231D01*
X0277992Y0087163D01*
X0277982Y0087095D01*
X0277969Y0087028D01*
X0277951Y0086962D01*
X0277930Y0086897D01*
X0277905Y0086833D01*
X0277877Y0086771D01*
X0277845Y0086710D01*
X0277810Y0086651D01*
X0277771Y0086595D01*
X0277729Y0086540D01*
X0277684Y0086489D01*
X0277636Y0086439D01*
X0277586Y0086393D01*
X0277533Y0086350D01*
X0277477Y0086309D01*
X0277420Y0086272D01*
X0277360Y0086239D01*
X0277298Y0086208D01*
X0277235Y0086182D01*
X0277171Y0086159D01*
X0277105Y0086139D01*
X0277038Y0086124D01*
X0276971Y0086112D01*
X0276903Y0086104D01*
X0276834Y0086100D01*
X0276766Y0086100D01*
X0276697Y0086104D01*
X0276629Y0086112D01*
X0276562Y0086124D01*
X0276495Y0086139D01*
X0276429Y0086159D01*
X0276365Y0086182D01*
X0276302Y0086208D01*
X0276240Y0086239D01*
X0276180Y0086272D01*
X0276123Y0086309D01*
X0276067Y0086350D01*
X0276014Y0086393D01*
X0275964Y0086439D01*
X0275916Y0086489D01*
X0275871Y0086540D01*
X0275829Y0086595D01*
X0275790Y0086651D01*
X0275755Y0086710D01*
X0275723Y0086771D01*
X0275695Y0086833D01*
X0275670Y0086897D01*
X0275649Y0086962D01*
X0275631Y0087028D01*
X0275618Y0087095D01*
X0275608Y0087163D01*
X0275602Y0087231D01*
X0275600Y0087300D01*
D91*
X0283346Y0063906D02*
X0285815Y0063906D01*
X0287050Y0062672D01*
X0289662Y0063906D02*
X0289662Y0057734D01*
X0290897Y0056500D01*
X0293366Y0056500D01*
X0294600Y0057734D01*
X0294600Y0063906D01*
X0283346Y0063906D02*
X0282112Y0062672D01*
X0282112Y0061438D01*
X0287050Y0056500D01*
X0282112Y0056500D01*
M02*
