G75*
%MOIN*%
%OFA0B0*%
%FSLAX25Y25*%
%IPPOS*%
%LPD*%
%AMOC8*
5,1,8,0,0,1.08239X$1,22.5*
%
%ADD10R,0.05512X0.04724*%
%ADD11R,0.04724X0.05512*%
%ADD12R,0.05118X0.06102*%
%ADD13C,0.02400*%
%ADD14C,0.02800*%
%ADD15C,0.01600*%
D10*
X0264050Y0106644D03*
X0264050Y0118456D03*
D11*
G36*
X0160324Y0086776D02*
X0160736Y0082071D01*
X0155246Y0081590D01*
X0154834Y0086295D01*
X0160324Y0086776D01*
G37*
G36*
X0161354Y0075010D02*
X0161766Y0070305D01*
X0156276Y0069824D01*
X0155864Y0074529D01*
X0161354Y0075010D01*
G37*
G36*
X0087581Y0058530D02*
X0083491Y0060892D01*
X0086247Y0065664D01*
X0090337Y0063302D01*
X0087581Y0058530D01*
G37*
G36*
X0077353Y0064436D02*
X0073263Y0066798D01*
X0076019Y0071570D01*
X0080109Y0069208D01*
X0077353Y0064436D01*
G37*
D12*
G36*
X0205858Y0050525D02*
X0207609Y0055334D01*
X0213342Y0053247D01*
X0211591Y0048438D01*
X0205858Y0050525D01*
G37*
G36*
X0235270Y0039820D02*
X0237021Y0044629D01*
X0242754Y0042542D01*
X0241003Y0037733D01*
X0235270Y0039820D01*
G37*
G36*
X0241329Y0056468D02*
X0243080Y0061277D01*
X0248813Y0059190D01*
X0247062Y0054381D01*
X0241329Y0056468D01*
G37*
G36*
X0211918Y0067173D02*
X0213669Y0071982D01*
X0219402Y0069895D01*
X0217651Y0065086D01*
X0211918Y0067173D01*
G37*
D13*
X0264050Y0118456D02*
X0271800Y0126206D01*
X0271800Y0126800D01*
X0076686Y0068003D02*
X0060597Y0068003D01*
X0036800Y0091800D01*
D14*
X0036800Y0091800D03*
X0081800Y0041800D03*
X0181800Y0096800D03*
X0216800Y0051800D03*
X0301800Y0069300D03*
X0271800Y0126800D03*
D15*
X0056400Y0024611D02*
X0033401Y0043173D01*
X0015376Y0065789D01*
X0014240Y0067637D01*
X0013105Y0069565D01*
X0012023Y0071489D01*
X0010997Y0073407D01*
X0010029Y0075317D01*
X0009121Y0077217D01*
X0008275Y0079105D01*
X0007493Y0080978D01*
X0006778Y0082835D01*
X0006131Y0084673D01*
X0005555Y0086491D01*
X0005051Y0088286D01*
X0004621Y0090056D01*
X0004268Y0091798D01*
X0003992Y0093511D01*
X0003796Y0095193D01*
X0003681Y0096841D01*
X0003648Y0098454D01*
X0003699Y0100029D01*
X0003835Y0101566D01*
X0004057Y0103063D01*
X0004367Y0104519D01*
X0004766Y0105934D01*
X0005256Y0107308D01*
X0006275Y0109654D01*
X0007722Y0111666D01*
X0009546Y0113337D01*
X0010579Y0113851D01*
X0011802Y0114212D01*
X0013084Y0114362D01*
X0014376Y0114293D01*
X0015691Y0113994D01*
X0016155Y0113836D01*
X0016665Y0113640D01*
X0017169Y0113424D01*
X0017668Y0113187D01*
X0018161Y0112930D01*
X0018652Y0112653D01*
X0019139Y0112357D01*
X0019624Y0112042D01*
X0020108Y0111709D01*
X0020590Y0111358D01*
X0021072Y0110990D01*
X0021554Y0110605D01*
X0022036Y0110204D01*
X0022519Y0109789D01*
X0023004Y0109358D01*
X0023490Y0108914D01*
X0023980Y0108456D01*
X0024472Y0107988D01*
X0024968Y0107506D01*
X0025469Y0107015D01*
X0025973Y0106515D01*
X0026485Y0106005D01*
X0027003Y0105487D01*
X0027003Y0105460D01*
X0027542Y0104947D01*
X0028066Y0104421D01*
X0028093Y0104421D01*
X0040232Y0092849D01*
X0040244Y0092747D01*
X0040777Y0092329D01*
X0040819Y0092290D01*
X0040820Y0092281D01*
X0040858Y0092252D01*
X0041267Y0091862D01*
X0041368Y0091865D01*
X0041392Y0091846D01*
X0041395Y0091829D01*
X0041713Y0091595D01*
X0041969Y0091394D01*
X0041970Y0091391D01*
X0042009Y0091363D01*
X0042010Y0091362D01*
X0042010Y0091362D01*
X0042294Y0091161D01*
X0042543Y0090972D01*
X0042544Y0090967D01*
X0042590Y0090936D01*
X0042598Y0090930D01*
X0042599Y0090930D01*
X0042876Y0090741D01*
X0043117Y0090564D01*
X0043118Y0090559D01*
X0043171Y0090524D01*
X0043187Y0090512D01*
X0043188Y0090513D01*
X0043456Y0090336D01*
X0043689Y0090171D01*
X0043691Y0090165D01*
X0043753Y0090126D01*
X0043775Y0090111D01*
X0043777Y0090111D01*
X0044038Y0089947D01*
X0044261Y0089794D01*
X0044263Y0089787D01*
X0044333Y0089745D01*
X0044362Y0089725D01*
X0044365Y0089726D01*
X0044616Y0089575D01*
X0044833Y0089433D01*
X0044835Y0089425D01*
X0044913Y0089380D01*
X0044949Y0089356D01*
X0044953Y0089357D01*
X0045197Y0089217D01*
X0045403Y0089088D01*
X0045406Y0089078D01*
X0045492Y0089031D01*
X0045536Y0089004D01*
X0045541Y0089005D01*
X0045774Y0088878D01*
X0045972Y0088759D01*
X0045976Y0088749D01*
X0046070Y0088700D01*
X0046122Y0088669D01*
X0046128Y0088671D01*
X0046353Y0088555D01*
X0046541Y0088447D01*
X0046545Y0088436D01*
X0046648Y0088386D01*
X0046707Y0088352D01*
X0046714Y0088354D01*
X0046930Y0088250D01*
X0047109Y0088153D01*
X0047114Y0088140D01*
X0047225Y0088089D01*
X0047292Y0088054D01*
X0047300Y0088056D01*
X0047507Y0087963D01*
X0047676Y0087876D01*
X0047682Y0087862D01*
X0047801Y0087812D01*
X0047875Y0087774D01*
X0047885Y0087777D01*
X0048081Y0087695D01*
X0048243Y0087617D01*
X0048250Y0087601D01*
X0048377Y0087553D01*
X0048458Y0087513D01*
X0048469Y0087517D01*
X0048658Y0087445D01*
X0048808Y0087377D01*
X0048817Y0087360D01*
X0048951Y0087313D01*
X0049040Y0087273D01*
X0049053Y0087277D01*
X0049230Y0087216D01*
X0049374Y0087156D01*
X0049384Y0087137D01*
X0049525Y0087093D01*
X0049621Y0087053D01*
X0049635Y0087058D01*
X0049805Y0087006D01*
X0049938Y0086954D01*
X0049950Y0086934D01*
X0050099Y0086893D01*
X0050202Y0086854D01*
X0050217Y0086861D01*
X0050377Y0086817D01*
X0050503Y0086773D01*
X0050517Y0086751D01*
X0050670Y0086715D01*
X0050781Y0086676D01*
X0050798Y0086685D01*
X0050948Y0086649D01*
X0051067Y0086612D01*
X0051083Y0086589D01*
X0051242Y0086558D01*
X0051359Y0086521D01*
X0051378Y0086531D01*
X0051520Y0086504D01*
X0051631Y0086473D01*
X0051649Y0086448D01*
X0051814Y0086423D01*
X0051936Y0086390D01*
X0051956Y0086401D01*
X0052090Y0086381D01*
X0052195Y0086356D01*
X0052216Y0086330D01*
X0052383Y0086312D01*
X0052511Y0086282D01*
X0052533Y0086295D01*
X0052659Y0086281D01*
X0052759Y0086262D01*
X0052782Y0086235D01*
X0052952Y0086224D01*
X0053084Y0086198D01*
X0053108Y0086214D01*
X0053227Y0086206D01*
X0053322Y0086192D01*
X0053348Y0086165D01*
X0053519Y0086162D01*
X0053656Y0086141D01*
X0053681Y0086159D01*
X0053793Y0086157D01*
X0053893Y0086146D01*
X0053926Y0086115D01*
X0054110Y0086122D01*
X0054226Y0086109D01*
X0054248Y0086127D01*
X0054379Y0086132D01*
X0054792Y0086105D01*
X0054830Y0086138D01*
X0055094Y0086133D01*
X0055114Y0086117D01*
X0055253Y0086130D01*
X0055356Y0086129D01*
X0055369Y0086142D01*
X0055822Y0086185D01*
X0056298Y0086203D01*
X0056312Y0086193D01*
X0056402Y0086207D01*
X0056533Y0086211D01*
X0056549Y0086229D01*
X0057019Y0086300D01*
X0057507Y0086347D01*
X0057519Y0086339D01*
X0057603Y0086356D01*
X0057731Y0086369D01*
X0057744Y0086385D01*
X0058223Y0086483D01*
X0058723Y0086559D01*
X0058734Y0086553D01*
X0058811Y0086573D01*
X0058934Y0086591D01*
X0058945Y0086607D01*
X0059434Y0086731D01*
X0059948Y0086836D01*
X0059957Y0086831D01*
X0060025Y0086852D01*
X0060142Y0086876D01*
X0060151Y0086890D01*
X0060652Y0087040D01*
X0061180Y0087174D01*
X0061187Y0087171D01*
X0061247Y0087191D01*
X0061355Y0087219D01*
X0061363Y0087231D01*
X0061876Y0087408D01*
X0062418Y0087571D01*
X0062424Y0087569D01*
X0062473Y0087588D01*
X0062574Y0087618D01*
X0062580Y0087629D01*
X0063107Y0087833D01*
X0063664Y0088025D01*
X0063668Y0088023D01*
X0063708Y0088040D01*
X0063799Y0088072D01*
X0063803Y0088081D01*
X0064344Y0088311D01*
X0064915Y0088532D01*
X0064918Y0088531D01*
X0064947Y0088544D01*
X0065029Y0088576D01*
X0065033Y0088584D01*
X0065588Y0088840D01*
X0066174Y0089090D01*
X0066176Y0089089D01*
X0066194Y0089099D01*
X0066266Y0089129D01*
X0066269Y0089136D01*
X0066838Y0089419D01*
X0067438Y0089697D01*
X0067439Y0089697D01*
X0067447Y0089701D01*
X0067509Y0089730D01*
X0067511Y0089735D01*
X0068095Y0090044D01*
X0068759Y0090375D01*
X0068760Y0090379D01*
X0069358Y0090714D01*
X0070015Y0091063D01*
X0070016Y0091066D01*
X0070627Y0091427D01*
X0071277Y0091792D01*
X0071278Y0091794D01*
X0071903Y0092180D01*
X0072546Y0092560D01*
X0072548Y0092568D01*
X0072555Y0092566D01*
X0073184Y0092972D01*
X0073822Y0093365D01*
X0073826Y0093384D01*
X0073830Y0093387D01*
X0073848Y0093383D01*
X0074472Y0093800D01*
X0075103Y0094206D01*
X0075107Y0094223D01*
X0075130Y0094239D01*
X0075146Y0094236D01*
X0075765Y0094663D01*
X0076390Y0095080D01*
X0076394Y0095096D01*
X0076435Y0095124D01*
X0076449Y0095122D01*
X0077064Y0095558D01*
X0077683Y0095985D01*
X0077686Y0096000D01*
X0077744Y0096041D01*
X0077757Y0096039D01*
X0078367Y0096484D01*
X0078981Y0096920D01*
X0078984Y0096934D01*
X0079057Y0096988D01*
X0079070Y0096986D01*
X0079675Y0097438D01*
X0080285Y0097883D01*
X0080287Y0097896D01*
X0080375Y0097962D01*
X0080386Y0097960D01*
X0080987Y0098419D01*
X0081593Y0098872D01*
X0081594Y0098884D01*
X0081696Y0098961D01*
X0081706Y0098960D01*
X0082303Y0099426D01*
X0082905Y0099885D01*
X0082906Y0099896D01*
X0083020Y0099984D01*
X0083029Y0099983D01*
X0083623Y0100455D01*
X0084221Y0100921D01*
X0084222Y0100930D01*
X0084346Y0101029D01*
X0084354Y0101028D01*
X0084944Y0101503D01*
X0085540Y0101976D01*
X0085541Y0101984D01*
X0085673Y0102090D01*
X0085678Y0102089D01*
X0086269Y0102570D01*
X0086862Y0103047D01*
X0086862Y0103052D01*
X0086999Y0103164D01*
X0087004Y0103164D01*
X0087592Y0103646D01*
X0088184Y0104128D01*
X0088185Y0104132D01*
X0088327Y0104249D01*
X0088330Y0104249D01*
X0088920Y0104735D01*
X0089510Y0105219D01*
X0089510Y0105222D01*
X0089656Y0105342D01*
X0089658Y0105342D01*
X0090247Y0105830D01*
X0090837Y0106316D01*
X0090837Y0106318D01*
X0090987Y0106441D01*
X0091572Y0106925D01*
X0092167Y0107417D01*
X0092167Y0107418D01*
X0092909Y0108032D01*
X0094243Y0109133D01*
X0095582Y0110234D01*
X0096920Y0111327D01*
X0098263Y0112414D01*
X0099610Y0113491D01*
X0100959Y0114554D01*
X0102312Y0115603D01*
X0103668Y0116634D01*
X0105027Y0117645D01*
X0106391Y0118633D01*
X0107757Y0119596D01*
X0109129Y0120531D01*
X0110503Y0121436D01*
X0111881Y0122309D01*
X0113263Y0123146D01*
X0114650Y0123947D01*
X0116039Y0124707D01*
X0117451Y0125435D01*
X0119493Y0126473D01*
X0119507Y0126469D01*
X0120173Y0126820D01*
X0120844Y0127161D01*
X0120849Y0127176D01*
X0122296Y0127938D01*
X0122309Y0127934D01*
X0122973Y0128294D01*
X0123640Y0128646D01*
X0123644Y0128658D01*
X0125155Y0129479D01*
X0125167Y0129476D01*
X0125828Y0129844D01*
X0126491Y0130204D01*
X0126495Y0130216D01*
X0128067Y0131092D01*
X0128077Y0131089D01*
X0128735Y0131464D01*
X0129396Y0131833D01*
X0129399Y0131843D01*
X0131029Y0132772D01*
X0131038Y0132770D01*
X0131693Y0133151D01*
X0132352Y0133526D01*
X0132354Y0133535D01*
X0134038Y0134515D01*
X0134046Y0134513D01*
X0134699Y0134899D01*
X0135356Y0135281D01*
X0135358Y0135289D01*
X0137092Y0136315D01*
X0137099Y0136313D01*
X0137750Y0136704D01*
X0138404Y0137091D01*
X0138406Y0137098D01*
X0140186Y0138167D01*
X0140192Y0138166D01*
X0140843Y0138562D01*
X0141495Y0138953D01*
X0141496Y0138959D01*
X0143320Y0140068D01*
X0143325Y0140067D01*
X0143974Y0140466D01*
X0144624Y0140862D01*
X0144625Y0140867D01*
X0146488Y0142012D01*
X0146492Y0142011D01*
X0147140Y0142413D01*
X0147790Y0142812D01*
X0147791Y0142816D01*
X0149689Y0143995D01*
X0149693Y0143994D01*
X0150343Y0144400D01*
X0150988Y0144800D01*
X0150989Y0144804D01*
X0152920Y0146011D01*
X0152923Y0146010D01*
X0153569Y0146416D01*
X0154217Y0146821D01*
X0154217Y0146824D01*
X0156177Y0148056D01*
X0156179Y0148056D01*
X0156829Y0148466D01*
X0157472Y0148870D01*
X0157473Y0148872D01*
X0159458Y0150126D01*
X0159459Y0150125D01*
X0160103Y0150533D01*
X0160752Y0150943D01*
X0160752Y0150944D01*
X0162759Y0152215D01*
X0162759Y0152214D01*
X0163405Y0152624D01*
X0164052Y0153034D01*
X0164052Y0153034D01*
X0166077Y0154319D01*
X0166077Y0154318D01*
X0166706Y0154717D01*
X0167371Y0155139D01*
X0170068Y0156850D01*
X0173398Y0158960D01*
X0176756Y0161083D01*
X0180112Y0163196D01*
X0183473Y0165302D01*
X0186833Y0167394D01*
X0190185Y0169465D01*
X0193535Y0171515D01*
X0196873Y0173539D01*
X0200195Y0175532D01*
X0203499Y0177489D01*
X0206784Y0179407D01*
X0210046Y0181278D01*
X0213286Y0183100D01*
X0216498Y0184865D01*
X0219683Y0186570D01*
X0222836Y0188209D01*
X0225958Y0189777D01*
X0229044Y0191268D01*
X0232093Y0192679D01*
X0235103Y0194004D01*
X0238071Y0195238D01*
X0240995Y0196375D01*
X0243872Y0197412D01*
X0246700Y0198343D01*
X0249477Y0199164D01*
X0252199Y0199870D01*
X0254865Y0200455D01*
X0257471Y0200917D01*
X0260015Y0201250D01*
X0262495Y0201451D01*
X0264876Y0201516D01*
X0269602Y0201202D01*
X0274080Y0200066D01*
X0278208Y0198153D01*
X0281819Y0195545D01*
X0284771Y0192356D01*
X0287016Y0188612D01*
X0287998Y0186618D01*
X0288937Y0184630D01*
X0289809Y0182701D01*
X0290614Y0180831D01*
X0291355Y0179017D01*
X0292035Y0177258D01*
X0292654Y0175553D01*
X0293215Y0173901D01*
X0293720Y0172300D01*
X0294172Y0170747D01*
X0294571Y0169243D01*
X0294920Y0167783D01*
X0295222Y0166369D01*
X0295478Y0164998D01*
X0295690Y0163667D01*
X0295860Y0162377D01*
X0295990Y0161123D01*
X0296083Y0159906D01*
X0296140Y0158722D01*
X0296163Y0157571D01*
X0296154Y0156450D01*
X0296116Y0155357D01*
X0296049Y0154291D01*
X0295975Y0153468D01*
X0295795Y0152978D01*
X0295909Y0152733D01*
X0295885Y0152463D01*
X0296219Y0152062D01*
X0297773Y0148711D01*
X0298562Y0144852D01*
X0298592Y0141450D01*
X0298573Y0141430D01*
X0298599Y0140688D01*
X0298606Y0139946D01*
X0298625Y0139927D01*
X0298657Y0139016D01*
X0298537Y0138804D01*
X0298683Y0138276D01*
X0298702Y0137728D01*
X0298880Y0137562D01*
X0299182Y0136467D01*
X0299115Y0136238D01*
X0299379Y0135753D01*
X0299527Y0135220D01*
X0299734Y0135102D01*
X0300284Y0134093D01*
X0300268Y0133869D01*
X0300639Y0133442D01*
X0300910Y0132945D01*
X0301125Y0132882D01*
X0302640Y0131137D01*
X0302659Y0130954D01*
X0303128Y0130574D01*
X0303523Y0130119D01*
X0303707Y0130106D01*
X0305514Y0128644D01*
X0305562Y0128472D01*
X0306093Y0128175D01*
X0306566Y0127792D01*
X0306743Y0127811D01*
X0308737Y0126695D01*
X0308768Y0126612D01*
X0309396Y0126327D01*
X0309997Y0125990D01*
X0310082Y0126014D01*
X0310312Y0125909D01*
X0310408Y0125749D01*
X0310990Y0125600D01*
X0311537Y0125351D01*
X0311711Y0125417D01*
X0312066Y0125326D01*
X0312185Y0125188D01*
X0312788Y0125143D01*
X0313373Y0124993D01*
X0313530Y0125087D01*
X0313900Y0125059D01*
X0314041Y0124944D01*
X0314643Y0125004D01*
X0315246Y0124959D01*
X0315384Y0125078D01*
X0315753Y0125114D01*
X0315913Y0125025D01*
X0316494Y0125188D01*
X0317095Y0125248D01*
X0317211Y0125390D01*
X0317562Y0125489D01*
X0317739Y0125428D01*
X0318279Y0125691D01*
X0318857Y0125853D01*
X0318948Y0126017D01*
X0319245Y0126161D01*
X0319411Y0126132D01*
X0319782Y0126394D01*
X0319847Y0126386D01*
X0320064Y0126559D01*
X0320472Y0126758D01*
X0320520Y0126898D01*
X0320599Y0126968D01*
X0320663Y0127013D01*
X0320697Y0127012D01*
X0320790Y0127102D01*
X0320983Y0127238D01*
X0320993Y0127299D01*
X0321008Y0127313D01*
X0321091Y0127379D01*
X0321117Y0127380D01*
X0321200Y0127466D01*
X0321374Y0127605D01*
X0321380Y0127654D01*
X0321415Y0127690D01*
X0321517Y0127781D01*
X0321537Y0127782D01*
X0321608Y0127861D01*
X0321762Y0127998D01*
X0321765Y0128036D01*
X0321820Y0128097D01*
X0321942Y0128215D01*
X0321956Y0128216D01*
X0322015Y0128286D01*
X0322149Y0128415D01*
X0322149Y0128445D01*
X0322226Y0128535D01*
X0322366Y0128682D01*
X0322377Y0128683D01*
X0322423Y0128741D01*
X0322537Y0128859D01*
X0322536Y0128882D01*
X0322633Y0129003D01*
X0322791Y0129179D01*
X0322798Y0129180D01*
X0322831Y0129224D01*
X0322926Y0129330D01*
X0322925Y0129348D01*
X0323040Y0129499D01*
X0323215Y0129706D01*
X0323219Y0129707D01*
X0323241Y0129737D01*
X0323318Y0129828D01*
X0323317Y0129841D01*
X0323451Y0130026D01*
X0323640Y0130262D01*
X0323642Y0130262D01*
X0323654Y0130280D01*
X0323712Y0130352D01*
X0323711Y0130362D01*
X0323861Y0130579D01*
X0324064Y0130845D01*
X0324065Y0130846D01*
X0324108Y0130903D01*
X0324107Y0130910D01*
X0324272Y0131157D01*
X0324506Y0131480D01*
X0324505Y0131484D01*
X0324684Y0131764D01*
X0324905Y0132082D01*
X0324904Y0132087D01*
X0324906Y0132087D01*
X0325095Y0132394D01*
X0325304Y0132708D01*
X0325300Y0132728D01*
X0325308Y0132741D01*
X0325325Y0132745D01*
X0325504Y0133048D01*
X0325702Y0133358D01*
X0325698Y0133376D01*
X0325707Y0133391D01*
X0325725Y0133421D01*
X0325742Y0133426D01*
X0325913Y0133727D01*
X0326099Y0134030D01*
X0326095Y0134048D01*
X0326113Y0134079D01*
X0326139Y0134124D01*
X0326155Y0134128D01*
X0326317Y0134425D01*
X0326494Y0134725D01*
X0326490Y0134741D01*
X0326515Y0134787D01*
X0326549Y0134846D01*
X0326564Y0134851D01*
X0326719Y0135145D01*
X0326886Y0135440D01*
X0326882Y0135455D01*
X0326914Y0135516D01*
X0326954Y0135589D01*
X0326968Y0135593D01*
X0327116Y0135885D01*
X0327275Y0136175D01*
X0327270Y0136190D01*
X0327308Y0136264D01*
X0327353Y0136349D01*
X0327367Y0136354D01*
X0327507Y0136641D01*
X0327658Y0136928D01*
X0327654Y0136943D01*
X0327696Y0137029D01*
X0327745Y0137126D01*
X0327759Y0137131D01*
X0327893Y0137418D01*
X0328036Y0137700D01*
X0328031Y0137713D01*
X0328077Y0137812D01*
X0328130Y0137919D01*
X0328143Y0137925D01*
X0328271Y0138209D01*
X0328407Y0138487D01*
X0328402Y0138501D01*
X0328451Y0138610D01*
X0328506Y0138727D01*
X0328519Y0138733D01*
X0328641Y0139015D01*
X0328770Y0139291D01*
X0328765Y0139304D01*
X0328816Y0139423D01*
X0328873Y0139549D01*
X0328886Y0139554D01*
X0329002Y0139835D01*
X0329124Y0140108D01*
X0329119Y0140121D01*
X0329172Y0140249D01*
X0329283Y0140506D01*
X0329403Y0140577D01*
X0329561Y0141194D01*
X0329803Y0141782D01*
X0329746Y0141918D01*
X0334527Y0160600D01*
X0334670Y0160725D01*
X0334711Y0161321D01*
X0334859Y0161899D01*
X0334762Y0162063D01*
X0334770Y0162182D01*
X0334810Y0162221D01*
X0334822Y0162939D01*
X0334871Y0163656D01*
X0334835Y0163697D01*
X0334835Y0163723D01*
X0334868Y0163757D01*
X0334848Y0164482D01*
X0334861Y0165208D01*
X0334828Y0165242D01*
X0334827Y0165296D01*
X0334854Y0165327D01*
X0334806Y0166056D01*
X0334787Y0166787D01*
X0334757Y0166815D01*
X0334752Y0166893D01*
X0334775Y0166920D01*
X0334703Y0167652D01*
X0334655Y0168386D01*
X0334629Y0168409D01*
X0334619Y0168504D01*
X0334638Y0168529D01*
X0334545Y0169262D01*
X0334473Y0169998D01*
X0334449Y0170018D01*
X0334435Y0170122D01*
X0334452Y0170144D01*
X0334339Y0170878D01*
X0334245Y0171615D01*
X0334223Y0171631D01*
X0334207Y0171737D01*
X0334221Y0171757D01*
X0334092Y0172491D01*
X0333978Y0173227D01*
X0333959Y0173242D01*
X0333941Y0173340D01*
X0333954Y0173358D01*
X0333808Y0174091D01*
X0333678Y0174827D01*
X0333660Y0174839D01*
X0333644Y0174921D01*
X0333655Y0174937D01*
X0333496Y0175669D01*
X0333351Y0176404D01*
X0333334Y0176415D01*
X0333322Y0176471D01*
X0333332Y0176486D01*
X0333160Y0177217D01*
X0333001Y0177951D01*
X0332986Y0177961D01*
X0332982Y0177981D01*
X0332990Y0177995D01*
X0332808Y0178725D01*
X0332636Y0179457D01*
X0332635Y0179458D01*
X0332443Y0180182D01*
X0332276Y0180853D01*
X0332276Y0180853D01*
X0332276Y0180853D01*
X0332261Y0180913D01*
X0332259Y0180914D01*
X0332074Y0181580D01*
X0331915Y0182182D01*
X0331915Y0182183D01*
X0331905Y0182217D01*
X0331881Y0182310D01*
X0331878Y0182311D01*
X0331705Y0182908D01*
X0331560Y0183432D01*
X0331561Y0183434D01*
X0331538Y0183510D01*
X0331503Y0183637D01*
X0331499Y0183639D01*
X0331342Y0184159D01*
X0331216Y0184593D01*
X0331218Y0184597D01*
X0331180Y0184718D01*
X0331132Y0184885D01*
X0331128Y0184887D01*
X0330993Y0185320D01*
X0330891Y0185656D01*
X0330893Y0185661D01*
X0330839Y0185830D01*
X0330774Y0186044D01*
X0330769Y0186047D01*
X0330662Y0186382D01*
X0330590Y0186611D01*
X0330593Y0186616D01*
X0330518Y0186844D01*
X0330436Y0187105D01*
X0330430Y0187108D01*
X0330355Y0187335D01*
X0330319Y0187447D01*
X0330322Y0187453D01*
X0330225Y0187739D01*
X0330123Y0188058D01*
X0330116Y0188061D01*
X0330084Y0188155D01*
X0330087Y0188162D01*
X0329964Y0188516D01*
X0329893Y0188731D01*
X0329894Y0188733D01*
X0329870Y0188802D01*
X0329840Y0188892D01*
X0329837Y0188894D01*
X0329746Y0189151D01*
X0329749Y0189157D01*
X0329669Y0189379D01*
X0329656Y0189417D01*
X0329658Y0189421D01*
X0329615Y0189537D01*
X0329594Y0189599D01*
X0329592Y0189600D01*
X0329519Y0189797D01*
X0329391Y0190167D01*
X0329384Y0190170D01*
X0329382Y0190177D01*
X0329302Y0190471D01*
X0329291Y0190679D01*
X0329326Y0190887D01*
X0329409Y0191096D01*
X0329544Y0191301D01*
X0329799Y0191556D01*
X0340535Y0200387D01*
X0340859Y0200605D01*
X0341155Y0200731D01*
X0341483Y0200806D01*
X0341827Y0200821D01*
X0342165Y0200775D01*
X0342479Y0200673D01*
X0342753Y0200525D01*
X0342974Y0200342D01*
X0343139Y0200140D01*
X0343295Y0199839D01*
X0343307Y0199810D01*
X0343441Y0199466D01*
X0343656Y0198900D01*
X0343943Y0198126D01*
X0344293Y0197154D01*
X0344696Y0195997D01*
X0345144Y0194668D01*
X0345628Y0193180D01*
X0346137Y0191545D01*
X0346664Y0189775D01*
X0347198Y0187884D01*
X0347732Y0185882D01*
X0348254Y0183784D01*
X0348757Y0181602D01*
X0349231Y0179349D01*
X0349668Y0177037D01*
X0350058Y0174680D01*
X0350392Y0172290D01*
X0350661Y0169879D01*
X0350857Y0167463D01*
X0350971Y0165052D01*
X0350994Y0162661D01*
X0350918Y0160304D01*
X0350746Y0158124D01*
X0342036Y0127023D01*
X0341531Y0125855D01*
X0340974Y0124597D01*
X0340411Y0123358D01*
X0339841Y0122138D01*
X0339264Y0120940D01*
X0338681Y0119766D01*
X0338091Y0118616D01*
X0337494Y0117492D01*
X0336889Y0116396D01*
X0336277Y0115329D01*
X0335658Y0114293D01*
X0335031Y0113289D01*
X0334397Y0112319D01*
X0333755Y0111383D01*
X0333106Y0110485D01*
X0332449Y0109624D01*
X0331785Y0108803D01*
X0331114Y0108023D01*
X0330437Y0107285D01*
X0329752Y0106591D01*
X0329061Y0105941D01*
X0328364Y0105338D01*
X0327661Y0104781D01*
X0327010Y0104313D01*
X0324873Y0103156D01*
X0322571Y0102400D01*
X0320144Y0102053D01*
X0317696Y0102129D01*
X0313218Y0103108D01*
X0309018Y0104860D01*
X0306995Y0106117D01*
X0306406Y0106527D01*
X0306351Y0106517D01*
X0306304Y0106546D01*
X0305605Y0106383D01*
X0304898Y0106256D01*
X0304866Y0106210D01*
X0304812Y0106198D01*
X0304433Y0105588D01*
X0304023Y0104998D01*
X0304033Y0104944D01*
X0304004Y0104896D01*
X0304167Y0104197D01*
X0304657Y0101469D01*
X0306246Y0084755D01*
X0306091Y0083107D01*
X0305912Y0082805D01*
X0306022Y0082374D01*
X0305980Y0081932D01*
X0306204Y0081661D01*
X0308929Y0070978D01*
X0309572Y0059795D01*
X0308044Y0048596D01*
X0307555Y0046554D01*
X0307027Y0044528D01*
X0306476Y0042591D01*
X0305904Y0040740D01*
X0305310Y0038976D01*
X0304694Y0037298D01*
X0304056Y0035703D01*
X0303398Y0034193D01*
X0302718Y0032765D01*
X0302017Y0031418D01*
X0301296Y0030152D01*
X0300555Y0028964D01*
X0299794Y0027854D01*
X0299014Y0026820D01*
X0298214Y0025861D01*
X0297394Y0024974D01*
X0296556Y0024158D01*
X0295698Y0023410D01*
X0294819Y0022728D01*
X0293920Y0022111D01*
X0292998Y0021557D01*
X0292053Y0021063D01*
X0291084Y0020628D01*
X0290088Y0020250D01*
X0289073Y0019931D01*
X0288052Y0019671D01*
X0287024Y0019468D01*
X0285988Y0019320D01*
X0284944Y0019226D01*
X0283891Y0019182D01*
X0282828Y0019188D01*
X0281757Y0019242D01*
X0280675Y0019341D01*
X0279584Y0019483D01*
X0278485Y0019668D01*
X0277376Y0019893D01*
X0276260Y0020156D01*
X0275135Y0020454D01*
X0274002Y0020787D01*
X0272863Y0021151D01*
X0271718Y0021545D01*
X0270566Y0021966D01*
X0269408Y0022412D01*
X0268246Y0022880D01*
X0267078Y0023369D01*
X0265907Y0023875D01*
X0264730Y0024397D01*
X0263552Y0024932D01*
X0262369Y0025478D01*
X0261181Y0026036D01*
X0259987Y0026605D01*
X0258786Y0027183D01*
X0257582Y0027767D01*
X0256367Y0028359D01*
X0255184Y0028938D01*
X0254629Y0029210D01*
X0254628Y0029211D01*
X0253940Y0029546D01*
X0253407Y0029807D01*
X0253407Y0029808D01*
X0252721Y0030141D01*
X0252182Y0030404D01*
X0252182Y0030406D01*
X0251492Y0030738D01*
X0250955Y0030999D01*
X0250954Y0031000D01*
X0250266Y0031329D01*
X0249725Y0031590D01*
X0249724Y0031591D01*
X0249035Y0031916D01*
X0248493Y0032175D01*
X0248492Y0032177D01*
X0248364Y0032236D01*
X0248348Y0032244D01*
X0247802Y0032497D01*
X0247259Y0032753D01*
X0247258Y0032755D01*
X0247134Y0032812D01*
X0247114Y0032821D01*
X0247114Y0032821D01*
X0246566Y0033070D01*
X0246023Y0033322D01*
X0246022Y0033325D01*
X0245907Y0033376D01*
X0245877Y0033390D01*
X0245877Y0033389D01*
X0245329Y0033633D01*
X0244785Y0033881D01*
X0244784Y0033884D01*
X0244673Y0033932D01*
X0244638Y0033948D01*
X0244638Y0033947D01*
X0244089Y0034186D01*
X0243547Y0034428D01*
X0243545Y0034431D01*
X0243435Y0034477D01*
X0243397Y0034494D01*
X0243396Y0034494D01*
X0242849Y0034725D01*
X0242307Y0034960D01*
X0242305Y0034964D01*
X0242197Y0035008D01*
X0242155Y0035027D01*
X0242153Y0035026D01*
X0241606Y0035250D01*
X0241066Y0035478D01*
X0241065Y0035481D01*
X0240958Y0035523D01*
X0240910Y0035544D01*
X0240909Y0035543D01*
X0240363Y0035758D01*
X0239825Y0035978D01*
X0239823Y0035982D01*
X0239713Y0036024D01*
X0239665Y0036043D01*
X0239663Y0036043D01*
X0239118Y0036249D01*
X0238583Y0036459D01*
X0238581Y0036464D01*
X0238473Y0036503D01*
X0238418Y0036524D01*
X0238416Y0036523D01*
X0237874Y0036719D01*
X0237341Y0036920D01*
X0237339Y0036925D01*
X0237227Y0036964D01*
X0237170Y0036985D01*
X0237168Y0036984D01*
X0236628Y0037168D01*
X0236099Y0037359D01*
X0236096Y0037365D01*
X0235984Y0037401D01*
X0235922Y0037423D01*
X0235919Y0037421D01*
X0235382Y0037594D01*
X0234857Y0037774D01*
X0234855Y0037778D01*
X0234758Y0037808D01*
X0234674Y0037837D01*
X0234669Y0037834D01*
X0234138Y0037995D01*
X0233620Y0038161D01*
X0233618Y0038167D01*
X0233512Y0038196D01*
X0233425Y0038224D01*
X0233420Y0038222D01*
X0232897Y0038369D01*
X0232389Y0038522D01*
X0232385Y0038529D01*
X0232259Y0038562D01*
X0232181Y0038585D01*
X0232176Y0038583D01*
X0231662Y0038716D01*
X0231160Y0038857D01*
X0231156Y0038865D01*
X0231024Y0038895D01*
X0230943Y0038918D01*
X0230938Y0038916D01*
X0230430Y0039035D01*
X0229935Y0039164D01*
X0229930Y0039171D01*
X0229797Y0039199D01*
X0229709Y0039222D01*
X0229703Y0039219D01*
X0229202Y0039324D01*
X0228713Y0039440D01*
X0228708Y0039448D01*
X0228572Y0039473D01*
X0228478Y0039495D01*
X0228472Y0039491D01*
X0227978Y0039582D01*
X0227494Y0039684D01*
X0227487Y0039693D01*
X0227350Y0039714D01*
X0227251Y0039735D01*
X0227245Y0039730D01*
X0226755Y0039806D01*
X0226277Y0039894D01*
X0226269Y0039904D01*
X0226129Y0039922D01*
X0226027Y0039940D01*
X0226020Y0039935D01*
X0225536Y0039996D01*
X0225061Y0040070D01*
X0225053Y0040080D01*
X0224912Y0040093D01*
X0224806Y0040110D01*
X0224798Y0040104D01*
X0224319Y0040149D01*
X0223846Y0040208D01*
X0223837Y0040218D01*
X0223696Y0040227D01*
X0223587Y0040241D01*
X0223579Y0040234D01*
X0223103Y0040264D01*
X0222633Y0040308D01*
X0222623Y0040318D01*
X0222483Y0040322D01*
X0222371Y0040333D01*
X0222362Y0040325D01*
X0221889Y0040338D01*
X0221421Y0040367D01*
X0221410Y0040378D01*
X0221269Y0040376D01*
X0221156Y0040383D01*
X0221147Y0040375D01*
X0220677Y0040371D01*
X0220208Y0040384D01*
X0220197Y0040394D01*
X0220059Y0040388D01*
X0219945Y0040391D01*
X0219935Y0040382D01*
X0219466Y0040360D01*
X0218997Y0040356D01*
X0218985Y0040366D01*
X0218850Y0040355D01*
X0218735Y0040354D01*
X0218726Y0040344D01*
X0218257Y0040304D01*
X0217786Y0040282D01*
X0217773Y0040292D01*
X0217642Y0040276D01*
X0217528Y0040270D01*
X0217519Y0040260D01*
X0217050Y0040201D01*
X0216575Y0040161D01*
X0216562Y0040170D01*
X0216436Y0040149D01*
X0216323Y0040139D01*
X0216314Y0040128D01*
X0215844Y0040050D01*
X0215365Y0039989D01*
X0215352Y0039998D01*
X0215231Y0039972D01*
X0215122Y0039959D01*
X0215113Y0039947D01*
X0214640Y0039848D01*
X0214155Y0039766D01*
X0214142Y0039774D01*
X0214030Y0039745D01*
X0213923Y0039727D01*
X0213915Y0039716D01*
X0213438Y0039594D01*
X0212947Y0039490D01*
X0212934Y0039497D01*
X0212829Y0039465D01*
X0212727Y0039444D01*
X0212720Y0039432D01*
X0212239Y0039287D01*
X0211740Y0039159D01*
X0211728Y0039165D01*
X0211632Y0039132D01*
X0211536Y0039107D01*
X0211529Y0039095D01*
X0211043Y0038925D01*
X0210535Y0038772D01*
X0210524Y0038777D01*
X0210438Y0038743D01*
X0210348Y0038715D01*
X0210342Y0038704D01*
X0209849Y0038508D01*
X0209332Y0038327D01*
X0209322Y0038331D01*
X0209246Y0038297D01*
X0209164Y0038268D01*
X0209159Y0038258D01*
X0208659Y0038033D01*
X0208132Y0037823D01*
X0208123Y0037826D01*
X0208059Y0037794D01*
X0207984Y0037764D01*
X0207980Y0037755D01*
X0207473Y0037500D01*
X0206934Y0037258D01*
X0206926Y0037261D01*
X0206874Y0037232D01*
X0206809Y0037203D01*
X0206806Y0037194D01*
X0206290Y0036908D01*
X0205639Y0036582D01*
X0205629Y0036552D01*
X0205132Y0036267D01*
X0204473Y0035903D01*
X0204469Y0035888D01*
X0199733Y0033180D01*
X0194504Y0030279D01*
X0189422Y0027551D01*
X0184481Y0024990D01*
X0179678Y0022594D01*
X0175011Y0020360D01*
X0170476Y0018283D01*
X0166069Y0016361D01*
X0161787Y0014590D01*
X0157627Y0012966D01*
X0153585Y0011486D01*
X0149657Y0010146D01*
X0145842Y0008944D01*
X0142134Y0007874D01*
X0138530Y0006935D01*
X0135027Y0006121D01*
X0131621Y0005430D01*
X0128309Y0004858D01*
X0125087Y0004401D01*
X0121952Y0004055D01*
X0118899Y0003818D01*
X0115925Y0003685D01*
X0113026Y0003653D01*
X0110199Y0003719D01*
X0107443Y0003879D01*
X0104757Y0004129D01*
X0102138Y0004466D01*
X0099583Y0004885D01*
X0097087Y0005383D01*
X0094646Y0005956D01*
X0092258Y0006600D01*
X0089919Y0007310D01*
X0087624Y0008084D01*
X0085370Y0008917D01*
X0083155Y0009806D01*
X0080974Y0010747D01*
X0078825Y0011735D01*
X0076703Y0012768D01*
X0074606Y0013842D01*
X0072530Y0014952D01*
X0070473Y0016094D01*
X0068430Y0017265D01*
X0066399Y0018461D01*
X0064376Y0019678D01*
X0062359Y0020911D01*
X0060342Y0022157D01*
X0058343Y0023401D01*
X0056400Y0024611D01*
X0057093Y0024179D02*
X0182855Y0024179D01*
X0186000Y0025778D02*
X0054954Y0025778D01*
X0052974Y0027376D02*
X0189085Y0027376D01*
X0192074Y0028975D02*
X0050993Y0028975D01*
X0049013Y0030573D02*
X0195034Y0030573D01*
X0197916Y0032172D02*
X0047032Y0032172D01*
X0045051Y0033770D02*
X0200766Y0033770D01*
X0203561Y0035369D02*
X0043071Y0035369D01*
X0041090Y0036967D02*
X0206396Y0036967D01*
X0209994Y0038566D02*
X0039110Y0038566D01*
X0037129Y0040164D02*
X0216528Y0040164D01*
X0216570Y0040164D02*
X0216617Y0040164D01*
X0224197Y0040164D02*
X0233905Y0040164D01*
X0233755Y0039754D02*
X0234246Y0038703D01*
X0241070Y0036219D01*
X0242121Y0036709D01*
X0244268Y0042608D01*
X0243778Y0043659D01*
X0236954Y0046143D01*
X0235903Y0045653D01*
X0233755Y0039754D01*
X0234622Y0038566D02*
X0232245Y0038566D01*
X0237217Y0036967D02*
X0239014Y0036967D01*
X0241324Y0035369D02*
X0303910Y0035369D01*
X0304562Y0036967D02*
X0242215Y0036967D01*
X0242797Y0038566D02*
X0305159Y0038566D01*
X0305710Y0040164D02*
X0243378Y0040164D01*
X0243960Y0041763D02*
X0306220Y0041763D01*
X0306695Y0043361D02*
X0243917Y0043361D01*
X0240205Y0044960D02*
X0307139Y0044960D01*
X0307556Y0046558D02*
X0030703Y0046558D01*
X0031977Y0044960D02*
X0235650Y0044960D01*
X0235068Y0043361D02*
X0033251Y0043361D01*
X0035148Y0041763D02*
X0234487Y0041763D01*
X0245028Y0033770D02*
X0303196Y0033770D01*
X0302409Y0032172D02*
X0248499Y0032172D01*
X0248348Y0032244D02*
X0248348Y0032244D01*
X0251834Y0030573D02*
X0301536Y0030573D01*
X0300561Y0028975D02*
X0255109Y0028975D01*
X0258388Y0027376D02*
X0299433Y0027376D01*
X0298137Y0025778D02*
X0261732Y0025778D01*
X0265221Y0024179D02*
X0296578Y0024179D01*
X0294604Y0022581D02*
X0268989Y0022581D01*
X0273392Y0020982D02*
X0291873Y0020982D01*
X0286431Y0019384D02*
X0280346Y0019384D01*
X0307939Y0048157D02*
X0212980Y0048157D01*
X0212709Y0047414D02*
X0213505Y0049600D01*
X0215040Y0049600D01*
X0215214Y0049426D01*
X0216243Y0049000D01*
X0217357Y0049000D01*
X0218386Y0049426D01*
X0219174Y0050214D01*
X0219600Y0051243D01*
X0219600Y0052357D01*
X0219174Y0053386D01*
X0218386Y0054174D01*
X0217357Y0054600D01*
X0216243Y0054600D01*
X0215214Y0054174D01*
X0215040Y0054000D01*
X0214536Y0054000D01*
X0214366Y0054364D01*
X0207542Y0056848D01*
X0206491Y0056358D01*
X0204344Y0050459D01*
X0204834Y0049408D01*
X0211658Y0046924D01*
X0212709Y0047414D01*
X0208270Y0048157D02*
X0029429Y0048157D01*
X0028155Y0049755D02*
X0204672Y0049755D01*
X0204670Y0051354D02*
X0026881Y0051354D01*
X0025607Y0052952D02*
X0205251Y0052952D01*
X0205833Y0054551D02*
X0024333Y0054551D01*
X0023059Y0056149D02*
X0206415Y0056149D01*
X0209462Y0056149D02*
X0239933Y0056149D01*
X0239815Y0056402D02*
X0240305Y0055351D01*
X0247129Y0052867D01*
X0248180Y0053357D01*
X0250327Y0059256D01*
X0249837Y0060308D01*
X0243013Y0062791D01*
X0241962Y0062301D01*
X0239815Y0056402D01*
X0240305Y0057748D02*
X0089209Y0057748D01*
X0089022Y0057424D02*
X0090328Y0059686D01*
X0087054Y0061577D01*
X0087435Y0062237D01*
X0086775Y0062618D01*
X0088862Y0066233D01*
X0086941Y0067342D01*
X0086484Y0067465D01*
X0086010Y0067465D01*
X0085552Y0067342D01*
X0085141Y0067105D01*
X0084806Y0066770D01*
X0083500Y0064508D01*
X0086775Y0062618D01*
X0086394Y0061958D01*
X0083119Y0063848D01*
X0081813Y0061586D01*
X0081691Y0061129D01*
X0081691Y0060655D01*
X0081813Y0060197D01*
X0082050Y0059786D01*
X0082385Y0059451D01*
X0084306Y0058342D01*
X0086394Y0061958D01*
X0087054Y0061577D01*
X0084966Y0057961D01*
X0086887Y0056852D01*
X0087345Y0056729D01*
X0087819Y0056729D01*
X0088277Y0056852D01*
X0088687Y0057089D01*
X0089022Y0057424D01*
X0090132Y0059346D02*
X0240887Y0059346D01*
X0241468Y0060945D02*
X0091055Y0060945D01*
X0090709Y0060346D02*
X0092015Y0062608D01*
X0092138Y0063066D01*
X0092138Y0063540D01*
X0092015Y0063998D01*
X0091778Y0064408D01*
X0091443Y0064743D01*
X0089522Y0065852D01*
X0087435Y0062237D01*
X0090709Y0060346D01*
X0089672Y0060945D02*
X0088148Y0060945D01*
X0086689Y0060945D02*
X0085809Y0060945D01*
X0085766Y0059346D02*
X0084886Y0059346D01*
X0085336Y0057748D02*
X0021785Y0057748D01*
X0020511Y0059346D02*
X0082567Y0059346D01*
X0081691Y0060945D02*
X0019237Y0060945D01*
X0017963Y0062543D02*
X0082366Y0062543D01*
X0084135Y0064142D02*
X0078801Y0064142D01*
X0078276Y0063233D02*
X0077156Y0062933D01*
X0072877Y0065403D01*
X0060080Y0065403D01*
X0059124Y0065799D01*
X0035697Y0089226D01*
X0035214Y0089426D01*
X0034426Y0090214D01*
X0034000Y0091243D01*
X0034000Y0092357D01*
X0034426Y0093386D01*
X0035214Y0094174D01*
X0036243Y0094600D01*
X0037357Y0094600D01*
X0038386Y0094174D01*
X0039174Y0093386D01*
X0039374Y0092903D01*
X0061674Y0070603D01*
X0073843Y0070603D01*
X0075095Y0072773D01*
X0076216Y0073073D01*
X0081312Y0070131D01*
X0081612Y0069011D01*
X0078276Y0063233D01*
X0075061Y0064142D02*
X0016689Y0064142D01*
X0015415Y0065740D02*
X0059265Y0065740D01*
X0057584Y0067339D02*
X0014424Y0067339D01*
X0013475Y0068937D02*
X0055986Y0068937D01*
X0054387Y0070536D02*
X0012559Y0070536D01*
X0011678Y0072134D02*
X0052789Y0072134D01*
X0051190Y0073733D02*
X0010832Y0073733D01*
X0010022Y0075332D02*
X0049592Y0075332D01*
X0047993Y0076930D02*
X0009258Y0076930D01*
X0008533Y0078529D02*
X0046395Y0078529D01*
X0044796Y0080127D02*
X0007848Y0080127D01*
X0007205Y0081726D02*
X0043197Y0081726D01*
X0041599Y0083324D02*
X0006606Y0083324D01*
X0006052Y0084923D02*
X0040000Y0084923D01*
X0038402Y0086521D02*
X0005546Y0086521D01*
X0005098Y0088120D02*
X0036803Y0088120D01*
X0034922Y0089718D02*
X0004703Y0089718D01*
X0004366Y0091317D02*
X0034000Y0091317D01*
X0034231Y0092915D02*
X0004088Y0092915D01*
X0003875Y0094514D02*
X0036035Y0094514D01*
X0037565Y0094514D02*
X0038486Y0094514D01*
X0039369Y0092915D02*
X0040163Y0092915D01*
X0040960Y0091317D02*
X0042075Y0091317D01*
X0042559Y0089718D02*
X0044378Y0089718D01*
X0044157Y0088120D02*
X0047158Y0088120D01*
X0045756Y0086521D02*
X0051430Y0086521D01*
X0047354Y0084923D02*
X0153147Y0084923D01*
X0153214Y0084166D02*
X0153020Y0086375D01*
X0153102Y0086842D01*
X0153303Y0087272D01*
X0153607Y0087635D01*
X0153996Y0087906D01*
X0154441Y0088069D01*
X0157043Y0088296D01*
X0157372Y0084530D01*
X0158132Y0084596D01*
X0162291Y0084960D01*
X0162097Y0087169D01*
X0161935Y0087615D01*
X0161663Y0088003D01*
X0161300Y0088308D01*
X0160871Y0088508D01*
X0160404Y0088590D01*
X0157802Y0088363D01*
X0158132Y0084596D01*
X0158198Y0083837D01*
X0162357Y0084200D01*
X0162550Y0081991D01*
X0162468Y0081524D01*
X0162268Y0081095D01*
X0161963Y0080731D01*
X0161575Y0080460D01*
X0161130Y0080298D01*
X0158528Y0080070D01*
X0158198Y0083837D01*
X0157439Y0083770D01*
X0157768Y0080003D01*
X0155167Y0079776D01*
X0154700Y0079858D01*
X0154270Y0080058D01*
X0153907Y0080363D01*
X0153635Y0080751D01*
X0153473Y0081197D01*
X0153280Y0083406D01*
X0157439Y0083770D01*
X0157372Y0084529D01*
X0153214Y0084166D01*
X0153287Y0083324D02*
X0048953Y0083324D01*
X0050551Y0081726D02*
X0153427Y0081726D01*
X0154188Y0080127D02*
X0052150Y0080127D01*
X0053748Y0078529D02*
X0161815Y0078529D01*
X0163414Y0080127D02*
X0159181Y0080127D01*
X0158523Y0080127D02*
X0157758Y0080127D01*
X0157618Y0081726D02*
X0158383Y0081726D01*
X0158243Y0083324D02*
X0157478Y0083324D01*
X0157338Y0084923D02*
X0158103Y0084923D01*
X0157963Y0086521D02*
X0157198Y0086521D01*
X0157058Y0088120D02*
X0157823Y0088120D01*
X0155025Y0088120D02*
X0063894Y0088120D01*
X0067484Y0089718D02*
X0173005Y0089718D01*
X0174603Y0091317D02*
X0070440Y0091317D01*
X0073097Y0092915D02*
X0176202Y0092915D01*
X0177800Y0094514D02*
X0075549Y0094514D01*
X0077858Y0096112D02*
X0179054Y0096112D01*
X0179000Y0096243D02*
X0179155Y0095869D01*
X0159544Y0076257D01*
X0155164Y0075874D01*
X0154418Y0074986D01*
X0154931Y0069124D01*
X0155819Y0068378D01*
X0162466Y0068960D01*
X0163211Y0069848D01*
X0162901Y0073392D01*
X0184000Y0094491D01*
X0184000Y0095040D01*
X0184174Y0095214D01*
X0184600Y0096243D01*
X0184600Y0097357D01*
X0184174Y0098386D01*
X0183386Y0099174D01*
X0182357Y0099600D01*
X0181243Y0099600D01*
X0180214Y0099174D01*
X0179426Y0098386D01*
X0179000Y0097357D01*
X0179000Y0096243D01*
X0179147Y0097711D02*
X0080048Y0097711D01*
X0082154Y0099309D02*
X0180541Y0099309D01*
X0183059Y0099309D02*
X0304862Y0099309D01*
X0305014Y0097711D02*
X0184453Y0097711D01*
X0184546Y0096112D02*
X0305166Y0096112D01*
X0305318Y0094514D02*
X0184000Y0094514D01*
X0182424Y0092915D02*
X0305470Y0092915D01*
X0305622Y0091317D02*
X0180826Y0091317D01*
X0179227Y0089718D02*
X0305774Y0089718D01*
X0305926Y0088120D02*
X0177629Y0088120D01*
X0176030Y0086521D02*
X0306078Y0086521D01*
X0306231Y0084923D02*
X0174432Y0084923D01*
X0172833Y0083324D02*
X0306111Y0083324D01*
X0306150Y0081726D02*
X0171235Y0081726D01*
X0169636Y0080127D02*
X0306595Y0080127D01*
X0307003Y0078529D02*
X0168038Y0078529D01*
X0166439Y0076930D02*
X0307411Y0076930D01*
X0307818Y0075332D02*
X0164841Y0075332D01*
X0163242Y0073733D02*
X0213230Y0073733D01*
X0213122Y0073714D02*
X0212692Y0073514D01*
X0212329Y0073209D01*
X0212057Y0072821D01*
X0211265Y0070644D01*
X0215373Y0069149D01*
X0216700Y0072794D01*
X0214061Y0073755D01*
X0213588Y0073796D01*
X0213122Y0073714D01*
X0214121Y0073733D02*
X0308226Y0073733D01*
X0308634Y0072134D02*
X0218513Y0072134D01*
X0217601Y0072466D02*
X0220240Y0071506D01*
X0220628Y0071234D01*
X0220933Y0070871D01*
X0221133Y0070441D01*
X0221216Y0069974D01*
X0221174Y0069502D01*
X0220382Y0067326D01*
X0216274Y0068821D01*
X0215373Y0069149D01*
X0215045Y0068248D01*
X0210937Y0069743D01*
X0210145Y0067566D01*
X0210103Y0067094D01*
X0210186Y0066627D01*
X0210386Y0066197D01*
X0210691Y0065834D01*
X0211079Y0065563D01*
X0213718Y0064602D01*
X0215045Y0068247D01*
X0215946Y0067919D01*
X0214619Y0064274D01*
X0217258Y0063313D01*
X0217731Y0063272D01*
X0218197Y0063354D01*
X0218627Y0063555D01*
X0218990Y0063859D01*
X0219262Y0064248D01*
X0220054Y0066424D01*
X0215946Y0067919D01*
X0216274Y0068821D01*
X0217601Y0072466D01*
X0217480Y0072134D02*
X0216460Y0072134D01*
X0216898Y0070536D02*
X0215878Y0070536D01*
X0215954Y0068937D02*
X0216317Y0068937D01*
X0215296Y0068937D02*
X0213149Y0068937D01*
X0214714Y0067339D02*
X0215735Y0067339D01*
X0215153Y0065740D02*
X0214132Y0065740D01*
X0214982Y0064142D02*
X0091932Y0064142D01*
X0091978Y0062543D02*
X0242481Y0062543D01*
X0243694Y0062543D02*
X0309414Y0062543D01*
X0309506Y0060945D02*
X0248086Y0060945D01*
X0250286Y0059346D02*
X0309511Y0059346D01*
X0309293Y0057748D02*
X0249778Y0057748D01*
X0249197Y0056149D02*
X0309075Y0056149D01*
X0308857Y0054551D02*
X0248615Y0054551D01*
X0247312Y0052952D02*
X0308638Y0052952D01*
X0308420Y0051354D02*
X0219600Y0051354D01*
X0219353Y0052952D02*
X0246895Y0052952D01*
X0242503Y0054551D02*
X0217476Y0054551D01*
X0216124Y0054551D02*
X0213854Y0054551D01*
X0216800Y0051800D02*
X0209686Y0051800D01*
X0209600Y0051886D01*
X0218715Y0049755D02*
X0308202Y0049755D01*
X0309322Y0064142D02*
X0219188Y0064142D01*
X0219805Y0065740D02*
X0309230Y0065740D01*
X0309139Y0067339D02*
X0220387Y0067339D01*
X0220345Y0067339D02*
X0217541Y0067339D01*
X0220969Y0068937D02*
X0309047Y0068937D01*
X0308955Y0070536D02*
X0221089Y0070536D01*
X0211807Y0072134D02*
X0163011Y0072134D01*
X0163151Y0070536D02*
X0211561Y0070536D01*
X0210644Y0068937D02*
X0162210Y0068937D01*
X0158815Y0072417D02*
X0181800Y0095402D01*
X0181800Y0096800D01*
X0171406Y0088120D02*
X0161524Y0088120D01*
X0162154Y0086521D02*
X0169808Y0086521D01*
X0168209Y0084923D02*
X0161866Y0084923D01*
X0162434Y0083324D02*
X0166611Y0083324D01*
X0165012Y0081726D02*
X0162504Y0081726D01*
X0160217Y0076930D02*
X0055347Y0076930D01*
X0056945Y0075332D02*
X0154708Y0075332D01*
X0154528Y0073733D02*
X0058544Y0073733D01*
X0060142Y0072134D02*
X0074727Y0072134D01*
X0077841Y0072134D02*
X0154668Y0072134D01*
X0154807Y0070536D02*
X0080610Y0070536D01*
X0081570Y0068937D02*
X0155153Y0068937D01*
X0153046Y0086521D02*
X0058472Y0086521D01*
X0036809Y0096112D02*
X0003732Y0096112D01*
X0003663Y0097711D02*
X0035132Y0097711D01*
X0033455Y0099309D02*
X0003676Y0099309D01*
X0003777Y0100908D02*
X0031779Y0100908D01*
X0030102Y0102506D02*
X0003975Y0102506D01*
X0004279Y0104105D02*
X0028425Y0104105D01*
X0026786Y0105703D02*
X0004701Y0105703D01*
X0005253Y0107302D02*
X0025177Y0107302D01*
X0023505Y0108900D02*
X0005947Y0108900D01*
X0006882Y0110499D02*
X0021682Y0110499D01*
X0019540Y0112097D02*
X0008193Y0112097D01*
X0010267Y0113696D02*
X0016521Y0113696D01*
X0084204Y0100908D02*
X0304710Y0100908D01*
X0304471Y0102506D02*
X0267132Y0102506D01*
X0267043Y0102482D02*
X0267501Y0102605D01*
X0267911Y0102842D01*
X0268246Y0103177D01*
X0268483Y0103587D01*
X0268606Y0104045D01*
X0268606Y0106263D01*
X0264431Y0106263D01*
X0264431Y0102482D01*
X0267043Y0102482D01*
X0268606Y0104105D02*
X0304184Y0104105D01*
X0304505Y0105703D02*
X0268606Y0105703D01*
X0268606Y0107026D02*
X0264431Y0107026D01*
X0263669Y0107026D01*
X0263669Y0110807D01*
X0261057Y0110807D01*
X0260599Y0110684D01*
X0260189Y0110447D01*
X0259854Y0110112D01*
X0259617Y0109701D01*
X0259494Y0109244D01*
X0259494Y0107026D01*
X0263669Y0107026D01*
X0263669Y0106263D01*
X0264431Y0106263D01*
X0264431Y0107026D01*
X0264431Y0110807D01*
X0267043Y0110807D01*
X0267501Y0110684D01*
X0267911Y0110447D01*
X0268246Y0110112D01*
X0268483Y0109701D01*
X0268606Y0109244D01*
X0268606Y0107026D01*
X0268606Y0107302D02*
X0330452Y0107302D01*
X0331864Y0108900D02*
X0268606Y0108900D01*
X0267822Y0110499D02*
X0333116Y0110499D01*
X0334245Y0112097D02*
X0097872Y0112097D01*
X0095906Y0110499D02*
X0260278Y0110499D01*
X0259494Y0108900D02*
X0093961Y0108900D01*
X0092027Y0107302D02*
X0259494Y0107302D01*
X0259494Y0106263D02*
X0259494Y0104045D01*
X0259617Y0103587D01*
X0259854Y0103177D01*
X0260189Y0102842D01*
X0260599Y0102605D01*
X0261057Y0102482D01*
X0263669Y0102482D01*
X0263669Y0106263D01*
X0259494Y0106263D01*
X0259494Y0105703D02*
X0090094Y0105703D01*
X0090987Y0106441D02*
X0090987Y0106441D01*
X0088156Y0104105D02*
X0259494Y0104105D01*
X0260968Y0102506D02*
X0086191Y0102506D01*
X0099870Y0113696D02*
X0335285Y0113696D01*
X0336256Y0115294D02*
X0267987Y0115294D01*
X0268206Y0115513D02*
X0268206Y0118934D01*
X0273273Y0124001D01*
X0274004Y0124733D01*
X0274400Y0125688D01*
X0274400Y0125760D01*
X0274600Y0126243D01*
X0274600Y0127357D01*
X0274174Y0128386D01*
X0273386Y0129174D01*
X0272357Y0129600D01*
X0271243Y0129600D01*
X0270214Y0129174D01*
X0269426Y0128386D01*
X0269000Y0127357D01*
X0269000Y0127082D01*
X0264135Y0122218D01*
X0260714Y0122218D01*
X0259894Y0121398D01*
X0259894Y0115513D01*
X0260714Y0114693D01*
X0267386Y0114693D01*
X0268206Y0115513D01*
X0268206Y0116893D02*
X0337163Y0116893D01*
X0338025Y0118491D02*
X0268206Y0118491D01*
X0269361Y0120090D02*
X0338842Y0120090D01*
X0339624Y0121688D02*
X0270960Y0121688D01*
X0272558Y0123287D02*
X0340378Y0123287D01*
X0341102Y0124885D02*
X0274067Y0124885D01*
X0274600Y0126484D02*
X0309050Y0126484D01*
X0306208Y0128082D02*
X0274300Y0128082D01*
X0269300Y0128082D02*
X0122582Y0128082D01*
X0125535Y0129681D02*
X0304232Y0129681D01*
X0302516Y0131279D02*
X0128411Y0131279D01*
X0131224Y0132878D02*
X0301128Y0132878D01*
X0300075Y0134476D02*
X0133972Y0134476D01*
X0136686Y0136075D02*
X0299204Y0136075D01*
X0298760Y0137673D02*
X0139364Y0137673D01*
X0142011Y0139272D02*
X0298648Y0139272D01*
X0298593Y0140870D02*
X0144632Y0140870D01*
X0147231Y0142469D02*
X0298583Y0142469D01*
X0298569Y0144068D02*
X0149811Y0144068D01*
X0152368Y0145666D02*
X0298395Y0145666D01*
X0298068Y0147265D02*
X0154918Y0147265D01*
X0157461Y0148863D02*
X0297702Y0148863D01*
X0296961Y0150462D02*
X0159990Y0150462D01*
X0162515Y0152060D02*
X0296220Y0152060D01*
X0295992Y0153659D02*
X0165036Y0153659D01*
X0167371Y0155139D02*
X0167371Y0155139D01*
X0167557Y0155257D02*
X0296109Y0155257D01*
X0296158Y0156856D02*
X0170077Y0156856D01*
X0172600Y0158454D02*
X0296145Y0158454D01*
X0296072Y0160053D02*
X0175126Y0160053D01*
X0177659Y0161651D02*
X0295935Y0161651D01*
X0295745Y0163250D02*
X0180197Y0163250D01*
X0182748Y0164848D02*
X0295502Y0164848D01*
X0295205Y0166447D02*
X0185311Y0166447D01*
X0187887Y0168045D02*
X0294858Y0168045D01*
X0294464Y0169644D02*
X0190477Y0169644D01*
X0193089Y0171242D02*
X0294028Y0171242D01*
X0293550Y0172841D02*
X0195722Y0172841D01*
X0198374Y0174439D02*
X0293032Y0174439D01*
X0292478Y0176038D02*
X0201049Y0176038D01*
X0203751Y0177636D02*
X0291889Y0177636D01*
X0291266Y0179235D02*
X0206489Y0179235D01*
X0209271Y0180833D02*
X0290613Y0180833D01*
X0289925Y0182432D02*
X0212098Y0182432D01*
X0214979Y0184030D02*
X0289208Y0184030D01*
X0288466Y0185629D02*
X0217925Y0185629D01*
X0220948Y0187227D02*
X0287698Y0187227D01*
X0286888Y0188826D02*
X0224065Y0188826D01*
X0227298Y0190424D02*
X0285930Y0190424D01*
X0284971Y0192023D02*
X0230674Y0192023D01*
X0234233Y0193621D02*
X0283600Y0193621D01*
X0282120Y0195220D02*
X0238028Y0195220D01*
X0242224Y0196818D02*
X0280056Y0196818D01*
X0277639Y0198417D02*
X0246948Y0198417D01*
X0252863Y0200015D02*
X0274190Y0200015D01*
X0329315Y0190424D02*
X0346471Y0190424D01*
X0346932Y0188826D02*
X0329862Y0188826D01*
X0330391Y0187227D02*
X0347373Y0187227D01*
X0347795Y0185629D02*
X0330900Y0185629D01*
X0331381Y0184030D02*
X0348193Y0184030D01*
X0348566Y0182432D02*
X0331843Y0182432D01*
X0332281Y0180833D02*
X0348919Y0180833D01*
X0349253Y0179235D02*
X0332688Y0179235D01*
X0333070Y0177636D02*
X0349555Y0177636D01*
X0349833Y0176038D02*
X0333423Y0176038D01*
X0333747Y0174439D02*
X0350091Y0174439D01*
X0350315Y0172841D02*
X0334038Y0172841D01*
X0334293Y0171242D02*
X0350509Y0171242D01*
X0350680Y0169644D02*
X0334508Y0169644D01*
X0334678Y0168045D02*
X0350810Y0168045D01*
X0350905Y0166447D02*
X0334796Y0166447D01*
X0334855Y0164848D02*
X0350973Y0164848D01*
X0350988Y0163250D02*
X0334843Y0163250D01*
X0334796Y0161651D02*
X0350962Y0161651D01*
X0350899Y0160053D02*
X0334387Y0160053D01*
X0333978Y0158454D02*
X0350772Y0158454D01*
X0350391Y0156856D02*
X0333569Y0156856D01*
X0333160Y0155257D02*
X0349943Y0155257D01*
X0349496Y0153659D02*
X0332751Y0153659D01*
X0332342Y0152060D02*
X0349048Y0152060D01*
X0348600Y0150462D02*
X0331933Y0150462D01*
X0331524Y0148863D02*
X0348153Y0148863D01*
X0347705Y0147265D02*
X0331114Y0147265D01*
X0330705Y0145666D02*
X0347257Y0145666D01*
X0346809Y0144068D02*
X0330296Y0144068D01*
X0329887Y0142469D02*
X0346362Y0142469D01*
X0345914Y0140870D02*
X0329478Y0140870D01*
X0328761Y0139272D02*
X0345466Y0139272D01*
X0345019Y0137673D02*
X0328022Y0137673D01*
X0327220Y0136075D02*
X0344571Y0136075D01*
X0344123Y0134476D02*
X0326348Y0134476D01*
X0325404Y0132878D02*
X0343675Y0132878D01*
X0343228Y0131279D02*
X0324361Y0131279D01*
X0324064Y0130845D02*
X0324064Y0130845D01*
X0323194Y0129681D02*
X0342780Y0129681D01*
X0342332Y0128082D02*
X0321807Y0128082D01*
X0319969Y0126484D02*
X0341803Y0126484D01*
X0328786Y0105703D02*
X0307661Y0105703D01*
X0310828Y0104105D02*
X0326626Y0104105D01*
X0322895Y0102506D02*
X0315971Y0102506D01*
X0268401Y0126484D02*
X0119536Y0126484D01*
X0116385Y0124885D02*
X0266803Y0124885D01*
X0265204Y0123287D02*
X0113507Y0123287D01*
X0110901Y0121688D02*
X0260185Y0121688D01*
X0259894Y0120090D02*
X0108482Y0120090D01*
X0106195Y0118491D02*
X0259894Y0118491D01*
X0259894Y0116893D02*
X0104016Y0116893D01*
X0101913Y0115294D02*
X0260113Y0115294D01*
X0263669Y0110499D02*
X0264431Y0110499D01*
X0264431Y0108900D02*
X0263669Y0108900D01*
X0263669Y0107302D02*
X0264431Y0107302D01*
X0264431Y0105703D02*
X0263669Y0105703D01*
X0263669Y0104105D02*
X0264431Y0104105D01*
X0264431Y0102506D02*
X0263669Y0102506D01*
X0210125Y0067339D02*
X0086947Y0067339D01*
X0085546Y0067339D02*
X0080647Y0067339D01*
X0079724Y0065740D02*
X0084212Y0065740D01*
X0087655Y0064142D02*
X0088535Y0064142D01*
X0088578Y0065740D02*
X0089458Y0065740D01*
X0089716Y0065740D02*
X0210825Y0065740D01*
X0179650Y0022581D02*
X0059661Y0022581D01*
X0062243Y0020982D02*
X0176311Y0020982D01*
X0172879Y0019384D02*
X0064865Y0019384D01*
X0067547Y0017785D02*
X0169334Y0017785D01*
X0165647Y0016187D02*
X0070311Y0016187D01*
X0073210Y0014588D02*
X0161783Y0014588D01*
X0157687Y0012990D02*
X0076271Y0012990D01*
X0079573Y0011391D02*
X0153306Y0011391D01*
X0148534Y0009793D02*
X0083188Y0009793D01*
X0087326Y0008194D02*
X0143242Y0008194D01*
X0137070Y0006596D02*
X0092273Y0006596D01*
X0099023Y0004997D02*
X0129116Y0004997D01*
X0087612Y0062543D02*
X0086904Y0062543D01*
X0086732Y0062543D02*
X0085379Y0062543D01*
X0330366Y0192023D02*
X0345988Y0192023D01*
X0345484Y0193621D02*
X0332310Y0193621D01*
X0334253Y0195220D02*
X0344958Y0195220D01*
X0344410Y0196818D02*
X0336197Y0196818D01*
X0338140Y0198417D02*
X0343835Y0198417D01*
X0343204Y0200015D02*
X0340084Y0200015D01*
M02*
