G75*
%MOIN*%
%OFA0B0*%
%FSLAX25Y25*%
%IPPOS*%
%LPD*%
%AMOC8*
5,1,8,0,0,1.08239X$1,22.5*
%
%ADD10C,0.00098*%
D10*
X0033073Y0042338D02*
X0056088Y0023946D01*
X0058089Y0022713D01*
X0060089Y0021481D01*
X0062091Y0020256D01*
X0064098Y0019041D01*
X0066114Y0017840D01*
X0068141Y0016659D01*
X0070184Y0015499D01*
X0072245Y0014366D01*
X0074328Y0013264D01*
X0076435Y0012196D01*
X0078570Y0011166D01*
X0080736Y0010180D01*
X0082937Y0009240D01*
X0085176Y0008351D01*
X0087455Y0007516D01*
X0089778Y0006740D01*
X0092149Y0006028D01*
X0094571Y0005381D01*
X0097046Y0004806D01*
X0099578Y0004306D01*
X0102171Y0003885D01*
X0104827Y0003546D01*
X0107550Y0003295D01*
X0110342Y0003135D01*
X0113205Y0003069D01*
X0116137Y0003101D01*
X0119143Y0003234D01*
X0122225Y0003471D01*
X0125387Y0003816D01*
X0128632Y0004272D01*
X0131965Y0004842D01*
X0135388Y0005530D01*
X0138905Y0006339D01*
X0142520Y0007272D01*
X0146235Y0008333D01*
X0150056Y0009525D01*
X0153983Y0010851D01*
X0158023Y0012316D01*
X0162177Y0013921D01*
X0166450Y0015671D01*
X0170844Y0017569D01*
X0175364Y0019618D01*
X0180012Y0021821D01*
X0184793Y0024183D01*
X0189709Y0026705D01*
X0194765Y0029392D01*
X0199963Y0032247D01*
X0205307Y0035274D01*
X0206410Y0035878D01*
X0207513Y0036424D01*
X0208617Y0036915D01*
X0209722Y0037352D01*
X0210830Y0037735D01*
X0211939Y0038067D01*
X0213050Y0038349D01*
X0214165Y0038582D01*
X0215282Y0038767D01*
X0216402Y0038907D01*
X0217525Y0039002D01*
X0218653Y0039054D01*
X0219784Y0039063D01*
X0220920Y0039033D01*
X0222061Y0038964D01*
X0223206Y0038857D01*
X0224357Y0038714D01*
X0225513Y0038536D01*
X0226675Y0038324D01*
X0227844Y0038081D01*
X0229018Y0037807D01*
X0230200Y0037504D01*
X0231388Y0037173D01*
X0232584Y0036816D01*
X0233784Y0036434D01*
X0234988Y0036026D01*
X0236193Y0035596D01*
X0237401Y0035144D01*
X0238610Y0034672D01*
X0239820Y0034182D01*
X0241032Y0033675D01*
X0242244Y0033154D01*
X0243457Y0032619D01*
X0244670Y0032072D01*
X0245882Y0031515D01*
X0247094Y0030950D01*
X0248306Y0030378D01*
X0249516Y0029800D01*
X0250725Y0029219D01*
X0251932Y0028636D01*
X0253137Y0028053D01*
X0254339Y0027470D01*
X0255539Y0026891D01*
X0256736Y0026316D01*
X0257930Y0025747D01*
X0259121Y0025186D01*
X0260307Y0024634D01*
X0261489Y0024093D01*
X0262669Y0023563D01*
X0263848Y0023045D01*
X0265026Y0022541D01*
X0266203Y0022053D01*
X0267379Y0021584D01*
X0268552Y0021137D01*
X0269724Y0020713D01*
X0270894Y0020315D01*
X0272062Y0019945D01*
X0273226Y0019606D01*
X0274388Y0019301D01*
X0275547Y0019031D01*
X0276703Y0018799D01*
X0277855Y0018607D01*
X0279003Y0018458D01*
X0280147Y0018355D01*
X0281286Y0018299D01*
X0282422Y0018292D01*
X0283552Y0018339D01*
X0284678Y0018440D01*
X0285798Y0018598D01*
X0286912Y0018815D01*
X0288021Y0019095D01*
X0289124Y0019439D01*
X0290211Y0019846D01*
X0291270Y0020317D01*
X0292303Y0020852D01*
X0293309Y0021451D01*
X0294289Y0022116D01*
X0295242Y0022849D01*
X0296170Y0023649D01*
X0297071Y0024517D01*
X0297947Y0025456D01*
X0298797Y0026466D01*
X0299621Y0027547D01*
X0300421Y0028702D01*
X0301195Y0029930D01*
X0301944Y0031233D01*
X0302669Y0032612D01*
X0303369Y0034068D01*
X0304044Y0035602D01*
X0304696Y0037215D01*
X0305323Y0038907D01*
X0305927Y0040681D01*
X0306506Y0042537D01*
X0307062Y0044475D01*
X0307595Y0046498D01*
X0308105Y0048605D01*
X0309654Y0059847D01*
X0308997Y0071159D01*
X0306153Y0082195D01*
X0306362Y0084387D01*
X0304765Y0101017D01*
X0304258Y0103812D01*
X0306427Y0102478D01*
X0310874Y0100641D01*
X0315634Y0099611D01*
X0318385Y0099526D01*
X0321105Y0099911D01*
X0323693Y0100752D01*
X0326055Y0102019D01*
X0326829Y0102570D01*
X0327590Y0103167D01*
X0328339Y0103809D01*
X0329076Y0104494D01*
X0329800Y0105222D01*
X0330514Y0105991D01*
X0331216Y0106799D01*
X0331907Y0107645D01*
X0332587Y0108528D01*
X0333257Y0109446D01*
X0333916Y0110397D01*
X0334566Y0111382D01*
X0335206Y0112397D01*
X0335837Y0113442D01*
X0336458Y0114515D01*
X0337071Y0115615D01*
X0337675Y0116740D01*
X0338271Y0117890D01*
X0338859Y0119062D01*
X0339439Y0120256D01*
X0340012Y0121469D01*
X0340577Y0122701D01*
X0341136Y0123950D01*
X0341688Y0125214D01*
X0350394Y0155991D01*
X0350581Y0158346D01*
X0350659Y0160737D01*
X0350635Y0163152D01*
X0350519Y0165580D01*
X0350321Y0168007D01*
X0350048Y0170421D01*
X0349711Y0172812D01*
X0349318Y0175166D01*
X0348878Y0177471D01*
X0348401Y0179715D01*
X0347895Y0181886D01*
X0347371Y0183973D01*
X0346835Y0185962D01*
X0346299Y0187841D01*
X0345771Y0189600D01*
X0345259Y0191224D01*
X0344774Y0192703D01*
X0344324Y0194024D01*
X0343918Y0195176D01*
X0343566Y0196145D01*
X0343276Y0196919D01*
X0343058Y0197488D01*
X0342920Y0197838D01*
X0342872Y0197957D01*
X0342588Y0198499D01*
X0342191Y0198981D01*
X0341696Y0199384D01*
X0341124Y0199693D01*
X0340495Y0199895D01*
X0339834Y0199983D01*
X0339166Y0199954D01*
X0338518Y0199808D01*
X0337914Y0199552D01*
X0337378Y0199195D01*
X0326610Y0190426D01*
X0326165Y0189985D01*
X0325824Y0189475D01*
X0325600Y0188914D01*
X0325501Y0188326D01*
X0325532Y0187731D01*
X0325691Y0187154D01*
X0325723Y0187069D01*
X0325813Y0186820D01*
X0325958Y0186417D01*
X0326150Y0185870D01*
X0326383Y0185189D01*
X0326652Y0184384D01*
X0326951Y0183463D01*
X0327274Y0182438D01*
X0327615Y0181317D01*
X0327968Y0180111D01*
X0328328Y0178829D01*
X0328687Y0177481D01*
X0329042Y0176078D01*
X0329385Y0174628D01*
X0329710Y0173141D01*
X0330013Y0171628D01*
X0330286Y0170097D01*
X0330524Y0168560D01*
X0330722Y0167025D01*
X0330873Y0165503D01*
X0330971Y0164002D01*
X0331011Y0162534D01*
X0330986Y0161107D01*
X0330891Y0159732D01*
X0325865Y0140285D01*
X0325534Y0139490D01*
X0325194Y0138707D01*
X0324844Y0137936D01*
X0324486Y0137179D01*
X0324121Y0136437D01*
X0323749Y0135712D01*
X0323373Y0135004D01*
X0322992Y0134315D01*
X0322609Y0133646D01*
X0322222Y0132999D01*
X0321835Y0132374D01*
X0321447Y0131773D01*
X0321060Y0131197D01*
X0320675Y0130647D01*
X0320292Y0130124D01*
X0319912Y0129631D01*
X0319538Y0129167D01*
X0319169Y0128735D01*
X0318806Y0128334D01*
X0318451Y0127968D01*
X0318104Y0127636D01*
X0317767Y0127341D01*
X0317440Y0127082D01*
X0317124Y0126863D01*
X0315783Y0126216D01*
X0314328Y0125811D01*
X0312814Y0125661D01*
X0311296Y0125773D01*
X0309830Y0126143D01*
X0308469Y0126757D01*
X0305402Y0128457D01*
X0302712Y0130611D01*
X0300484Y0133153D01*
X0299433Y0135063D01*
X0298857Y0137128D01*
X0298782Y0139257D01*
X0298744Y0143490D01*
X0297884Y0147652D01*
X0296155Y0151346D01*
X0296252Y0152414D01*
X0296321Y0153508D01*
X0296362Y0154629D01*
X0296371Y0155778D01*
X0296347Y0156957D01*
X0296288Y0158168D01*
X0296192Y0159412D01*
X0296058Y0160690D01*
X0295883Y0162005D01*
X0295665Y0163357D01*
X0295403Y0164747D01*
X0295095Y0166179D01*
X0294739Y0167652D01*
X0294332Y0169169D01*
X0293873Y0170731D01*
X0293361Y0172340D01*
X0292793Y0173996D01*
X0292167Y0175703D01*
X0291481Y0177460D01*
X0290734Y0179270D01*
X0289923Y0181134D01*
X0289048Y0183053D01*
X0288105Y0185030D01*
X0287093Y0187065D01*
X0284733Y0190960D01*
X0281557Y0194357D01*
X0277692Y0197121D01*
X0273291Y0199141D01*
X0268530Y0200337D01*
X0263599Y0200660D01*
X0261106Y0200594D01*
X0258556Y0200389D01*
X0255952Y0200051D01*
X0253294Y0199585D01*
X0250585Y0198995D01*
X0247826Y0198288D01*
X0245021Y0197467D01*
X0242169Y0196537D01*
X0239275Y0195505D01*
X0236339Y0194374D01*
X0233364Y0193149D01*
X0230351Y0191836D01*
X0227302Y0190439D01*
X0224220Y0188964D01*
X0221106Y0187415D01*
X0217962Y0185798D01*
X0214790Y0184117D01*
X0211593Y0182377D01*
X0208372Y0180584D01*
X0205129Y0178742D01*
X0201865Y0176856D01*
X0198584Y0174931D01*
X0195287Y0172972D01*
X0191975Y0170985D01*
X0188653Y0168971D01*
X0185325Y0166936D01*
X0181994Y0164883D01*
X0178663Y0162816D01*
X0175335Y0160741D01*
X0172014Y0158662D01*
X0168701Y0156584D01*
X0165401Y0154512D01*
X0162117Y0152449D01*
X0158850Y0150401D01*
X0155606Y0148373D01*
X0152385Y0146368D01*
X0149192Y0144393D01*
X0146030Y0142450D01*
X0142902Y0140545D01*
X0139810Y0138683D01*
X0136758Y0136869D01*
X0133748Y0135106D01*
X0130785Y0133399D01*
X0127870Y0131754D01*
X0125008Y0130175D01*
X0122200Y0128666D01*
X0119451Y0127232D01*
X0116762Y0125877D01*
X0115341Y0125152D01*
X0113926Y0124386D01*
X0112519Y0123581D01*
X0111118Y0122741D01*
X0109725Y0121867D01*
X0108338Y0120963D01*
X0106957Y0120030D01*
X0105582Y0119071D01*
X0104213Y0118089D01*
X0102850Y0117086D01*
X0101493Y0116064D01*
X0100141Y0115026D01*
X0098794Y0113975D01*
X0097452Y0112912D01*
X0096115Y0111841D01*
X0094783Y0110764D01*
X0093455Y0109683D01*
X0092131Y0108601D01*
X0090812Y0107520D01*
X0089497Y0106443D01*
X0088185Y0105372D01*
X0086877Y0104310D01*
X0085572Y0103258D01*
X0084270Y0102221D01*
X0082972Y0101201D01*
X0081678Y0100202D01*
X0080390Y0099227D01*
X0079107Y0098277D01*
X0077830Y0097355D01*
X0076559Y0096461D01*
X0075296Y0095598D01*
X0074040Y0094769D01*
X0072792Y0093974D01*
X0071553Y0093216D01*
X0070323Y0092497D01*
X0069103Y0091819D01*
X0067892Y0091183D01*
X0066693Y0090592D01*
X0065504Y0090048D01*
X0064327Y0089552D01*
X0063162Y0089106D01*
X0062010Y0088713D01*
X0060871Y0088373D01*
X0059746Y0088090D01*
X0058634Y0087865D01*
X0057538Y0087700D01*
X0056457Y0087597D01*
X0055391Y0087558D01*
X0054920Y0087567D01*
X0054444Y0087597D01*
X0053962Y0087650D01*
X0053474Y0087724D01*
X0052981Y0087819D01*
X0052483Y0087935D01*
X0051980Y0088072D01*
X0051472Y0088228D01*
X0050960Y0088405D01*
X0050444Y0088600D01*
X0049924Y0088815D01*
X0049399Y0089049D01*
X0048871Y0089301D01*
X0048340Y0089571D01*
X0047805Y0089858D01*
X0047268Y0090163D01*
X0046727Y0090485D01*
X0046184Y0090824D01*
X0045639Y0091178D01*
X0045091Y0091549D01*
X0044541Y0091935D01*
X0043989Y0092337D01*
X0043436Y0092753D01*
X0042881Y0093184D01*
X0029857Y0105477D01*
X0029339Y0105991D01*
X0028826Y0106499D01*
X0028317Y0107002D01*
X0027811Y0107498D01*
X0027308Y0107987D01*
X0026807Y0108468D01*
X0026308Y0108939D01*
X0025809Y0109401D01*
X0025310Y0109851D01*
X0024810Y0110291D01*
X0024309Y0110718D01*
X0023806Y0111132D01*
X0023300Y0111533D01*
X0022790Y0111918D01*
X0022276Y0112289D01*
X0021757Y0112643D01*
X0021232Y0112980D01*
X0020701Y0113299D01*
X0020163Y0113599D01*
X0019617Y0113881D01*
X0019063Y0114142D01*
X0018500Y0114381D01*
X0017926Y0114600D01*
X0017342Y0114795D01*
X0015797Y0115144D01*
X0014206Y0115228D01*
X0012625Y0115045D01*
X0011110Y0114602D01*
X0009714Y0113913D01*
X0007578Y0111977D01*
X0005920Y0109695D01*
X0004809Y0107161D01*
X0004282Y0105698D01*
X0003854Y0104196D01*
X0003523Y0102655D01*
X0003287Y0101079D01*
X0003143Y0099469D01*
X0003089Y0097826D01*
X0003124Y0096152D01*
X0003244Y0094450D01*
X0003448Y0092721D01*
X0003733Y0090966D01*
X0004097Y0089188D01*
X0004538Y0087388D01*
X0005054Y0085569D01*
X0005643Y0083731D01*
X0006302Y0081877D01*
X0007028Y0080008D01*
X0007821Y0078127D01*
X0008678Y0076235D01*
X0009596Y0074333D01*
X0010573Y0072424D01*
X0011608Y0070510D01*
X0012697Y0068591D01*
X0013839Y0066671D01*
X0015032Y0064750D01*
X0033073Y0042338D01*
M02*
