G75*
%MOIN*%
%OFA0B0*%
%FSLAX25Y25*%
%IPPOS*%
%LPD*%
%AMOC8*
5,1,8,0,0,1.08239X$1,22.5*
%
%ADD10R,0.05512X0.04724*%
%ADD11R,0.04724X0.05512*%
%ADD12R,0.05118X0.06102*%
D10*
X0264050Y0106644D03*
X0264050Y0118456D03*
D11*
G36*
X0087581Y0058530D02*
X0083491Y0060892D01*
X0086247Y0065664D01*
X0090337Y0063302D01*
X0087581Y0058530D01*
G37*
G36*
X0077353Y0064436D02*
X0073263Y0066798D01*
X0076019Y0071570D01*
X0080109Y0069208D01*
X0077353Y0064436D01*
G37*
G36*
X0170447Y0085815D02*
X0174316Y0088525D01*
X0177477Y0084011D01*
X0173608Y0081301D01*
X0170447Y0085815D01*
G37*
G36*
X0180122Y0092589D02*
X0183991Y0095299D01*
X0187152Y0090785D01*
X0183283Y0088075D01*
X0180122Y0092589D01*
G37*
D12*
G36*
X0211918Y0067173D02*
X0213669Y0071982D01*
X0219402Y0069895D01*
X0217651Y0065086D01*
X0211918Y0067173D01*
G37*
G36*
X0205858Y0050525D02*
X0207609Y0055334D01*
X0213342Y0053247D01*
X0211591Y0048438D01*
X0205858Y0050525D01*
G37*
G36*
X0235270Y0039820D02*
X0237021Y0044629D01*
X0242754Y0042542D01*
X0241003Y0037733D01*
X0235270Y0039820D01*
G37*
G36*
X0241329Y0056468D02*
X0243080Y0061277D01*
X0248813Y0059190D01*
X0247062Y0054381D01*
X0241329Y0056468D01*
G37*
M02*
