G75*
%MOIN*%
%OFA0B0*%
%FSLAX25Y25*%
%IPPOS*%
%LPD*%
%AMOC8*
5,1,8,0,0,1.08239X$1,22.5*
%
%ADD10R,0.07099X0.08674*%
%ADD11C,0.63800*%
%ADD12R,0.20800X0.20800*%
%ADD13C,0.00500*%
%ADD14R,0.06900X0.02900*%
%ADD15C,0.03600*%
D10*
X0014788Y0092050D03*
X0025812Y0092050D03*
X0185288Y0107300D03*
X0196312Y0107300D03*
X0259038Y0136550D03*
X0270062Y0136550D03*
D11*
X0115928Y0052085D03*
D12*
X0065928Y0052085D03*
X0165928Y0052085D03*
D13*
X0145928Y0052085D02*
X0145739Y0048727D01*
X0145176Y0045410D01*
X0144244Y0042177D01*
X0142957Y0039069D01*
X0141330Y0036124D01*
X0139383Y0033381D01*
X0137141Y0030872D01*
X0134633Y0028630D01*
X0131889Y0026684D01*
X0128944Y0025056D01*
X0125836Y0023769D01*
X0122604Y0022838D01*
X0119287Y0022274D01*
X0115928Y0022085D01*
X0112569Y0022274D01*
X0109252Y0022838D01*
X0106020Y0023769D01*
X0102911Y0025056D01*
X0099967Y0026684D01*
X0097223Y0028630D01*
X0094715Y0030872D01*
X0092473Y0033381D01*
X0090526Y0036124D01*
X0088899Y0039069D01*
X0087611Y0042177D01*
X0086680Y0045410D01*
X0086117Y0048727D01*
X0085928Y0052085D01*
X0086117Y0055444D01*
X0086680Y0058761D01*
X0087611Y0061994D01*
X0088899Y0065102D01*
X0090526Y0068046D01*
X0092473Y0070790D01*
X0094715Y0073299D01*
X0097223Y0075540D01*
X0099967Y0077487D01*
X0102911Y0079114D01*
X0106020Y0080402D01*
X0109252Y0081333D01*
X0112569Y0081897D01*
X0115928Y0082085D01*
X0119287Y0081897D01*
X0122604Y0081333D01*
X0125836Y0080402D01*
X0128944Y0079114D01*
X0131889Y0077487D01*
X0134633Y0075540D01*
X0137141Y0073299D01*
X0139383Y0070790D01*
X0141330Y0068046D01*
X0142957Y0065102D01*
X0144244Y0061994D01*
X0145176Y0058761D01*
X0145739Y0055444D01*
X0145928Y0052085D01*
X0145924Y0052150D02*
X0085932Y0052150D01*
X0085960Y0052648D02*
X0145896Y0052648D01*
X0145868Y0053147D02*
X0085988Y0053147D01*
X0086016Y0053645D02*
X0145840Y0053645D01*
X0145812Y0054144D02*
X0086044Y0054144D01*
X0086072Y0054642D02*
X0145784Y0054642D01*
X0145756Y0055141D02*
X0086100Y0055141D01*
X0086150Y0055639D02*
X0145706Y0055639D01*
X0145622Y0056138D02*
X0086234Y0056138D01*
X0086319Y0056636D02*
X0145537Y0056636D01*
X0145452Y0057135D02*
X0086404Y0057135D01*
X0086489Y0057633D02*
X0145367Y0057633D01*
X0145283Y0058132D02*
X0086573Y0058132D01*
X0086658Y0058630D02*
X0145198Y0058630D01*
X0145070Y0059129D02*
X0086786Y0059129D01*
X0086930Y0059627D02*
X0144926Y0059627D01*
X0144783Y0060126D02*
X0087073Y0060126D01*
X0087217Y0060624D02*
X0144639Y0060624D01*
X0144495Y0061123D02*
X0087361Y0061123D01*
X0087504Y0061621D02*
X0144352Y0061621D01*
X0144192Y0062120D02*
X0087664Y0062120D01*
X0087870Y0062618D02*
X0143986Y0062618D01*
X0143779Y0063117D02*
X0088077Y0063117D01*
X0088283Y0063615D02*
X0143573Y0063615D01*
X0143366Y0064114D02*
X0088490Y0064114D01*
X0088696Y0064612D02*
X0143160Y0064612D01*
X0142952Y0065111D02*
X0088904Y0065111D01*
X0089179Y0065609D02*
X0142677Y0065609D01*
X0142401Y0066108D02*
X0089455Y0066108D01*
X0089730Y0066606D02*
X0142125Y0066606D01*
X0141850Y0067105D02*
X0090006Y0067105D01*
X0090281Y0067603D02*
X0141574Y0067603D01*
X0141290Y0068102D02*
X0090566Y0068102D01*
X0090919Y0068601D02*
X0140937Y0068601D01*
X0140583Y0069099D02*
X0091273Y0069099D01*
X0091627Y0069598D02*
X0140229Y0069598D01*
X0139875Y0070096D02*
X0091981Y0070096D01*
X0092334Y0070595D02*
X0139522Y0070595D01*
X0139112Y0071093D02*
X0092744Y0071093D01*
X0093189Y0071592D02*
X0138667Y0071592D01*
X0138221Y0072090D02*
X0093635Y0072090D01*
X0094080Y0072589D02*
X0137776Y0072589D01*
X0137330Y0073087D02*
X0094526Y0073087D01*
X0095036Y0073586D02*
X0136820Y0073586D01*
X0136262Y0074084D02*
X0095594Y0074084D01*
X0096152Y0074583D02*
X0135704Y0074583D01*
X0135147Y0075081D02*
X0096709Y0075081D01*
X0097279Y0075580D02*
X0134577Y0075580D01*
X0133875Y0076078D02*
X0097981Y0076078D01*
X0098684Y0076577D02*
X0133172Y0076577D01*
X0132470Y0077075D02*
X0099386Y0077075D01*
X0100124Y0077574D02*
X0131732Y0077574D01*
X0130830Y0078072D02*
X0101026Y0078072D01*
X0101928Y0078571D02*
X0129928Y0078571D01*
X0129026Y0079069D02*
X0102830Y0079069D01*
X0104006Y0079568D02*
X0127850Y0079568D01*
X0126647Y0080066D02*
X0105209Y0080066D01*
X0106585Y0080565D02*
X0125271Y0080565D01*
X0123541Y0081063D02*
X0108315Y0081063D01*
X0110597Y0081562D02*
X0121258Y0081562D01*
X0116375Y0082060D02*
X0115481Y0082060D01*
X0085952Y0051651D02*
X0145904Y0051651D01*
X0145876Y0051153D02*
X0085980Y0051153D01*
X0086008Y0050654D02*
X0145848Y0050654D01*
X0145820Y0050156D02*
X0086036Y0050156D01*
X0086064Y0049657D02*
X0145792Y0049657D01*
X0145764Y0049159D02*
X0086092Y0049159D01*
X0086128Y0048660D02*
X0145728Y0048660D01*
X0145643Y0048162D02*
X0086213Y0048162D01*
X0086297Y0047663D02*
X0145559Y0047663D01*
X0145474Y0047165D02*
X0086382Y0047165D01*
X0086467Y0046666D02*
X0145389Y0046666D01*
X0145305Y0046168D02*
X0086551Y0046168D01*
X0086636Y0045669D02*
X0145220Y0045669D01*
X0145107Y0045170D02*
X0086749Y0045170D01*
X0086893Y0044672D02*
X0144963Y0044672D01*
X0144820Y0044173D02*
X0087036Y0044173D01*
X0087180Y0043675D02*
X0144676Y0043675D01*
X0144532Y0043176D02*
X0087324Y0043176D01*
X0087467Y0042678D02*
X0144389Y0042678D01*
X0144245Y0042179D02*
X0087611Y0042179D01*
X0087817Y0041681D02*
X0144039Y0041681D01*
X0143832Y0041182D02*
X0088023Y0041182D01*
X0088230Y0040684D02*
X0143626Y0040684D01*
X0143419Y0040185D02*
X0088436Y0040185D01*
X0088643Y0039687D02*
X0143213Y0039687D01*
X0143006Y0039188D02*
X0088849Y0039188D01*
X0089108Y0038690D02*
X0142747Y0038690D01*
X0142472Y0038191D02*
X0089384Y0038191D01*
X0089659Y0037693D02*
X0142196Y0037693D01*
X0141921Y0037194D02*
X0089935Y0037194D01*
X0090210Y0036696D02*
X0141645Y0036696D01*
X0141370Y0036197D02*
X0090486Y0036197D01*
X0090828Y0035699D02*
X0141028Y0035699D01*
X0140674Y0035200D02*
X0091182Y0035200D01*
X0091536Y0034702D02*
X0140320Y0034702D01*
X0139966Y0034203D02*
X0091889Y0034203D01*
X0092243Y0033705D02*
X0139613Y0033705D01*
X0139227Y0033206D02*
X0092629Y0033206D01*
X0093074Y0032708D02*
X0138781Y0032708D01*
X0138336Y0032209D02*
X0093520Y0032209D01*
X0093965Y0031711D02*
X0137890Y0031711D01*
X0137445Y0031212D02*
X0094411Y0031212D01*
X0094892Y0030714D02*
X0136964Y0030714D01*
X0136406Y0030215D02*
X0095450Y0030215D01*
X0096008Y0029717D02*
X0135848Y0029717D01*
X0135290Y0029218D02*
X0096566Y0029218D01*
X0097124Y0028720D02*
X0134732Y0028720D01*
X0134056Y0028221D02*
X0097800Y0028221D01*
X0098503Y0027723D02*
X0133353Y0027723D01*
X0132650Y0027224D02*
X0099205Y0027224D01*
X0099908Y0026726D02*
X0131948Y0026726D01*
X0131063Y0026227D02*
X0100793Y0026227D01*
X0101695Y0025729D02*
X0130161Y0025729D01*
X0129259Y0025230D02*
X0102597Y0025230D01*
X0103696Y0024732D02*
X0128160Y0024732D01*
X0126957Y0024233D02*
X0104899Y0024233D01*
X0106139Y0023734D02*
X0125717Y0023734D01*
X0123986Y0023236D02*
X0107869Y0023236D01*
X0109842Y0022737D02*
X0122014Y0022737D01*
X0118662Y0022239D02*
X0113194Y0022239D01*
D14*
X0262200Y0069300D03*
X0262200Y0074300D03*
X0262200Y0079300D03*
X0262200Y0084300D03*
X0291400Y0084300D03*
X0291400Y0079300D03*
X0291400Y0074300D03*
X0291400Y0069300D03*
D15*
X0081800Y0041800D03*
X0036800Y0091800D03*
X0181800Y0096800D03*
X0216800Y0051800D03*
X0301800Y0069300D03*
X0271800Y0126800D03*
M02*
