G75*
%MOIN*%
%OFA0B0*%
%FSLAX25Y25*%
%IPPOS*%
%LPD*%
%AMOC8*
5,1,8,0,0,1.08239X$1,22.5*
%
%ADD10C,0.00098*%
D10*
X0032082Y0041861D02*
X0055327Y0023101D01*
X0057348Y0021842D01*
X0059368Y0020586D01*
X0061390Y0019336D01*
X0063417Y0018097D01*
X0065453Y0016872D01*
X0067501Y0015666D01*
X0069564Y0014483D01*
X0071646Y0013328D01*
X0073749Y0012203D01*
X0075877Y0011114D01*
X0078034Y0010064D01*
X0080222Y0009057D01*
X0082445Y0008098D01*
X0084705Y0007191D01*
X0087008Y0006340D01*
X0089354Y0005549D01*
X0091749Y0004822D01*
X0094194Y0004163D01*
X0096694Y0003576D01*
X0099252Y0003066D01*
X0101871Y0002636D01*
X0104553Y0002291D01*
X0107303Y0002034D01*
X0110124Y0001871D01*
X0113015Y0001804D01*
X0115977Y0001836D01*
X0119012Y0001972D01*
X0122125Y0002214D01*
X0125318Y0002566D01*
X0128596Y0003031D01*
X0131962Y0003612D01*
X0135420Y0004314D01*
X0138972Y0005139D01*
X0142623Y0006091D01*
X0146376Y0007173D01*
X0150234Y0008389D01*
X0154201Y0009743D01*
X0158281Y0011236D01*
X0162477Y0012874D01*
X0166792Y0014659D01*
X0171230Y0016595D01*
X0175795Y0018685D01*
X0180490Y0020933D01*
X0185319Y0023342D01*
X0190284Y0025915D01*
X0195390Y0028656D01*
X0200641Y0031569D01*
X0206039Y0034656D01*
X0207152Y0035272D01*
X0208266Y0035829D01*
X0209381Y0036330D01*
X0210498Y0036776D01*
X0211616Y0037167D01*
X0212736Y0037505D01*
X0213859Y0037793D01*
X0214984Y0038030D01*
X0216112Y0038220D01*
X0217244Y0038362D01*
X0218379Y0038459D01*
X0219517Y0038511D01*
X0220660Y0038522D01*
X0221808Y0038491D01*
X0222960Y0038420D01*
X0224116Y0038311D01*
X0225279Y0038165D01*
X0226446Y0037983D01*
X0227620Y0037768D01*
X0228800Y0037519D01*
X0229986Y0037240D01*
X0231180Y0036931D01*
X0232380Y0036594D01*
X0233587Y0036229D01*
X0234800Y0035839D01*
X0236015Y0035423D01*
X0237233Y0034984D01*
X0238453Y0034523D01*
X0239674Y0034042D01*
X0240896Y0033542D01*
X0242120Y0033025D01*
X0243345Y0032493D01*
X0244569Y0031947D01*
X0245794Y0031390D01*
X0247019Y0030822D01*
X0248243Y0030245D01*
X0249467Y0029661D01*
X0250689Y0029072D01*
X0251910Y0028479D01*
X0253129Y0027885D01*
X0254346Y0027289D01*
X0255561Y0026695D01*
X0256773Y0026104D01*
X0257982Y0025518D01*
X0259188Y0024937D01*
X0260390Y0024365D01*
X0261588Y0023802D01*
X0262782Y0023250D01*
X0263974Y0022710D01*
X0265165Y0022181D01*
X0266354Y0021667D01*
X0267543Y0021169D01*
X0268730Y0020691D01*
X0269916Y0020234D01*
X0271100Y0019802D01*
X0272281Y0019396D01*
X0273460Y0019019D01*
X0274637Y0018673D01*
X0275810Y0018362D01*
X0276981Y0018086D01*
X0278148Y0017850D01*
X0279311Y0017654D01*
X0280471Y0017502D01*
X0281626Y0017397D01*
X0282777Y0017339D01*
X0283924Y0017333D01*
X0285066Y0017380D01*
X0286202Y0017483D01*
X0287334Y0017644D01*
X0288460Y0017866D01*
X0289580Y0018152D01*
X0290694Y0018502D01*
X0291791Y0018918D01*
X0292861Y0019399D01*
X0293904Y0019944D01*
X0294920Y0020555D01*
X0295910Y0021234D01*
X0296873Y0021981D01*
X0297809Y0022797D01*
X0298720Y0023683D01*
X0299604Y0024641D01*
X0300463Y0025671D01*
X0301295Y0026774D01*
X0302103Y0027952D01*
X0302885Y0029204D01*
X0303642Y0030534D01*
X0304373Y0031941D01*
X0305080Y0033426D01*
X0305763Y0034991D01*
X0306421Y0036636D01*
X0307054Y0038362D01*
X0307664Y0040172D01*
X0308249Y0042065D01*
X0308811Y0044042D01*
X0309349Y0046105D01*
X0309864Y0048255D01*
X0311429Y0059723D01*
X0310765Y0071262D01*
X0307893Y0082520D01*
X0308104Y0084756D01*
X0306490Y0101720D01*
X0305979Y0104571D01*
X0308169Y0103211D01*
X0312661Y0101337D01*
X0317468Y0100286D01*
X0320247Y0100200D01*
X0322994Y0100592D01*
X0325608Y0101450D01*
X0327994Y0102743D01*
X0328775Y0103304D01*
X0329544Y0103913D01*
X0330300Y0104568D01*
X0331044Y0105268D01*
X0331776Y0106010D01*
X0332497Y0106794D01*
X0333206Y0107619D01*
X0333904Y0108482D01*
X0334591Y0109382D01*
X0335267Y0110319D01*
X0335933Y0111289D01*
X0336590Y0112293D01*
X0337236Y0113329D01*
X0337873Y0114395D01*
X0338501Y0115490D01*
X0339120Y0116612D01*
X0339730Y0117760D01*
X0340332Y0118933D01*
X0340926Y0120128D01*
X0341512Y0121346D01*
X0342090Y0122583D01*
X0342661Y0123840D01*
X0343225Y0125114D01*
X0343783Y0126404D01*
X0352576Y0157799D01*
X0352765Y0160201D01*
X0352843Y0162641D01*
X0352819Y0165105D01*
X0352703Y0167581D01*
X0352502Y0170057D01*
X0352227Y0172520D01*
X0351886Y0174958D01*
X0351489Y0177359D01*
X0351045Y0179711D01*
X0350563Y0182000D01*
X0350052Y0184215D01*
X0349522Y0186343D01*
X0348982Y0188372D01*
X0348440Y0190290D01*
X0347906Y0192084D01*
X0347390Y0193741D01*
X0346900Y0195250D01*
X0346445Y0196597D01*
X0346036Y0197771D01*
X0345680Y0198760D01*
X0345387Y0199550D01*
X0345167Y0200130D01*
X0345028Y0200487D01*
X0344979Y0200609D01*
X0344692Y0201162D01*
X0344291Y0201654D01*
X0343791Y0202065D01*
X0343213Y0202379D01*
X0342578Y0202586D01*
X0341910Y0202676D01*
X0341236Y0202646D01*
X0340581Y0202497D01*
X0339971Y0202236D01*
X0339429Y0201871D01*
X0328554Y0192927D01*
X0328105Y0192477D01*
X0327760Y0191956D01*
X0327534Y0191385D01*
X0327434Y0190784D01*
X0327465Y0190178D01*
X0327626Y0189588D01*
X0327658Y0189502D01*
X0327750Y0189248D01*
X0327895Y0188837D01*
X0328089Y0188279D01*
X0328325Y0187584D01*
X0328597Y0186763D01*
X0328899Y0185824D01*
X0329225Y0184778D01*
X0329569Y0183634D01*
X0329926Y0182404D01*
X0330289Y0181096D01*
X0330652Y0179722D01*
X0331010Y0178290D01*
X0331356Y0176811D01*
X0331685Y0175294D01*
X0331991Y0173750D01*
X0332267Y0172189D01*
X0332508Y0170621D01*
X0332707Y0169055D01*
X0332860Y0167502D01*
X0332959Y0165972D01*
X0332999Y0164474D01*
X0332974Y0163018D01*
X0332878Y0161615D01*
X0327802Y0141778D01*
X0327468Y0140967D01*
X0327124Y0140167D01*
X0326770Y0139381D01*
X0326409Y0138609D01*
X0326040Y0137852D01*
X0325665Y0137112D01*
X0325285Y0136390D01*
X0324900Y0135688D01*
X0324513Y0135006D01*
X0324123Y0134345D01*
X0323731Y0133708D01*
X0323340Y0133094D01*
X0322949Y0132507D01*
X0322559Y0131946D01*
X0322173Y0131413D01*
X0321790Y0130909D01*
X0321411Y0130436D01*
X0321038Y0129995D01*
X0320672Y0129587D01*
X0320313Y0129213D01*
X0319963Y0128875D01*
X0319622Y0128573D01*
X0319292Y0128310D01*
X0318973Y0128085D01*
X0317619Y0127426D01*
X0316149Y0127012D01*
X0314620Y0126860D01*
X0313087Y0126975D01*
X0311606Y0127352D01*
X0310232Y0127978D01*
X0307134Y0129712D01*
X0304417Y0131909D01*
X0302167Y0134503D01*
X0301105Y0136450D01*
X0300523Y0138558D01*
X0300448Y0140729D01*
X0300410Y0145047D01*
X0299541Y0149293D01*
X0297795Y0153061D01*
X0297893Y0154151D01*
X0297963Y0155266D01*
X0298003Y0156410D01*
X0298013Y0157582D01*
X0297988Y0158785D01*
X0297929Y0160020D01*
X0297832Y0161289D01*
X0297697Y0162593D01*
X0297520Y0163934D01*
X0297300Y0165313D01*
X0297035Y0166732D01*
X0296724Y0168192D01*
X0296364Y0169695D01*
X0295953Y0171243D01*
X0295490Y0172836D01*
X0294973Y0174477D01*
X0294399Y0176167D01*
X0293766Y0177907D01*
X0293074Y0179700D01*
X0292319Y0181546D01*
X0291501Y0183447D01*
X0290616Y0185405D01*
X0289664Y0187422D01*
X0288642Y0189498D01*
X0286259Y0193471D01*
X0283051Y0196937D01*
X0279147Y0199756D01*
X0274702Y0201817D01*
X0269893Y0203036D01*
X0264913Y0203367D01*
X0262395Y0203299D01*
X0259820Y0203090D01*
X0257189Y0202745D01*
X0254505Y0202269D01*
X0251769Y0201668D01*
X0248983Y0200946D01*
X0246149Y0200109D01*
X0243269Y0199161D01*
X0240346Y0198107D01*
X0237380Y0196953D01*
X0234375Y0195704D01*
X0231332Y0194365D01*
X0228253Y0192940D01*
X0225140Y0191435D01*
X0221995Y0189855D01*
X0218820Y0188205D01*
X0215616Y0186491D01*
X0212387Y0184716D01*
X0209133Y0182886D01*
X0205858Y0181007D01*
X0202562Y0179083D01*
X0199248Y0177120D01*
X0195917Y0175122D01*
X0192573Y0173094D01*
X0189218Y0171041D01*
X0185856Y0168964D01*
X0182492Y0166870D01*
X0179128Y0164762D01*
X0175767Y0162645D01*
X0172412Y0160524D01*
X0169066Y0158405D01*
X0165733Y0156290D01*
X0162416Y0154186D01*
X0159117Y0152097D01*
X0155840Y0150028D01*
X0152587Y0147983D01*
X0149362Y0145968D01*
X0146168Y0143986D01*
X0143009Y0142043D01*
X0139886Y0140144D01*
X0136803Y0138293D01*
X0133764Y0136494D01*
X0130771Y0134754D01*
X0127827Y0133075D01*
X0124936Y0131464D01*
X0122100Y0129925D01*
X0119323Y0128462D01*
X0116608Y0127080D01*
X0115172Y0126340D01*
X0113743Y0125559D01*
X0112322Y0124738D01*
X0110908Y0123881D01*
X0109500Y0122990D01*
X0108099Y0122067D01*
X0106704Y0121116D01*
X0105316Y0120138D01*
X0103933Y0119136D01*
X0102557Y0118112D01*
X0101186Y0117070D01*
X0099820Y0116011D01*
X0098460Y0114939D01*
X0097105Y0113855D01*
X0095754Y0112762D01*
X0094409Y0111663D01*
X0093068Y0110561D01*
X0091731Y0109457D01*
X0090398Y0108354D01*
X0089069Y0107255D01*
X0087745Y0106163D01*
X0086423Y0105079D01*
X0085105Y0104007D01*
X0083791Y0102948D01*
X0082480Y0101908D01*
X0081173Y0100889D01*
X0079872Y0099895D01*
X0078576Y0098926D01*
X0077286Y0097984D01*
X0076003Y0097073D01*
X0074727Y0096193D01*
X0073459Y0095347D01*
X0072198Y0094536D01*
X0070947Y0093763D01*
X0069704Y0093030D01*
X0068472Y0092338D01*
X0067249Y0091689D01*
X0066037Y0091086D01*
X0064837Y0090531D01*
X0063648Y0090025D01*
X0062472Y0089570D01*
X0061308Y0089169D01*
X0060158Y0088823D01*
X0059021Y0088534D01*
X0057899Y0088304D01*
X0056791Y0088136D01*
X0055699Y0088031D01*
X0054623Y0087991D01*
X0054148Y0088000D01*
X0053666Y0088031D01*
X0053179Y0088085D01*
X0052687Y0088160D01*
X0052189Y0088257D01*
X0051686Y0088376D01*
X0051178Y0088515D01*
X0050665Y0088674D01*
X0050148Y0088854D01*
X0049626Y0089054D01*
X0049101Y0089273D01*
X0048571Y0089512D01*
X0048038Y0089769D01*
X0047501Y0090044D01*
X0046961Y0090337D01*
X0046419Y0090648D01*
X0045873Y0090977D01*
X0045324Y0091322D01*
X0044773Y0091684D01*
X0044220Y0092062D01*
X0043664Y0092456D01*
X0043107Y0092866D01*
X0042548Y0093290D01*
X0041988Y0093729D01*
X0028834Y0106270D01*
X0028311Y0106794D01*
X0027792Y0107313D01*
X0027278Y0107826D01*
X0026767Y0108332D01*
X0026259Y0108831D01*
X0025753Y0109321D01*
X0025249Y0109802D01*
X0024745Y0110272D01*
X0024241Y0110732D01*
X0023736Y0111181D01*
X0023230Y0111616D01*
X0022722Y0112039D01*
X0022211Y0112447D01*
X0021696Y0112841D01*
X0021177Y0113219D01*
X0020652Y0113580D01*
X0020123Y0113923D01*
X0019586Y0114249D01*
X0019043Y0114556D01*
X0018492Y0114843D01*
X0017932Y0115109D01*
X0017363Y0115354D01*
X0016784Y0115576D01*
X0016194Y0115776D01*
X0014633Y0116131D01*
X0013026Y0116217D01*
X0011429Y0116031D01*
X0009899Y0115578D01*
X0008489Y0114876D01*
X0006332Y0112901D01*
X0004658Y0110573D01*
X0003535Y0107988D01*
X0003003Y0106496D01*
X0002571Y0104963D01*
X0002236Y0103392D01*
X0001998Y0101784D01*
X0001853Y0100141D01*
X0001798Y0098465D01*
X0001833Y0096758D01*
X0001954Y0095021D01*
X0002160Y0093257D01*
X0002448Y0091467D01*
X0002816Y0089654D01*
X0003262Y0087818D01*
X0003783Y0085962D01*
X0004377Y0084087D01*
X0005043Y0082196D01*
X0005777Y0080289D01*
X0006578Y0078370D01*
X0007443Y0076440D01*
X0008370Y0074500D01*
X0009357Y0072553D01*
X0010402Y0070600D01*
X0011502Y0068643D01*
X0012656Y0066684D01*
X0013860Y0064724D01*
X0032082Y0041861D01*
M02*
